<svg xmlns="http://www.w3.org/2000/svg" viewBox="0 0 600 400" preserveAspectRatio="xMidYMid slice">
  <defs>
    <linearGradient id="sky" x1="0" y1="0" x2="0" y2="1">
      <stop offset="0" stop-color="#E6F7FB"/>
      <stop offset="1" stop-color="#B0E0E6"/>
    </linearGradient>
  </defs>
  <rect width="600" height="400" fill="url(#sky)"/>
  <!-- distant mountain silhouette -->
  <path d="M0 280 L80 220 L160 260 L240 200 L340 250 L440 210 L540 240 L600 220 L600 400 L0 400 Z"
        fill="#B5C4D8" opacity="0.45"/>
  <path d="M0 320 L100 270 L180 290 L280 250 L380 290 L480 260 L600 280 L600 400 L0 400 Z"
        fill="#8AC5E0" opacity="0.5"/>

    <!-- dashboard panel -->
    <rect x="80" y="100" width="440" height="240" rx="12" fill="#FFFFFF"/>
    <!-- sidebar -->
    <rect x="80" y="100" width="90" height="240" rx="12 0 0 12" fill="#204593"/>
    <circle cx="105" cy="130" r="10" fill="#5A9BC5"/>
    <rect x="92" y="160" width="66" height="6" rx="2" fill="#5A9BC5" opacity="0.6"/>
    <rect x="92" y="180" width="66" height="6" rx="2" fill="#5A9BC5" opacity="0.4"/>
    <rect x="92" y="200" width="66" height="6" rx="2" fill="#5A9BC5" opacity="0.4"/>
    <rect x="92" y="220" width="66" height="6" rx="2" fill="#5A9BC5" opacity="0.4"/>
    <!-- main: top metric tiles -->
    <rect x="190" y="120" width="100" height="60" rx="6" fill="#E6F7FB"/>
    <rect x="200" y="130" width="40" height="6" rx="2" fill="#8095AD"/>
    <rect x="200" y="148" width="60" height="14" rx="2" fill="#204593"/>
    <rect x="300" y="120" width="100" height="60" rx="6" fill="#E6F7FB"/>
    <rect x="310" y="130" width="40" height="6" rx="2" fill="#8095AD"/>
    <rect x="310" y="148" width="60" height="14" rx="2" fill="#6B9B4A"/>
    <rect x="410" y="120" width="100" height="60" rx="6" fill="#E6F7FB"/>
    <rect x="420" y="130" width="40" height="6" rx="2" fill="#8095AD"/>
    <rect x="420" y="148" width="60" height="14" rx="2" fill="#2C5F7F"/>
    <!-- chart area -->
    <rect x="190" y="195" width="320" height="135" rx="6" fill="#E6F7FB"/>
    <polyline points="205,300 235,275 265,285 295,250 325,260 355,225 385,235 415,210 445,220 480,200"
              fill="none" stroke="#5A9BC5" stroke-width="3" stroke-linejoin="round"/>
    <polyline points="205,310 235,295 265,300 295,285 325,290 355,270 385,275 415,260 445,265 480,250"
              fill="none" stroke="#6B9B4A" stroke-width="3" stroke-linejoin="round" opacity="0.7"/>
    </svg>