<svg preserveAspectRatio="none" width="100%" height="100%" overflow="visible" style="display: block;" viewBox="0 0 127 118" fill="none" xmlns="http://www.w3.org/2000/svg">
<g id="Layer_1" clip-path="url(#clip0_319_289)">
<path id="Vector" d="M24.6673 37.869C24.6673 39.2496 25.7645 40.3613 27.127 40.3613H61.5446C62.9071 40.3613 64.0043 39.2496 64.0043 37.869C64.0043 36.4883 62.9071 35.3767 61.5446 35.3767H27.127C25.7645 35.3767 24.6673 36.4883 24.6673 37.869Z" fill="var(--fill-0, #1E1E1E)"/>
<path id="Vector_2" d="M73.825 45.346H39.4251C38.0626 45.346 36.9654 46.4577 36.9654 47.8383C36.9654 49.219 38.0626 50.3306 39.4251 50.3306H73.825C75.1875 50.3306 76.2847 49.219 76.2847 47.8383C76.2847 46.4577 75.1875 45.346 73.825 45.346Z" fill="var(--fill-0, #1E1E1E)"/>
<path id="Vector_3" d="M39.4077 60.2821H66.4463C67.8088 60.2821 68.9059 59.1704 68.9059 57.7897C68.9059 56.4091 67.8088 55.2974 66.4463 55.2974H39.4077C38.0451 55.2974 36.948 56.4091 36.948 57.7897C36.948 59.1704 38.0451 60.2821 39.4077 60.2821Z" fill="var(--fill-0, #1E1E1E)"/>
<path id="Vector_4" d="M39.4077 70.2513H66.4463C67.8088 70.2513 68.9059 69.1396 68.9059 67.759C68.9059 66.3783 67.8088 65.2667 66.4463 65.2667H39.4077C38.0451 65.2667 36.948 66.3783 36.948 67.759C36.948 69.1396 38.0451 70.2513 39.4077 70.2513Z" fill="var(--fill-0, #1E1E1E)"/>
<path id="Vector_5" d="M26.9678 80.2027H59.2265C60.5006 80.2027 61.5269 79.091 61.5269 77.7104C61.5269 76.3297 60.5006 75.2181 59.2265 75.2181H26.9678C25.6937 75.2181 24.6673 76.3297 24.6673 77.7104C24.6673 79.091 25.6937 80.2027 26.9678 80.2027Z" fill="var(--fill-0, #1E1E1E)"/>
<path id="Vector_6" d="M81.1866 67.7589C81.1866 66.3783 80.0895 65.2666 78.7269 65.2666H76.2673C74.9047 65.2666 73.8076 66.3783 73.8076 67.7589C73.8076 69.1396 74.9047 70.2513 76.2673 70.2513H78.7269C80.0895 70.2513 81.1866 69.1396 81.1866 67.7589Z" fill="var(--fill-0, #1E1E1E)"/>
<path id="Vector_7" d="M78.7269 55.2974H76.2673C74.9047 55.2974 73.8076 56.409 73.8076 57.7897C73.8076 59.1703 74.9047 60.282 76.2673 60.282H78.7269C80.0895 60.282 81.1866 59.1703 81.1866 57.7897C81.1866 56.409 80.0895 55.2974 78.7269 55.2974Z" fill="var(--fill-0, #1E1E1E)"/>
<path id="Vector_8" d="M86.1057 50.3127C87.4682 50.3127 88.5654 49.201 88.5654 47.8204C88.5654 46.4397 87.4682 45.3281 86.1057 45.3281H83.646C82.2835 45.3281 81.1864 46.4397 81.1864 47.8204C81.1864 49.201 82.2835 50.3127 83.646 50.3127H86.1057Z" fill="var(--fill-0, #1E1E1E)"/>
<path id="Vector_9" d="M22.2077 20.4227H19.748C18.3855 20.4227 17.2883 21.5344 17.2883 22.9151C17.2883 24.2957 18.3855 25.4074 19.748 25.4074H22.2077C23.5702 25.4074 24.6673 24.2957 24.6673 22.9151C24.6673 21.5344 23.5702 20.4227 22.2077 20.4227Z" fill="var(--fill-0, #1E1E1E)"/>
<path id="Vector_10" d="M34.4883 25.4253C35.8509 25.4253 36.948 24.3136 36.948 22.933C36.948 21.5524 35.8509 20.4407 34.4883 20.4407H32.0287C30.6661 20.4407 29.569 21.5524 29.569 22.933C29.569 24.3136 30.6661 25.4253 32.0287 25.4253H34.4883Z" fill="var(--fill-0, #1E1E1E)"/>
<path id="Vector_11" d="M46.7864 25.4253C48.149 25.4253 49.2461 24.3136 49.2461 22.933C49.2461 21.5524 48.149 20.4407 46.7864 20.4407H44.3267C42.9642 20.4407 41.8671 21.5524 41.8671 22.933C41.8671 24.3136 42.9642 25.4253 44.3267 25.4253H46.7864Z" fill="var(--fill-0, #1E1E1E)"/>
<path id="Vector_12" d="M70.8348 79.3958C70.8348 77.7641 70.2154 76.2401 69.0652 75.0925C66.7118 72.7078 62.9072 72.7078 60.5538 75.0925L44.504 91.3554C43.3715 92.5029 42.7345 94.0449 42.7345 95.6587C42.7345 97.2724 43.3538 98.8144 44.504 99.962L60.5538 116.225C61.6863 117.372 63.2081 118.018 64.8007 118.018C66.3932 118.018 67.915 117.39 69.0476 116.243C70.1801 115.095 70.8171 113.553 70.8171 111.939C70.8171 110.326 70.1978 108.784 69.0476 107.636L57.2624 95.6945L69.0476 83.7529C70.1801 82.6053 70.8171 81.0633 70.8171 79.4496L70.8348 79.3958ZM66.234 80.8302L53.0155 94.2243C52.2369 95.0132 52.2369 96.3042 53.0155 97.0931L66.234 110.487C66.6056 110.864 66.8179 111.384 66.8179 111.922C66.8179 112.459 66.6056 112.979 66.234 113.356C65.4731 114.127 64.1636 114.127 63.4027 113.356L47.353 97.0931C46.9814 96.7166 46.769 96.1966 46.769 95.6587C46.769 95.1208 46.9814 94.6008 47.353 94.2243L63.4027 77.9614C63.792 77.5669 64.3052 77.3697 64.8184 77.3697C65.3315 77.3697 65.8447 77.5669 66.234 77.9614C66.6056 78.3379 66.8179 78.8579 66.8179 79.3958C66.8179 79.9337 66.6056 80.4537 66.234 80.8302Z" fill="var(--fill-0, #75E1B3)"/>
<path id="Vector_13" d="M125.23 91.3375L109.181 75.0746C106.827 72.6898 103.023 72.6898 100.669 75.0746C99.5367 76.2221 98.8996 77.7641 98.8996 79.3779C98.8996 80.9916 99.519 82.5336 100.669 83.6812L112.454 95.6228L100.669 107.564C99.5367 108.712 98.8996 110.254 98.8996 111.868C98.8996 113.482 99.519 115.024 100.669 116.171C101.802 117.319 103.323 117.964 104.916 117.964C106.509 117.964 108.03 117.337 109.163 116.171L125.213 99.9082C126.345 98.7606 126.982 97.2186 126.982 95.6049C126.982 93.9912 126.363 92.4491 125.213 91.3016L125.23 91.3375ZM122.399 97.0931L106.349 113.356C105.589 114.127 104.279 114.127 103.518 113.356C103.147 112.979 102.934 112.459 102.934 111.922C102.934 111.384 103.147 110.864 103.518 110.487L116.737 97.0931C117.515 96.3042 117.515 95.0132 116.737 94.2243L103.518 80.8302C103.147 80.4537 102.934 79.9337 102.934 79.3958C102.934 78.8579 103.147 78.3379 103.518 77.9614C103.89 77.5848 104.421 77.3697 104.934 77.3697C105.447 77.3697 105.96 77.5669 106.349 77.9614L122.399 94.2243C122.771 94.6008 122.983 95.1208 122.983 95.6587C122.983 96.1966 122.771 96.7166 122.399 97.0931Z" fill="var(--fill-0, #75E1B3)"/>
<path id="Vector_14" d="M93.0071 73.676C89.9104 72.4926 86.4244 74.0884 85.2565 77.2442L73.2236 109.77C72.6574 111.294 72.7105 112.962 73.3829 114.432C74.0553 115.92 75.2409 117.05 76.745 117.623C77.4174 117.874 78.1429 118.018 78.8685 118.018C81.3635 118.018 83.6285 116.422 84.4956 114.055L96.5285 81.5296C97.6964 78.3738 96.1038 74.8594 93.0071 73.676ZM92.7771 80.0951L80.7442 112.621C80.3726 113.643 79.187 114.199 78.1606 113.804C77.1343 113.41 76.6034 112.244 76.9927 111.186L89.0256 78.6607C89.3265 77.8359 90.105 77.3338 90.9013 77.3338C91.1314 77.3338 91.3614 77.3697 91.6092 77.4594C92.6355 77.8538 93.1664 79.0193 92.7771 80.0772V80.0951Z" fill="var(--fill-0, #75E1B3)"/>
<path id="Vector_15" d="M14.5576 36.3733H10.9138C6.89666 36.3733 3.64385 33.1022 3.64385 29.1022C3.64385 25.6533 6.09679 22.6489 9.47402 21.9733C9.97172 21.8667 10.4161 21.5644 10.6827 21.1022C10.896 20.7467 10.9671 20.3378 10.9138 19.9289C10.9493 10.9333 18.2726 3.62667 27.2845 3.62667C32.4392 3.62667 37.2206 6.00889 40.3668 10.1867C40.7045 10.6489 41.2733 10.9156 41.8421 10.9156C45.7348 10.9156 49.3431 12.6578 51.7605 15.68C52.3826 16.4622 53.5202 16.5867 54.3201 15.9644C55.1022 15.3422 55.2266 14.1867 54.6045 13.4044C51.6716 9.74222 47.3879 7.53778 42.7131 7.28889C38.8737 2.64889 33.2924 0 27.2667 0C16.6551 0 7.92761 8.32 7.30548 18.7911C2.98618 20.3022 0 24.4089 0 29.0844C0 35.0933 4.8881 40 10.9138 40H14.5576C15.5708 40 16.3707 39.1822 16.3707 38.1867C16.3707 37.1911 15.553 36.3733 14.5576 36.3733Z" fill="var(--fill-0, #75E1B3)"/>
</g>
<defs>
<clipPath id="clip0_319_289">
<rect width="127" height="118" fill="white"/>
</clipPath>
</defs>
</svg>
