<svg preserveAspectRatio="none" width="100%" height="100%" overflow="visible" style="display: block;" viewBox="0 0 26 7" fill="none" xmlns="http://www.w3.org/2000/svg">
<g id="Group">
<path id="Vector" d="M5.35187 0.799677H2.61243C1.61127 0.799677 0.799677 1.60427 0.799677 2.59678V4.36972C0.799677 5.36223 1.61127 6.16683 2.61243 6.16683H5.35187C6.35303 6.16683 7.16462 5.36223 7.16462 4.36972V2.59678C7.16462 1.60427 6.35303 0.799677 5.35187 0.799677Z" stroke="var(--stroke-0, #75E1B3)" stroke-width="1.59935" stroke-miterlimit="10"/>
<path id="Vector_2" d="M14.0578 0.799733H11.3183C10.3172 0.799733 9.50558 1.60433 9.50558 2.59684V4.36977C9.50558 5.36229 10.3172 6.16688 11.3183 6.16688H14.0578C15.0589 6.16688 15.8705 5.36229 15.8705 4.36977V2.59684C15.8705 1.60433 15.0589 0.799733 14.0578 0.799733Z" stroke="var(--stroke-0, #75E1B3)" stroke-width="1.59935" stroke-miterlimit="10"/>
<path id="Vector_3" d="M22.7638 0.799733H20.0243C19.0232 0.799733 18.2116 1.60433 18.2116 2.59684V4.36977C18.2116 5.36229 19.0232 6.16688 20.0243 6.16688H22.7638C23.7649 6.16688 24.5765 5.36229 24.5765 4.36977V2.59684C24.5765 1.60433 23.7649 0.799733 22.7638 0.799733Z" stroke="var(--stroke-0, #75E1B3)" stroke-width="1.59935" stroke-miterlimit="10"/>
</g>
</svg>
