<svg preserveAspectRatio="none" width="100%" height="100%" overflow="visible" style="display: block;" viewBox="0 0 30 30" fill="none" xmlns="http://www.w3.org/2000/svg">
<g id="Group 57">
<circle id="Ellipse 13" cx="15" cy="15" r="15" fill="var(--fill-0, #1E1E1E)"/>
<path id="Vector" d="M21.9193 19.2433C21.2254 17.9853 20.0421 17.1649 18.338 16.7959C18.0853 16.7414 17.8172 16.7959 17.612 16.9465L16.208 17.9448C15.9399 18.136 15.5455 18.1638 15.2453 17.9993C13.7625 17.2061 12.5471 16.1533 11.6326 14.8682C11.4434 14.6086 11.4748 14.2668 11.6955 14.0339L12.8474 12.8171C13.0212 12.6392 13.084 12.4068 13.0212 12.1878C12.5793 10.6971 11.6326 9.67153 10.1812 9.07C9.94455 8.97439 9.67645 8.97439 9.43979 9.08389C8.71378 9.42574 8.00379 9.80873 7.34123 10.2323C7.08854 10.3963 6.96282 10.6698 7.00965 10.9432C7.48297 13.3906 9.01323 15.9615 11.4901 18.1082C13.967 20.2549 16.9334 21.5679 19.7572 21.9914C20.0728 22.0325 20.3883 21.923 20.5775 21.704C21.0669 21.1298 21.5082 20.5278 21.9026 19.8852C22.0296 19.6812 22.0296 19.4484 21.9193 19.2433Z" fill="var(--fill-0, white)"/>
</g>
</svg>
