<svg preserveAspectRatio="none" width="100%" height="100%" overflow="visible" style="display: block;" viewBox="0 0 81 82" fill="none" xmlns="http://www.w3.org/2000/svg">
<g id="Layer_1" clip-path="url(#clip0_319_237)">
<path id="Vector" d="M71.012 50.3134L68.4778 51.6774C68.4221 52.1751 68.255 52.6728 67.9858 53.1336H67.9765L66.5285 55.6313L53.802 77.5207C53.2822 78.4055 52.4467 79.0415 51.4535 79.3088C50.451 79.5668 49.4113 79.4378 48.5202 78.9216L32.8883 69.9631C31.9879 69.447 31.3474 68.6175 31.0782 67.6313C30.8183 66.6359 30.9482 65.6037 31.4681 64.7189L45.6519 40.3226C46.3666 39.0968 47.6662 38.4055 49.0122 38.4055C49.662 38.4055 50.3303 38.5714 50.9337 38.9216L63.0475 45.8617L65.6652 47.364L68.3014 45.9539C68.1622 45.8525 68.0137 45.7604 67.8559 45.6682L65.7023 44.4332L52.224 36.7005C51.0636 36.0369 49.7826 35.7788 48.5295 35.871H31.0318C29.7137 35.871 28.4883 36.2673 27.4673 36.9401C27.458 36.9493 27.4487 36.9493 27.4394 36.9493L12.2624 45.659C10.7679 46.5069 9.70036 47.8894 9.25479 49.5392C8.79995 51.1889 9.02273 52.9216 9.88601 54.4055L24.0698 78.8018C25.2673 80.8479 27.4394 81.9908 29.6765 81.9908C30.7719 81.9908 31.8765 81.7143 32.8883 81.1429L40.0545 77.023L47.2299 81.1429C48.2232 81.7051 49.3185 82 50.4417 82C50.9987 82 51.5649 81.9263 52.1219 81.7788C53.7834 81.3364 55.1665 80.2765 56.0298 78.8018L70.2137 54.4147C70.4086 54.0829 70.5664 53.7419 70.6871 53.3917C71.0584 52.3871 71.1605 51.3272 71.012 50.3134ZM31.598 78.9216C29.7508 79.9723 27.3744 79.3456 26.3069 77.5207L12.1231 53.1244C11.6033 52.2396 11.4733 51.1981 11.7425 50.2028C12.0117 49.2166 12.6522 48.3963 13.5434 47.8802L24.6639 41.5023C24.6268 41.7511 24.5897 42.0092 24.5897 42.2673V70.424C24.5897 73.9539 27.4765 76.8295 31.0318 76.8295H35.2461L31.598 78.9216ZM31.0318 74.2673C28.8968 74.2673 27.1609 72.5438 27.1609 70.424V42.2673C27.1609 40.1475 28.8968 38.424 31.0318 38.424H43.8696C43.7118 38.6267 43.5447 38.8203 43.4148 39.0507L29.2402 63.4378C27.458 66.4885 28.5162 70.4147 31.598 72.1751L35.2461 74.2673H31.0318Z" fill="var(--fill-0, #1E1E1E)"/>
<path id="Vector_2" d="M80.3876 42.3686C79.0416 39.8894 75.9041 38.9585 73.407 40.3041L65.7025 44.4332L63.0476 45.8617L50.2098 52.7465C49.5972 53.0691 49.0773 53.5668 48.7246 54.1659L45.2529 59.9723C45.0208 60.3594 45.0116 60.8387 45.2251 61.235C45.4386 61.6313 45.847 61.8894 46.3018 61.9078L53.0967 62.212C53.8022 62.2396 54.4984 62.0829 55.111 61.7511L66.5286 55.6313L70.6872 53.3917L78.3083 49.3087C80.8053 47.9631 81.7428 44.8571 80.3876 42.3686ZM77.0829 47.0599L71.0121 50.3133L68.478 51.6774L53.8857 59.5023C53.6815 59.6037 53.4494 59.659 53.2174 59.6497L48.5668 59.447L50.9431 55.4654C51.0638 55.2719 51.2309 55.106 51.4351 54.9954L65.6653 47.364L68.3016 45.9539L74.6323 42.553C75.8762 41.8802 77.445 42.341 78.1226 43.5852C78.8002 44.8295 78.3268 46.3871 77.0829 47.0599Z" fill="var(--fill-0, #75E1B3)"/>
<path id="Vector_3" d="M7.32397 53.7696H6.44213C4.30713 53.7696 2.57128 52.0461 2.57128 49.9263V6.40553C2.57128 4.28571 4.30713 2.56221 6.44213 2.56221H37.381C39.516 2.56221 41.2519 4.28571 41.2519 6.40553V33.3088C41.2519 34.0184 41.8274 34.5899 42.5422 34.5899C43.2569 34.5899 43.8325 34.0184 43.8325 33.3088V6.40553C43.8325 2.87558 40.9363 0 37.381 0H6.45141C2.89617 0 0 2.87558 0 6.40553V49.9263C0 53.4562 2.89617 56.3318 6.45141 56.3318H7.33326C8.04802 56.3318 8.62354 55.7604 8.62354 55.0507C8.62354 54.341 8.04802 53.7696 7.33326 53.7696H7.32397Z" fill="var(--fill-0, #1E1E1E)"/>
<path id="Vector_4" d="M37.3904 24.3225V14.0829C37.3904 11.9631 35.6546 10.2396 33.5196 10.2396H10.3131C8.17808 10.2396 6.44223 11.9631 6.44223 14.0829V24.3225C6.44223 26.4423 8.17808 28.1658 10.3131 28.1658H33.5196C35.6546 28.1658 37.3904 26.4423 37.3904 24.3225ZM9.03208 24.3225V14.0829C9.03208 13.3732 9.6076 12.8018 10.3224 12.8018H33.5289C34.2436 12.8018 34.8191 13.3732 34.8191 14.0829V24.3225C34.8191 25.0322 34.2436 25.6036 33.5289 25.6036H10.3131C9.59832 25.6036 9.0228 25.0322 9.0228 24.3225H9.03208Z" fill="var(--fill-0, #75E1B3)"/>
<path id="Vector_5" d="M9.03219 7.68658C9.74695 7.68658 10.3225 7.11515 10.3225 6.40548C10.3225 5.6958 9.74695 5.12437 9.03219 5.12437H7.74191C7.02715 5.12437 6.45163 5.6958 6.45163 6.40548C6.45163 7.11515 7.02715 7.68658 7.74191 7.68658H9.03219Z" fill="var(--fill-0, #1E1E1E)"/>
<path id="Vector_6" d="M15.4743 7.68658C16.189 7.68658 16.7646 7.11515 16.7646 6.40548C16.7646 5.6958 16.189 5.12437 15.4743 5.12437H14.184C13.4692 5.12437 12.8937 5.6958 12.8937 6.40548C12.8937 7.11515 13.4692 7.68658 14.184 7.68658H15.4743Z" fill="var(--fill-0, #1E1E1E)"/>
<path id="Vector_7" d="M21.9164 7.68658C22.6311 7.68658 23.2066 7.11515 23.2066 6.40548C23.2066 5.6958 22.6311 5.12437 21.9164 5.12437H20.6261C19.9113 5.12437 19.3358 5.6958 19.3358 6.40548C19.3358 7.11515 19.9113 7.68658 20.6261 7.68658H21.9164Z" fill="var(--fill-0, #1E1E1E)"/>
<path id="Vector_8" d="M18.0455 30.7281H10.3131C9.59834 30.7281 9.02282 31.2995 9.02282 32.0092C9.02282 32.7189 9.59834 33.2903 10.3131 33.2903H18.0455C18.7603 33.2903 19.3358 32.7189 19.3358 32.0092C19.3358 31.2995 18.7603 30.7281 18.0455 30.7281Z" fill="var(--fill-0, #75E1B3)"/>
<path id="Vector_9" d="M18.0455 34.5621H10.3131C9.59834 34.5621 9.02282 35.1336 9.02282 35.8432C9.02282 36.5529 9.59834 37.1243 10.3131 37.1243H18.0455C18.7603 37.1243 19.3358 36.5529 19.3358 35.8432C19.3358 35.1336 18.7603 34.5621 18.0455 34.5621Z" fill="var(--fill-0, #75E1B3)"/>
<path id="Vector_10" d="M10.3131 40.9677H12.8937C13.6084 40.9677 14.1839 40.3963 14.1839 39.6866C14.1839 38.9769 13.6084 38.4055 12.8937 38.4055H10.3131C9.59834 38.4055 9.02282 38.9769 9.02282 39.6866C9.02282 40.3963 9.59834 40.9677 10.3131 40.9677Z" fill="var(--fill-0, #75E1B3)"/>
</g>
<defs>
<clipPath id="clip0_319_237">
<rect width="81" height="82" fill="white"/>
</clipPath>
</defs>
</svg>
