<svg preserveAspectRatio="none" width="100%" height="100%" overflow="visible" style="display: block;" viewBox="0 0 21 6" fill="none" xmlns="http://www.w3.org/2000/svg">
<g id="Group">
<path id="Vector" d="M4.33045 0.736607H2.16773C1.37734 0.736607 0.736607 1.38738 0.736607 2.19015V3.62414C0.736607 4.42691 1.37734 5.07768 2.16773 5.07768H4.33045C5.12083 5.07768 5.76156 4.42691 5.76156 3.62414V2.19015C5.76156 1.38738 5.12083 0.736607 4.33045 0.736607Z" stroke="var(--stroke-0, #75E1B3)" stroke-width="1.47321" stroke-miterlimit="10"/>
<path id="Vector_2" d="M11.2034 0.736615H9.04073C8.25034 0.736615 7.60961 1.38739 7.60961 2.19016V3.62415C7.60961 4.42692 8.25034 5.07769 9.04073 5.07769H11.2034C11.9938 5.07769 12.6346 4.42692 12.6346 3.62415V2.19016C12.6346 1.38739 11.9938 0.736615 11.2034 0.736615Z" stroke="var(--stroke-0, #75E1B3)" stroke-width="1.47321" stroke-miterlimit="10"/>
<path id="Vector_3" d="M18.0768 0.736615H15.914C15.1237 0.736615 14.4829 1.38739 14.4829 2.19016V3.62415C14.4829 4.42692 15.1237 5.07769 15.914 5.07769H18.0768C18.8671 5.07769 19.5079 4.42692 19.5079 3.62415V2.19016C19.5079 1.38739 18.8671 0.736615 18.0768 0.736615Z" stroke="var(--stroke-0, #75E1B3)" stroke-width="1.47321" stroke-miterlimit="10"/>
</g>
</svg>
