<svg preserveAspectRatio="none" width="100%" height="100%" overflow="visible" style="display: block;" viewBox="0 0 38 37" fill="none" xmlns="http://www.w3.org/2000/svg">
<g id="Group 181">
<path id="Arrow 2" d="M35.4998 20.6897C36.8804 20.6719 37.9996 19.5382 37.9996 18.1575C37.9996 16.7768 36.8804 15.6719 35.4998 15.6897L35.4998 18.1897L35.4998 20.6897ZM0.732172 16.8703C-0.244057 17.8592 -0.244057 19.4421 0.732172 20.4058L16.6408 36.1106C17.617 37.0743 19.1998 37.0539 20.176 36.065C21.1522 35.0761 21.1522 33.4932 20.176 32.5295L6.03503 18.5697L20.176 4.24518C21.1522 3.25628 21.1522 1.67337 20.176 0.709648C19.1998 -0.254074 17.617 -0.233664 16.6408 0.755235L0.732172 16.8703ZM35.4998 18.1897L35.4998 15.6897L2.49979 16.1153L2.49979 18.6153L2.49979 21.1153L35.4998 20.6897L35.4998 18.1897Z" fill="var(--stroke-0, #A7A7A7)"/>
</g>
</svg>
