<svg preserveAspectRatio="none" width="100%" height="100%" overflow="visible" style="display: block;" viewBox="0 0 64 68" fill="none" xmlns="http://www.w3.org/2000/svg">
<g id="Layer_1" clip-path="url(#clip0_319_180)">
<path id="Vector" d="M50.9957 22.1568H46.834L48.2529 18.3306H50.9957C51.8096 18.3306 52.4703 17.6821 52.4703 16.8832C52.4703 16.0842 51.8096 15.4357 50.9957 15.4357H49.327L49.7048 14.4163C49.9816 13.667 49.5873 12.839 48.8239 12.5673C48.0605 12.2956 47.217 12.6827 46.9402 13.432L46.1968 15.4357H42.2423L42.6201 14.4163C42.8969 13.667 42.5026 12.839 41.7392 12.5673C40.9758 12.2956 40.1323 12.6827 39.8555 13.432L39.1121 15.4357H33.8771C33.0633 15.4357 32.4026 16.0842 32.4026 16.8832C32.4026 17.6821 33.0633 18.3306 33.8771 18.3306H38.0388L36.62 22.1568H33.8771C33.0633 22.1568 32.4026 22.8054 32.4026 23.6043C32.4026 24.4032 33.0633 25.0517 33.8771 25.0517H35.5467L35.168 26.072C34.8912 26.8213 35.2856 27.6493 36.0489 27.921C36.8123 28.1927 37.6558 27.8056 37.9326 27.0563L38.676 25.0517H42.6314L42.2527 26.072C41.9759 26.8213 42.3703 27.6493 43.1337 27.921C43.8971 28.1927 44.7405 27.8056 45.0173 27.0563L45.7607 25.0517H50.9957C51.8096 25.0517 52.4703 24.4032 52.4703 23.6043C52.4703 22.8054 51.8096 22.1568 50.9957 22.1568ZM43.7047 22.1568H39.7493L41.1681 18.3306H45.1235L43.7047 22.1568ZM39.496 52.5626C39.2087 52.0738 38.7944 51.6646 38.2782 51.3715L33.1695 48.4774C32.6446 48.1827 32.0761 48.0348 31.5069 48.0297C30.8758 48.0297 30.3927 48.1955 29.8425 48.4783C29.322 48.7731 28.9077 49.1815 28.6221 49.6728C28.334 50.1641 28.1782 50.7212 28.1782 51.304V57.092C28.1782 57.7158 28.334 58.1849 28.6221 58.73C28.9355 59.2624 29.3211 59.5939 29.8425 59.9177C30.3683 60.2168 30.9385 60.3672 31.5069 60.3672C32.0753 60.3672 32.6446 60.2168 33.1703 59.9152L38.2782 57.0245C38.7996 56.7289 39.2131 56.3205 39.4986 55.8351C39.7885 55.343 39.9425 54.7859 39.9425 54.198C39.9425 53.6101 39.7885 53.0539 39.496 52.5626ZM36.9534 54.3877C36.9229 54.439 36.8707 54.4877 36.8036 54.5261L31.6975 57.4193C31.6366 57.4543 31.5704 57.4723 31.5069 57.4723C31.4433 57.4723 31.378 57.4543 31.3171 57.4193L31.2745 57.3962C31.2292 57.3638 31.1926 57.3253 31.1674 57.2826L31.1543 57.2612C31.1369 57.2177 31.1273 57.1604 31.1273 57.092V51.304C31.1273 51.2219 31.1413 51.1562 31.1674 51.1143C31.2118 51.04 31.2779 50.9998 31.3502 50.9571C31.4007 50.9357 31.4538 50.9246 31.5069 50.9186C31.5669 50.9186 31.6331 50.9374 31.6975 50.9759L36.8036 53.8699C36.875 53.9101 36.9264 53.9562 36.9534 54.0083C36.9786 54.0519 36.9934 54.1168 36.9934 54.198C36.9934 54.2792 36.9795 54.3441 36.9534 54.3877ZM25.3231 32.512C24.3847 31.5456 23.0425 31.0167 21.6584 31.1184C20.5321 31.2004 19.3874 31.6891 18.4403 32.6863C17.4924 31.6891 16.3469 31.2004 15.2214 31.1184C13.8382 31.0167 12.4942 31.5456 11.5576 32.512C10.6323 33.4655 10.1013 34.8378 10.3163 36.4305C10.634 38.7802 12.6639 41.6657 17.7779 44.2009C17.9468 44.2838 18.1296 44.3351 18.3185 44.3496C18.3794 44.3556 18.4421 44.3573 18.5039 44.3539C18.7067 44.3462 18.9104 44.2966 19.1028 44.2009C24.2167 41.6657 26.2458 38.782 26.5644 36.4314C26.7794 34.8378 26.2475 33.4664 25.3231 32.512ZM23.6501 36.0588C23.4533 37.5054 22.0345 39.3758 18.4403 41.2838C14.8471 39.3758 13.4265 37.5045 13.2306 36.058C13.1427 35.4034 13.3394 34.8609 13.6885 34.5011C14.0245 34.1551 14.5067 33.9654 15.002 34.0013C15.7367 34.0551 16.5358 34.6285 17.0754 35.9315C17.3801 36.6706 18.2401 37.0278 18.9931 36.7287C19.3769 36.5758 19.6598 36.2818 19.8052 35.9315C20.3449 34.6285 21.1431 34.0551 21.8778 34.0013C22.374 33.9654 22.8562 34.1551 23.1922 34.5011C23.5404 34.8609 23.738 35.4034 23.6501 36.0588ZM25.3231 32.512C24.3847 31.5456 23.0425 31.0167 21.6584 31.1184C20.5321 31.2004 19.3874 31.6891 18.4403 32.6863C17.4924 31.6891 16.3469 31.2004 15.2214 31.1184C13.8382 31.0167 12.4942 31.5456 11.5576 32.512C10.6323 33.4655 10.1013 34.8378 10.3163 36.4305C10.634 38.7802 12.6639 41.6657 17.7779 44.2009C17.9468 44.2838 18.1296 44.3351 18.3185 44.3496C18.3794 44.3556 18.4421 44.3573 18.5039 44.3539C18.7067 44.3462 18.9104 44.2966 19.1028 44.2009C24.2167 41.6657 26.2458 38.782 26.5644 36.4314C26.7794 34.8378 26.2475 33.4664 25.3231 32.512ZM23.6501 36.0588C23.4533 37.5054 22.0345 39.3758 18.4403 41.2838C14.8471 39.3758 13.4265 37.5045 13.2306 36.058C13.1427 35.4034 13.3394 34.8609 13.6885 34.5011C14.0245 34.1551 14.5067 33.9654 15.002 34.0013C15.7367 34.0551 16.5358 34.6285 17.0754 35.9315C17.3801 36.6706 18.2401 37.0278 18.9931 36.7287C19.3769 36.5758 19.6598 36.2818 19.8052 35.9315C20.3449 34.6285 21.1431 34.0551 21.8778 34.0013C22.374 33.9654 22.8562 34.1551 23.1922 34.5011C23.5404 34.8609 23.738 35.4034 23.6501 36.0588ZM39.496 52.5626C39.2087 52.0738 38.7944 51.6646 38.2782 51.3715L33.1695 48.4774C32.6446 48.1827 32.0761 48.0348 31.5069 48.0297C30.8758 48.0297 30.3927 48.1955 29.8425 48.4783C29.322 48.7731 28.9077 49.1815 28.6221 49.6728C28.334 50.1641 28.1782 50.7212 28.1782 51.304V57.092C28.1782 57.7158 28.334 58.1849 28.6221 58.73C28.9355 59.2624 29.3211 59.5939 29.8425 59.9177C30.3683 60.2168 30.9385 60.3672 31.5069 60.3672C32.0753 60.3672 32.6446 60.2168 33.1703 59.9152L38.2782 57.0245C38.7996 56.7289 39.2131 56.3205 39.4986 55.8351C39.7885 55.343 39.9425 54.7859 39.9425 54.198C39.9425 53.6101 39.7885 53.0539 39.496 52.5626ZM36.9534 54.3877C36.9229 54.439 36.8707 54.4877 36.8036 54.5261L31.6975 57.4193C31.6366 57.4543 31.5704 57.4723 31.5069 57.4723C31.4433 57.4723 31.378 57.4543 31.3171 57.4193L31.2745 57.3962C31.2292 57.3638 31.1926 57.3253 31.1674 57.2826L31.1543 57.2612C31.1369 57.2177 31.1273 57.1604 31.1273 57.092V51.304C31.1273 51.2219 31.1413 51.1562 31.1674 51.1143C31.2118 51.04 31.2779 50.9998 31.3502 50.9571C31.4007 50.9357 31.4538 50.9246 31.5069 50.9186C31.5669 50.9186 31.6331 50.9374 31.6975 50.9759L36.8036 53.8699C36.875 53.9101 36.9264 53.9562 36.9534 54.0083C36.9786 54.0519 36.9934 54.1168 36.9934 54.198C36.9934 54.2792 36.9795 54.3441 36.9534 54.3877ZM50.9957 22.1568H46.834L48.2529 18.3306H50.9957C51.8096 18.3306 52.4703 17.6821 52.4703 16.8832C52.4703 16.0842 51.8096 15.4357 50.9957 15.4357H49.327L49.7048 14.4163C49.9816 13.667 49.5873 12.839 48.8239 12.5673C48.0605 12.2956 47.217 12.6827 46.9402 13.432L46.1968 15.4357H42.2423L42.6201 14.4163C42.8969 13.667 42.5026 12.839 41.7392 12.5673C40.9758 12.2956 40.1323 12.6827 39.8555 13.432L39.1121 15.4357H33.8771C33.0633 15.4357 32.4026 16.0842 32.4026 16.8832C32.4026 17.6821 33.0633 18.3306 33.8771 18.3306H38.0388L36.62 22.1568H33.8771C33.0633 22.1568 32.4026 22.8054 32.4026 23.6043C32.4026 24.4032 33.0633 25.0517 33.8771 25.0517H35.5467L35.168 26.072C34.8912 26.8213 35.2856 27.6493 36.0489 27.921C36.8123 28.1927 37.6558 27.8056 37.9326 27.0563L38.676 25.0517H42.6314L42.2527 26.072C41.9759 26.8213 42.3703 27.6493 43.1337 27.921C43.8971 28.1927 44.7405 27.8056 45.0173 27.0563L45.7607 25.0517H50.9957C51.8096 25.0517 52.4703 24.4032 52.4703 23.6043C52.4703 22.8054 51.8096 22.1568 50.9957 22.1568ZM43.7047 22.1568H39.7493L41.1681 18.3306H45.1235L43.7047 22.1568ZM50.9957 22.1568H46.834L48.2529 18.3306H50.9957C51.8096 18.3306 52.4703 17.6821 52.4703 16.8832C52.4703 16.0842 51.8096 15.4357 50.9957 15.4357H49.327L49.7048 14.4163C49.9816 13.667 49.5873 12.839 48.8239 12.5673C48.0605 12.2956 47.217 12.6827 46.9402 13.432L46.1968 15.4357H42.2423L42.6201 14.4163C42.8969 13.667 42.5026 12.839 41.7392 12.5673C40.9758 12.2956 40.1323 12.6827 39.8555 13.432L39.1121 15.4357H33.8771C33.0633 15.4357 32.4026 16.0842 32.4026 16.8832C32.4026 17.6821 33.0633 18.3306 33.8771 18.3306H38.0388L36.62 22.1568H33.8771C33.0633 22.1568 32.4026 22.8054 32.4026 23.6043C32.4026 24.4032 33.0633 25.0517 33.8771 25.0517H35.5467L35.168 26.072C34.8912 26.8213 35.2856 27.6493 36.0489 27.921C36.8123 28.1927 37.6558 27.8056 37.9326 27.0563L38.676 25.0517H42.6314L42.2527 26.072C41.9759 26.8213 42.3703 27.6493 43.1337 27.921C43.8971 28.1927 44.7405 27.8056 45.0173 27.0563L45.7607 25.0517H50.9957C51.8096 25.0517 52.4703 24.4032 52.4703 23.6043C52.4703 22.8054 51.8096 22.1568 50.9957 22.1568ZM43.7047 22.1568H39.7493L41.1681 18.3306H45.1235L43.7047 22.1568ZM39.496 52.5626C39.2087 52.0738 38.7944 51.6646 38.2782 51.3715L33.1695 48.4774C32.6446 48.1827 32.0761 48.0348 31.5069 48.0297C30.8758 48.0297 30.3927 48.1955 29.8425 48.4783C29.322 48.7731 28.9077 49.1815 28.6221 49.6728C28.334 50.1641 28.1782 50.7212 28.1782 51.304V57.092C28.1782 57.7158 28.334 58.1849 28.6221 58.73C28.9355 59.2624 29.3211 59.5939 29.8425 59.9177C30.3683 60.2168 30.9385 60.3672 31.5069 60.3672C32.0753 60.3672 32.6446 60.2168 33.1703 59.9152L38.2782 57.0245C38.7996 56.7289 39.2131 56.3205 39.4986 55.8351C39.7885 55.343 39.9425 54.7859 39.9425 54.198C39.9425 53.6101 39.7885 53.0539 39.496 52.5626ZM36.9534 54.3877C36.9229 54.439 36.8707 54.4877 36.8036 54.5261L31.6975 57.4193C31.6366 57.4543 31.5704 57.4723 31.5069 57.4723C31.4433 57.4723 31.378 57.4543 31.3171 57.4193L31.2745 57.3962C31.2292 57.3638 31.1926 57.3253 31.1674 57.2826L31.1543 57.2612C31.1369 57.2177 31.1273 57.1604 31.1273 57.092V51.304C31.1273 51.2219 31.1413 51.1562 31.1674 51.1143C31.2118 51.04 31.2779 50.9998 31.3502 50.9571C31.4007 50.9357 31.4538 50.9246 31.5069 50.9186C31.5669 50.9186 31.6331 50.9374 31.6975 50.9759L36.8036 53.8699C36.875 53.9101 36.9264 53.9562 36.9534 54.0083C36.9786 54.0519 36.9934 54.1168 36.9934 54.198C36.9934 54.2792 36.9795 54.3441 36.9534 54.3877ZM25.3231 32.512C24.3847 31.5456 23.0425 31.0167 21.6584 31.1184C20.5321 31.2004 19.3874 31.6891 18.4403 32.6863C17.4924 31.6891 16.3469 31.2004 15.2214 31.1184C13.8382 31.0167 12.4942 31.5456 11.5576 32.512C10.6323 33.4655 10.1013 34.8378 10.3163 36.4305C10.634 38.7802 12.6639 41.6657 17.7779 44.2009C17.9468 44.2838 18.1296 44.3351 18.3185 44.3496C18.3794 44.3556 18.4421 44.3573 18.5039 44.3539C18.7067 44.3462 18.9104 44.2966 19.1028 44.2009C24.2167 41.6657 26.2458 38.782 26.5644 36.4314C26.7794 34.8378 26.2475 33.4664 25.3231 32.512ZM23.6501 36.0588C23.4533 37.5054 22.0345 39.3758 18.4403 41.2838C14.8471 39.3758 13.4265 37.5045 13.2306 36.058C13.1427 35.4034 13.3394 34.8609 13.6885 34.5011C14.0245 34.1551 14.5067 33.9654 15.002 34.0013C15.7367 34.0551 16.5358 34.6285 17.0754 35.9315C17.3801 36.6706 18.2401 37.0278 18.9931 36.7287C19.3769 36.5758 19.6598 36.2818 19.8052 35.9315C20.3449 34.6285 21.1431 34.0551 21.8778 34.0013C22.374 33.9654 22.8562 34.1551 23.1922 34.5011C23.5404 34.8609 23.738 35.4034 23.6501 36.0588ZM25.3231 32.512C24.3847 31.5456 23.0425 31.0167 21.6584 31.1184C20.5321 31.2004 19.3874 31.6891 18.4403 32.6863C17.4924 31.6891 16.3469 31.2004 15.2214 31.1184C13.8382 31.0167 12.4942 31.5456 11.5576 32.512C10.6323 33.4655 10.1013 34.8378 10.3163 36.4305C10.634 38.7802 12.6639 41.6657 17.7779 44.2009C17.9468 44.2838 18.1296 44.3351 18.3185 44.3496C18.3794 44.3556 18.4421 44.3573 18.5039 44.3539C18.7067 44.3462 18.9104 44.2966 19.1028 44.2009C24.2167 41.6657 26.2458 38.782 26.5644 36.4314C26.7794 34.8378 26.2475 33.4664 25.3231 32.512ZM23.6501 36.0588C23.4533 37.5054 22.0345 39.3758 18.4403 41.2838C14.8471 39.3758 13.4265 37.5045 13.2306 36.058C13.1427 35.4034 13.3394 34.8609 13.6885 34.5011C14.0245 34.1551 14.5067 33.9654 15.002 34.0013C15.7367 34.0551 16.5358 34.6285 17.0754 35.9315C17.3801 36.6706 18.2401 37.0278 18.9931 36.7287C19.3769 36.5758 19.6598 36.2818 19.8052 35.9315C20.3449 34.6285 21.1431 34.0551 21.8778 34.0013C22.374 33.9654 22.8562 34.1551 23.1922 34.5011C23.5404 34.8609 23.738 35.4034 23.6501 36.0588ZM39.496 52.5626C39.2087 52.0738 38.7944 51.6646 38.2782 51.3715L33.1695 48.4774C32.6446 48.1827 32.0761 48.0348 31.5069 48.0297C30.8758 48.0297 30.3927 48.1955 29.8425 48.4783C29.322 48.7731 28.9077 49.1815 28.6221 49.6728C28.334 50.1641 28.1782 50.7212 28.1782 51.304V57.092C28.1782 57.7158 28.334 58.1849 28.6221 58.73C28.9355 59.2624 29.3211 59.5939 29.8425 59.9177C30.3683 60.2168 30.9385 60.3672 31.5069 60.3672C32.0753 60.3672 32.6446 60.2168 33.1703 59.9152L38.2782 57.0245C38.7996 56.7289 39.2131 56.3205 39.4986 55.8351C39.7885 55.343 39.9425 54.7859 39.9425 54.198C39.9425 53.6101 39.7885 53.0539 39.496 52.5626ZM36.9534 54.3877C36.9229 54.439 36.8707 54.4877 36.8036 54.5261L31.6975 57.4193C31.6366 57.4543 31.5704 57.4723 31.5069 57.4723C31.4433 57.4723 31.378 57.4543 31.3171 57.4193L31.2745 57.3962C31.2292 57.3638 31.1926 57.3253 31.1674 57.2826L31.1543 57.2612C31.1369 57.2177 31.1273 57.1604 31.1273 57.092V51.304C31.1273 51.2219 31.1413 51.1562 31.1674 51.1143C31.2118 51.04 31.2779 50.9998 31.3502 50.9571C31.4007 50.9357 31.4538 50.9246 31.5069 50.9186C31.5669 50.9186 31.6331 50.9374 31.6975 50.9759L36.8036 53.8699C36.875 53.9101 36.9264 53.9562 36.9534 54.0083C36.9786 54.0519 36.9934 54.1168 36.9934 54.198C36.9934 54.2792 36.9795 54.3441 36.9534 54.3877ZM50.9957 22.1568H46.834L48.2529 18.3306H50.9957C51.8096 18.3306 52.4703 17.6821 52.4703 16.8832C52.4703 16.0842 51.8096 15.4357 50.9957 15.4357H49.327L49.7048 14.4163C49.9816 13.667 49.5873 12.839 48.8239 12.5673C48.0605 12.2956 47.217 12.6827 46.9402 13.432L46.1968 15.4357H42.2423L42.6201 14.4163C42.8969 13.667 42.5026 12.839 41.7392 12.5673C40.9758 12.2956 40.1323 12.6827 39.8555 13.432L39.1121 15.4357H33.8771C33.0633 15.4357 32.4026 16.0842 32.4026 16.8832C32.4026 17.6821 33.0633 18.3306 33.8771 18.3306H38.0388L36.62 22.1568H33.8771C33.0633 22.1568 32.4026 22.8054 32.4026 23.6043C32.4026 24.4032 33.0633 25.0517 33.8771 25.0517H35.5467L35.168 26.072C34.8912 26.8213 35.2856 27.6493 36.0489 27.921C36.8123 28.1927 37.6558 27.8056 37.9326 27.0563L38.676 25.0517H42.6314L42.2527 26.072C41.9759 26.8213 42.3703 27.6493 43.1337 27.921C43.8971 28.1927 44.7405 27.8056 45.0173 27.0563L45.7607 25.0517H50.9957C51.8096 25.0517 52.4703 24.4032 52.4703 23.6043C52.4703 22.8054 51.8096 22.1568 50.9957 22.1568ZM43.7047 22.1568H39.7493L41.1681 18.3306H45.1235L43.7047 22.1568ZM50.9957 22.1568H46.834L48.2529 18.3306H50.9957C51.8096 18.3306 52.4703 17.6821 52.4703 16.8832C52.4703 16.0842 51.8096 15.4357 50.9957 15.4357H49.327L49.7048 14.4163C49.9816 13.667 49.5873 12.839 48.8239 12.5673C48.0605 12.2956 47.217 12.6827 46.9402 13.432L46.1968 15.4357H42.2423L42.6201 14.4163C42.8969 13.667 42.5026 12.839 41.7392 12.5673C40.9758 12.2956 40.1323 12.6827 39.8555 13.432L39.1121 15.4357H33.8771C33.0633 15.4357 32.4026 16.0842 32.4026 16.8832C32.4026 17.6821 33.0633 18.3306 33.8771 18.3306H38.0388L36.62 22.1568H33.8771C33.0633 22.1568 32.4026 22.8054 32.4026 23.6043C32.4026 24.4032 33.0633 25.0517 33.8771 25.0517H35.5467L35.168 26.072C34.8912 26.8213 35.2856 27.6493 36.0489 27.921C36.8123 28.1927 37.6558 27.8056 37.9326 27.0563L38.676 25.0517H42.6314L42.2527 26.072C41.9759 26.8213 42.3703 27.6493 43.1337 27.921C43.8971 28.1927 44.7405 27.8056 45.0173 27.0563L45.7607 25.0517H50.9957C51.8096 25.0517 52.4703 24.4032 52.4703 23.6043C52.4703 22.8054 51.8096 22.1568 50.9957 22.1568ZM43.7047 22.1568H39.7493L41.1681 18.3306H45.1235L43.7047 22.1568ZM39.496 52.5626C39.2087 52.0738 38.7944 51.6646 38.2782 51.3715L33.1695 48.4774C32.6446 48.1827 32.0761 48.0348 31.5069 48.0297C30.8758 48.0297 30.3927 48.1955 29.8425 48.4783C29.322 48.7731 28.9077 49.1815 28.6221 49.6728C28.334 50.1641 28.1782 50.7212 28.1782 51.304V57.092C28.1782 57.7158 28.334 58.1849 28.6221 58.73C28.9355 59.2624 29.3211 59.5939 29.8425 59.9177C30.3683 60.2168 30.9385 60.3672 31.5069 60.3672C32.0753 60.3672 32.6446 60.2168 33.1703 59.9152L38.2782 57.0245C38.7996 56.7289 39.2131 56.3205 39.4986 55.8351C39.7885 55.343 39.9425 54.7859 39.9425 54.198C39.9425 53.6101 39.7885 53.0539 39.496 52.5626ZM36.9534 54.3877C36.9229 54.439 36.8707 54.4877 36.8036 54.5261L31.6975 57.4193C31.6366 57.4543 31.5704 57.4723 31.5069 57.4723C31.4433 57.4723 31.378 57.4543 31.3171 57.4193L31.2745 57.3962C31.2292 57.3638 31.1926 57.3253 31.1674 57.2826L31.1543 57.2612C31.1369 57.2177 31.1273 57.1604 31.1273 57.092V51.304C31.1273 51.2219 31.1413 51.1562 31.1674 51.1143C31.2118 51.04 31.2779 50.9998 31.3502 50.9571C31.4007 50.9357 31.4538 50.9246 31.5069 50.9186C31.5669 50.9186 31.6331 50.9374 31.6975 50.9759L36.8036 53.8699C36.875 53.9101 36.9264 53.9562 36.9534 54.0083C36.9786 54.0519 36.9934 54.1168 36.9934 54.198C36.9934 54.2792 36.9795 54.3441 36.9534 54.3877ZM25.3231 32.512C24.3847 31.5456 23.0425 31.0167 21.6584 31.1184C20.5321 31.2004 19.3874 31.6891 18.4403 32.6863C17.4924 31.6891 16.3469 31.2004 15.2214 31.1184C13.8382 31.0167 12.4942 31.5456 11.5576 32.512C10.6323 33.4655 10.1013 34.8378 10.3163 36.4305C10.634 38.7802 12.6639 41.6657 17.7779 44.2009C17.9468 44.2838 18.1296 44.3351 18.3185 44.3496C18.3794 44.3556 18.4421 44.3573 18.5039 44.3539C18.7067 44.3462 18.9104 44.2966 19.1028 44.2009C24.2167 41.6657 26.2458 38.782 26.5644 36.4314C26.7794 34.8378 26.2475 33.4664 25.3231 32.512ZM23.6501 36.0588C23.4533 37.5054 22.0345 39.3758 18.4403 41.2838C14.8471 39.3758 13.4265 37.5045 13.2306 36.058C13.1427 35.4034 13.3394 34.8609 13.6885 34.5011C14.0245 34.1551 14.5067 33.9654 15.002 34.0013C15.7367 34.0551 16.5358 34.6285 17.0754 35.9315C17.3801 36.6706 18.2401 37.0278 18.9931 36.7287C19.3769 36.5758 19.6598 36.2818 19.8052 35.9315C20.3449 34.6285 21.1431 34.0551 21.8778 34.0013C22.374 33.9654 22.8562 34.1551 23.1922 34.5011C23.5404 34.8609 23.738 35.4034 23.6501 36.0588ZM25.3231 32.512C24.3847 31.5456 23.0425 31.0167 21.6584 31.1184C20.5321 31.2004 19.3874 31.6891 18.4403 32.6863C17.4924 31.6891 16.3469 31.2004 15.2214 31.1184C13.8382 31.0167 12.4942 31.5456 11.5576 32.512C10.6323 33.4655 10.1013 34.8378 10.3163 36.4305C10.634 38.7802 12.6639 41.6657 17.7779 44.2009C17.9468 44.2838 18.1296 44.3351 18.3185 44.3496C18.3794 44.3556 18.4421 44.3573 18.5039 44.3539C18.7067 44.3462 18.9104 44.2966 19.1028 44.2009C24.2167 41.6657 26.2458 38.782 26.5644 36.4314C26.7794 34.8378 26.2475 33.4664 25.3231 32.512ZM23.6501 36.0588C23.4533 37.5054 22.0345 39.3758 18.4403 41.2838C14.8471 39.3758 13.4265 37.5045 13.2306 36.058C13.1427 35.4034 13.3394 34.8609 13.6885 34.5011C14.0245 34.1551 14.5067 33.9654 15.002 34.0013C15.7367 34.0551 16.5358 34.6285 17.0754 35.9315C17.3801 36.6706 18.2401 37.0278 18.9931 36.7287C19.3769 36.5758 19.6598 36.2818 19.8052 35.9315C20.3449 34.6285 21.1431 34.0551 21.8778 34.0013C22.374 33.9654 22.8562 34.1551 23.1922 34.5011C23.5404 34.8609 23.738 35.4034 23.6501 36.0588ZM39.496 52.5626C39.2087 52.0738 38.7944 51.6646 38.2782 51.3715L33.1695 48.4774C32.6446 48.1827 32.0761 48.0348 31.5069 48.0297C30.8758 48.0297 30.3927 48.1955 29.8425 48.4783C29.322 48.7731 28.9077 49.1815 28.6221 49.6728C28.334 50.1641 28.1782 50.7212 28.1782 51.304V57.092C28.1782 57.7158 28.334 58.1849 28.6221 58.73C28.9355 59.2624 29.3211 59.5939 29.8425 59.9177C30.3683 60.2168 30.9385 60.3672 31.5069 60.3672C32.0753 60.3672 32.6446 60.2168 33.1703 59.9152L38.2782 57.0245C38.7996 56.7289 39.2131 56.3205 39.4986 55.8351C39.7885 55.343 39.9425 54.7859 39.9425 54.198C39.9425 53.6101 39.7885 53.0539 39.496 52.5626ZM36.9534 54.3877C36.9229 54.439 36.8707 54.4877 36.8036 54.5261L31.6975 57.4193C31.6366 57.4543 31.5704 57.4723 31.5069 57.4723C31.4433 57.4723 31.378 57.4543 31.3171 57.4193L31.2745 57.3962C31.2292 57.3638 31.1926 57.3253 31.1674 57.2826L31.1543 57.2612C31.1369 57.2177 31.1273 57.1604 31.1273 57.092V51.304C31.1273 51.2219 31.1413 51.1562 31.1674 51.1143C31.2118 51.04 31.2779 50.9998 31.3502 50.9571C31.4007 50.9357 31.4538 50.9246 31.5069 50.9186C31.5669 50.9186 31.6331 50.9374 31.6975 50.9759L36.8036 53.8699C36.875 53.9101 36.9264 53.9562 36.9534 54.0083C36.9786 54.0519 36.9934 54.1168 36.9934 54.198C36.9934 54.2792 36.9795 54.3441 36.9534 54.3877ZM50.9957 22.1568H46.834L48.2529 18.3306H50.9957C51.8096 18.3306 52.4703 17.6821 52.4703 16.8832C52.4703 16.0842 51.8096 15.4357 50.9957 15.4357H49.327L49.7048 14.4163C49.9816 13.667 49.5873 12.839 48.8239 12.5673C48.0605 12.2956 47.217 12.6827 46.9402 13.432L46.1968 15.4357H42.2423L42.6201 14.4163C42.8969 13.667 42.5026 12.839 41.7392 12.5673C40.9758 12.2956 40.1323 12.6827 39.8555 13.432L39.1121 15.4357H33.8771C33.0633 15.4357 32.4026 16.0842 32.4026 16.8832C32.4026 17.6821 33.0633 18.3306 33.8771 18.3306H38.0388L36.62 22.1568H33.8771C33.0633 22.1568 32.4026 22.8054 32.4026 23.6043C32.4026 24.4032 33.0633 25.0517 33.8771 25.0517H35.5467L35.168 26.072C34.8912 26.8213 35.2856 27.6493 36.0489 27.921C36.8123 28.1927 37.6558 27.8056 37.9326 27.0563L38.676 25.0517H42.6314L42.2527 26.072C41.9759 26.8213 42.3703 27.6493 43.1337 27.921C43.8971 28.1927 44.7405 27.8056 45.0173 27.0563L45.7607 25.0517H50.9957C51.8096 25.0517 52.4703 24.4032 52.4703 23.6043C52.4703 22.8054 51.8096 22.1568 50.9957 22.1568ZM43.7047 22.1568H39.7493L41.1681 18.3306H45.1235L43.7047 22.1568ZM50.9957 22.1568H46.834L48.2529 18.3306H50.9957C51.8096 18.3306 52.4703 17.6821 52.4703 16.8832C52.4703 16.0842 51.8096 15.4357 50.9957 15.4357H49.327L49.7048 14.4163C49.9816 13.667 49.5873 12.839 48.8239 12.5673C48.0605 12.2956 47.217 12.6827 46.9402 13.432L46.1968 15.4357H42.2423L42.6201 14.4163C42.8969 13.667 42.5026 12.839 41.7392 12.5673C40.9758 12.2956 40.1323 12.6827 39.8555 13.432L39.1121 15.4357H33.8771C33.0633 15.4357 32.4026 16.0842 32.4026 16.8832C32.4026 17.6821 33.0633 18.3306 33.8771 18.3306H38.0388L36.62 22.1568H33.8771C33.0633 22.1568 32.4026 22.8054 32.4026 23.6043C32.4026 24.4032 33.0633 25.0517 33.8771 25.0517H35.5467L35.168 26.072C34.8912 26.8213 35.2856 27.6493 36.0489 27.921C36.8123 28.1927 37.6558 27.8056 37.9326 27.0563L38.676 25.0517H42.6314L42.2527 26.072C41.9759 26.8213 42.3703 27.6493 43.1337 27.921C43.8971 28.1927 44.7405 27.8056 45.0173 27.0563L45.7607 25.0517H50.9957C51.8096 25.0517 52.4703 24.4032 52.4703 23.6043C52.4703 22.8054 51.8096 22.1568 50.9957 22.1568ZM43.7047 22.1568H39.7493L41.1681 18.3306H45.1235L43.7047 22.1568ZM39.496 52.5626C39.2087 52.0738 38.7944 51.6646 38.2782 51.3715L33.1695 48.4774C32.6446 48.1827 32.0761 48.0348 31.5069 48.0297C30.8758 48.0297 30.3927 48.1955 29.8425 48.4783C29.322 48.7731 28.9077 49.1815 28.6221 49.6728C28.334 50.1641 28.1782 50.7212 28.1782 51.304V57.092C28.1782 57.7158 28.334 58.1849 28.6221 58.73C28.9355 59.2624 29.3211 59.5939 29.8425 59.9177C30.3683 60.2168 30.9385 60.3672 31.5069 60.3672C32.0753 60.3672 32.6446 60.2168 33.1703 59.9152L38.2782 57.0245C38.7996 56.7289 39.2131 56.3205 39.4986 55.8351C39.7885 55.343 39.9425 54.7859 39.9425 54.198C39.9425 53.6101 39.7885 53.0539 39.496 52.5626ZM36.9534 54.3877C36.9229 54.439 36.8707 54.4877 36.8036 54.5261L31.6975 57.4193C31.6366 57.4543 31.5704 57.4723 31.5069 57.4723C31.4433 57.4723 31.378 57.4543 31.3171 57.4193L31.2745 57.3962C31.2292 57.3638 31.1926 57.3253 31.1674 57.2826L31.1543 57.2612C31.1369 57.2177 31.1273 57.1604 31.1273 57.092V51.304C31.1273 51.2219 31.1413 51.1562 31.1674 51.1143C31.2118 51.04 31.2779 50.9998 31.3502 50.9571C31.4007 50.9357 31.4538 50.9246 31.5069 50.9186C31.5669 50.9186 31.6331 50.9374 31.6975 50.9759L36.8036 53.8699C36.875 53.9101 36.9264 53.9562 36.9534 54.0083C36.9786 54.0519 36.9934 54.1168 36.9934 54.198C36.9934 54.2792 36.9795 54.3441 36.9534 54.3877ZM25.3231 32.512C24.3847 31.5456 23.0425 31.0167 21.6584 31.1184C20.5321 31.2004 19.3874 31.6891 18.4403 32.6863C17.4924 31.6891 16.3469 31.2004 15.2214 31.1184C13.8382 31.0167 12.4942 31.5456 11.5576 32.512C10.6323 33.4655 10.1013 34.8378 10.3163 36.4305C10.634 38.7802 12.6639 41.6657 17.7779 44.2009C17.9468 44.2838 18.1296 44.3351 18.3185 44.3496C18.3794 44.3556 18.4421 44.3573 18.5039 44.3539C18.7067 44.3462 18.9104 44.2966 19.1028 44.2009C24.2167 41.6657 26.2458 38.782 26.5644 36.4314C26.7794 34.8378 26.2475 33.4664 25.3231 32.512ZM23.6501 36.0588C23.4533 37.5054 22.0345 39.3758 18.4403 41.2838C14.8471 39.3758 13.4265 37.5045 13.2306 36.058C13.1427 35.4034 13.3394 34.8609 13.6885 34.5011C14.0245 34.1551 14.5067 33.9654 15.002 34.0013C15.7367 34.0551 16.5358 34.6285 17.0754 35.9315C17.3801 36.6706 18.2401 37.0278 18.9931 36.7287C19.3769 36.5758 19.6598 36.2818 19.8052 35.9315C20.3449 34.6285 21.1431 34.0551 21.8778 34.0013C22.374 33.9654 22.8562 34.1551 23.1922 34.5011C23.5404 34.8609 23.738 35.4034 23.6501 36.0588ZM62.8479 36.6885C61.2576 36.3433 60.0886 35.805 59.3434 35.0796C58.7916 34.5422 58.4634 33.868 58.3598 33.0631C59.7891 31.3781 60.9399 29.4505 61.7442 27.3571C62.5938 25.1406 63.0594 22.7396 63.0594 20.2437C63.0594 14.6547 60.7501 9.59296 57.0184 5.92991C53.2867 2.26687 48.1301 3.15529e-06 42.4364 3.15529e-06C36.7427 3.15529e-06 31.5861 2.26687 27.8544 5.92991C24.1227 9.59296 21.8134 14.6547 21.8134 20.2437L21.8203 20.7256C20.727 20.5171 19.5972 20.4078 18.4421 20.4078C13.5701 20.4078 9.15596 22.3482 5.9631 25.4824C2.76936 28.6174 0.79254 32.9495 0.79254 37.7318C0.79254 39.8663 1.19208 41.9221 1.91979 43.8198C2.5944 45.58 3.558 47.2035 4.75141 48.627C4.6574 49.2148 4.40584 49.7087 3.99933 50.1052C3.40132 50.6871 2.45077 51.1228 1.15117 51.4048C0.35992 51.5765 -0.140597 52.3464 0.0343663 53.1231C0.129247 53.5444 0.403443 53.881 0.760333 54.0741C2.61442 55.12 4.5573 55.5916 6.58287 55.4908C8.58668 55.3567 10.2928 54.8124 12.0616 53.8853C12.9512 54.2245 13.8756 54.4954 14.827 54.6893C16.0065 54.9303 17.2182 55.0567 18.4421 55.0567C19.0505 55.0567 19.6764 55.0226 20.3162 54.9559L20.3667 54.9508C20.559 58.3686 22.0493 61.4472 24.363 63.7183C26.8447 66.1544 30.2743 67.6625 34.0608 67.6625C35.0087 67.6625 35.9506 67.5634 36.8689 67.3745C37.5566 67.2344 38.2242 67.0439 38.8658 66.808C40.2777 67.5275 41.6634 67.9223 43.0231 67.9898C44.6335 68.0692 46.1759 67.6933 47.6427 66.8576C47.9865 66.6619 48.2485 66.3321 48.3408 65.922C48.5157 65.1453 48.0152 64.3754 47.224 64.2037C46.3091 64.0054 45.6467 63.7072 45.2437 63.3142C45.026 63.1023 44.8789 62.8425 44.8049 62.5375C45.6841 61.4617 46.3953 60.245 46.9002 58.9291C47.466 57.4535 47.7767 55.8557 47.7767 54.1989C47.7767 50.4828 46.2403 47.1154 43.7586 44.6794C41.6634 42.6227 38.8936 41.2283 35.8026 40.8429C35.8435 40.625 35.8801 40.4063 35.9114 40.1875C35.9454 39.9517 35.975 39.7133 36.0002 39.4766C36.6948 39.7013 37.4043 39.8902 38.125 40.0406C39.5221 40.3336 40.9662 40.4874 42.4364 40.4874C43.9066 40.4874 45.2846 40.3396 46.6599 40.0585C47.8124 39.8235 48.9327 39.492 50.0068 39.075C52.21 40.2465 54.3574 40.8882 56.4509 41.0001C58.8185 41.1548 61.1932 40.5122 63.2388 39.3587C63.5957 39.1656 63.8699 38.8281 63.9647 38.4069C64.1397 37.6302 63.6392 36.8603 62.8479 36.6885ZM20.0046 52.0849C19.5171 52.1354 18.9948 52.1618 18.4421 52.1618C17.3958 52.1618 16.386 52.0585 15.4259 51.8628C14.4275 51.6586 13.4648 51.3544 12.5534 50.9648C12.1382 50.7879 11.6446 50.8007 11.2242 51.0425C9.78182 51.873 8.12098 52.5327 6.43315 52.6079C6.13806 52.6224 5.84471 52.6207 5.55398 52.601C5.73852 52.4583 5.91087 52.308 6.07278 52.1507C7.14954 51.1023 7.70228 49.7762 7.72927 48.1861C7.74058 47.8323 7.61959 47.4743 7.36193 47.1881C6.21553 45.9184 5.29719 44.4333 4.6722 42.803C4.07158 41.2368 3.74167 39.5253 3.74167 37.7318C3.74167 33.7467 5.38772 30.1383 8.04699 27.5279C10.7063 24.9176 14.3822 23.3027 18.4421 23.3027C22.5019 23.3027 26.1805 24.9176 28.8398 27.5254C31.4964 30.1357 33.1416 33.745 33.1416 37.7318C33.1416 38.4402 33.092 39.1246 32.9971 39.7808C32.9475 40.1234 32.8857 40.4601 32.8143 40.7899C29.5248 41.0813 26.5696 42.5134 24.363 44.6794C22.3766 46.6293 20.996 49.1764 20.5242 52.0217C20.351 52.0456 20.1778 52.067 20.0046 52.0849ZM41.6748 46.725C43.622 48.6364 44.8276 51.2801 44.8276 54.1989C44.8276 55.5147 44.5865 56.7674 44.1477 57.9123C43.6899 59.1069 43.017 60.1937 42.1788 61.1225C41.922 61.4079 41.801 61.7659 41.8114 62.1197C41.8314 63.2826 42.1988 64.2754 42.9117 65.088C41.8993 64.9915 40.8287 64.6181 39.704 63.9704C39.2836 63.7286 38.79 63.7158 38.374 63.8909C37.7037 64.1789 37.0004 64.4019 36.2735 64.5489C35.5702 64.6916 34.8294 64.7676 34.0608 64.7676C31.0864 64.7676 28.3941 63.5842 26.4469 61.6728C24.4996 59.7614 23.294 57.1185 23.294 54.1989C23.294 51.2792 24.4996 48.6364 26.4469 46.725C28.3941 44.8135 31.0864 43.6301 34.0608 43.6301C37.0352 43.6301 39.7275 44.8135 41.6748 46.725ZM56.6398 38.1198C54.5985 38.0283 52.5895 37.2354 50.8451 36.2306C50.4247 35.9887 49.9311 35.9759 49.515 36.1511C48.4191 36.621 47.2614 36.9867 46.061 37.232C44.905 37.4678 43.6916 37.5926 42.4364 37.5926C41.1812 37.5926 39.9199 37.4618 38.7361 37.214C37.8055 37.0201 36.9046 36.7552 36.0411 36.4279C35.7173 32.1676 33.8206 28.3345 30.9158 25.4824C29.1949 23.7931 27.1197 22.4508 24.8104 21.5724L24.7947 21.3485C24.7738 21.017 24.7625 20.6487 24.7625 20.2437C24.7625 15.4519 26.7411 11.1139 29.9383 7.97548C33.1355 4.83707 37.5557 2.89489 42.4364 2.89489C47.3171 2.89489 51.7373 4.83707 54.9345 7.97548C58.1317 11.1139 60.1103 15.4519 60.1103 20.2437C60.1103 22.3987 59.7143 24.4562 58.9918 26.3403C58.2397 28.2995 57.1351 30.0862 55.7563 31.6139C55.4995 31.8993 55.3785 32.2573 55.3889 32.6111C55.4185 34.4234 56.0452 35.9315 57.27 37.1252C57.6103 37.4567 57.9951 37.7592 58.4234 38.0343C57.8367 38.1215 57.2413 38.1497 56.6398 38.1198ZM50.9957 18.3306C51.8096 18.3306 52.4703 17.6821 52.4703 16.8832C52.4703 16.0842 51.8096 15.4357 50.9957 15.4357H49.327L49.7048 14.4163C49.9816 13.667 49.5873 12.839 48.8239 12.5673C48.0605 12.2956 47.217 12.6827 46.9402 13.432L46.1968 15.4357H42.2423L42.6201 14.4163C42.8969 13.667 42.5026 12.839 41.7392 12.5673C40.9758 12.2956 40.1323 12.6827 39.8555 13.432L39.1121 15.4357H33.8771C33.0633 15.4357 32.4026 16.0842 32.4026 16.8832C32.4026 17.6821 33.0633 18.3306 33.8771 18.3306H38.0388L36.62 22.1568H33.8771C33.0633 22.1568 32.4026 22.8054 32.4026 23.6043C32.4026 24.4032 33.0633 25.0517 33.8771 25.0517H35.5467L35.168 26.072C34.8912 26.8213 35.2856 27.6493 36.0489 27.921C36.8123 28.1927 37.6558 27.8056 37.9326 27.0563L38.676 25.0517H42.6314L42.2527 26.072C41.9759 26.8213 42.3703 27.6493 43.1337 27.921C43.8971 28.1927 44.7405 27.8056 45.0173 27.0563L45.7607 25.0517H50.9957C51.8096 25.0517 52.4703 24.4032 52.4703 23.6043C52.4703 22.8054 51.8096 22.1568 50.9957 22.1568H46.834L48.2529 18.3306H50.9957ZM43.7047 22.1568H39.7493L41.1681 18.3306H45.1235L43.7047 22.1568ZM31.5069 48.0297C30.8758 48.0297 30.3927 48.1955 29.8425 48.4783C29.322 48.7731 28.9077 49.1815 28.6221 49.6728C28.334 50.1641 28.1782 50.7212 28.1782 51.304V57.092C28.1782 57.7158 28.334 58.1849 28.6221 58.73C28.9355 59.2624 29.3211 59.5939 29.8425 59.9177C30.3683 60.2168 30.9385 60.3672 31.5069 60.3672C32.0753 60.3672 32.6446 60.2168 33.1703 59.9152L38.2782 57.0245C38.7996 56.7289 39.2131 56.3205 39.4986 55.8351C39.7885 55.343 39.9425 54.7859 39.9425 54.198C39.9425 53.6101 39.7885 53.0539 39.496 52.5626C39.2087 52.0738 38.7944 51.6646 38.2782 51.3715L33.1695 48.4774C32.6446 48.1827 32.0761 48.0348 31.5069 48.0297ZM36.9534 54.0083C36.9786 54.0519 36.9934 54.1168 36.9934 54.198C36.9934 54.2792 36.9795 54.3441 36.9534 54.3877C36.9229 54.439 36.8707 54.4877 36.8036 54.5261L31.6975 57.4193C31.6366 57.4543 31.5704 57.4723 31.5069 57.4723C31.4433 57.4723 31.378 57.4543 31.3171 57.4193L31.2745 57.3962C31.2292 57.3638 31.1926 57.3253 31.1674 57.2826L31.1543 57.2612C31.1369 57.2177 31.1273 57.1604 31.1273 57.092V51.304C31.1273 51.2219 31.1413 51.1562 31.1674 51.1143C31.2118 51.04 31.2779 50.9998 31.3502 50.9571C31.4007 50.9357 31.4538 50.9246 31.5069 50.9186C31.5669 50.9186 31.6331 50.9374 31.6975 50.9759L36.8036 53.8699C36.875 53.9101 36.9264 53.9562 36.9534 54.0083ZM25.3231 32.512C24.3847 31.5456 23.0425 31.0167 21.6584 31.1184C20.5321 31.2004 19.3874 31.6891 18.4403 32.6863C17.4924 31.6891 16.3469 31.2004 15.2214 31.1184C13.8382 31.0167 12.4942 31.5456 11.5576 32.512C10.6323 33.4655 10.1013 34.8378 10.3163 36.4305C10.634 38.7802 12.6639 41.6657 17.7779 44.2009C17.9468 44.2838 18.1296 44.3351 18.3185 44.3496C18.3794 44.3556 18.4421 44.3573 18.5039 44.3539C18.7067 44.3462 18.9104 44.2966 19.1028 44.2009C24.2167 41.6657 26.2458 38.782 26.5644 36.4314C26.7794 34.8378 26.2475 33.4664 25.3231 32.512ZM23.6501 36.0588C23.4533 37.5054 22.0345 39.3758 18.4403 41.2838C14.8471 39.3758 13.4265 37.5045 13.2306 36.058C13.1427 35.4034 13.3394 34.8609 13.6885 34.5011C14.0245 34.1551 14.5067 33.9654 15.002 34.0013C15.7367 34.0551 16.5358 34.6285 17.0754 35.9315C17.3801 36.6706 18.2401 37.0278 18.9931 36.7287C19.3769 36.5758 19.6598 36.2818 19.8052 35.9315C20.3449 34.6285 21.1431 34.0551 21.8778 34.0013C22.374 33.9654 22.8562 34.1551 23.1922 34.5011C23.5404 34.8609 23.738 35.4034 23.6501 36.0588ZM25.3231 32.512C24.3847 31.5456 23.0425 31.0167 21.6584 31.1184C20.5321 31.2004 19.3874 31.6891 18.4403 32.6863C17.4924 31.6891 16.3469 31.2004 15.2214 31.1184C13.8382 31.0167 12.4942 31.5456 11.5576 32.512C10.6323 33.4655 10.1013 34.8378 10.3163 36.4305C10.634 38.7802 12.6639 41.6657 17.7779 44.2009C17.9468 44.2838 18.1296 44.3351 18.3185 44.3496C18.3794 44.3556 18.4421 44.3573 18.5039 44.3539C18.7067 44.3462 18.9104 44.2966 19.1028 44.2009C24.2167 41.6657 26.2458 38.782 26.5644 36.4314C26.7794 34.8378 26.2475 33.4664 25.3231 32.512ZM23.6501 36.0588C23.4533 37.5054 22.0345 39.3758 18.4403 41.2838C14.8471 39.3758 13.4265 37.5045 13.2306 36.058C13.1427 35.4034 13.3394 34.8609 13.6885 34.5011C14.0245 34.1551 14.5067 33.9654 15.002 34.0013C15.7367 34.0551 16.5358 34.6285 17.0754 35.9315C17.3801 36.6706 18.2401 37.0278 18.9931 36.7287C19.3769 36.5758 19.6598 36.2818 19.8052 35.9315C20.3449 34.6285 21.1431 34.0551 21.8778 34.0013C22.374 33.9654 22.8562 34.1551 23.1922 34.5011C23.5404 34.8609 23.738 35.4034 23.6501 36.0588ZM39.496 52.5626C39.2087 52.0738 38.7944 51.6646 38.2782 51.3715L33.1695 48.4774C32.6446 48.1827 32.0761 48.0348 31.5069 48.0297C30.8758 48.0297 30.3927 48.1955 29.8425 48.4783C29.322 48.7731 28.9077 49.1815 28.6221 49.6728C28.334 50.1641 28.1782 50.7212 28.1782 51.304V57.092C28.1782 57.7158 28.334 58.1849 28.6221 58.73C28.9355 59.2624 29.3211 59.5939 29.8425 59.9177C30.3683 60.2168 30.9385 60.3672 31.5069 60.3672C32.0753 60.3672 32.6446 60.2168 33.1703 59.9152L38.2782 57.0245C38.7996 56.7289 39.2131 56.3205 39.4986 55.8351C39.7885 55.343 39.9425 54.7859 39.9425 54.198C39.9425 53.6101 39.7885 53.0539 39.496 52.5626ZM36.9534 54.3877C36.9229 54.439 36.8707 54.4877 36.8036 54.5261L31.6975 57.4193C31.6366 57.4543 31.5704 57.4723 31.5069 57.4723C31.4433 57.4723 31.378 57.4543 31.3171 57.4193L31.2745 57.3962C31.2292 57.3638 31.1926 57.3253 31.1674 57.2826L31.1543 57.2612C31.1369 57.2177 31.1273 57.1604 31.1273 57.092V51.304C31.1273 51.2219 31.1413 51.1562 31.1674 51.1143C31.2118 51.04 31.2779 50.9998 31.3502 50.9571C31.4007 50.9357 31.4538 50.9246 31.5069 50.9186C31.5669 50.9186 31.6331 50.9374 31.6975 50.9759L36.8036 53.8699C36.875 53.9101 36.9264 53.9562 36.9534 54.0083C36.9786 54.0519 36.9934 54.1168 36.9934 54.198C36.9934 54.2792 36.9795 54.3441 36.9534 54.3877ZM50.9957 22.1568H46.834L48.2529 18.3306H50.9957C51.8096 18.3306 52.4703 17.6821 52.4703 16.8832C52.4703 16.0842 51.8096 15.4357 50.9957 15.4357H49.327L49.7048 14.4163C49.9816 13.667 49.5873 12.839 48.8239 12.5673C48.0605 12.2956 47.217 12.6827 46.9402 13.432L46.1968 15.4357H42.2423L42.6201 14.4163C42.8969 13.667 42.5026 12.839 41.7392 12.5673C40.9758 12.2956 40.1323 12.6827 39.8555 13.432L39.1121 15.4357H33.8771C33.0633 15.4357 32.4026 16.0842 32.4026 16.8832C32.4026 17.6821 33.0633 18.3306 33.8771 18.3306H38.0388L36.62 22.1568H33.8771C33.0633 22.1568 32.4026 22.8054 32.4026 23.6043C32.4026 24.4032 33.0633 25.0517 33.8771 25.0517H35.5467L35.168 26.072C34.8912 26.8213 35.2856 27.6493 36.0489 27.921C36.8123 28.1927 37.6558 27.8056 37.9326 27.0563L38.676 25.0517H42.6314L42.2527 26.072C41.9759 26.8213 42.3703 27.6493 43.1337 27.921C43.8971 28.1927 44.7405 27.8056 45.0173 27.0563L45.7607 25.0517H50.9957C51.8096 25.0517 52.4703 24.4032 52.4703 23.6043C52.4703 22.8054 51.8096 22.1568 50.9957 22.1568ZM43.7047 22.1568H39.7493L41.1681 18.3306H45.1235L43.7047 22.1568ZM50.9957 22.1568H46.834L48.2529 18.3306H50.9957C51.8096 18.3306 52.4703 17.6821 52.4703 16.8832C52.4703 16.0842 51.8096 15.4357 50.9957 15.4357H49.327L49.7048 14.4163C49.9816 13.667 49.5873 12.839 48.8239 12.5673C48.0605 12.2956 47.217 12.6827 46.9402 13.432L46.1968 15.4357H42.2423L42.6201 14.4163C42.8969 13.667 42.5026 12.839 41.7392 12.5673C40.9758 12.2956 40.1323 12.6827 39.8555 13.432L39.1121 15.4357H33.8771C33.0633 15.4357 32.4026 16.0842 32.4026 16.8832C32.4026 17.6821 33.0633 18.3306 33.8771 18.3306H38.0388L36.62 22.1568H33.8771C33.0633 22.1568 32.4026 22.8054 32.4026 23.6043C32.4026 24.4032 33.0633 25.0517 33.8771 25.0517H35.5467L35.168 26.072C34.8912 26.8213 35.2856 27.6493 36.0489 27.921C36.8123 28.1927 37.6558 27.8056 37.9326 27.0563L38.676 25.0517H42.6314L42.2527 26.072C41.9759 26.8213 42.3703 27.6493 43.1337 27.921C43.8971 28.1927 44.7405 27.8056 45.0173 27.0563L45.7607 25.0517H50.9957C51.8096 25.0517 52.4703 24.4032 52.4703 23.6043C52.4703 22.8054 51.8096 22.1568 50.9957 22.1568ZM43.7047 22.1568H39.7493L41.1681 18.3306H45.1235L43.7047 22.1568ZM39.496 52.5626C39.2087 52.0738 38.7944 51.6646 38.2782 51.3715L33.1695 48.4774C32.6446 48.1827 32.0761 48.0348 31.5069 48.0297C30.8758 48.0297 30.3927 48.1955 29.8425 48.4783C29.322 48.7731 28.9077 49.1815 28.6221 49.6728C28.334 50.1641 28.1782 50.7212 28.1782 51.304V57.092C28.1782 57.7158 28.334 58.1849 28.6221 58.73C28.9355 59.2624 29.3211 59.5939 29.8425 59.9177C30.3683 60.2168 30.9385 60.3672 31.5069 60.3672C32.0753 60.3672 32.6446 60.2168 33.1703 59.9152L38.2782 57.0245C38.7996 56.7289 39.2131 56.3205 39.4986 55.8351C39.7885 55.343 39.9425 54.7859 39.9425 54.198C39.9425 53.6101 39.7885 53.0539 39.496 52.5626ZM36.9534 54.3877C36.9229 54.439 36.8707 54.4877 36.8036 54.5261L31.6975 57.4193C31.6366 57.4543 31.5704 57.4723 31.5069 57.4723C31.4433 57.4723 31.378 57.4543 31.3171 57.4193L31.2745 57.3962C31.2292 57.3638 31.1926 57.3253 31.1674 57.2826L31.1543 57.2612C31.1369 57.2177 31.1273 57.1604 31.1273 57.092V51.304C31.1273 51.2219 31.1413 51.1562 31.1674 51.1143C31.2118 51.04 31.2779 50.9998 31.3502 50.9571C31.4007 50.9357 31.4538 50.9246 31.5069 50.9186C31.5669 50.9186 31.6331 50.9374 31.6975 50.9759L36.8036 53.8699C36.875 53.9101 36.9264 53.9562 36.9534 54.0083C36.9786 54.0519 36.9934 54.1168 36.9934 54.198C36.9934 54.2792 36.9795 54.3441 36.9534 54.3877ZM25.3231 32.512C24.3847 31.5456 23.0425 31.0167 21.6584 31.1184C20.5321 31.2004 19.3874 31.6891 18.4403 32.6863C17.4924 31.6891 16.3469 31.2004 15.2214 31.1184C13.8382 31.0167 12.4942 31.5456 11.5576 32.512C10.6323 33.4655 10.1013 34.8378 10.3163 36.4305C10.634 38.7802 12.6639 41.6657 17.7779 44.2009C17.9468 44.2838 18.1296 44.3351 18.3185 44.3496C18.3794 44.3556 18.4421 44.3573 18.5039 44.3539C18.7067 44.3462 18.9104 44.2966 19.1028 44.2009C24.2167 41.6657 26.2458 38.782 26.5644 36.4314C26.7794 34.8378 26.2475 33.4664 25.3231 32.512ZM23.6501 36.0588C23.4533 37.5054 22.0345 39.3758 18.4403 41.2838C14.8471 39.3758 13.4265 37.5045 13.2306 36.058C13.1427 35.4034 13.3394 34.8609 13.6885 34.5011C14.0245 34.1551 14.5067 33.9654 15.002 34.0013C15.7367 34.0551 16.5358 34.6285 17.0754 35.9315C17.3801 36.6706 18.2401 37.0278 18.9931 36.7287C19.3769 36.5758 19.6598 36.2818 19.8052 35.9315C20.3449 34.6285 21.1431 34.0551 21.8778 34.0013C22.374 33.9654 22.8562 34.1551 23.1922 34.5011C23.5404 34.8609 23.738 35.4034 23.6501 36.0588ZM25.3231 32.512C24.3847 31.5456 23.0425 31.0167 21.6584 31.1184C20.5321 31.2004 19.3874 31.6891 18.4403 32.6863C17.4924 31.6891 16.3469 31.2004 15.2214 31.1184C13.8382 31.0167 12.4942 31.5456 11.5576 32.512C10.6323 33.4655 10.1013 34.8378 10.3163 36.4305C10.634 38.7802 12.6639 41.6657 17.7779 44.2009C17.9468 44.2838 18.1296 44.3351 18.3185 44.3496C18.3794 44.3556 18.4421 44.3573 18.5039 44.3539C18.7067 44.3462 18.9104 44.2966 19.1028 44.2009C24.2167 41.6657 26.2458 38.782 26.5644 36.4314C26.7794 34.8378 26.2475 33.4664 25.3231 32.512ZM23.6501 36.0588C23.4533 37.5054 22.0345 39.3758 18.4403 41.2838C14.8471 39.3758 13.4265 37.5045 13.2306 36.058C13.1427 35.4034 13.3394 34.8609 13.6885 34.5011C14.0245 34.1551 14.5067 33.9654 15.002 34.0013C15.7367 34.0551 16.5358 34.6285 17.0754 35.9315C17.3801 36.6706 18.2401 37.0278 18.9931 36.7287C19.3769 36.5758 19.6598 36.2818 19.8052 35.9315C20.3449 34.6285 21.1431 34.0551 21.8778 34.0013C22.374 33.9654 22.8562 34.1551 23.1922 34.5011C23.5404 34.8609 23.738 35.4034 23.6501 36.0588ZM39.496 52.5626C39.2087 52.0738 38.7944 51.6646 38.2782 51.3715L33.1695 48.4774C32.6446 48.1827 32.0761 48.0348 31.5069 48.0297C30.8758 48.0297 30.3927 48.1955 29.8425 48.4783C29.322 48.7731 28.9077 49.1815 28.6221 49.6728C28.334 50.1641 28.1782 50.7212 28.1782 51.304V57.092C28.1782 57.7158 28.334 58.1849 28.6221 58.73C28.9355 59.2624 29.3211 59.5939 29.8425 59.9177C30.3683 60.2168 30.9385 60.3672 31.5069 60.3672C32.0753 60.3672 32.6446 60.2168 33.1703 59.9152L38.2782 57.0245C38.7996 56.7289 39.2131 56.3205 39.4986 55.8351C39.7885 55.343 39.9425 54.7859 39.9425 54.198C39.9425 53.6101 39.7885 53.0539 39.496 52.5626ZM36.9534 54.3877C36.9229 54.439 36.8707 54.4877 36.8036 54.5261L31.6975 57.4193C31.6366 57.4543 31.5704 57.4723 31.5069 57.4723C31.4433 57.4723 31.378 57.4543 31.3171 57.4193L31.2745 57.3962C31.2292 57.3638 31.1926 57.3253 31.1674 57.2826L31.1543 57.2612C31.1369 57.2177 31.1273 57.1604 31.1273 57.092V51.304C31.1273 51.2219 31.1413 51.1562 31.1674 51.1143C31.2118 51.04 31.2779 50.9998 31.3502 50.9571C31.4007 50.9357 31.4538 50.9246 31.5069 50.9186C31.5669 50.9186 31.6331 50.9374 31.6975 50.9759L36.8036 53.8699C36.875 53.9101 36.9264 53.9562 36.9534 54.0083C36.9786 54.0519 36.9934 54.1168 36.9934 54.198C36.9934 54.2792 36.9795 54.3441 36.9534 54.3877ZM50.9957 22.1568H46.834L48.2529 18.3306H50.9957C51.8096 18.3306 52.4703 17.6821 52.4703 16.8832C52.4703 16.0842 51.8096 15.4357 50.9957 15.4357H49.327L49.7048 14.4163C49.9816 13.667 49.5873 12.839 48.8239 12.5673C48.0605 12.2956 47.217 12.6827 46.9402 13.432L46.1968 15.4357H42.2423L42.6201 14.4163C42.8969 13.667 42.5026 12.839 41.7392 12.5673C40.9758 12.2956 40.1323 12.6827 39.8555 13.432L39.1121 15.4357H33.8771C33.0633 15.4357 32.4026 16.0842 32.4026 16.8832C32.4026 17.6821 33.0633 18.3306 33.8771 18.3306H38.0388L36.62 22.1568H33.8771C33.0633 22.1568 32.4026 22.8054 32.4026 23.6043C32.4026 24.4032 33.0633 25.0517 33.8771 25.0517H35.5467L35.168 26.072C34.8912 26.8213 35.2856 27.6493 36.0489 27.921C36.8123 28.1927 37.6558 27.8056 37.9326 27.0563L38.676 25.0517H42.6314L42.2527 26.072C41.9759 26.8213 42.3703 27.6493 43.1337 27.921C43.8971 28.1927 44.7405 27.8056 45.0173 27.0563L45.7607 25.0517H50.9957C51.8096 25.0517 52.4703 24.4032 52.4703 23.6043C52.4703 22.8054 51.8096 22.1568 50.9957 22.1568ZM43.7047 22.1568H39.7493L41.1681 18.3306H45.1235L43.7047 22.1568ZM50.9957 22.1568H46.834L48.2529 18.3306H50.9957C51.8096 18.3306 52.4703 17.6821 52.4703 16.8832C52.4703 16.0842 51.8096 15.4357 50.9957 15.4357H49.327L49.7048 14.4163C49.9816 13.667 49.5873 12.839 48.8239 12.5673C48.0605 12.2956 47.217 12.6827 46.9402 13.432L46.1968 15.4357H42.2423L42.6201 14.4163C42.8969 13.667 42.5026 12.839 41.7392 12.5673C40.9758 12.2956 40.1323 12.6827 39.8555 13.432L39.1121 15.4357H33.8771C33.0633 15.4357 32.4026 16.0842 32.4026 16.8832C32.4026 17.6821 33.0633 18.3306 33.8771 18.3306H38.0388L36.62 22.1568H33.8771C33.0633 22.1568 32.4026 22.8054 32.4026 23.6043C32.4026 24.4032 33.0633 25.0517 33.8771 25.0517H35.5467L35.168 26.072C34.8912 26.8213 35.2856 27.6493 36.0489 27.921C36.8123 28.1927 37.6558 27.8056 37.9326 27.0563L38.676 25.0517H42.6314L42.2527 26.072C41.9759 26.8213 42.3703 27.6493 43.1337 27.921C43.8971 28.1927 44.7405 27.8056 45.0173 27.0563L45.7607 25.0517H50.9957C51.8096 25.0517 52.4703 24.4032 52.4703 23.6043C52.4703 22.8054 51.8096 22.1568 50.9957 22.1568ZM43.7047 22.1568H39.7493L41.1681 18.3306H45.1235L43.7047 22.1568ZM39.496 52.5626C39.2087 52.0738 38.7944 51.6646 38.2782 51.3715L33.1695 48.4774C32.6446 48.1827 32.0761 48.0348 31.5069 48.0297C30.8758 48.0297 30.3927 48.1955 29.8425 48.4783C29.322 48.7731 28.9077 49.1815 28.6221 49.6728C28.334 50.1641 28.1782 50.7212 28.1782 51.304V57.092C28.1782 57.7158 28.334 58.1849 28.6221 58.73C28.9355 59.2624 29.3211 59.5939 29.8425 59.9177C30.3683 60.2168 30.9385 60.3672 31.5069 60.3672C32.0753 60.3672 32.6446 60.2168 33.1703 59.9152L38.2782 57.0245C38.7996 56.7289 39.2131 56.3205 39.4986 55.8351C39.7885 55.343 39.9425 54.7859 39.9425 54.198C39.9425 53.6101 39.7885 53.0539 39.496 52.5626ZM36.9534 54.3877C36.9229 54.439 36.8707 54.4877 36.8036 54.5261L31.6975 57.4193C31.6366 57.4543 31.5704 57.4723 31.5069 57.4723C31.4433 57.4723 31.378 57.4543 31.3171 57.4193L31.2745 57.3962C31.2292 57.3638 31.1926 57.3253 31.1674 57.2826L31.1543 57.2612C31.1369 57.2177 31.1273 57.1604 31.1273 57.092V51.304C31.1273 51.2219 31.1413 51.1562 31.1674 51.1143C31.2118 51.04 31.2779 50.9998 31.3502 50.9571C31.4007 50.9357 31.4538 50.9246 31.5069 50.9186C31.5669 50.9186 31.6331 50.9374 31.6975 50.9759L36.8036 53.8699C36.875 53.9101 36.9264 53.9562 36.9534 54.0083C36.9786 54.0519 36.9934 54.1168 36.9934 54.198C36.9934 54.2792 36.9795 54.3441 36.9534 54.3877ZM25.3231 32.512C24.3847 31.5456 23.0425 31.0167 21.6584 31.1184C20.5321 31.2004 19.3874 31.6891 18.4403 32.6863C17.4924 31.6891 16.3469 31.2004 15.2214 31.1184C13.8382 31.0167 12.4942 31.5456 11.5576 32.512C10.6323 33.4655 10.1013 34.8378 10.3163 36.4305C10.634 38.7802 12.6639 41.6657 17.7779 44.2009C17.9468 44.2838 18.1296 44.3351 18.3185 44.3496C18.3794 44.3556 18.4421 44.3573 18.5039 44.3539C18.7067 44.3462 18.9104 44.2966 19.1028 44.2009C24.2167 41.6657 26.2458 38.782 26.5644 36.4314C26.7794 34.8378 26.2475 33.4664 25.3231 32.512ZM23.6501 36.0588C23.4533 37.5054 22.0345 39.3758 18.4403 41.2838C14.8471 39.3758 13.4265 37.5045 13.2306 36.058C13.1427 35.4034 13.3394 34.8609 13.6885 34.5011C14.0245 34.1551 14.5067 33.9654 15.002 34.0013C15.7367 34.0551 16.5358 34.6285 17.0754 35.9315C17.3801 36.6706 18.2401 37.0278 18.9931 36.7287C19.3769 36.5758 19.6598 36.2818 19.8052 35.9315C20.3449 34.6285 21.1431 34.0551 21.8778 34.0013C22.374 33.9654 22.8562 34.1551 23.1922 34.5011C23.5404 34.8609 23.738 35.4034 23.6501 36.0588ZM25.3231 32.512C24.3847 31.5456 23.0425 31.0167 21.6584 31.1184C20.5321 31.2004 19.3874 31.6891 18.4403 32.6863C17.4924 31.6891 16.3469 31.2004 15.2214 31.1184C13.8382 31.0167 12.4942 31.5456 11.5576 32.512C10.6323 33.4655 10.1013 34.8378 10.3163 36.4305C10.634 38.7802 12.6639 41.6657 17.7779 44.2009C17.9468 44.2838 18.1296 44.3351 18.3185 44.3496C18.3794 44.3556 18.4421 44.3573 18.5039 44.3539C18.7067 44.3462 18.9104 44.2966 19.1028 44.2009C24.2167 41.6657 26.2458 38.782 26.5644 36.4314C26.7794 34.8378 26.2475 33.4664 25.3231 32.512ZM23.6501 36.0588C23.4533 37.5054 22.0345 39.3758 18.4403 41.2838C14.8471 39.3758 13.4265 37.5045 13.2306 36.058C13.1427 35.4034 13.3394 34.8609 13.6885 34.5011C14.0245 34.1551 14.5067 33.9654 15.002 34.0013C15.7367 34.0551 16.5358 34.6285 17.0754 35.9315C17.3801 36.6706 18.2401 37.0278 18.9931 36.7287C19.3769 36.5758 19.6598 36.2818 19.8052 35.9315C20.3449 34.6285 21.1431 34.0551 21.8778 34.0013C22.374 33.9654 22.8562 34.1551 23.1922 34.5011C23.5404 34.8609 23.738 35.4034 23.6501 36.0588ZM39.496 52.5626C39.2087 52.0738 38.7944 51.6646 38.2782 51.3715L33.1695 48.4774C32.6446 48.1827 32.0761 48.0348 31.5069 48.0297C30.8758 48.0297 30.3927 48.1955 29.8425 48.4783C29.322 48.7731 28.9077 49.1815 28.6221 49.6728C28.334 50.1641 28.1782 50.7212 28.1782 51.304V57.092C28.1782 57.7158 28.334 58.1849 28.6221 58.73C28.9355 59.2624 29.3211 59.5939 29.8425 59.9177C30.3683 60.2168 30.9385 60.3672 31.5069 60.3672C32.0753 60.3672 32.6446 60.2168 33.1703 59.9152L38.2782 57.0245C38.7996 56.7289 39.2131 56.3205 39.4986 55.8351C39.7885 55.343 39.9425 54.7859 39.9425 54.198C39.9425 53.6101 39.7885 53.0539 39.496 52.5626ZM36.9534 54.3877C36.9229 54.439 36.8707 54.4877 36.8036 54.5261L31.6975 57.4193C31.6366 57.4543 31.5704 57.4723 31.5069 57.4723C31.4433 57.4723 31.378 57.4543 31.3171 57.4193L31.2745 57.3962C31.2292 57.3638 31.1926 57.3253 31.1674 57.2826L31.1543 57.2612C31.1369 57.2177 31.1273 57.1604 31.1273 57.092V51.304C31.1273 51.2219 31.1413 51.1562 31.1674 51.1143C31.2118 51.04 31.2779 50.9998 31.3502 50.9571C31.4007 50.9357 31.4538 50.9246 31.5069 50.9186C31.5669 50.9186 31.6331 50.9374 31.6975 50.9759L36.8036 53.8699C36.875 53.9101 36.9264 53.9562 36.9534 54.0083C36.9786 54.0519 36.9934 54.1168 36.9934 54.198C36.9934 54.2792 36.9795 54.3441 36.9534 54.3877ZM50.9957 22.1568H46.834L48.2529 18.3306H50.9957C51.8096 18.3306 52.4703 17.6821 52.4703 16.8832C52.4703 16.0842 51.8096 15.4357 50.9957 15.4357H49.327L49.7048 14.4163C49.9816 13.667 49.5873 12.839 48.8239 12.5673C48.0605 12.2956 47.217 12.6827 46.9402 13.432L46.1968 15.4357H42.2423L42.6201 14.4163C42.8969 13.667 42.5026 12.839 41.7392 12.5673C40.9758 12.2956 40.1323 12.6827 39.8555 13.432L39.1121 15.4357H33.8771C33.0633 15.4357 32.4026 16.0842 32.4026 16.8832C32.4026 17.6821 33.0633 18.3306 33.8771 18.3306H38.0388L36.62 22.1568H33.8771C33.0633 22.1568 32.4026 22.8054 32.4026 23.6043C32.4026 24.4032 33.0633 25.0517 33.8771 25.0517H35.5467L35.168 26.072C34.8912 26.8213 35.2856 27.6493 36.0489 27.921C36.8123 28.1927 37.6558 27.8056 37.9326 27.0563L38.676 25.0517H42.6314L42.2527 26.072C41.9759 26.8213 42.3703 27.6493 43.1337 27.921C43.8971 28.1927 44.7405 27.8056 45.0173 27.0563L45.7607 25.0517H50.9957C51.8096 25.0517 52.4703 24.4032 52.4703 23.6043C52.4703 22.8054 51.8096 22.1568 50.9957 22.1568ZM43.7047 22.1568H39.7493L41.1681 18.3306H45.1235L43.7047 22.1568Z" fill="var(--fill-0, #1E1E1E)"/>
<path id="Vector_2" d="M25.3234 32.512C24.385 31.5456 23.0428 31.0167 21.6587 31.1184C20.5323 31.2004 19.3877 31.6892 18.4406 32.6863C17.4927 31.6892 16.3471 31.2004 15.2216 31.1184C13.8385 31.0167 12.4945 31.5456 11.5579 32.512C10.6326 33.4656 10.1016 34.8378 10.3166 36.4305C10.6343 38.7803 12.6642 41.6658 17.7782 44.2009C17.9471 44.2838 18.1299 44.3351 18.3187 44.3496C18.3806 44.3522 18.4424 44.353 18.5042 44.3539C18.707 44.3462 18.9107 44.2966 19.103 44.2009C24.217 41.6658 26.2461 38.782 26.5647 36.4314C26.7797 34.8378 26.2478 33.4664 25.3234 32.512ZM23.6503 36.0588C23.4536 37.5054 22.0348 39.3758 18.4406 41.2838C14.8473 39.3758 13.4267 37.5046 13.2309 36.058C13.143 35.4035 13.3397 34.8609 13.6887 34.5012C14.0247 34.1551 14.507 33.9654 15.0023 34.0013C15.737 34.0551 16.536 34.6285 17.0757 35.9315C17.3804 36.6706 18.2404 37.0278 18.9934 36.7287C19.3772 36.5758 19.6601 36.2818 19.8055 35.9315C20.3452 34.6285 21.1434 34.0551 21.8781 34.0013C22.3742 33.9654 22.8565 34.1551 23.1925 34.5012C23.5407 34.8609 23.7383 35.4035 23.6503 36.0588Z" fill="var(--fill-0, #75E1B3)"/>
<path id="Vector_3" d="M39.4961 52.5626C39.2089 52.0739 38.7945 51.6646 38.2784 51.3715L33.1696 48.4775C32.6447 48.1827 32.0763 48.0349 31.507 48.0297C30.8759 48.0297 30.3928 48.1955 29.8427 48.4783C29.3221 48.7731 28.9078 49.1815 28.6223 49.6728C28.3342 50.1642 28.1784 50.7213 28.1784 51.304V57.0921C28.1784 57.7158 28.3342 58.1849 28.6223 58.7301C28.9357 59.2624 29.3213 59.5939 29.8427 59.9177C30.3684 60.2168 30.9386 60.3672 31.507 60.3672C32.0754 60.3672 32.6447 60.2168 33.1705 59.9152L38.2784 57.0246C38.7998 56.7289 39.2132 56.3205 39.4987 55.8352C39.7886 55.343 39.9427 54.7859 39.9427 54.198C39.9427 53.6102 39.7886 53.0539 39.4961 52.5626ZM36.9535 54.3877C36.923 54.439 36.8708 54.4877 36.8038 54.5261L31.6976 57.4193C31.6367 57.4544 31.5706 57.4723 31.507 57.4723C31.4435 57.4723 31.3782 57.4544 31.3173 57.4193L31.2746 57.3962C31.2293 57.3638 31.1928 57.3253 31.1675 57.2826L31.1545 57.2612C31.1371 57.2177 31.1275 57.1604 31.1275 57.0921V51.304C31.1275 51.222 31.1414 51.1562 31.1675 51.1143C31.2119 51.04 31.2781 50.9998 31.3503 50.9571C31.4008 50.9357 31.4539 50.9246 31.507 50.9186C31.5671 50.9186 31.6332 50.9374 31.6976 50.9759L36.8038 53.8699C36.8752 53.9101 36.9265 53.9562 36.9535 54.0083C36.9788 54.0519 36.9935 54.1169 36.9935 54.198C36.9935 54.2792 36.9796 54.3441 36.9535 54.3877Z" fill="var(--fill-0, #75E1B3)"/>
<path id="Vector_4" d="M50.9961 22.1569H46.8344L48.2533 18.3306H50.9961C51.81 18.3306 52.4706 17.6821 52.4706 16.8832C52.4706 16.0843 51.81 15.4357 50.9961 15.4357H49.3274L49.7052 14.4164C49.982 13.667 49.5877 12.839 48.8243 12.5673C48.0609 12.2956 47.2174 12.6827 46.9406 13.432L46.1972 15.4357H42.2427L42.6205 14.4164C42.8973 13.667 42.503 12.839 41.7396 12.5673C40.9762 12.2956 40.1327 12.6827 39.8559 13.432L39.1125 15.4357H33.8775C33.0637 15.4357 32.403 16.0843 32.403 16.8832C32.403 17.6821 33.0637 18.3306 33.8775 18.3306H38.0392L36.6204 22.1569H33.8775C33.0637 22.1569 32.403 22.8054 32.403 23.6043C32.403 24.4032 33.0637 25.0517 33.8775 25.0517H35.5471L35.1684 26.072C34.8916 26.8213 35.2859 27.6493 36.0493 27.921C36.8127 28.1927 37.6562 27.8056 37.933 27.0563L38.6764 25.0517H42.6318L42.2531 26.072C41.9763 26.8213 42.3707 27.6493 43.1341 27.921C43.8974 28.1927 44.7409 27.8056 45.0177 27.0563L45.7611 25.0517H50.9961C51.81 25.0517 52.4706 24.4032 52.4706 23.6043C52.4706 22.8054 51.81 22.1569 50.9961 22.1569ZM43.7051 22.1569H39.7497L41.1685 18.3306H45.1239L43.7051 22.1569Z" fill="var(--fill-0, #75E1B3)"/>
</g>
<defs>
<clipPath id="clip0_319_180">
<rect width="64" height="68" fill="white"/>
</clipPath>
</defs>
</svg>
