<svg preserveAspectRatio="none" width="100%" height="100%" overflow="visible" style="display: block;" viewBox="0 0 29 29" fill="none" xmlns="http://www.w3.org/2000/svg">
<g id="Group 57">
<circle id="Ellipse 13" cx="14.5" cy="14.5" r="14.5" fill="var(--fill-0, white)"/>
<path id="Vector" d="M20.9247 18.4554C20.277 17.2942 19.1726 16.5369 17.5821 16.1962C17.3463 16.1459 17.096 16.1962 16.9045 16.3353L15.5941 17.2568C15.3439 17.4333 14.9758 17.459 14.6956 17.3071C13.3117 16.5749 12.1773 15.6031 11.3238 14.4169C11.1472 14.1772 11.1765 13.8617 11.3824 13.6467L12.4575 12.5235C12.6197 12.3593 12.6784 12.1448 12.6197 11.9427C12.2073 10.5666 11.3238 9.61993 9.96913 9.06467C9.74824 8.97641 9.49802 8.97641 9.27714 9.07749C8.59952 9.39305 7.93687 9.74657 7.31848 10.1376C7.08263 10.2889 6.9653 10.5414 7.00901 10.7938C7.45078 13.053 8.87902 15.4261 11.1908 17.4076C13.5026 19.3892 16.2711 20.6012 18.9067 20.9921C19.2013 21.0301 19.4958 20.929 19.6724 20.7269C20.1291 20.1968 20.5409 19.6411 20.9091 19.048C21.0276 18.8596 21.0277 18.6447 20.9247 18.4554Z" fill="var(--fill-0, #1E1E1E)"/>
</g>
</svg>
