<svg preserveAspectRatio="none" width="100%" height="100%" overflow="visible" style="display: block;" viewBox="0 0 45 55" fill="none" xmlns="http://www.w3.org/2000/svg">
<g id="Group">
<path id="Vector" d="M45 22.4093C45 21.1839 44.4609 20.0954 43.6138 19.3523C44.4545 18.6093 45 17.5207 45 16.2953C45 14.0466 43.2031 12.2215 40.989 12.2215H38.9867V5.09066C38.9867 2.28135 36.7406 0 33.9746 0H17.9307C15.1647 0 12.9186 2.28135 12.9186 5.09066V11.1721C11.834 10.1357 10.5248 9.64684 9.53651 9.41218C8.66372 9.21012 7.75242 9.41218 7.04007 9.9923C6.30847 10.5854 5.89775 11.4589 5.89775 12.404V28.3017C5.39718 29.4815 3.08685 35.2566 3.83129 40.256L0.198945 45.1837C0.0705933 45.3597 0 45.5683 0 45.7964V53.9767C0 54.5372 0.44923 54.9935 1.00114 54.9935H17.7767C18.059 54.9935 18.3157 54.8696 18.5083 54.6676L21.9866 50.848C23.7001 50.5937 30.6118 49.2901 33.6088 44.8056H33.9682C36.7342 44.8056 38.9803 42.5243 38.9803 39.715V38.6982H40.9826C43.1967 38.6982 44.9936 36.8731 44.9936 34.6243C44.9936 33.3989 44.4545 32.3104 43.6074 31.5673C44.4481 30.8242 44.9936 29.7357 44.9936 28.5103C44.9936 27.2849 44.4545 26.1964 43.6074 25.4533C44.4481 24.7102 44.9936 23.6217 44.9936 22.3963L45 22.4093ZM40.989 14.2617C42.0928 14.2617 42.9913 15.1807 42.9913 16.2953C42.9913 17.4099 42.0864 18.329 40.989 18.329H38.9867V14.2552H40.989V14.2617ZM30.9648 2.04018V3.057C30.9648 3.61756 30.5155 4.07383 29.9636 4.07383H21.9417C21.3898 4.07383 20.9405 3.61756 20.9405 3.057V2.04018H30.9648ZM21.3898 48.873C21.1459 48.9056 20.9277 49.0164 20.7673 49.1858L17.3403 52.9468H2.00228V46.1223L5.69238 41.1099C5.86566 40.8752 5.92342 40.5884 5.87208 40.3081C4.94153 35.3869 7.77809 28.9796 7.81018 28.921C7.86794 28.7906 7.90003 28.6472 7.90003 28.4908V12.3714C7.90003 12.0585 8.04121 11.7587 8.2915 11.5566C8.41985 11.4458 8.71506 11.2829 9.08086 11.3611C11.6286 11.9608 12.9122 13.6816 12.9122 16.4713V39.6824C12.9122 42.4917 15.1583 44.7731 17.9243 44.7731H31.0225C27.7239 48.0517 21.4539 48.8273 21.3833 48.8338V48.8664L21.3898 48.873ZM36.978 39.7215C36.978 41.4032 35.6239 42.7785 33.9682 42.7785H17.9243C16.2685 42.7785 14.9144 41.4032 14.9144 39.7215V5.09066C14.9144 3.40898 16.2685 2.03366 17.9243 2.03366H18.9254V3.05049C18.9254 4.73216 20.2795 6.10749 21.9353 6.10749H29.9572C31.6129 6.10749 32.9671 4.73216 32.9671 3.05049V2.03366H33.9682C35.6239 2.03366 36.978 3.40898 36.978 5.09066V39.715V39.7215ZM42.9977 34.6243C42.9977 35.7454 42.0928 36.658 40.9954 36.658H38.9932V32.5841H40.9954C42.0993 32.5841 42.9977 33.5032 42.9977 34.6178V34.6243ZM42.9977 28.5168C42.9977 29.6379 42.0928 30.5505 40.9954 30.5505H38.9932V26.4767H40.9954C42.0993 26.4767 42.9977 27.3957 42.9977 28.5103V28.5168ZM38.9867 24.443V20.3692H40.989C42.0928 20.3692 42.9913 21.2882 42.9913 22.4028C42.9913 23.5174 42.0864 24.4365 40.989 24.4365H38.9867V24.443Z" fill="var(--fill-0, black)"/>
<path id="Vector_2" d="M27.9487 16.6734C27.416 16.5105 26.8577 16.8168 26.6972 17.3578L23.2895 28.908C23.1291 29.449 23.4307 30.016 23.9634 30.179C24.066 30.2116 24.1559 30.2181 24.2522 30.2181C24.6821 30.2181 25.0864 29.9313 25.2148 29.4946L28.6225 17.9445C28.783 17.4035 28.4813 16.8364 27.9487 16.6734Z" fill="var(--fill-0, #75E1B3)"/>
<path id="Vector_3" d="M21.8714 18.8506C21.4799 18.453 20.851 18.453 20.4595 18.8506L16.6667 22.7028C16.2753 23.1004 16.2753 23.7392 16.6667 24.1368L20.4595 27.989C20.6585 28.1911 20.9087 28.2823 21.1719 28.2823C21.435 28.2823 21.6853 28.1781 21.8842 27.989C22.2757 27.5914 22.2757 26.9527 21.8842 26.555L18.8038 23.4263L21.8842 20.2976C22.2757 19.9 22.2757 19.2613 21.8842 18.8636L21.8714 18.8506Z" fill="var(--fill-0, #75E1B3)"/>
<path id="Vector_4" d="M31.4592 18.8506C31.0678 18.453 30.4389 18.453 30.0474 18.8506C29.6559 19.2482 29.6559 19.887 30.0474 20.2846L33.1278 23.4133L30.0474 26.542C29.6559 26.9396 29.6559 27.5784 30.0474 27.976C30.2463 28.1781 30.4966 28.2693 30.7597 28.2693C31.0229 28.2693 31.2731 28.165 31.4721 27.976L35.2649 24.1238C35.6563 23.7262 35.6563 23.0874 35.2649 22.6898L31.4721 18.8376L31.4592 18.8506Z" fill="var(--fill-0, #75E1B3)"/>
</g>
</svg>
