<svg preserveAspectRatio="none" width="100%" height="100%" overflow="visible" style="display: block;" viewBox="0 0 96 93" fill="none" xmlns="http://www.w3.org/2000/svg">
<g id="Layer_1" clip-path="url(#clip0_319_186)">
<path id="Vector" d="M78.5759 61.3239C77.7919 60.9278 76.8318 61.2288 76.4158 62.0053C74.0478 66.5689 70.5919 70.4829 66.3358 73.4302C65.6158 73.9373 65.4399 74.9198 65.9519 75.6328C66.4639 76.3459 67.4559 76.5202 68.1759 76.029C72.8479 72.7806 76.6559 68.4704 79.2639 63.4473C79.6639 62.6708 79.3599 61.7201 78.5759 61.3081V61.3239Z" fill="var(--fill-0, #1E1E1E)"/>
<path id="Vector_2" d="M76.768 47.5221C76.752 31.7712 63.872 19.0152 47.968 18.9993C9.75996 20.5681 9.77596 74.4761 47.968 76.0448C63.872 76.029 76.752 63.2729 76.768 47.5221ZM47.968 72.8756C33.84 72.8598 22.384 61.514 22.368 47.5221C23.776 13.8811 72.16 13.8969 73.568 47.5221C73.552 61.514 62.096 72.8598 47.968 72.8756Z" fill="var(--fill-0, #1E1E1E)"/>
<path id="Vector_3" d="M67.7598 42.7525C67.3598 41.5323 66.3838 40.5974 65.1518 40.233L56.3678 37.6659L51.1998 30.1866C49.9838 28.4277 47.5518 27.9682 45.7758 29.1725C45.3758 29.4418 45.0398 29.7905 44.7518 30.1866L39.5678 37.6659L30.7838 40.233C28.7198 40.8351 27.5358 42.9902 28.1438 45.0343C28.2878 45.4938 28.4958 45.9217 28.7998 46.302L34.3838 53.496L34.1278 62.5599C34.0638 64.6991 35.7758 66.4739 37.9358 66.5373C38.4158 66.5373 38.8958 66.4739 39.3438 66.3154L47.9678 63.273L56.5918 66.3154C58.6238 67.0285 60.8639 65.9827 61.5839 63.9702C61.7439 63.5265 61.8238 63.0512 61.8078 62.5758L61.5518 53.5119L67.1358 46.3178C67.9198 45.3037 68.1598 43.9726 67.7598 42.7683V42.7525ZM64.6078 44.3688L58.6718 52.0065C58.4478 52.2917 58.3358 52.6562 58.3358 53.0207L58.6078 62.655C58.6238 63.0353 58.3358 63.3522 57.9518 63.3839C57.8558 63.3839 57.7438 63.3839 57.6638 63.3364L48.4958 60.1038C48.1438 59.977 47.7758 59.977 47.4238 60.1038L38.2558 63.3364C37.9038 63.479 37.5038 63.3047 37.3598 62.9561C37.3278 62.861 37.3118 62.7659 37.3118 62.6708L37.5838 53.0365C37.5838 52.672 37.4718 52.3234 37.2478 52.0224L31.3118 44.3846C31.0718 44.0994 31.1038 43.6557 31.4078 43.418C31.4878 43.3546 31.5838 43.3071 31.6798 43.2754L41.0078 40.5499C41.3598 40.4548 41.6638 40.233 41.8718 39.9319L47.3758 31.9931C47.5838 31.6761 48.0158 31.5811 48.3358 31.7871C48.4158 31.8346 48.4958 31.9138 48.5438 31.9931L54.0478 39.9319C54.2558 40.233 54.5598 40.4548 54.9118 40.5499L64.2399 43.2754C64.6079 43.3705 64.8318 43.7508 64.7358 44.1152C64.7038 44.2103 64.6718 44.3054 64.6078 44.3846V44.3688Z" fill="var(--fill-0, #75E1B3)"/>
<path id="Vector_4" d="M80.2559 56.8554C79.4239 56.586 78.5119 57.0297 78.2399 57.8695C77.9679 58.6777 78.3999 59.565 79.2159 59.8503C80.0479 60.1197 80.9599 59.676 81.2319 58.8361C81.5039 58.028 81.0719 57.1406 80.2559 56.8554Z" fill="var(--fill-0, #1E1E1E)"/>
<path id="Vector_5" d="M19.5041 33.023C21.8721 28.4594 25.3281 24.5454 29.5841 21.5981C30.3041 21.0752 30.4481 20.0927 29.9361 19.3796C29.4241 18.6983 28.4641 18.524 27.7601 18.9993C23.0881 22.2478 19.2801 26.5579 16.6721 31.581C16.2721 32.3575 16.5761 33.3083 17.3601 33.7202C18.1441 34.1164 19.1041 33.8153 19.5201 33.0389L19.5041 33.023Z" fill="var(--fill-0, #1E1E1E)"/>
<path id="Vector_6" d="M16.7201 35.1781C15.8721 34.9087 14.9761 35.3683 14.7041 36.2081C14.4481 37.0162 14.8801 37.9036 15.6801 38.1888C16.5281 38.4582 17.4241 37.9987 17.6961 37.1589C17.9521 36.3507 17.5201 35.4633 16.7201 35.1781Z" fill="var(--fill-0, #1E1E1E)"/>
<path id="Vector_7" d="M86.2239 18.1278C86.0479 18.0644 85.8879 18.0169 85.6959 18.001H85.6159C85.4879 18.001 85.3439 18.0169 85.1999 18.0644C83.9519 17.2721 82.5599 16.7333 81.0879 16.4481C78.6399 16.765 77.0719 18.3179 76.0799 19.9501C76.3679 19.5856 76.6879 19.237 77.0399 18.9201C79.5359 19.3479 82.5119 19.7599 83.8239 21.0117C83.8239 21.0117 84.0159 19.5698 84.6559 18.6982C84.6559 18.6982 84.6559 18.6824 84.6719 18.6665C85.0399 18.1753 85.5519 17.8901 86.2719 18.1595C86.2559 18.1436 86.2399 18.1278 86.2239 18.1278ZM87.5359 60.2622C89.2799 56.063 96.1439 52.6561 95.9679 47.522C95.9999 42.4355 89.6959 39.0286 87.4879 34.9879H87.5039V34.9562C88.3999 31.9613 91.1679 29.8855 94.3519 29.8696C94.9439 29.8538 95.4559 29.5369 95.7119 29.0615C95.5039 29.315 95.1999 29.4735 94.8479 29.4735C93.9519 29.4735 93.0559 29.6161 92.2079 29.9172C90.4639 30.1549 89.3439 31.2799 88.6239 32.4525C87.9359 33.2924 87.4399 34.2748 87.1359 35.3207C86.9439 36.0179 86.8319 36.7626 86.8319 37.5074C86.8159 37.9986 86.5279 38.3948 86.0799 38.5532C86.9119 39.6308 87.8399 40.6449 88.8159 41.5957C90.7519 43.5606 92.7519 45.573 92.7519 47.522C92.4159 51.6578 85.6319 55.0964 84.4799 59.2798C83.9199 61.7517 83.9359 64.3029 84.4959 66.7591C84.8799 69.4053 85.2799 72.1308 84.1919 73.6045C81.4399 76.6786 73.8879 75.5536 70.5119 78.2949C66.8639 80.656 65.6159 88.1194 61.7919 89.7357C57.7759 90.528 52.3359 85.2672 47.9519 85.5524C43.5839 85.283 38.1279 90.528 34.1119 89.7357C30.2879 88.1194 29.0559 80.656 25.3919 78.2949C22.0159 75.5536 14.4479 76.6786 11.7119 73.6045C10.6239 72.1308 11.0239 69.4053 11.4079 66.7591C12.5759 60.8168 11.6159 57.5525 7.08789 53.4484C1.93589 48.5362 1.90389 46.5238 7.08789 41.5957C11.6319 37.4757 12.5759 34.2273 11.4079 28.285C10.2239 21.4554 11.2799 19.9976 18.2399 19.0151C24.3519 18.3021 27.1359 16.3372 29.6959 10.7911C32.7679 4.64285 34.3999 3.83471 40.6399 7.13067C53.8879 15.5449 59.6799 -3.16921 65.9359 10.2682C66.8959 9.65018 67.6799 8.90542 68.3039 7.93881C64.8479 1.07751 60.3679 0.697204 53.8399 4.29424C52.0319 5.35592 50.0319 6.05314 47.9519 6.32252C45.8719 6.05314 43.8719 5.35592 42.0639 4.29424C34.5119 0.158441 30.4959 1.64796 26.8639 9.31741C26.0799 11.1555 24.9439 12.8035 23.5039 14.1821C21.7119 15.1329 19.7279 15.7192 17.6959 15.8935C9.19989 16.9552 6.62389 20.3462 8.23989 28.7446C8.70389 30.7253 8.75189 32.7853 8.38389 34.7819C7.50389 36.5408 6.28789 38.0937 4.79989 39.3772C-1.60011 45.2719 -1.63211 49.7563 4.79989 55.6669C6.28789 56.9504 7.50389 58.5033 8.38389 60.2622C8.75189 62.2588 8.70389 64.3188 8.23989 66.2995C6.63989 74.6662 9.15189 78.0889 17.6959 79.1506C19.7279 79.3249 21.7119 79.9112 23.5039 80.862C24.9439 82.2406 26.0959 83.8886 26.8639 85.7267C30.4959 93.3961 34.5439 94.8857 42.0639 90.7499C43.8559 89.6882 45.8719 88.991 47.9519 88.7216C50.0319 88.991 52.0479 89.6882 53.8399 90.7499C61.3919 94.8857 65.4079 93.3803 69.0399 85.7267C69.8079 83.8886 70.9599 82.2406 72.3999 80.862C74.1919 79.9112 76.1759 79.3249 78.2079 79.1506C86.6879 78.0889 89.2799 74.6979 87.6639 66.2995C87.1999 64.3188 87.1519 62.2588 87.5199 60.2622H87.5359Z" fill="var(--fill-0, #1E1E1E)"/>
<path id="Vector_8" d="M84.768 12.6609C78.592 12.6451 73.568 7.68527 73.568 1.56873C73.552 0.697198 72.832 -0.0158709 71.952 -2.49385e-05C71.072 -2.49385e-05 70.384 0.713044 70.368 1.56873C70.368 3.32763 69.936 5.05484 69.12 6.60775C69.072 6.70282 69.024 6.81374 68.96 6.92466C68.864 7.09897 68.784 7.25743 68.672 7.41589C68.56 7.5902 68.448 7.7645 68.32 7.93881C67.696 8.90541 66.912 9.65017 65.952 10.2682C65.952 10.2999 65.968 10.3157 65.984 10.3474C64.032 11.8369 61.632 12.6609 59.168 12.6609C58.288 12.6768 57.584 13.3898 57.584 14.2613C57.6 15.117 58.304 15.8143 59.168 15.8301C65.344 15.8301 70.368 20.7899 70.368 26.9223C70.384 27.7938 71.104 28.491 71.984 28.4752C72.864 28.4593 73.552 27.778 73.568 26.9223C73.568 24.3711 74.464 21.8991 76.08 19.9501C77.072 18.3179 78.64 16.765 81.088 16.4481C82.272 16.0361 83.52 15.8301 84.768 15.8301C85.648 15.8301 86.368 15.117 86.368 14.2455C86.368 13.374 85.648 12.6609 84.768 12.6609ZM71.968 20.3937C70.592 17.7475 68.416 15.6083 65.76 14.2455C68.416 12.8669 70.576 10.7119 71.968 8.09727C73.344 10.7277 75.52 12.8827 78.176 14.2455C75.536 15.6399 73.376 17.7792 71.968 20.3937Z" fill="var(--fill-0, #75E1B3)"/>
<path id="Vector_9" d="M95.9999 28.3168C95.9999 28.1583 95.9679 28.0157 95.9039 27.8731C95.9359 27.9999 95.9519 28.1266 95.9519 28.2692C95.9519 28.5545 95.8719 28.8239 95.7279 29.0615C95.9039 28.8556 95.9999 28.602 95.9999 28.3168ZM86.0319 38.4899C86.0319 38.4899 85.9839 38.5057 85.9519 38.5057C85.8079 38.5533 85.6639 38.5691 85.5359 38.5691C85.4399 38.5691 85.3439 38.5533 85.2639 38.5374C85.4079 38.6008 85.5519 38.6325 85.7119 38.6325C85.7759 38.6325 85.8399 38.6325 85.8879 38.6008C85.9679 38.6008 86.0319 38.585 86.0959 38.5533C86.0639 38.5374 86.0479 38.5057 86.0319 38.4899ZM86.2239 18.1278C86.0639 18.0328 85.8879 18.0011 85.6959 18.0011H85.6639C85.2159 18.0328 84.8479 18.3021 84.6719 18.6666C85.0399 18.1754 85.5519 17.8901 86.2719 18.1595C86.2559 18.1437 86.2399 18.1278 86.2239 18.1278Z" fill="var(--fill-0, #75E1B3)"/>
<path id="Vector_10" d="M95.904 27.8731C95.904 27.8731 95.888 27.8414 95.872 27.8255C95.696 27.4452 95.312 27.1758 94.864 27.1758C90.448 27.16 86.848 23.563 86.848 19.1419C86.832 18.7616 86.656 18.413 86.368 18.207C86.336 18.1912 86.304 18.1753 86.272 18.1595C85.552 17.8901 85.04 18.1753 84.672 18.6666C84.656 18.6824 84.656 18.6983 84.656 18.6983C84.016 19.5698 83.824 21.0118 83.824 21.0118C83.824 21.1227 83.76 21.2495 83.728 21.3762C82.896 24.4979 80.048 26.7005 76.768 26.7005C75.888 26.7163 75.184 27.4294 75.184 28.3009C75.2 29.1724 75.904 29.8538 76.768 29.8697C80.736 29.8697 83.968 33.0705 83.968 37.0004C83.968 37.761 84.512 38.4106 85.248 38.5374H85.264C85.264 38.5374 85.44 38.5691 85.536 38.5691C85.664 38.5691 85.808 38.5533 85.952 38.5057C85.984 38.5057 86 38.4899 86.032 38.4899C86.048 38.5057 86.064 38.5374 86.096 38.5533C86.544 38.3948 86.832 37.9986 86.848 37.5074C86.848 36.7627 86.96 36.0179 87.152 35.3207C87.456 34.2748 87.952 33.2924 88.64 32.4526C89.36 31.28 90.48 30.1549 92.224 29.9172C93.072 29.6161 93.968 29.4735 94.864 29.4735C95.216 29.4735 95.52 29.3151 95.728 29.0615C95.872 28.8238 95.952 28.5544 95.952 28.2692C95.952 28.1266 95.936 27.9998 95.904 27.8731ZM85.568 31.5176C84.736 30.2183 83.616 29.1091 82.304 28.2851C83.616 27.4611 84.736 26.3519 85.568 25.0525C86.4 26.3519 87.52 27.4611 88.832 28.2851C87.52 29.1091 86.4 30.2183 85.568 31.5176Z" fill="var(--fill-0, #75E1B3)"/>
<path id="Vector_11" d="M85.9518 38.5057C85.9518 38.5057 85.9198 38.5695 85.8878 38.6013C85.8398 38.6332 85.7758 38.6332 85.7119 38.6332C85.5519 38.6332 85.408 38.6013 85.2641 38.5376C85.344 38.5535 85.44 38.5695 85.5359 38.5695C85.6639 38.5695 85.8078 38.5535 85.9518 38.5057Z" fill="var(--fill-0, #75E1B3)"/>
<path id="Vector_12" d="M94.864 29.4735C95.216 29.4735 95.52 29.3151 95.728 29.0615C95.472 29.5369 94.96 29.8538 94.368 29.8697C91.184 29.8855 88.416 31.9613 87.52 34.9562V34.9879C87.52 34.9879 87.36 35.0513 87.168 35.3207C87.472 34.2749 87.968 33.2924 88.656 32.4526C89.376 31.28 90.496 30.1549 92.24 29.9172C93.088 29.6161 93.984 29.4735 94.88 29.4735H94.864Z" fill="var(--fill-0, #75E1B3)"/>
<path id="Vector_13" d="M96.0001 28.3168C96.0001 28.602 95.9041 28.8556 95.7281 29.0616C95.8721 28.8239 95.9521 28.5545 95.9521 28.2693C95.9521 28.1266 95.9361 27.9999 95.9041 27.8731C95.9681 28.0157 96.0001 28.1583 96.0001 28.3168Z" fill="var(--fill-0, #75E1B3)"/>
</g>
<defs>
<clipPath id="clip0_319_186">
<rect width="96" height="93" fill="white"/>
</clipPath>
</defs>
</svg>
