<svg preserveAspectRatio="none" width="100%" height="100%" overflow="visible" style="display: block;" viewBox="0 0 47 47" fill="none" xmlns="http://www.w3.org/2000/svg">
<g id="Layer_1" clip-path="url(#clip0_319_89)">
<g id="Group">
<path id="Vector" d="M24.5938 16.8583C23.5373 15.7988 22.1518 15.2688 20.7682 15.2688C19.3845 15.2688 17.9991 15.7988 16.9408 16.86C15.8826 17.9212 15.3564 19.3082 15.3564 20.6957C15.3564 22.0832 15.8849 23.4725 16.9432 24.5337C18.0015 25.5949 19.3845 26.1225 20.7682 26.1225C22.1518 26.1225 23.5373 25.5925 24.5955 24.5313C25.6538 23.4701 26.18 22.0832 26.18 20.6957C26.18 19.3082 25.6514 17.9189 24.5938 16.8583ZM23.1794 23.116C22.5144 23.7828 21.641 24.1162 20.7682 24.1162C19.8954 24.1162 19.0219 23.7828 18.3546 23.1136C17.6873 22.4444 17.3572 21.5709 17.3572 20.6957C17.3572 19.8204 17.6897 18.9445 18.357 18.2754C19.0243 17.6062 19.8954 17.2752 20.7682 17.2752C21.641 17.2752 22.5144 17.6086 23.1818 18.2777C23.8491 18.9469 24.1792 19.8204 24.1792 20.6957C24.1792 21.5709 23.8467 22.4468 23.1794 23.116ZM24.5938 16.8583C23.5373 15.7988 22.1518 15.2688 20.7682 15.2688C19.3845 15.2688 17.9991 15.7988 16.9408 16.86C15.8826 17.9212 15.3564 19.3082 15.3564 20.6957C15.3564 22.0832 15.8849 23.4725 16.9432 24.5337C18.0015 25.5949 19.3845 26.1225 20.7682 26.1225C22.1518 26.1225 23.5373 25.5925 24.5955 24.5313C25.6538 23.4701 26.18 22.0832 26.18 20.6957C26.18 19.3082 25.6514 17.9189 24.5938 16.8583ZM23.1794 23.116C22.5144 23.7828 21.641 24.1162 20.7682 24.1162C19.8954 24.1162 19.0219 23.7828 18.3546 23.1136C17.6873 22.4444 17.3572 21.5709 17.3572 20.6957C17.3572 19.8204 17.6897 18.9445 18.357 18.2754C19.0243 17.6062 19.8954 17.2752 20.7682 17.2752C21.641 17.2752 22.5144 17.6086 23.1818 18.2777C23.8491 18.9469 24.1792 19.8204 24.1792 20.6957C24.1792 21.5709 23.8467 22.4468 23.1794 23.116ZM24.5938 16.8583C23.5373 15.7988 22.1518 15.2688 20.7682 15.2688C19.3845 15.2688 17.9991 15.7988 16.9408 16.86C15.8826 17.9212 15.3564 19.3082 15.3564 20.6957C15.3564 22.0832 15.8849 23.4725 16.9432 24.5337C18.0015 25.5949 19.3845 26.1225 20.7682 26.1225C22.1518 26.1225 23.5373 25.5925 24.5955 24.5313C25.6538 23.4701 26.18 22.0832 26.18 20.6957C26.18 19.3082 25.6514 17.9189 24.5938 16.8583ZM23.1794 23.116C22.5144 23.7828 21.641 24.1162 20.7682 24.1162C19.8954 24.1162 19.0219 23.7828 18.3546 23.1136C17.6873 22.4444 17.3572 21.5709 17.3572 20.6957C17.3572 19.8204 17.6897 18.9445 18.357 18.2754C19.0243 17.6062 19.8954 17.2752 20.7682 17.2752C21.641 17.2752 22.5144 17.6086 23.1818 18.2777C23.8491 18.9469 24.1792 19.8204 24.1792 20.6957C24.1792 21.5709 23.8467 22.4468 23.1794 23.116ZM24.5938 16.8583C23.5373 15.7988 22.1518 15.2688 20.7682 15.2688C19.3845 15.2688 17.9991 15.7988 16.9408 16.86C15.8826 17.9212 15.3564 19.3082 15.3564 20.6957C15.3564 22.0832 15.8849 23.4725 16.9432 24.5337C18.0015 25.5949 19.3845 26.1225 20.7682 26.1225C22.1518 26.1225 23.5373 25.5925 24.5955 24.5313C25.6538 23.4701 26.18 22.0832 26.18 20.6957C26.18 19.3082 25.6514 17.9189 24.5938 16.8583ZM23.1794 23.116C22.5144 23.7828 21.641 24.1162 20.7682 24.1162C19.8954 24.1162 19.0219 23.7828 18.3546 23.1136C17.6873 22.4444 17.3572 21.5709 17.3572 20.6957C17.3572 19.8204 17.6897 18.9445 18.357 18.2754C19.0243 17.6062 19.8954 17.2752 20.7682 17.2752C21.641 17.2752 22.5144 17.6086 23.1818 18.2777C23.8491 18.9469 24.1792 19.8204 24.1792 20.6957C24.1792 21.5709 23.8467 22.4468 23.1794 23.116ZM32.5219 19.0979C32.5219 18.591 32.1392 18.1552 31.626 18.103L30.1396 17.9491C30.041 17.6115 29.9241 17.2781 29.7888 16.95C29.6542 16.6243 29.5018 16.3045 29.3317 15.9925L30.2288 14.8868C30.5985 14.4936 30.5914 13.8748 30.2081 13.4904L27.9522 11.2318C27.5955 10.8735 27.0186 10.8368 26.6182 11.1631L25.4595 12.1083C25.1483 11.9371 24.8306 11.7843 24.5052 11.6511C24.1774 11.5155 23.8444 11.3982 23.5077 11.2993L23.3619 9.88577C23.3495 9.34332 22.906 8.90687 22.3621 8.90687L19.1749 8.90983C18.6694 8.90983 18.2347 9.29357 18.1828 9.80819L18.0298 11.2987C17.6938 11.397 17.3613 11.5143 17.0342 11.6499C16.7088 11.7849 16.3893 11.9377 16.0786 12.1089L14.9342 11.1756C14.5432 10.8433 13.9562 10.8611 13.5865 11.23L11.3318 13.4904C10.9728 13.8481 10.9356 14.4279 11.2615 14.83L12.2052 15.9936C12.0352 16.3046 11.8828 16.6243 11.7481 16.9506C11.6129 17.2781 11.496 17.6121 11.398 17.9491L9.98831 18.0947C9.44737 18.1072 9.01214 18.5519 9.01214 19.0973L9.01509 22.2946C9.01509 22.8015 9.39776 23.2374 9.91095 23.2895L11.398 23.4428C11.4913 23.7638 11.6023 24.0818 11.7293 24.3951L11.7487 24.4466C11.8816 24.7694 12.034 25.088 12.2046 25.4L11.3082 26.5051C10.9385 26.8983 10.9456 27.5171 11.3289 27.9015L13.5848 30.1601C13.9414 30.5184 14.5184 30.5551 14.9188 30.2288L16.0775 29.2836C16.3887 29.4548 16.7064 29.6076 17.0318 29.7408C17.3595 29.8764 17.6926 29.9937 18.0292 30.0926L18.1745 31.5067C18.1869 32.0492 18.6304 32.4856 19.1743 32.4856L22.3627 32.4827C22.8682 32.4827 23.3028 32.0989 23.3548 31.5843L23.5077 30.0926C23.8432 29.9943 24.1757 29.877 24.5028 29.7414C24.8276 29.6064 25.1471 29.4536 25.4577 29.2831L26.5615 30.1826C26.953 30.5533 27.5701 30.5462 27.9534 30.1619L30.2057 27.8997C30.563 27.542 30.5996 26.9634 30.2743 26.5619L29.3317 25.4C29.503 25.0874 29.6554 24.7688 29.7894 24.4419C29.9246 24.1138 30.0416 23.7798 30.1396 23.4428L31.5487 23.2966C32.0896 23.2835 32.5248 22.8394 32.5248 22.294L32.5219 19.0979ZM30.5241 21.3921L29.2414 21.5247C28.7985 21.5697 28.453 21.9008 28.3662 22.3159C28.2682 22.7808 28.1282 23.2379 27.9457 23.6779C27.7644 24.1162 27.5424 24.5414 27.2814 24.9429C27.0339 25.3248 27.08 25.8128 27.3623 26.1409L28.1577 27.1216L27.1756 28.1064L26.1747 27.2903C25.8304 27.0096 25.3556 26.9978 25.0024 27.2276C24.5985 27.4911 24.1757 27.7137 23.7446 27.8926C23.304 28.075 22.8475 28.2159 22.3839 28.3142C21.9387 28.4066 21.6251 28.7844 21.5926 29.2179L21.4627 30.4793H20.0743L19.942 29.1919C19.8971 28.7477 19.567 28.4013 19.153 28.3142C18.69 28.2159 18.233 28.075 17.7936 27.892C17.3572 27.7108 16.9332 27.4881 16.534 27.227C16.1531 26.9788 15.6664 27.025 15.3393 27.3081L14.3607 28.1064L13.3787 27.1216L14.193 26.1178C14.4729 25.7725 14.4848 25.2964 14.2556 24.9423C13.9952 24.542 13.7731 24.1168 13.5924 23.6791L13.5735 23.6359C13.4005 23.2089 13.2659 22.7648 13.1714 22.3159C13.0792 21.8694 12.7025 21.5549 12.2708 21.5224L11.0129 21.3927V19.9992L12.2962 19.8672C12.7391 19.8222 13.0846 19.4911 13.1714 19.076C13.2694 18.6111 13.41 18.1522 13.5918 17.711C13.7702 17.2787 13.9916 16.8553 14.255 16.4502C14.5025 16.0683 14.4564 15.5809 14.1747 15.2528L13.3763 14.2686L14.359 13.2838L15.3617 14.1016C15.706 14.3823 16.1808 14.3941 16.534 14.1644C16.9391 13.9002 17.3613 13.6776 17.7924 13.4987C18.2324 13.3163 18.6895 13.1754 19.1536 13.0771C19.5989 12.9847 19.9125 12.6069 19.945 12.174L20.0743 10.9132H21.4627L21.595 12.2001C21.6398 12.6442 21.97 12.9906 22.3839 13.0777C22.8469 13.176 23.304 13.3169 23.7434 13.4999C24.1798 13.6811 24.6038 13.9038 25.003 14.165C25.3839 14.4131 25.8705 14.3669 26.1977 14.0838L27.1762 13.2855L28.1583 14.2704L27.3439 15.2741C27.064 15.6194 27.0522 16.0955 27.2814 16.4496C27.5447 16.8553 27.7668 17.2787 27.9451 17.7104C28.127 18.1516 28.2682 18.6105 28.3662 19.076C28.4583 19.5219 28.8351 19.8364 29.2668 19.8696L30.5241 19.9998V21.3921ZM20.7682 15.2688C19.3845 15.2688 17.9991 15.7988 16.9408 16.86C15.8826 17.9212 15.3564 19.3082 15.3564 20.6957C15.3564 22.0832 15.8849 23.4725 16.9432 24.5337C18.0015 25.5949 19.3845 26.1225 20.7682 26.1225C22.1518 26.1225 23.5373 25.5925 24.5955 24.5313C25.6538 23.4701 26.18 22.0832 26.18 20.6957C26.18 19.3082 25.6514 17.9189 24.5938 16.8583C23.5373 15.7988 22.1518 15.2688 20.7682 15.2688ZM23.1794 23.116C22.5144 23.7828 21.641 24.1162 20.7682 24.1162C19.8954 24.1162 19.0219 23.7828 18.3546 23.1136C17.6873 22.4444 17.3572 21.5709 17.3572 20.6957C17.3572 19.8204 17.6897 18.9445 18.357 18.2754C19.0243 17.6062 19.8954 17.2752 20.7682 17.2752C21.641 17.2752 22.5144 17.6086 23.1818 18.2777C23.8491 18.9469 24.1792 19.8204 24.1792 20.6957C24.1792 21.5709 23.8467 22.4468 23.1794 23.116ZM24.5938 16.8583C23.5373 15.7988 22.1518 15.2688 20.7682 15.2688C19.3845 15.2688 17.9991 15.7988 16.9408 16.86C15.8826 17.9212 15.3564 19.3082 15.3564 20.6957C15.3564 22.0832 15.8849 23.4725 16.9432 24.5337C18.0015 25.5949 19.3845 26.1225 20.7682 26.1225C22.1518 26.1225 23.5373 25.5925 24.5955 24.5313C25.6538 23.4701 26.18 22.0832 26.18 20.6957C26.18 19.3082 25.6514 17.9189 24.5938 16.8583ZM23.1794 23.116C22.5144 23.7828 21.641 24.1162 20.7682 24.1162C19.8954 24.1162 19.0219 23.7828 18.3546 23.1136C17.6873 22.4444 17.3572 21.5709 17.3572 20.6957C17.3572 19.8204 17.6897 18.9445 18.357 18.2754C19.0243 17.6062 19.8954 17.2752 20.7682 17.2752C21.641 17.2752 22.5144 17.6086 23.1818 18.2777C23.8491 18.9469 24.1792 19.8204 24.1792 20.6957C24.1792 21.5709 23.8467 22.4468 23.1794 23.116ZM24.5938 16.8583C23.5373 15.7988 22.1518 15.2688 20.7682 15.2688C19.3845 15.2688 17.9991 15.7988 16.9408 16.86C15.8826 17.9212 15.3564 19.3082 15.3564 20.6957C15.3564 22.0832 15.8849 23.4725 16.9432 24.5337C18.0015 25.5949 19.3845 26.1225 20.7682 26.1225C22.1518 26.1225 23.5373 25.5925 24.5955 24.5313C25.6538 23.4701 26.18 22.0832 26.18 20.6957C26.18 19.3082 25.6514 17.9189 24.5938 16.8583ZM23.1794 23.116C22.5144 23.7828 21.641 24.1162 20.7682 24.1162C19.8954 24.1162 19.0219 23.7828 18.3546 23.1136C17.6873 22.4444 17.3572 21.5709 17.3572 20.6957C17.3572 19.8204 17.6897 18.9445 18.357 18.2754C19.0243 17.6062 19.8954 17.2752 20.7682 17.2752C21.641 17.2752 22.5144 17.6086 23.1818 18.2777C23.8491 18.9469 24.1792 19.8204 24.1792 20.6957C24.1792 21.5709 23.8467 22.4468 23.1794 23.116ZM24.5938 16.8583C23.5373 15.7988 22.1518 15.2688 20.7682 15.2688C19.3845 15.2688 17.9991 15.7988 16.9408 16.86C15.8826 17.9212 15.3564 19.3082 15.3564 20.6957C15.3564 22.0832 15.8849 23.4725 16.9432 24.5337C18.0015 25.5949 19.3845 26.1225 20.7682 26.1225C22.1518 26.1225 23.5373 25.5925 24.5955 24.5313C25.6538 23.4701 26.18 22.0832 26.18 20.6957C26.18 19.3082 25.6514 17.9189 24.5938 16.8583ZM23.1794 23.116C22.5144 23.7828 21.641 24.1162 20.7682 24.1162C19.8954 24.1162 19.0219 23.7828 18.3546 23.1136C17.6873 22.4444 17.3572 21.5709 17.3572 20.6957C17.3572 19.8204 17.6897 18.9445 18.357 18.2754C19.0243 17.6062 19.8954 17.2752 20.7682 17.2752C21.641 17.2752 22.5144 17.6086 23.1818 18.2777C23.8491 18.9469 24.1792 19.8204 24.1792 20.6957C24.1792 21.5709 23.8467 22.4468 23.1794 23.116ZM24.5938 16.8583C23.5373 15.7988 22.1518 15.2688 20.7682 15.2688C19.3845 15.2688 17.9991 15.7988 16.9408 16.86C15.8826 17.9212 15.3564 19.3082 15.3564 20.6957C15.3564 22.0832 15.8849 23.4725 16.9432 24.5337C18.0015 25.5949 19.3845 26.1225 20.7682 26.1225C22.1518 26.1225 23.5373 25.5925 24.5955 24.5313C25.6538 23.4701 26.18 22.0832 26.18 20.6957C26.18 19.3082 25.6514 17.9189 24.5938 16.8583ZM23.1794 23.116C22.5144 23.7828 21.641 24.1162 20.7682 24.1162C19.8954 24.1162 19.0219 23.7828 18.3546 23.1136C17.6873 22.4444 17.3572 21.5709 17.3572 20.6957C17.3572 19.8204 17.6897 18.9445 18.357 18.2754C19.0243 17.6062 19.8954 17.2752 20.7682 17.2752C21.641 17.2752 22.5144 17.6086 23.1818 18.2777C23.8491 18.9469 24.1792 19.8204 24.1792 20.6957C24.1792 21.5709 23.8467 22.4468 23.1794 23.116ZM32.5219 19.0979C32.5219 18.591 32.1392 18.1552 31.626 18.103L30.1396 17.9491C30.041 17.6115 29.9241 17.2781 29.7888 16.95C29.6542 16.6243 29.5018 16.3045 29.3317 15.9925L30.2288 14.8868C30.5985 14.4936 30.5914 13.8748 30.2081 13.4904L27.9522 11.2318C27.5955 10.8735 27.0186 10.8368 26.6182 11.1631L25.4595 12.1083C25.1483 11.9371 24.8306 11.7843 24.5052 11.6511C24.1774 11.5155 23.8444 11.3982 23.5077 11.2993L23.3619 9.88577C23.3495 9.34332 22.906 8.90687 22.3621 8.90687L19.1749 8.90983C18.6694 8.90983 18.2347 9.29357 18.1828 9.80819L18.0298 11.2987C17.6938 11.397 17.3613 11.5143 17.0342 11.6499C16.7088 11.7849 16.3893 11.9377 16.0786 12.1089L14.9342 11.1756C14.5432 10.8433 13.9562 10.8611 13.5865 11.23L11.3318 13.4904C10.9728 13.8481 10.9356 14.4279 11.2615 14.83L12.2052 15.9936C12.0352 16.3046 11.8828 16.6243 11.7481 16.9506C11.6129 17.2781 11.496 17.6121 11.398 17.9491L9.98831 18.0947C9.44737 18.1072 9.01214 18.5519 9.01214 19.0973L9.01509 22.2946C9.01509 22.8015 9.39776 23.2374 9.91095 23.2895L11.398 23.4428C11.4913 23.7638 11.6023 24.0818 11.7293 24.3951L11.7487 24.4466C11.8816 24.7694 12.034 25.088 12.2046 25.4L11.3082 26.5051C10.9385 26.8983 10.9456 27.5171 11.3289 27.9015L13.5848 30.1601C13.9414 30.5184 14.5184 30.5551 14.9188 30.2288L16.0775 29.2836C16.3887 29.4548 16.7064 29.6076 17.0318 29.7408C17.3595 29.8764 17.6926 29.9937 18.0292 30.0926L18.1745 31.5067C18.1869 32.0492 18.6304 32.4856 19.1743 32.4856L22.3627 32.4827C22.8682 32.4827 23.3028 32.0989 23.3548 31.5843L23.5077 30.0926C23.8432 29.9943 24.1757 29.877 24.5028 29.7414C24.8276 29.6064 25.1471 29.4536 25.4577 29.2831L26.5615 30.1826C26.953 30.5533 27.5701 30.5462 27.9534 30.1619L30.2057 27.8997C30.563 27.542 30.5996 26.9634 30.2743 26.5619L29.3317 25.4C29.503 25.0874 29.6554 24.7688 29.7894 24.4419C29.9246 24.1138 30.0416 23.7798 30.1396 23.4428L31.5487 23.2966C32.0896 23.2835 32.5248 22.8394 32.5248 22.294L32.5219 19.0979ZM30.5241 21.3921L29.2414 21.5247C28.7985 21.5697 28.453 21.9008 28.3662 22.3159C28.2682 22.7808 28.1282 23.2379 27.9457 23.6779C27.7644 24.1162 27.5424 24.5414 27.2814 24.9429C27.0339 25.3248 27.08 25.8128 27.3623 26.1409L28.1577 27.1216L27.1756 28.1064L26.1747 27.2903C25.8304 27.0096 25.3556 26.9978 25.0024 27.2276C24.5985 27.4911 24.1757 27.7137 23.7446 27.8926C23.304 28.075 22.8475 28.2159 22.3839 28.3142C21.9387 28.4066 21.6251 28.7844 21.5926 29.2179L21.4627 30.4793H20.0743L19.942 29.1919C19.8971 28.7477 19.567 28.4013 19.153 28.3142C18.69 28.2159 18.233 28.075 17.7936 27.892C17.3572 27.7108 16.9332 27.4881 16.534 27.227C16.1531 26.9788 15.6664 27.025 15.3393 27.3081L14.3607 28.1064L13.3787 27.1216L14.193 26.1178C14.4729 25.7725 14.4848 25.2964 14.2556 24.9423C13.9952 24.542 13.7731 24.1168 13.5924 23.6791L13.5735 23.6359C13.4005 23.2089 13.2659 22.7648 13.1714 22.3159C13.0792 21.8694 12.7025 21.5549 12.2708 21.5224L11.0129 21.3927V19.9992L12.2962 19.8672C12.7391 19.8222 13.0846 19.4911 13.1714 19.076C13.2694 18.6111 13.41 18.1522 13.5918 17.711C13.7702 17.2787 13.9916 16.8553 14.255 16.4502C14.5025 16.0683 14.4564 15.5809 14.1747 15.2528L13.3763 14.2686L14.359 13.2838L15.3617 14.1016C15.706 14.3823 16.1808 14.3941 16.534 14.1644C16.9391 13.9002 17.3613 13.6776 17.7924 13.4987C18.2324 13.3163 18.6895 13.1754 19.1536 13.0771C19.5989 12.9847 19.9125 12.6069 19.945 12.174L20.0743 10.9132H21.4627L21.595 12.2001C21.6398 12.6442 21.97 12.9906 22.3839 13.0777C22.8469 13.176 23.304 13.3169 23.7434 13.4999C24.1798 13.6811 24.6038 13.9038 25.003 14.165C25.3839 14.4131 25.8705 14.3669 26.1977 14.0838L27.1762 13.2855L28.1583 14.2704L27.3439 15.2741C27.064 15.6194 27.0522 16.0955 27.2814 16.4496C27.5447 16.8553 27.7668 17.2787 27.9451 17.7104C28.127 18.1516 28.2682 18.6105 28.3662 19.076C28.4583 19.5219 28.8351 19.8364 29.2668 19.8696L30.5241 19.9998V21.3921ZM20.7682 15.2688C19.3845 15.2688 17.9991 15.7988 16.9408 16.86C15.8826 17.9212 15.3564 19.3082 15.3564 20.6957C15.3564 22.0832 15.8849 23.4725 16.9432 24.5337C18.0015 25.5949 19.3845 26.1225 20.7682 26.1225C22.1518 26.1225 23.5373 25.5925 24.5955 24.5313C25.6538 23.4701 26.18 22.0832 26.18 20.6957C26.18 19.3082 25.6514 17.9189 24.5938 16.8583C23.5373 15.7988 22.1518 15.2688 20.7682 15.2688ZM23.1794 23.116C22.5144 23.7828 21.641 24.1162 20.7682 24.1162C19.8954 24.1162 19.0219 23.7828 18.3546 23.1136C17.6873 22.4444 17.3572 21.5709 17.3572 20.6957C17.3572 19.8204 17.6897 18.9445 18.357 18.2754C19.0243 17.6062 19.8954 17.2752 20.7682 17.2752C21.641 17.2752 22.5144 17.6086 23.1818 18.2777C23.8491 18.9469 24.1792 19.8204 24.1792 20.6957C24.1792 21.5709 23.8467 22.4468 23.1794 23.116ZM24.5938 16.8583C23.5373 15.7988 22.1518 15.2688 20.7682 15.2688C19.3845 15.2688 17.9991 15.7988 16.9408 16.86C15.8826 17.9212 15.3564 19.3082 15.3564 20.6957C15.3564 22.0832 15.8849 23.4725 16.9432 24.5337C18.0015 25.5949 19.3845 26.1225 20.7682 26.1225C22.1518 26.1225 23.5373 25.5925 24.5955 24.5313C25.6538 23.4701 26.18 22.0832 26.18 20.6957C26.18 19.3082 25.6514 17.9189 24.5938 16.8583ZM23.1794 23.116C22.5144 23.7828 21.641 24.1162 20.7682 24.1162C19.8954 24.1162 19.0219 23.7828 18.3546 23.1136C17.6873 22.4444 17.3572 21.5709 17.3572 20.6957C17.3572 19.8204 17.6897 18.9445 18.357 18.2754C19.0243 17.6062 19.8954 17.2752 20.7682 17.2752C21.641 17.2752 22.5144 17.6086 23.1818 18.2777C23.8491 18.9469 24.1792 19.8204 24.1792 20.6957C24.1792 21.5709 23.8467 22.4468 23.1794 23.116ZM24.5938 16.8583C23.5373 15.7988 22.1518 15.2688 20.7682 15.2688C19.3845 15.2688 17.9991 15.7988 16.9408 16.86C15.8826 17.9212 15.3564 19.3082 15.3564 20.6957C15.3564 22.0832 15.8849 23.4725 16.9432 24.5337C18.0015 25.5949 19.3845 26.1225 20.7682 26.1225C22.1518 26.1225 23.5373 25.5925 24.5955 24.5313C25.6538 23.4701 26.18 22.0832 26.18 20.6957C26.18 19.3082 25.6514 17.9189 24.5938 16.8583ZM23.1794 23.116C22.5144 23.7828 21.641 24.1162 20.7682 24.1162C19.8954 24.1162 19.0219 23.7828 18.3546 23.1136C17.6873 22.4444 17.3572 21.5709 17.3572 20.6957C17.3572 19.8204 17.6897 18.9445 18.357 18.2754C19.0243 17.6062 19.8954 17.2752 20.7682 17.2752C21.641 17.2752 22.5144 17.6086 23.1818 18.2777C23.8491 18.9469 24.1792 19.8204 24.1792 20.6957C24.1792 21.5709 23.8467 22.4468 23.1794 23.116ZM24.5938 16.8583C23.5373 15.7988 22.1518 15.2688 20.7682 15.2688C19.3845 15.2688 17.9991 15.7988 16.9408 16.86C15.8826 17.9212 15.3564 19.3082 15.3564 20.6957C15.3564 22.0832 15.8849 23.4725 16.9432 24.5337C18.0015 25.5949 19.3845 26.1225 20.7682 26.1225C22.1518 26.1225 23.5373 25.5925 24.5955 24.5313C25.6538 23.4701 26.18 22.0832 26.18 20.6957C26.18 19.3082 25.6514 17.9189 24.5938 16.8583ZM23.1794 23.116C22.5144 23.7828 21.641 24.1162 20.7682 24.1162C19.8954 24.1162 19.0219 23.7828 18.3546 23.1136C17.6873 22.4444 17.3572 21.5709 17.3572 20.6957C17.3572 19.8204 17.6897 18.9445 18.357 18.2754C19.0243 17.6062 19.8954 17.2752 20.7682 17.2752C21.641 17.2752 22.5144 17.6086 23.1818 18.2777C23.8491 18.9469 24.1792 19.8204 24.1792 20.6957C24.1792 21.5709 23.8467 22.4468 23.1794 23.116ZM24.5938 16.8583C23.5373 15.7988 22.1518 15.2688 20.7682 15.2688C19.3845 15.2688 17.9991 15.7988 16.9408 16.86C15.8826 17.9212 15.3564 19.3082 15.3564 20.6957C15.3564 22.0832 15.8849 23.4725 16.9432 24.5337C18.0015 25.5949 19.3845 26.1225 20.7682 26.1225C22.1518 26.1225 23.5373 25.5925 24.5955 24.5313C25.6538 23.4701 26.18 22.0832 26.18 20.6957C26.18 19.3082 25.6514 17.9189 24.5938 16.8583ZM23.1794 23.116C22.5144 23.7828 21.641 24.1162 20.7682 24.1162C19.8954 24.1162 19.0219 23.7828 18.3546 23.1136C17.6873 22.4444 17.3572 21.5709 17.3572 20.6957C17.3572 19.8204 17.6897 18.9445 18.357 18.2754C19.0243 17.6062 19.8954 17.2752 20.7682 17.2752C21.641 17.2752 22.5144 17.6086 23.1818 18.2777C23.8491 18.9469 24.1792 19.8204 24.1792 20.6957C24.1792 21.5709 23.8467 22.4468 23.1794 23.116ZM32.5219 19.0979C32.5219 18.591 32.1392 18.1552 31.626 18.103L30.1396 17.9491C30.041 17.6115 29.9241 17.2781 29.7888 16.95C29.6542 16.6243 29.5018 16.3045 29.3317 15.9925L30.2288 14.8868C30.5985 14.4936 30.5914 13.8748 30.2081 13.4904L27.9522 11.2318C27.5955 10.8735 27.0186 10.8368 26.6182 11.1631L25.4595 12.1083C25.1483 11.9371 24.8306 11.7843 24.5052 11.6511C24.1774 11.5155 23.8444 11.3982 23.5077 11.2993L23.3619 9.88577C23.3495 9.34332 22.906 8.90687 22.3621 8.90687L19.1749 8.90983C18.6694 8.90983 18.2347 9.29357 18.1828 9.80819L18.0298 11.2987C17.6938 11.397 17.3613 11.5143 17.0342 11.6499C16.7088 11.7849 16.3893 11.9377 16.0786 12.1089L14.9342 11.1756C14.5432 10.8433 13.9562 10.8611 13.5865 11.23L11.3318 13.4904C10.9728 13.8481 10.9356 14.4279 11.2615 14.83L12.2052 15.9936C12.0352 16.3046 11.8828 16.6243 11.7481 16.9506C11.6129 17.2781 11.496 17.6121 11.398 17.9491L9.98831 18.0947C9.44737 18.1072 9.01214 18.5519 9.01214 19.0973L9.01509 22.2946C9.01509 22.8015 9.39776 23.2374 9.91095 23.2895L11.398 23.4428C11.4913 23.7638 11.6023 24.0818 11.7293 24.3951L11.7487 24.4466C11.8816 24.7694 12.034 25.088 12.2046 25.4L11.3082 26.5051C10.9385 26.8983 10.9456 27.5171 11.3289 27.9015L13.5848 30.1601C13.9414 30.5184 14.5184 30.5551 14.9188 30.2288L16.0775 29.2836C16.3887 29.4548 16.7064 29.6076 17.0318 29.7408C17.3595 29.8764 17.6926 29.9937 18.0292 30.0926L18.1745 31.5067C18.1869 32.0492 18.6304 32.4856 19.1743 32.4856L22.3627 32.4827C22.8682 32.4827 23.3028 32.0989 23.3548 31.5843L23.5077 30.0926C23.8432 29.9943 24.1757 29.877 24.5028 29.7414C24.8276 29.6064 25.1471 29.4536 25.4577 29.2831L26.5615 30.1826C26.953 30.5533 27.5701 30.5462 27.9534 30.1619L30.2057 27.8997C30.563 27.542 30.5996 26.9634 30.2743 26.5619L29.3317 25.4C29.503 25.0874 29.6554 24.7688 29.7894 24.4419C29.9246 24.1138 30.0416 23.7798 30.1396 23.4428L31.5487 23.2966C32.0896 23.2835 32.5248 22.8394 32.5248 22.294L32.5219 19.0979ZM30.5241 21.3921L29.2414 21.5247C28.7985 21.5697 28.453 21.9008 28.3662 22.3159C28.2682 22.7808 28.1282 23.2379 27.9457 23.6779C27.7644 24.1162 27.5424 24.5414 27.2814 24.9429C27.0339 25.3248 27.08 25.8128 27.3623 26.1409L28.1577 27.1216L27.1756 28.1064L26.1747 27.2903C25.8304 27.0096 25.3556 26.9978 25.0024 27.2276C24.5985 27.4911 24.1757 27.7137 23.7446 27.8926C23.304 28.075 22.8475 28.2159 22.3839 28.3142C21.9387 28.4066 21.6251 28.7844 21.5926 29.2179L21.4627 30.4793H20.0743L19.942 29.1919C19.8971 28.7477 19.567 28.4013 19.153 28.3142C18.69 28.2159 18.233 28.075 17.7936 27.892C17.3572 27.7108 16.9332 27.4881 16.534 27.227C16.1531 26.9788 15.6664 27.025 15.3393 27.3081L14.3607 28.1064L13.3787 27.1216L14.193 26.1178C14.4729 25.7725 14.4848 25.2964 14.2556 24.9423C13.9952 24.542 13.7731 24.1168 13.5924 23.6791L13.5735 23.6359C13.4005 23.2089 13.2659 22.7648 13.1714 22.3159C13.0792 21.8694 12.7025 21.5549 12.2708 21.5224L11.0129 21.3927V19.9992L12.2962 19.8672C12.7391 19.8222 13.0846 19.4911 13.1714 19.076C13.2694 18.6111 13.41 18.1522 13.5918 17.711C13.7702 17.2787 13.9916 16.8553 14.255 16.4502C14.5025 16.0683 14.4564 15.5809 14.1747 15.2528L13.3763 14.2686L14.359 13.2838L15.3617 14.1016C15.706 14.3823 16.1808 14.3941 16.534 14.1644C16.9391 13.9002 17.3613 13.6776 17.7924 13.4987C18.2324 13.3163 18.6895 13.1754 19.1536 13.0771C19.5989 12.9847 19.9125 12.6069 19.945 12.174L20.0743 10.9132H21.4627L21.595 12.2001C21.6398 12.6442 21.97 12.9906 22.3839 13.0777C22.8469 13.176 23.304 13.3169 23.7434 13.4999C24.1798 13.6811 24.6038 13.9038 25.003 14.165C25.3839 14.4131 25.8705 14.3669 26.1977 14.0838L27.1762 13.2855L28.1583 14.2704L27.3439 15.2741C27.064 15.6194 27.0522 16.0955 27.2814 16.4496C27.5447 16.8553 27.7668 17.2787 27.9451 17.7104C28.127 18.1516 28.2682 18.6105 28.3662 19.076C28.4583 19.5219 28.8351 19.8364 29.2668 19.8696L30.5241 19.9998V21.3921ZM20.7682 15.2688C19.3845 15.2688 17.9991 15.7988 16.9408 16.86C15.8826 17.9212 15.3564 19.3082 15.3564 20.6957C15.3564 22.0832 15.8849 23.4725 16.9432 24.5337C18.0015 25.5949 19.3845 26.1225 20.7682 26.1225C22.1518 26.1225 23.5373 25.5925 24.5955 24.5313C25.6538 23.4701 26.18 22.0832 26.18 20.6957C26.18 19.3082 25.6514 17.9189 24.5938 16.8583C23.5373 15.7988 22.1518 15.2688 20.7682 15.2688ZM23.1794 23.116C22.5144 23.7828 21.641 24.1162 20.7682 24.1162C19.8954 24.1162 19.0219 23.7828 18.3546 23.1136C17.6873 22.4444 17.3572 21.5709 17.3572 20.6957C17.3572 19.8204 17.6897 18.9445 18.357 18.2754C19.0243 17.6062 19.8954 17.2752 20.7682 17.2752C21.641 17.2752 22.5144 17.6086 23.1818 18.2777C23.8491 18.9469 24.1792 19.8204 24.1792 20.6957C24.1792 21.5709 23.8467 22.4468 23.1794 23.116ZM32.5219 19.0979C32.5219 18.591 32.1392 18.1552 31.626 18.103L30.1396 17.9491C30.041 17.6115 29.9241 17.2781 29.7888 16.95C29.6542 16.6243 29.5018 16.3045 29.3317 15.9925L30.2288 14.8868C30.5985 14.4936 30.5914 13.8748 30.2081 13.4904L27.9522 11.2318C27.5955 10.8735 27.0186 10.8368 26.6182 11.1631L25.4595 12.1083C25.1483 11.9371 24.8306 11.7843 24.5052 11.6511C24.1774 11.5155 23.8444 11.3982 23.5077 11.2993L23.3619 9.88577C23.3495 9.34332 22.906 8.90687 22.3621 8.90687L19.1749 8.90983C18.6694 8.90983 18.2347 9.29357 18.1828 9.80819L18.0298 11.2987C17.6938 11.397 17.3613 11.5143 17.0342 11.6499C16.7088 11.7849 16.3893 11.9377 16.0786 12.1089L14.9342 11.1756C14.5432 10.8433 13.9562 10.8611 13.5865 11.23L11.3318 13.4904C10.9728 13.8481 10.9356 14.4279 11.2615 14.83L12.2052 15.9936C12.0352 16.3046 11.8828 16.6243 11.7481 16.9506C11.6129 17.2781 11.496 17.6121 11.398 17.9491L9.98831 18.0947C9.44737 18.1072 9.01214 18.5519 9.01214 19.0973L9.01509 22.2946C9.01509 22.8015 9.39776 23.2374 9.91095 23.2895L11.398 23.4428C11.4913 23.7638 11.6023 24.0818 11.7293 24.3951L11.7487 24.4466C11.8816 24.7694 12.034 25.088 12.2046 25.4L11.3082 26.5051C10.9385 26.8983 10.9456 27.5171 11.3289 27.9015L13.5848 30.1601C13.9414 30.5184 14.5184 30.5551 14.9188 30.2288L16.0775 29.2836C16.3887 29.4548 16.7064 29.6076 17.0318 29.7408C17.3595 29.8764 17.6926 29.9937 18.0292 30.0926L18.1745 31.5067C18.1869 32.0492 18.6304 32.4856 19.1743 32.4856L22.3627 32.4827C22.8682 32.4827 23.3028 32.0989 23.3548 31.5843L23.5077 30.0926C23.8432 29.9943 24.1757 29.877 24.5028 29.7414C24.8276 29.6064 25.1471 29.4536 25.4577 29.2831L26.5615 30.1826C26.953 30.5533 27.5701 30.5462 27.9534 30.1619L30.2057 27.8997C30.563 27.542 30.5996 26.9634 30.2743 26.5619L29.3317 25.4C29.503 25.0874 29.6554 24.7688 29.7894 24.4419C29.9246 24.1138 30.0416 23.7798 30.1396 23.4428L31.5487 23.2966C32.0896 23.2835 32.5248 22.8394 32.5248 22.294L32.5219 19.0979ZM30.5241 21.3921L29.2414 21.5247C28.7985 21.5697 28.453 21.9008 28.3662 22.3159C28.2682 22.7808 28.1282 23.2379 27.9457 23.6779C27.7644 24.1162 27.5424 24.5414 27.2814 24.9429C27.0339 25.3248 27.08 25.8128 27.3623 26.1409L28.1577 27.1216L27.1756 28.1064L26.1747 27.2903C25.8304 27.0096 25.3556 26.9978 25.0024 27.2276C24.5985 27.4911 24.1757 27.7137 23.7446 27.8926C23.304 28.075 22.8475 28.2159 22.3839 28.3142C21.9387 28.4066 21.6251 28.7844 21.5926 29.2179L21.4627 30.4793H20.0743L19.942 29.1919C19.8971 28.7477 19.567 28.4013 19.153 28.3142C18.69 28.2159 18.233 28.075 17.7936 27.892C17.3572 27.7108 16.9332 27.4881 16.534 27.227C16.1531 26.9788 15.6664 27.025 15.3393 27.3081L14.3607 28.1064L13.3787 27.1216L14.193 26.1178C14.4729 25.7725 14.4848 25.2964 14.2556 24.9423C13.9952 24.542 13.7731 24.1168 13.5924 23.6791L13.5735 23.6359C13.4005 23.2089 13.2659 22.7648 13.1714 22.3159C13.0792 21.8694 12.7025 21.5549 12.2708 21.5224L11.0129 21.3927V19.9992L12.2962 19.8672C12.7391 19.8222 13.0846 19.4911 13.1714 19.076C13.2694 18.6111 13.41 18.1522 13.5918 17.711C13.7702 17.2787 13.9916 16.8553 14.255 16.4502C14.5025 16.0683 14.4564 15.5809 14.1747 15.2528L13.3763 14.2686L14.359 13.2838L15.3617 14.1016C15.706 14.3823 16.1808 14.3941 16.534 14.1644C16.9391 13.9002 17.3613 13.6776 17.7924 13.4987C18.2324 13.3163 18.6895 13.1754 19.1536 13.0771C19.5989 12.9847 19.9125 12.6069 19.945 12.174L20.0743 10.9132H21.4627L21.595 12.2001C21.6398 12.6442 21.97 12.9906 22.3839 13.0777C22.8469 13.176 23.304 13.3169 23.7434 13.4999C24.1798 13.6811 24.6038 13.9038 25.003 14.165C25.3839 14.4131 25.8705 14.3669 26.1977 14.0838L27.1762 13.2855L28.1583 14.2704L27.3439 15.2741C27.064 15.6194 27.0522 16.0955 27.2814 16.4496C27.5447 16.8553 27.7668 17.2787 27.9451 17.7104C28.127 18.1516 28.2682 18.6105 28.3662 19.076C28.4583 19.5219 28.8351 19.8364 29.2668 19.8696L30.5241 19.9998V21.3921ZM20.7682 15.2688C19.3845 15.2688 17.9991 15.7988 16.9408 16.86C15.8826 17.9212 15.3564 19.3082 15.3564 20.6957C15.3564 22.0832 15.8849 23.4725 16.9432 24.5337C18.0015 25.5949 19.3845 26.1225 20.7682 26.1225C22.1518 26.1225 23.5373 25.5925 24.5955 24.5313C25.6538 23.4701 26.18 22.0832 26.18 20.6957C26.18 19.3082 25.6514 17.9189 24.5938 16.8583C23.5373 15.7988 22.1518 15.2688 20.7682 15.2688ZM23.1794 23.116C22.5144 23.7828 21.641 24.1162 20.7682 24.1162C19.8954 24.1162 19.0219 23.7828 18.3546 23.1136C17.6873 22.4444 17.3572 21.5709 17.3572 20.6957C17.3572 19.8204 17.6897 18.9445 18.357 18.2754C19.0243 17.6062 19.8954 17.2752 20.7682 17.2752C21.641 17.2752 22.5144 17.6086 23.1818 18.2777C23.8491 18.9469 24.1792 19.8204 24.1792 20.6957C24.1792 21.5709 23.8467 22.4468 23.1794 23.116ZM46.4547 39.7815L38.1965 31.5002C37.8339 31.1366 37.3555 30.953 36.8795 30.953C36.5093 30.953 36.139 31.0626 35.8219 31.2823L34.212 29.668C36.0138 26.9599 36.915 23.8272 36.915 20.6957C36.915 16.5527 35.3376 12.4079 32.1841 9.24561C29.0311 6.08448 24.8991 4.50332 20.7682 4.50332C16.6373 4.50332 12.5052 6.08448 9.35111 9.24679C6.19876 12.4079 4.62141 16.5527 4.62141 20.6957C4.62141 24.8386 6.19876 28.9834 9.35111 32.1445C12.5035 35.3057 16.6367 36.8874 20.7682 36.8874C23.891 36.8874 27.015 35.9831 29.7156 34.1763L31.326 35.7913C31.1069 36.1099 30.9971 36.4806 30.9971 36.8519C30.9971 37.3292 31.179 37.8077 31.5428 38.1725L39.8039 46.4537C40.1683 46.8179 40.6449 47.0003 41.1179 47.0003C41.5909 47.0003 42.0716 46.8167 42.4342 46.4531L46.4547 42.422C46.8179 42.0578 46.9998 41.5794 46.9998 41.102C46.9998 40.6247 46.8179 40.1457 46.4547 39.7815ZM20.7682 34.8811C17.1475 34.8811 13.5263 33.4959 10.7649 30.7268C8.00348 27.9577 6.62219 24.3264 6.62219 20.6957C6.62219 17.0649 8.00348 13.4336 10.7661 10.6633C13.5275 7.89481 17.1481 6.50967 20.7682 6.50967C24.3883 6.50967 28.0089 7.89481 30.7715 10.6645C33.5329 13.4336 34.9142 17.0649 34.9142 20.6957C34.9142 24.3264 33.5329 27.9577 30.7715 30.7268C28.0101 33.4959 24.3888 34.8811 20.7682 34.8811ZM31.3207 32.9505C31.6166 32.6947 31.9048 32.4258 32.1853 32.1445C32.4658 31.8632 32.7339 31.5743 32.9896 31.2776L34.3868 32.6787L32.7185 34.3522L31.3207 32.9505ZM41.1173 44.9389L33.0534 36.8519L36.8795 33.0151L44.9435 41.1015L41.1173 44.9389ZM32.5219 19.0979C32.5219 18.591 32.1392 18.1552 31.626 18.103L30.1396 17.9491C30.041 17.6115 29.9241 17.2781 29.7888 16.95C29.6542 16.6243 29.5018 16.3045 29.3317 15.9925L30.2288 14.8868C30.5985 14.4936 30.5914 13.8748 30.2081 13.4904L27.9522 11.2318C27.5955 10.8735 27.0186 10.8368 26.6182 11.1631L25.4595 12.1083C25.1483 11.9371 24.8306 11.7843 24.5052 11.6511C24.1774 11.5155 23.8444 11.3982 23.5077 11.2993L23.3619 9.88577C23.3495 9.34332 22.906 8.90687 22.3621 8.90687L19.1749 8.90983C18.6694 8.90983 18.2347 9.29357 18.1828 9.80819L18.0298 11.2987C17.6938 11.397 17.3613 11.5143 17.0342 11.6499C16.7088 11.7849 16.3893 11.9377 16.0786 12.1089L14.9342 11.1756C14.5432 10.8433 13.9562 10.8611 13.5865 11.23L11.3318 13.4904C10.9728 13.8481 10.9356 14.4279 11.2615 14.83L12.2052 15.9936C12.0352 16.3046 11.8828 16.6243 11.7481 16.9506C11.6129 17.2781 11.496 17.6121 11.398 17.9491L9.98831 18.0947C9.44737 18.1072 9.01214 18.5519 9.01214 19.0973L9.01509 22.2946C9.01509 22.8015 9.39776 23.2374 9.91095 23.2895L11.398 23.4428C11.4913 23.7638 11.6023 24.0818 11.7293 24.3951L11.7487 24.4466C11.8816 24.7694 12.034 25.088 12.2046 25.4L11.3082 26.5051C10.9385 26.8983 10.9456 27.5171 11.3289 27.9015L13.5848 30.1601C13.9414 30.5184 14.5184 30.5551 14.9188 30.2288L16.0775 29.2836C16.3887 29.4548 16.7064 29.6076 17.0318 29.7408C17.3595 29.8764 17.6926 29.9937 18.0292 30.0926L18.1745 31.5067C18.1869 32.0492 18.6304 32.4856 19.1743 32.4856L22.3627 32.4827C22.8682 32.4827 23.3028 32.0989 23.3548 31.5843L23.5077 30.0926C23.8432 29.9943 24.1757 29.877 24.5028 29.7414C24.8276 29.6064 25.1471 29.4536 25.4577 29.2831L26.5615 30.1826C26.953 30.5533 27.5701 30.5462 27.9534 30.1619L30.2057 27.8997C30.563 27.542 30.5996 26.9634 30.2743 26.5619L29.3317 25.4C29.503 25.0874 29.6554 24.7688 29.7894 24.4419C29.9246 24.1138 30.0416 23.7798 30.1396 23.4428L31.5487 23.2966C32.0896 23.2835 32.5248 22.8394 32.5248 22.294L32.5219 19.0979ZM30.5241 21.3921L29.2414 21.5247C28.7985 21.5697 28.453 21.9008 28.3662 22.3159C28.2682 22.7808 28.1282 23.2379 27.9457 23.6779C27.7644 24.1162 27.5424 24.5414 27.2814 24.9429C27.0339 25.3248 27.08 25.8128 27.3623 26.1409L28.1577 27.1216L27.1756 28.1064L26.1747 27.2903C25.8304 27.0096 25.3556 26.9978 25.0024 27.2276C24.5985 27.4911 24.1757 27.7137 23.7446 27.8926C23.304 28.075 22.8475 28.2159 22.3839 28.3142C21.9387 28.4066 21.6251 28.7844 21.5926 29.2179L21.4627 30.4793H20.0743L19.942 29.1919C19.8971 28.7477 19.567 28.4013 19.153 28.3142C18.69 28.2159 18.233 28.075 17.7936 27.892C17.3572 27.7108 16.9332 27.4881 16.534 27.227C16.1531 26.9788 15.6664 27.025 15.3393 27.3081L14.3607 28.1064L13.3787 27.1216L14.193 26.1178C14.4729 25.7725 14.4848 25.2964 14.2556 24.9423C13.9952 24.542 13.7731 24.1168 13.5924 23.6791L13.5735 23.6359C13.4005 23.2089 13.2659 22.7648 13.1714 22.3159C13.0792 21.8694 12.7025 21.5549 12.2708 21.5224L11.0129 21.3927V19.9992L12.2962 19.8672C12.7391 19.8222 13.0846 19.4911 13.1714 19.076C13.2694 18.6111 13.41 18.1522 13.5918 17.711C13.7702 17.2787 13.9916 16.8553 14.255 16.4502C14.5025 16.0683 14.4564 15.5809 14.1747 15.2528L13.3763 14.2686L14.359 13.2838L15.3617 14.1016C15.706 14.3823 16.1808 14.3941 16.534 14.1644C16.9391 13.9002 17.3613 13.6776 17.7924 13.4987C18.2324 13.3163 18.6895 13.1754 19.1536 13.0771C19.5989 12.9847 19.9125 12.6069 19.945 12.174L20.0743 10.9132H21.4627L21.595 12.2001C21.6398 12.6442 21.97 12.9906 22.3839 13.0777C22.8469 13.176 23.304 13.3169 23.7434 13.4999C24.1798 13.6811 24.6038 13.9038 25.003 14.165C25.3839 14.4131 25.8705 14.3669 26.1977 14.0838L27.1762 13.2855L28.1583 14.2704L27.3439 15.2741C27.064 15.6194 27.0522 16.0955 27.2814 16.4496C27.5447 16.8553 27.7668 17.2787 27.9451 17.7104C28.127 18.1516 28.2682 18.6105 28.3662 19.076C28.4583 19.5219 28.8351 19.8364 29.2668 19.8696L30.5241 19.9998V21.3921ZM20.7682 15.2688C19.3845 15.2688 17.9991 15.7988 16.9408 16.86C15.8826 17.9212 15.3564 19.3082 15.3564 20.6957C15.3564 22.0832 15.8849 23.4725 16.9432 24.5337C18.0015 25.5949 19.3845 26.1225 20.7682 26.1225C22.1518 26.1225 23.5373 25.5925 24.5955 24.5313C25.6538 23.4701 26.18 22.0832 26.18 20.6957C26.18 19.3082 25.6514 17.9189 24.5938 16.8583C23.5373 15.7988 22.1518 15.2688 20.7682 15.2688ZM23.1794 23.116C22.5144 23.7828 21.641 24.1162 20.7682 24.1162C19.8954 24.1162 19.0219 23.7828 18.3546 23.1136C17.6873 22.4444 17.3572 21.5709 17.3572 20.6957C17.3572 19.8204 17.6897 18.9445 18.357 18.2754C19.0243 17.6062 19.8954 17.2752 20.7682 17.2752C21.641 17.2752 22.5144 17.6086 23.1818 18.2777C23.8491 18.9469 24.1792 19.8204 24.1792 20.6957C24.1792 21.5709 23.8467 22.4468 23.1794 23.116ZM24.5938 16.8583C23.5373 15.7988 22.1518 15.2688 20.7682 15.2688C19.3845 15.2688 17.9991 15.7988 16.9408 16.86C15.8826 17.9212 15.3564 19.3082 15.3564 20.6957C15.3564 22.0832 15.8849 23.4725 16.9432 24.5337C18.0015 25.5949 19.3845 26.1225 20.7682 26.1225C22.1518 26.1225 23.5373 25.5925 24.5955 24.5313C25.6538 23.4701 26.18 22.0832 26.18 20.6957C26.18 19.3082 25.6514 17.9189 24.5938 16.8583ZM23.1794 23.116C22.5144 23.7828 21.641 24.1162 20.7682 24.1162C19.8954 24.1162 19.0219 23.7828 18.3546 23.1136C17.6873 22.4444 17.3572 21.5709 17.3572 20.6957C17.3572 19.8204 17.6897 18.9445 18.357 18.2754C19.0243 17.6062 19.8954 17.2752 20.7682 17.2752C21.641 17.2752 22.5144 17.6086 23.1818 18.2777C23.8491 18.9469 24.1792 19.8204 24.1792 20.6957C24.1792 21.5709 23.8467 22.4468 23.1794 23.116ZM24.5938 16.8583C23.5373 15.7988 22.1518 15.2688 20.7682 15.2688C19.3845 15.2688 17.9991 15.7988 16.9408 16.86C15.8826 17.9212 15.3564 19.3082 15.3564 20.6957C15.3564 22.0832 15.8849 23.4725 16.9432 24.5337C18.0015 25.5949 19.3845 26.1225 20.7682 26.1225C22.1518 26.1225 23.5373 25.5925 24.5955 24.5313C25.6538 23.4701 26.18 22.0832 26.18 20.6957C26.18 19.3082 25.6514 17.9189 24.5938 16.8583ZM23.1794 23.116C22.5144 23.7828 21.641 24.1162 20.7682 24.1162C19.8954 24.1162 19.0219 23.7828 18.3546 23.1136C17.6873 22.4444 17.3572 21.5709 17.3572 20.6957C17.3572 19.8204 17.6897 18.9445 18.357 18.2754C19.0243 17.6062 19.8954 17.2752 20.7682 17.2752C21.641 17.2752 22.5144 17.6086 23.1818 18.2777C23.8491 18.9469 24.1792 19.8204 24.1792 20.6957C24.1792 21.5709 23.8467 22.4468 23.1794 23.116ZM32.5219 19.0979C32.5219 18.591 32.1392 18.1552 31.626 18.103L30.1396 17.9491C30.041 17.6115 29.9241 17.2781 29.7888 16.95C29.6542 16.6243 29.5018 16.3045 29.3317 15.9925L30.2288 14.8868C30.5985 14.4936 30.5914 13.8748 30.2081 13.4904L27.9522 11.2318C27.5955 10.8735 27.0186 10.8368 26.6182 11.1631L25.4595 12.1083C25.1483 11.9371 24.8306 11.7843 24.5052 11.6511C24.1774 11.5155 23.8444 11.3982 23.5077 11.2993L23.3619 9.88577C23.3495 9.34332 22.906 8.90687 22.3621 8.90687L19.1749 8.90983C18.6694 8.90983 18.2347 9.29357 18.1828 9.80819L18.0298 11.2987C17.6938 11.397 17.3613 11.5143 17.0342 11.6499C16.7088 11.7849 16.3893 11.9377 16.0786 12.1089L14.9342 11.1756C14.5432 10.8433 13.9562 10.8611 13.5865 11.23L11.3318 13.4904C10.9728 13.8481 10.9356 14.4279 11.2615 14.83L12.2052 15.9936C12.0352 16.3046 11.8828 16.6243 11.7481 16.9506C11.6129 17.2781 11.496 17.6121 11.398 17.9491L9.98831 18.0947C9.44737 18.1072 9.01214 18.5519 9.01214 19.0973L9.01509 22.2946C9.01509 22.8015 9.39776 23.2374 9.91095 23.2895L11.398 23.4428C11.4913 23.7638 11.6023 24.0818 11.7293 24.3951L11.7487 24.4466C11.8816 24.7694 12.034 25.088 12.2046 25.4L11.3082 26.5051C10.9385 26.8983 10.9456 27.5171 11.3289 27.9015L13.5848 30.1601C13.9414 30.5184 14.5184 30.5551 14.9188 30.2288L16.0775 29.2836C16.3887 29.4548 16.7064 29.6076 17.0318 29.7408C17.3595 29.8764 17.6926 29.9937 18.0292 30.0926L18.1745 31.5067C18.1869 32.0492 18.6304 32.4856 19.1743 32.4856L22.3627 32.4827C22.8682 32.4827 23.3028 32.0989 23.3548 31.5843L23.5077 30.0926C23.8432 29.9943 24.1757 29.877 24.5028 29.7414C24.8276 29.6064 25.1471 29.4536 25.4577 29.2831L26.5615 30.1826C26.953 30.5533 27.5701 30.5462 27.9534 30.1619L30.2057 27.8997C30.563 27.542 30.5996 26.9634 30.2743 26.5619L29.3317 25.4C29.503 25.0874 29.6554 24.7688 29.7894 24.4419C29.9246 24.1138 30.0416 23.7798 30.1396 23.4428L31.5487 23.2966C32.0896 23.2835 32.5248 22.8394 32.5248 22.294L32.5219 19.0979ZM30.5241 21.3921L29.2414 21.5247C28.7985 21.5697 28.453 21.9008 28.3662 22.3159C28.2682 22.7808 28.1282 23.2379 27.9457 23.6779C27.7644 24.1162 27.5424 24.5414 27.2814 24.9429C27.0339 25.3248 27.08 25.8128 27.3623 26.1409L28.1577 27.1216L27.1756 28.1064L26.1747 27.2903C25.8304 27.0096 25.3556 26.9978 25.0024 27.2276C24.5985 27.4911 24.1757 27.7137 23.7446 27.8926C23.304 28.075 22.8475 28.2159 22.3839 28.3142C21.9387 28.4066 21.6251 28.7844 21.5926 29.2179L21.4627 30.4793H20.0743L19.942 29.1919C19.8971 28.7477 19.567 28.4013 19.153 28.3142C18.69 28.2159 18.233 28.075 17.7936 27.892C17.3572 27.7108 16.9332 27.4881 16.534 27.227C16.1531 26.9788 15.6664 27.025 15.3393 27.3081L14.3607 28.1064L13.3787 27.1216L14.193 26.1178C14.4729 25.7725 14.4848 25.2964 14.2556 24.9423C13.9952 24.542 13.7731 24.1168 13.5924 23.6791L13.5735 23.6359C13.4005 23.2089 13.2659 22.7648 13.1714 22.3159C13.0792 21.8694 12.7025 21.5549 12.2708 21.5224L11.0129 21.3927V19.9992L12.2962 19.8672C12.7391 19.8222 13.0846 19.4911 13.1714 19.076C13.2694 18.6111 13.41 18.1522 13.5918 17.711C13.7702 17.2787 13.9916 16.8553 14.255 16.4502C14.5025 16.0683 14.4564 15.5809 14.1747 15.2528L13.3763 14.2686L14.359 13.2838L15.3617 14.1016C15.706 14.3823 16.1808 14.3941 16.534 14.1644C16.9391 13.9002 17.3613 13.6776 17.7924 13.4987C18.2324 13.3163 18.6895 13.1754 19.1536 13.0771C19.5989 12.9847 19.9125 12.6069 19.945 12.174L20.0743 10.9132H21.4627L21.595 12.2001C21.6398 12.6442 21.97 12.9906 22.3839 13.0777C22.8469 13.176 23.304 13.3169 23.7434 13.4999C24.1798 13.6811 24.6038 13.9038 25.003 14.165C25.3839 14.4131 25.8705 14.3669 26.1977 14.0838L27.1762 13.2855L28.1583 14.2704L27.3439 15.2741C27.064 15.6194 27.0522 16.0955 27.2814 16.4496C27.5447 16.8553 27.7668 17.2787 27.9451 17.7104C28.127 18.1516 28.2682 18.6105 28.3662 19.076C28.4583 19.5219 28.8351 19.8364 29.2668 19.8696L30.5241 19.9998V21.3921ZM20.7682 15.2688C19.3845 15.2688 17.9991 15.7988 16.9408 16.86C15.8826 17.9212 15.3564 19.3082 15.3564 20.6957C15.3564 22.0832 15.8849 23.4725 16.9432 24.5337C18.0015 25.5949 19.3845 26.1225 20.7682 26.1225C22.1518 26.1225 23.5373 25.5925 24.5955 24.5313C25.6538 23.4701 26.18 22.0832 26.18 20.6957C26.18 19.3082 25.6514 17.9189 24.5938 16.8583C23.5373 15.7988 22.1518 15.2688 20.7682 15.2688ZM23.1794 23.116C22.5144 23.7828 21.641 24.1162 20.7682 24.1162C19.8954 24.1162 19.0219 23.7828 18.3546 23.1136C17.6873 22.4444 17.3572 21.5709 17.3572 20.6957C17.3572 19.8204 17.6897 18.9445 18.357 18.2754C19.0243 17.6062 19.8954 17.2752 20.7682 17.2752C21.641 17.2752 22.5144 17.6086 23.1818 18.2777C23.8491 18.9469 24.1792 19.8204 24.1792 20.6957C24.1792 21.5709 23.8467 22.4468 23.1794 23.116ZM24.5938 16.8583C23.5373 15.7988 22.1518 15.2688 20.7682 15.2688C19.3845 15.2688 17.9991 15.7988 16.9408 16.86C15.8826 17.9212 15.3564 19.3082 15.3564 20.6957C15.3564 22.0832 15.8849 23.4725 16.9432 24.5337C18.0015 25.5949 19.3845 26.1225 20.7682 26.1225C22.1518 26.1225 23.5373 25.5925 24.5955 24.5313C25.6538 23.4701 26.18 22.0832 26.18 20.6957C26.18 19.3082 25.6514 17.9189 24.5938 16.8583ZM23.1794 23.116C22.5144 23.7828 21.641 24.1162 20.7682 24.1162C19.8954 24.1162 19.0219 23.7828 18.3546 23.1136C17.6873 22.4444 17.3572 21.5709 17.3572 20.6957C17.3572 19.8204 17.6897 18.9445 18.357 18.2754C19.0243 17.6062 19.8954 17.2752 20.7682 17.2752C21.641 17.2752 22.5144 17.6086 23.1818 18.2777C23.8491 18.9469 24.1792 19.8204 24.1792 20.6957C24.1792 21.5709 23.8467 22.4468 23.1794 23.116ZM24.5938 16.8583C23.5373 15.7988 22.1518 15.2688 20.7682 15.2688C19.3845 15.2688 17.9991 15.7988 16.9408 16.86C15.8826 17.9212 15.3564 19.3082 15.3564 20.6957C15.3564 22.0832 15.8849 23.4725 16.9432 24.5337C18.0015 25.5949 19.3845 26.1225 20.7682 26.1225C22.1518 26.1225 23.5373 25.5925 24.5955 24.5313C25.6538 23.4701 26.18 22.0832 26.18 20.6957C26.18 19.3082 25.6514 17.9189 24.5938 16.8583ZM23.1794 23.116C22.5144 23.7828 21.641 24.1162 20.7682 24.1162C19.8954 24.1162 19.0219 23.7828 18.3546 23.1136C17.6873 22.4444 17.3572 21.5709 17.3572 20.6957C17.3572 19.8204 17.6897 18.9445 18.357 18.2754C19.0243 17.6062 19.8954 17.2752 20.7682 17.2752C21.641 17.2752 22.5144 17.6086 23.1818 18.2777C23.8491 18.9469 24.1792 19.8204 24.1792 20.6957C24.1792 21.5709 23.8467 22.4468 23.1794 23.116ZM32.5219 19.0979C32.5219 18.591 32.1392 18.1552 31.626 18.103L30.1396 17.9491C30.041 17.6115 29.9241 17.2781 29.7888 16.95C29.6542 16.6243 29.5018 16.3045 29.3317 15.9925L30.2288 14.8868C30.5985 14.4936 30.5914 13.8748 30.2081 13.4904L27.9522 11.2318C27.5955 10.8735 27.0186 10.8368 26.6182 11.1631L25.4595 12.1083C25.1483 11.9371 24.8306 11.7843 24.5052 11.6511C24.1774 11.5155 23.8444 11.3982 23.5077 11.2993L23.3619 9.88577C23.3495 9.34332 22.906 8.90687 22.3621 8.90687L19.1749 8.90983C18.6694 8.90983 18.2347 9.29357 18.1828 9.80819L18.0298 11.2987C17.6938 11.397 17.3613 11.5143 17.0342 11.6499C16.7088 11.7849 16.3893 11.9377 16.0786 12.1089L14.9342 11.1756C14.5432 10.8433 13.9562 10.8611 13.5865 11.23L11.3318 13.4904C10.9728 13.8481 10.9356 14.4279 11.2615 14.83L12.2052 15.9936C12.0352 16.3046 11.8828 16.6243 11.7481 16.9506C11.6129 17.2781 11.496 17.6121 11.398 17.9491L9.98831 18.0947C9.44737 18.1072 9.01214 18.5519 9.01214 19.0973L9.01509 22.2946C9.01509 22.8015 9.39776 23.2374 9.91095 23.2895L11.398 23.4428C11.4913 23.7638 11.6023 24.0818 11.7293 24.3951L11.7487 24.4466C11.8816 24.7694 12.034 25.088 12.2046 25.4L11.3082 26.5051C10.9385 26.8983 10.9456 27.5171 11.3289 27.9015L13.5848 30.1601C13.9414 30.5184 14.5184 30.5551 14.9188 30.2288L16.0775 29.2836C16.3887 29.4548 16.7064 29.6076 17.0318 29.7408C17.3595 29.8764 17.6926 29.9937 18.0292 30.0926L18.1745 31.5067C18.1869 32.0492 18.6304 32.4856 19.1743 32.4856L22.3627 32.4827C22.8682 32.4827 23.3028 32.0989 23.3548 31.5843L23.5077 30.0926C23.8432 29.9943 24.1757 29.877 24.5028 29.7414C24.8276 29.6064 25.1471 29.4536 25.4577 29.2831L26.5615 30.1826C26.953 30.5533 27.5701 30.5462 27.9534 30.1619L30.2057 27.8997C30.563 27.542 30.5996 26.9634 30.2743 26.5619L29.3317 25.4C29.503 25.0874 29.6554 24.7688 29.7894 24.4419C29.9246 24.1138 30.0416 23.7798 30.1396 23.4428L31.5487 23.2966C32.0896 23.2835 32.5248 22.8394 32.5248 22.294L32.5219 19.0979ZM30.5241 21.3921L29.2414 21.5247C28.7985 21.5697 28.453 21.9008 28.3662 22.3159C28.2682 22.7808 28.1282 23.2379 27.9457 23.6779C27.7644 24.1162 27.5424 24.5414 27.2814 24.9429C27.0339 25.3248 27.08 25.8128 27.3623 26.1409L28.1577 27.1216L27.1756 28.1064L26.1747 27.2903C25.8304 27.0096 25.3556 26.9978 25.0024 27.2276C24.5985 27.4911 24.1757 27.7137 23.7446 27.8926C23.304 28.075 22.8475 28.2159 22.3839 28.3142C21.9387 28.4066 21.6251 28.7844 21.5926 29.2179L21.4627 30.4793H20.0743L19.942 29.1919C19.8971 28.7477 19.567 28.4013 19.153 28.3142C18.69 28.2159 18.233 28.075 17.7936 27.892C17.3572 27.7108 16.9332 27.4881 16.534 27.227C16.1531 26.9788 15.6664 27.025 15.3393 27.3081L14.3607 28.1064L13.3787 27.1216L14.193 26.1178C14.4729 25.7725 14.4848 25.2964 14.2556 24.9423C13.9952 24.542 13.7731 24.1168 13.5924 23.6791L13.5735 23.6359C13.4005 23.2089 13.2659 22.7648 13.1714 22.3159C13.0792 21.8694 12.7025 21.5549 12.2708 21.5224L11.0129 21.3927V19.9992L12.2962 19.8672C12.7391 19.8222 13.0846 19.4911 13.1714 19.076C13.2694 18.6111 13.41 18.1522 13.5918 17.711C13.7702 17.2787 13.9916 16.8553 14.255 16.4502C14.5025 16.0683 14.4564 15.5809 14.1747 15.2528L13.3763 14.2686L14.359 13.2838L15.3617 14.1016C15.706 14.3823 16.1808 14.3941 16.534 14.1644C16.9391 13.9002 17.3613 13.6776 17.7924 13.4987C18.2324 13.3163 18.6895 13.1754 19.1536 13.0771C19.5989 12.9847 19.9125 12.6069 19.945 12.174L20.0743 10.9132H21.4627L21.595 12.2001C21.6398 12.6442 21.97 12.9906 22.3839 13.0777C22.8469 13.176 23.304 13.3169 23.7434 13.4999C24.1798 13.6811 24.6038 13.9038 25.003 14.165C25.3839 14.4131 25.8705 14.3669 26.1977 14.0838L27.1762 13.2855L28.1583 14.2704L27.3439 15.2741C27.064 15.6194 27.0522 16.0955 27.2814 16.4496C27.5447 16.8553 27.7668 17.2787 27.9451 17.7104C28.127 18.1516 28.2682 18.6105 28.3662 19.076C28.4583 19.5219 28.8351 19.8364 29.2668 19.8696L30.5241 19.9998V21.3921ZM20.7682 15.2688C19.3845 15.2688 17.9991 15.7988 16.9408 16.86C15.8826 17.9212 15.3564 19.3082 15.3564 20.6957C15.3564 22.0832 15.8849 23.4725 16.9432 24.5337C18.0015 25.5949 19.3845 26.1225 20.7682 26.1225C22.1518 26.1225 23.5373 25.5925 24.5955 24.5313C25.6538 23.4701 26.18 22.0832 26.18 20.6957C26.18 19.3082 25.6514 17.9189 24.5938 16.8583C23.5373 15.7988 22.1518 15.2688 20.7682 15.2688ZM23.1794 23.116C22.5144 23.7828 21.641 24.1162 20.7682 24.1162C19.8954 24.1162 19.0219 23.7828 18.3546 23.1136C17.6873 22.4444 17.3572 21.5709 17.3572 20.6957C17.3572 19.8204 17.6897 18.9445 18.357 18.2754C19.0243 17.6062 19.8954 17.2752 20.7682 17.2752C21.641 17.2752 22.5144 17.6086 23.1818 18.2777C23.8491 18.9469 24.1792 19.8204 24.1792 20.6957C24.1792 21.5709 23.8467 22.4468 23.1794 23.116ZM24.5938 16.8583C23.5373 15.7988 22.1518 15.2688 20.7682 15.2688C19.3845 15.2688 17.9991 15.7988 16.9408 16.86C15.8826 17.9212 15.3564 19.3082 15.3564 20.6957C15.3564 22.0832 15.8849 23.4725 16.9432 24.5337C18.0015 25.5949 19.3845 26.1225 20.7682 26.1225C22.1518 26.1225 23.5373 25.5925 24.5955 24.5313C25.6538 23.4701 26.18 22.0832 26.18 20.6957C26.18 19.3082 25.6514 17.9189 24.5938 16.8583ZM23.1794 23.116C22.5144 23.7828 21.641 24.1162 20.7682 24.1162C19.8954 24.1162 19.0219 23.7828 18.3546 23.1136C17.6873 22.4444 17.3572 21.5709 17.3572 20.6957C17.3572 19.8204 17.6897 18.9445 18.357 18.2754C19.0243 17.6062 19.8954 17.2752 20.7682 17.2752C21.641 17.2752 22.5144 17.6086 23.1818 18.2777C23.8491 18.9469 24.1792 19.8204 24.1792 20.6957C24.1792 21.5709 23.8467 22.4468 23.1794 23.116ZM24.5938 16.8583C23.5373 15.7988 22.1518 15.2688 20.7682 15.2688C19.3845 15.2688 17.9991 15.7988 16.9408 16.86C15.8826 17.9212 15.3564 19.3082 15.3564 20.6957C15.3564 22.0832 15.8849 23.4725 16.9432 24.5337C18.0015 25.5949 19.3845 26.1225 20.7682 26.1225C22.1518 26.1225 23.5373 25.5925 24.5955 24.5313C25.6538 23.4701 26.18 22.0832 26.18 20.6957C26.18 19.3082 25.6514 17.9189 24.5938 16.8583ZM23.1794 23.116C22.5144 23.7828 21.641 24.1162 20.7682 24.1162C19.8954 24.1162 19.0219 23.7828 18.3546 23.1136C17.6873 22.4444 17.3572 21.5709 17.3572 20.6957C17.3572 19.8204 17.6897 18.9445 18.357 18.2754C19.0243 17.6062 19.8954 17.2752 20.7682 17.2752C21.641 17.2752 22.5144 17.6086 23.1818 18.2777C23.8491 18.9469 24.1792 19.8204 24.1792 20.6957C24.1792 21.5709 23.8467 22.4468 23.1794 23.116ZM24.5938 16.8583C23.5373 15.7988 22.1518 15.2688 20.7682 15.2688C19.3845 15.2688 17.9991 15.7988 16.9408 16.86C15.8826 17.9212 15.3564 19.3082 15.3564 20.6957C15.3564 22.0832 15.8849 23.4725 16.9432 24.5337C18.0015 25.5949 19.3845 26.1225 20.7682 26.1225C22.1518 26.1225 23.5373 25.5925 24.5955 24.5313C25.6538 23.4701 26.18 22.0832 26.18 20.6957C26.18 19.3082 25.6514 17.9189 24.5938 16.8583ZM23.1794 23.116C22.5144 23.7828 21.641 24.1162 20.7682 24.1162C19.8954 24.1162 19.0219 23.7828 18.3546 23.1136C17.6873 22.4444 17.3572 21.5709 17.3572 20.6957C17.3572 19.8204 17.6897 18.9445 18.357 18.2754C19.0243 17.6062 19.8954 17.2752 20.7682 17.2752C21.641 17.2752 22.5144 17.6086 23.1818 18.2777C23.8491 18.9469 24.1792 19.8204 24.1792 20.6957C24.1792 21.5709 23.8467 22.4468 23.1794 23.116ZM24.5938 16.8583C23.5373 15.7988 22.1518 15.2688 20.7682 15.2688C19.3845 15.2688 17.9991 15.7988 16.9408 16.86C15.8826 17.9212 15.3564 19.3082 15.3564 20.6957C15.3564 22.0832 15.8849 23.4725 16.9432 24.5337C18.0015 25.5949 19.3845 26.1225 20.7682 26.1225C22.1518 26.1225 23.5373 25.5925 24.5955 24.5313C25.6538 23.4701 26.18 22.0832 26.18 20.6957C26.18 19.3082 25.6514 17.9189 24.5938 16.8583ZM23.1794 23.116C22.5144 23.7828 21.641 24.1162 20.7682 24.1162C19.8954 24.1162 19.0219 23.7828 18.3546 23.1136C17.6873 22.4444 17.3572 21.5709 17.3572 20.6957C17.3572 19.8204 17.6897 18.9445 18.357 18.2754C19.0243 17.6062 19.8954 17.2752 20.7682 17.2752C21.641 17.2752 22.5144 17.6086 23.1818 18.2777C23.8491 18.9469 24.1792 19.8204 24.1792 20.6957C24.1792 21.5709 23.8467 22.4468 23.1794 23.116ZM24.5938 16.8583C23.5373 15.7988 22.1518 15.2688 20.7682 15.2688C19.3845 15.2688 17.9991 15.7988 16.9408 16.86C15.8826 17.9212 15.3564 19.3082 15.3564 20.6957C15.3564 22.0832 15.8849 23.4725 16.9432 24.5337C18.0015 25.5949 19.3845 26.1225 20.7682 26.1225C22.1518 26.1225 23.5373 25.5925 24.5955 24.5313C25.6538 23.4701 26.18 22.0832 26.18 20.6957C26.18 19.3082 25.6514 17.9189 24.5938 16.8583ZM23.1794 23.116C22.5144 23.7828 21.641 24.1162 20.7682 24.1162C19.8954 24.1162 19.0219 23.7828 18.3546 23.1136C17.6873 22.4444 17.3572 21.5709 17.3572 20.6957C17.3572 19.8204 17.6897 18.9445 18.357 18.2754C19.0243 17.6062 19.8954 17.2752 20.7682 17.2752C21.641 17.2752 22.5144 17.6086 23.1818 18.2777C23.8491 18.9469 24.1792 19.8204 24.1792 20.6957C24.1792 21.5709 23.8467 22.4468 23.1794 23.116ZM24.5938 16.8583C23.5373 15.7988 22.1518 15.2688 20.7682 15.2688C19.3845 15.2688 17.9991 15.7988 16.9408 16.86C15.8826 17.9212 15.3564 19.3082 15.3564 20.6957C15.3564 22.0832 15.8849 23.4725 16.9432 24.5337C18.0015 25.5949 19.3845 26.1225 20.7682 26.1225C22.1518 26.1225 23.5373 25.5925 24.5955 24.5313C25.6538 23.4701 26.18 22.0832 26.18 20.6957C26.18 19.3082 25.6514 17.9189 24.5938 16.8583ZM23.1794 23.116C22.5144 23.7828 21.641 24.1162 20.7682 24.1162C19.8954 24.1162 19.0219 23.7828 18.3546 23.1136C17.6873 22.4444 17.3572 21.5709 17.3572 20.6957C17.3572 19.8204 17.6897 18.9445 18.357 18.2754C19.0243 17.6062 19.8954 17.2752 20.7682 17.2752C21.641 17.2752 22.5144 17.6086 23.1818 18.2777C23.8491 18.9469 24.1792 19.8204 24.1792 20.6957C24.1792 21.5709 23.8467 22.4468 23.1794 23.116ZM32.5219 19.0979C32.5219 18.591 32.1392 18.1552 31.626 18.103L30.1396 17.9491C30.041 17.6115 29.9241 17.2781 29.7888 16.95C29.6542 16.6243 29.5018 16.3045 29.3317 15.9925L30.2288 14.8868C30.5985 14.4936 30.5914 13.8748 30.2081 13.4904L27.9522 11.2318C27.5955 10.8735 27.0186 10.8368 26.6182 11.1631L25.4595 12.1083C25.1483 11.9371 24.8306 11.7843 24.5052 11.6511C24.1774 11.5155 23.8444 11.3982 23.5077 11.2993L23.3619 9.88577C23.3495 9.34332 22.906 8.90687 22.3621 8.90687L19.1749 8.90983C18.6694 8.90983 18.2347 9.29357 18.1828 9.80819L18.0298 11.2987C17.6938 11.397 17.3613 11.5143 17.0342 11.6499C16.7088 11.7849 16.3893 11.9377 16.0786 12.1089L14.9342 11.1756C14.5432 10.8433 13.9562 10.8611 13.5865 11.23L11.3318 13.4904C10.9728 13.8481 10.9356 14.4279 11.2615 14.83L12.2052 15.9936C12.0352 16.3046 11.8828 16.6243 11.7481 16.9506C11.6129 17.2781 11.496 17.6121 11.398 17.9491L9.98831 18.0947C9.44737 18.1072 9.01214 18.5519 9.01214 19.0973L9.01509 22.2946C9.01509 22.8015 9.39776 23.2374 9.91095 23.2895L11.398 23.4428C11.4913 23.7638 11.6023 24.0818 11.7293 24.3951L11.7487 24.4466C11.8816 24.7694 12.034 25.088 12.2046 25.4L11.3082 26.5051C10.9385 26.8983 10.9456 27.5171 11.3289 27.9015L13.5848 30.1601C13.9414 30.5184 14.5184 30.5551 14.9188 30.2288L16.0775 29.2836C16.3887 29.4548 16.7064 29.6076 17.0318 29.7408C17.3595 29.8764 17.6926 29.9937 18.0292 30.0926L18.1745 31.5067C18.1869 32.0492 18.6304 32.4856 19.1743 32.4856L22.3627 32.4827C22.8682 32.4827 23.3028 32.0989 23.3548 31.5843L23.5077 30.0926C23.8432 29.9943 24.1757 29.877 24.5028 29.7414C24.8276 29.6064 25.1471 29.4536 25.4577 29.2831L26.5615 30.1826C26.953 30.5533 27.5701 30.5462 27.9534 30.1619L30.2057 27.8997C30.563 27.542 30.5996 26.9634 30.2743 26.5619L29.3317 25.4C29.503 25.0874 29.6554 24.7688 29.7894 24.4419C29.9246 24.1138 30.0416 23.7798 30.1396 23.4428L31.5487 23.2966C32.0896 23.2835 32.5248 22.8394 32.5248 22.294L32.5219 19.0979ZM30.5241 21.3921L29.2414 21.5247C28.7985 21.5697 28.453 21.9008 28.3662 22.3159C28.2682 22.7808 28.1282 23.2379 27.9457 23.6779C27.7644 24.1162 27.5424 24.5414 27.2814 24.9429C27.0339 25.3248 27.08 25.8128 27.3623 26.1409L28.1577 27.1216L27.1756 28.1064L26.1747 27.2903C25.8304 27.0096 25.3556 26.9978 25.0024 27.2276C24.5985 27.4911 24.1757 27.7137 23.7446 27.8926C23.304 28.075 22.8475 28.2159 22.3839 28.3142C21.9387 28.4066 21.6251 28.7844 21.5926 29.2179L21.4627 30.4793H20.0743L19.942 29.1919C19.8971 28.7477 19.567 28.4013 19.153 28.3142C18.69 28.2159 18.233 28.075 17.7936 27.892C17.3572 27.7108 16.9332 27.4881 16.534 27.227C16.1531 26.9788 15.6664 27.025 15.3393 27.3081L14.3607 28.1064L13.3787 27.1216L14.193 26.1178C14.4729 25.7725 14.4848 25.2964 14.2556 24.9423C13.9952 24.542 13.7731 24.1168 13.5924 23.6791L13.5735 23.6359C13.4005 23.2089 13.2659 22.7648 13.1714 22.3159C13.0792 21.8694 12.7025 21.5549 12.2708 21.5224L11.0129 21.3927V19.9992L12.2962 19.8672C12.7391 19.8222 13.0846 19.4911 13.1714 19.076C13.2694 18.6111 13.41 18.1522 13.5918 17.711C13.7702 17.2787 13.9916 16.8553 14.255 16.4502C14.5025 16.0683 14.4564 15.5809 14.1747 15.2528L13.3763 14.2686L14.359 13.2838L15.3617 14.1016C15.706 14.3823 16.1808 14.3941 16.534 14.1644C16.9391 13.9002 17.3613 13.6776 17.7924 13.4987C18.2324 13.3163 18.6895 13.1754 19.1536 13.0771C19.5989 12.9847 19.9125 12.6069 19.945 12.174L20.0743 10.9132H21.4627L21.595 12.2001C21.6398 12.6442 21.97 12.9906 22.3839 13.0777C22.8469 13.176 23.304 13.3169 23.7434 13.4999C24.1798 13.6811 24.6038 13.9038 25.003 14.165C25.3839 14.4131 25.8705 14.3669 26.1977 14.0838L27.1762 13.2855L28.1583 14.2704L27.3439 15.2741C27.064 15.6194 27.0522 16.0955 27.2814 16.4496C27.5447 16.8553 27.7668 17.2787 27.9451 17.7104C28.127 18.1516 28.2682 18.6105 28.3662 19.076C28.4583 19.5219 28.8351 19.8364 29.2668 19.8696L30.5241 19.9998V21.3921ZM20.7682 15.2688C19.3845 15.2688 17.9991 15.7988 16.9408 16.86C15.8826 17.9212 15.3564 19.3082 15.3564 20.6957C15.3564 22.0832 15.8849 23.4725 16.9432 24.5337C18.0015 25.5949 19.3845 26.1225 20.7682 26.1225C22.1518 26.1225 23.5373 25.5925 24.5955 24.5313C25.6538 23.4701 26.18 22.0832 26.18 20.6957C26.18 19.3082 25.6514 17.9189 24.5938 16.8583C23.5373 15.7988 22.1518 15.2688 20.7682 15.2688ZM23.1794 23.116C22.5144 23.7828 21.641 24.1162 20.7682 24.1162C19.8954 24.1162 19.0219 23.7828 18.3546 23.1136C17.6873 22.4444 17.3572 21.5709 17.3572 20.6957C17.3572 19.8204 17.6897 18.9445 18.357 18.2754C19.0243 17.6062 19.8954 17.2752 20.7682 17.2752C21.641 17.2752 22.5144 17.6086 23.1818 18.2777C23.8491 18.9469 24.1792 19.8204 24.1792 20.6957C24.1792 21.5709 23.8467 22.4468 23.1794 23.116ZM24.5938 16.8583C23.5373 15.7988 22.1518 15.2688 20.7682 15.2688C19.3845 15.2688 17.9991 15.7988 16.9408 16.86C15.8826 17.9212 15.3564 19.3082 15.3564 20.6957C15.3564 22.0832 15.8849 23.4725 16.9432 24.5337C18.0015 25.5949 19.3845 26.1225 20.7682 26.1225C22.1518 26.1225 23.5373 25.5925 24.5955 24.5313C25.6538 23.4701 26.18 22.0832 26.18 20.6957C26.18 19.3082 25.6514 17.9189 24.5938 16.8583ZM23.1794 23.116C22.5144 23.7828 21.641 24.1162 20.7682 24.1162C19.8954 24.1162 19.0219 23.7828 18.3546 23.1136C17.6873 22.4444 17.3572 21.5709 17.3572 20.6957C17.3572 19.8204 17.6897 18.9445 18.357 18.2754C19.0243 17.6062 19.8954 17.2752 20.7682 17.2752C21.641 17.2752 22.5144 17.6086 23.1818 18.2777C23.8491 18.9469 24.1792 19.8204 24.1792 20.6957C24.1792 21.5709 23.8467 22.4468 23.1794 23.116ZM24.5938 16.8583C23.5373 15.7988 22.1518 15.2688 20.7682 15.2688C19.3845 15.2688 17.9991 15.7988 16.9408 16.86C15.8826 17.9212 15.3564 19.3082 15.3564 20.6957C15.3564 22.0832 15.8849 23.4725 16.9432 24.5337C18.0015 25.5949 19.3845 26.1225 20.7682 26.1225C22.1518 26.1225 23.5373 25.5925 24.5955 24.5313C25.6538 23.4701 26.18 22.0832 26.18 20.6957C26.18 19.3082 25.6514 17.9189 24.5938 16.8583ZM23.1794 23.116C22.5144 23.7828 21.641 24.1162 20.7682 24.1162C19.8954 24.1162 19.0219 23.7828 18.3546 23.1136C17.6873 22.4444 17.3572 21.5709 17.3572 20.6957C17.3572 19.8204 17.6897 18.9445 18.357 18.2754C19.0243 17.6062 19.8954 17.2752 20.7682 17.2752C21.641 17.2752 22.5144 17.6086 23.1818 18.2777C23.8491 18.9469 24.1792 19.8204 24.1792 20.6957C24.1792 21.5709 23.8467 22.4468 23.1794 23.116ZM24.5938 16.8583C23.5373 15.7988 22.1518 15.2688 20.7682 15.2688C19.3845 15.2688 17.9991 15.7988 16.9408 16.86C15.8826 17.9212 15.3564 19.3082 15.3564 20.6957C15.3564 22.0832 15.8849 23.4725 16.9432 24.5337C18.0015 25.5949 19.3845 26.1225 20.7682 26.1225C22.1518 26.1225 23.5373 25.5925 24.5955 24.5313C25.6538 23.4701 26.18 22.0832 26.18 20.6957C26.18 19.3082 25.6514 17.9189 24.5938 16.8583ZM23.1794 23.116C22.5144 23.7828 21.641 24.1162 20.7682 24.1162C19.8954 24.1162 19.0219 23.7828 18.3546 23.1136C17.6873 22.4444 17.3572 21.5709 17.3572 20.6957C17.3572 19.8204 17.6897 18.9445 18.357 18.2754C19.0243 17.6062 19.8954 17.2752 20.7682 17.2752C21.641 17.2752 22.5144 17.6086 23.1818 18.2777C23.8491 18.9469 24.1792 19.8204 24.1792 20.6957C24.1792 21.5709 23.8467 22.4468 23.1794 23.116ZM24.5938 16.8583C23.5373 15.7988 22.1518 15.2688 20.7682 15.2688C19.3845 15.2688 17.9991 15.7988 16.9408 16.86C15.8826 17.9212 15.3564 19.3082 15.3564 20.6957C15.3564 22.0832 15.8849 23.4725 16.9432 24.5337C18.0015 25.5949 19.3845 26.1225 20.7682 26.1225C22.1518 26.1225 23.5373 25.5925 24.5955 24.5313C25.6538 23.4701 26.18 22.0832 26.18 20.6957C26.18 19.3082 25.6514 17.9189 24.5938 16.8583ZM23.1794 23.116C22.5144 23.7828 21.641 24.1162 20.7682 24.1162C19.8954 24.1162 19.0219 23.7828 18.3546 23.1136C17.6873 22.4444 17.3572 21.5709 17.3572 20.6957C17.3572 19.8204 17.6897 18.9445 18.357 18.2754C19.0243 17.6062 19.8954 17.2752 20.7682 17.2752C21.641 17.2752 22.5144 17.6086 23.1818 18.2777C23.8491 18.9469 24.1792 19.8204 24.1792 20.6957C24.1792 21.5709 23.8467 22.4468 23.1794 23.116ZM24.5938 16.8583C23.5373 15.7988 22.1518 15.2688 20.7682 15.2688C19.3845 15.2688 17.9991 15.7988 16.9408 16.86C15.8826 17.9212 15.3564 19.3082 15.3564 20.6957C15.3564 22.0832 15.8849 23.4725 16.9432 24.5337C18.0015 25.5949 19.3845 26.1225 20.7682 26.1225C22.1518 26.1225 23.5373 25.5925 24.5955 24.5313C25.6538 23.4701 26.18 22.0832 26.18 20.6957C26.18 19.3082 25.6514 17.9189 24.5938 16.8583ZM23.1794 23.116C22.5144 23.7828 21.641 24.1162 20.7682 24.1162C19.8954 24.1162 19.0219 23.7828 18.3546 23.1136C17.6873 22.4444 17.3572 21.5709 17.3572 20.6957C17.3572 19.8204 17.6897 18.9445 18.357 18.2754C19.0243 17.6062 19.8954 17.2752 20.7682 17.2752C21.641 17.2752 22.5144 17.6086 23.1818 18.2777C23.8491 18.9469 24.1792 19.8204 24.1792 20.6957C24.1792 21.5709 23.8467 22.4468 23.1794 23.116ZM24.5938 16.8583C23.5373 15.7988 22.1518 15.2688 20.7682 15.2688C19.3845 15.2688 17.9991 15.7988 16.9408 16.86C15.8826 17.9212 15.3564 19.3082 15.3564 20.6957C15.3564 22.0832 15.8849 23.4725 16.9432 24.5337C18.0015 25.5949 19.3845 26.1225 20.7682 26.1225C22.1518 26.1225 23.5373 25.5925 24.5955 24.5313C25.6538 23.4701 26.18 22.0832 26.18 20.6957C26.18 19.3082 25.6514 17.9189 24.5938 16.8583ZM23.1794 23.116C22.5144 23.7828 21.641 24.1162 20.7682 24.1162C19.8954 24.1162 19.0219 23.7828 18.3546 23.1136C17.6873 22.4444 17.3572 21.5709 17.3572 20.6957C17.3572 19.8204 17.6897 18.9445 18.357 18.2754C19.0243 17.6062 19.8954 17.2752 20.7682 17.2752C21.641 17.2752 22.5144 17.6086 23.1818 18.2777C23.8491 18.9469 24.1792 19.8204 24.1792 20.6957C24.1792 21.5709 23.8467 22.4468 23.1794 23.116ZM32.5219 19.0979C32.5219 18.591 32.1392 18.1552 31.626 18.103L30.1396 17.9491C30.041 17.6115 29.9241 17.2781 29.7888 16.95C29.6542 16.6243 29.5018 16.3045 29.3317 15.9925L30.2288 14.8868C30.5985 14.4936 30.5914 13.8748 30.2081 13.4904L27.9522 11.2318C27.5955 10.8735 27.0186 10.8368 26.6182 11.1631L25.4595 12.1083C25.1483 11.9371 24.8306 11.7843 24.5052 11.6511C24.1774 11.5155 23.8444 11.3982 23.5077 11.2993L23.3619 9.88577C23.3495 9.34332 22.906 8.90687 22.3621 8.90687L19.1749 8.90983C18.6694 8.90983 18.2347 9.29357 18.1828 9.80819L18.0298 11.2987C17.6938 11.397 17.3613 11.5143 17.0342 11.6499C16.7088 11.7849 16.3893 11.9377 16.0786 12.1089L14.9342 11.1756C14.5432 10.8433 13.9562 10.8611 13.5865 11.23L11.3318 13.4904C10.9728 13.8481 10.9356 14.4279 11.2615 14.83L12.2052 15.9936C12.0352 16.3046 11.8828 16.6243 11.7481 16.9506C11.6129 17.2781 11.496 17.6121 11.398 17.9491L9.98831 18.0947C9.44737 18.1072 9.01214 18.5519 9.01214 19.0973L9.01509 22.2946C9.01509 22.8015 9.39776 23.2374 9.91095 23.2895L11.398 23.4428C11.4913 23.7638 11.6023 24.0818 11.7293 24.3951L11.7487 24.4466C11.8816 24.7694 12.034 25.088 12.2046 25.4L11.3082 26.5051C10.9385 26.8983 10.9456 27.5171 11.3289 27.9015L13.5848 30.1601C13.9414 30.5184 14.5184 30.5551 14.9188 30.2288L16.0775 29.2836C16.3887 29.4548 16.7064 29.6076 17.0318 29.7408C17.3595 29.8764 17.6926 29.9937 18.0292 30.0926L18.1745 31.5067C18.1869 32.0492 18.6304 32.4856 19.1743 32.4856L22.3627 32.4827C22.8682 32.4827 23.3028 32.0989 23.3548 31.5843L23.5077 30.0926C23.8432 29.9943 24.1757 29.877 24.5028 29.7414C24.8276 29.6064 25.1471 29.4536 25.4577 29.2831L26.5615 30.1826C26.953 30.5533 27.5701 30.5462 27.9534 30.1619L30.2057 27.8997C30.563 27.542 30.5996 26.9634 30.2743 26.5619L29.3317 25.4C29.503 25.0874 29.6554 24.7688 29.7894 24.4419C29.9246 24.1138 30.0416 23.7798 30.1396 23.4428L31.5487 23.2966C32.0896 23.2835 32.5248 22.8394 32.5248 22.294L32.5219 19.0979ZM30.5241 21.3921L29.2414 21.5247C28.7985 21.5697 28.453 21.9008 28.3662 22.3159C28.2682 22.7808 28.1282 23.2379 27.9457 23.6779C27.7644 24.1162 27.5424 24.5414 27.2814 24.9429C27.0339 25.3248 27.08 25.8128 27.3623 26.1409L28.1577 27.1216L27.1756 28.1064L26.1747 27.2903C25.8304 27.0096 25.3556 26.9978 25.0024 27.2276C24.5985 27.4911 24.1757 27.7137 23.7446 27.8926C23.304 28.075 22.8475 28.2159 22.3839 28.3142C21.9387 28.4066 21.6251 28.7844 21.5926 29.2179L21.4627 30.4793H20.0743L19.942 29.1919C19.8971 28.7477 19.567 28.4013 19.153 28.3142C18.69 28.2159 18.233 28.075 17.7936 27.892C17.3572 27.7108 16.9332 27.4881 16.534 27.227C16.1531 26.9788 15.6664 27.025 15.3393 27.3081L14.3607 28.1064L13.3787 27.1216L14.193 26.1178C14.4729 25.7725 14.4848 25.2964 14.2556 24.9423C13.9952 24.542 13.7731 24.1168 13.5924 23.6791L13.5735 23.6359C13.4005 23.2089 13.2659 22.7648 13.1714 22.3159C13.0792 21.8694 12.7025 21.5549 12.2708 21.5224L11.0129 21.3927V19.9992L12.2962 19.8672C12.7391 19.8222 13.0846 19.4911 13.1714 19.076C13.2694 18.6111 13.41 18.1522 13.5918 17.711C13.7702 17.2787 13.9916 16.8553 14.255 16.4502C14.5025 16.0683 14.4564 15.5809 14.1747 15.2528L13.3763 14.2686L14.359 13.2838L15.3617 14.1016C15.706 14.3823 16.1808 14.3941 16.534 14.1644C16.9391 13.9002 17.3613 13.6776 17.7924 13.4987C18.2324 13.3163 18.6895 13.1754 19.1536 13.0771C19.5989 12.9847 19.9125 12.6069 19.945 12.174L20.0743 10.9132H21.4627L21.595 12.2001C21.6398 12.6442 21.97 12.9906 22.3839 13.0777C22.8469 13.176 23.304 13.3169 23.7434 13.4999C24.1798 13.6811 24.6038 13.9038 25.003 14.165C25.3839 14.4131 25.8705 14.3669 26.1977 14.0838L27.1762 13.2855L28.1583 14.2704L27.3439 15.2741C27.064 15.6194 27.0522 16.0955 27.2814 16.4496C27.5447 16.8553 27.7668 17.2787 27.9451 17.7104C28.127 18.1516 28.2682 18.6105 28.3662 19.076C28.4583 19.5219 28.8351 19.8364 29.2668 19.8696L30.5241 19.9998V21.3921ZM20.7682 15.2688C19.3845 15.2688 17.9991 15.7988 16.9408 16.86C15.8826 17.9212 15.3564 19.3082 15.3564 20.6957C15.3564 22.0832 15.8849 23.4725 16.9432 24.5337C18.0015 25.5949 19.3845 26.1225 20.7682 26.1225C22.1518 26.1225 23.5373 25.5925 24.5955 24.5313C25.6538 23.4701 26.18 22.0832 26.18 20.6957C26.18 19.3082 25.6514 17.9189 24.5938 16.8583C23.5373 15.7988 22.1518 15.2688 20.7682 15.2688ZM23.1794 23.116C22.5144 23.7828 21.641 24.1162 20.7682 24.1162C19.8954 24.1162 19.0219 23.7828 18.3546 23.1136C17.6873 22.4444 17.3572 21.5709 17.3572 20.6957C17.3572 19.8204 17.6897 18.9445 18.357 18.2754C19.0243 17.6062 19.8954 17.2752 20.7682 17.2752C21.641 17.2752 22.5144 17.6086 23.1818 18.2777C23.8491 18.9469 24.1792 19.8204 24.1792 20.6957C24.1792 21.5709 23.8467 22.4468 23.1794 23.116ZM24.5938 16.8583C23.5373 15.7988 22.1518 15.2688 20.7682 15.2688C19.3845 15.2688 17.9991 15.7988 16.9408 16.86C15.8826 17.9212 15.3564 19.3082 15.3564 20.6957C15.3564 22.0832 15.8849 23.4725 16.9432 24.5337C18.0015 25.5949 19.3845 26.1225 20.7682 26.1225C22.1518 26.1225 23.5373 25.5925 24.5955 24.5313C25.6538 23.4701 26.18 22.0832 26.18 20.6957C26.18 19.3082 25.6514 17.9189 24.5938 16.8583ZM23.1794 23.116C22.5144 23.7828 21.641 24.1162 20.7682 24.1162C19.8954 24.1162 19.0219 23.7828 18.3546 23.1136C17.6873 22.4444 17.3572 21.5709 17.3572 20.6957C17.3572 19.8204 17.6897 18.9445 18.357 18.2754C19.0243 17.6062 19.8954 17.2752 20.7682 17.2752C21.641 17.2752 22.5144 17.6086 23.1818 18.2777C23.8491 18.9469 24.1792 19.8204 24.1792 20.6957C24.1792 21.5709 23.8467 22.4468 23.1794 23.116ZM24.5938 16.8583C23.5373 15.7988 22.1518 15.2688 20.7682 15.2688C19.3845 15.2688 17.9991 15.7988 16.9408 16.86C15.8826 17.9212 15.3564 19.3082 15.3564 20.6957C15.3564 22.0832 15.8849 23.4725 16.9432 24.5337C18.0015 25.5949 19.3845 26.1225 20.7682 26.1225C22.1518 26.1225 23.5373 25.5925 24.5955 24.5313C25.6538 23.4701 26.18 22.0832 26.18 20.6957C26.18 19.3082 25.6514 17.9189 24.5938 16.8583ZM23.1794 23.116C22.5144 23.7828 21.641 24.1162 20.7682 24.1162C19.8954 24.1162 19.0219 23.7828 18.3546 23.1136C17.6873 22.4444 17.3572 21.5709 17.3572 20.6957C17.3572 19.8204 17.6897 18.9445 18.357 18.2754C19.0243 17.6062 19.8954 17.2752 20.7682 17.2752C21.641 17.2752 22.5144 17.6086 23.1818 18.2777C23.8491 18.9469 24.1792 19.8204 24.1792 20.6957C24.1792 21.5709 23.8467 22.4468 23.1794 23.116ZM24.5938 16.8583C23.5373 15.7988 22.1518 15.2688 20.7682 15.2688C19.3845 15.2688 17.9991 15.7988 16.9408 16.86C15.8826 17.9212 15.3564 19.3082 15.3564 20.6957C15.3564 22.0832 15.8849 23.4725 16.9432 24.5337C18.0015 25.5949 19.3845 26.1225 20.7682 26.1225C22.1518 26.1225 23.5373 25.5925 24.5955 24.5313C25.6538 23.4701 26.18 22.0832 26.18 20.6957C26.18 19.3082 25.6514 17.9189 24.5938 16.8583ZM23.1794 23.116C22.5144 23.7828 21.641 24.1162 20.7682 24.1162C19.8954 24.1162 19.0219 23.7828 18.3546 23.1136C17.6873 22.4444 17.3572 21.5709 17.3572 20.6957C17.3572 19.8204 17.6897 18.9445 18.357 18.2754C19.0243 17.6062 19.8954 17.2752 20.7682 17.2752C21.641 17.2752 22.5144 17.6086 23.1818 18.2777C23.8491 18.9469 24.1792 19.8204 24.1792 20.6957C24.1792 21.5709 23.8467 22.4468 23.1794 23.116ZM24.5938 16.8583C23.5373 15.7988 22.1518 15.2688 20.7682 15.2688C19.3845 15.2688 17.9991 15.7988 16.9408 16.86C15.8826 17.9212 15.3564 19.3082 15.3564 20.6957C15.3564 22.0832 15.8849 23.4725 16.9432 24.5337C18.0015 25.5949 19.3845 26.1225 20.7682 26.1225C22.1518 26.1225 23.5373 25.5925 24.5955 24.5313C25.6538 23.4701 26.18 22.0832 26.18 20.6957C26.18 19.3082 25.6514 17.9189 24.5938 16.8583ZM23.1794 23.116C22.5144 23.7828 21.641 24.1162 20.7682 24.1162C19.8954 24.1162 19.0219 23.7828 18.3546 23.1136C17.6873 22.4444 17.3572 21.5709 17.3572 20.6957C17.3572 19.8204 17.6897 18.9445 18.357 18.2754C19.0243 17.6062 19.8954 17.2752 20.7682 17.2752C21.641 17.2752 22.5144 17.6086 23.1818 18.2777C23.8491 18.9469 24.1792 19.8204 24.1792 20.6957C24.1792 21.5709 23.8467 22.4468 23.1794 23.116ZM24.5938 16.8583C23.5373 15.7988 22.1518 15.2688 20.7682 15.2688C19.3845 15.2688 17.9991 15.7988 16.9408 16.86C15.8826 17.9212 15.3564 19.3082 15.3564 20.6957C15.3564 22.0832 15.8849 23.4725 16.9432 24.5337C18.0015 25.5949 19.3845 26.1225 20.7682 26.1225C22.1518 26.1225 23.5373 25.5925 24.5955 24.5313C25.6538 23.4701 26.18 22.0832 26.18 20.6957C26.18 19.3082 25.6514 17.9189 24.5938 16.8583ZM23.1794 23.116C22.5144 23.7828 21.641 24.1162 20.7682 24.1162C19.8954 24.1162 19.0219 23.7828 18.3546 23.1136C17.6873 22.4444 17.3572 21.5709 17.3572 20.6957C17.3572 19.8204 17.6897 18.9445 18.357 18.2754C19.0243 17.6062 19.8954 17.2752 20.7682 17.2752C21.641 17.2752 22.5144 17.6086 23.1818 18.2777C23.8491 18.9469 24.1792 19.8204 24.1792 20.6957C24.1792 21.5709 23.8467 22.4468 23.1794 23.116ZM24.5938 16.8583C23.5373 15.7988 22.1518 15.2688 20.7682 15.2688C19.3845 15.2688 17.9991 15.7988 16.9408 16.86C15.8826 17.9212 15.3564 19.3082 15.3564 20.6957C15.3564 22.0832 15.8849 23.4725 16.9432 24.5337C18.0015 25.5949 19.3845 26.1225 20.7682 26.1225C22.1518 26.1225 23.5373 25.5925 24.5955 24.5313C25.6538 23.4701 26.18 22.0832 26.18 20.6957C26.18 19.3082 25.6514 17.9189 24.5938 16.8583ZM23.1794 23.116C22.5144 23.7828 21.641 24.1162 20.7682 24.1162C19.8954 24.1162 19.0219 23.7828 18.3546 23.1136C17.6873 22.4444 17.3572 21.5709 17.3572 20.6957C17.3572 19.8204 17.6897 18.9445 18.357 18.2754C19.0243 17.6062 19.8954 17.2752 20.7682 17.2752C21.641 17.2752 22.5144 17.6086 23.1818 18.2777C23.8491 18.9469 24.1792 19.8204 24.1792 20.6957C24.1792 21.5709 23.8467 22.4468 23.1794 23.116ZM24.5938 16.8583C23.5373 15.7988 22.1518 15.2688 20.7682 15.2688C19.3845 15.2688 17.9991 15.7988 16.9408 16.86C15.8826 17.9212 15.3564 19.3082 15.3564 20.6957C15.3564 22.0832 15.8849 23.4725 16.9432 24.5337C18.0015 25.5949 19.3845 26.1225 20.7682 26.1225C22.1518 26.1225 23.5373 25.5925 24.5955 24.5313C25.6538 23.4701 26.18 22.0832 26.18 20.6957C26.18 19.3082 25.6514 17.9189 24.5938 16.8583ZM23.1794 23.116C22.5144 23.7828 21.641 24.1162 20.7682 24.1162C19.8954 24.1162 19.0219 23.7828 18.3546 23.1136C17.6873 22.4444 17.3572 21.5709 17.3572 20.6957C17.3572 19.8204 17.6897 18.9445 18.357 18.2754C19.0243 17.6062 19.8954 17.2752 20.7682 17.2752C21.641 17.2752 22.5144 17.6086 23.1818 18.2777C23.8491 18.9469 24.1792 19.8204 24.1792 20.6957C24.1792 21.5709 23.8467 22.4468 23.1794 23.116ZM24.5938 16.8583C23.5373 15.7988 22.1518 15.2688 20.7682 15.2688C19.3845 15.2688 17.9991 15.7988 16.9408 16.86C15.8826 17.9212 15.3564 19.3082 15.3564 20.6957C15.3564 22.0832 15.8849 23.4725 16.9432 24.5337C18.0015 25.5949 19.3845 26.1225 20.7682 26.1225C22.1518 26.1225 23.5373 25.5925 24.5955 24.5313C25.6538 23.4701 26.18 22.0832 26.18 20.6957C26.18 19.3082 25.6514 17.9189 24.5938 16.8583ZM23.1794 23.116C22.5144 23.7828 21.641 24.1162 20.7682 24.1162C19.8954 24.1162 19.0219 23.7828 18.3546 23.1136C17.6873 22.4444 17.3572 21.5709 17.3572 20.6957C17.3572 19.8204 17.6897 18.9445 18.357 18.2754C19.0243 17.6062 19.8954 17.2752 20.7682 17.2752C21.641 17.2752 22.5144 17.6086 23.1818 18.2777C23.8491 18.9469 24.1792 19.8204 24.1792 20.6957C24.1792 21.5709 23.8467 22.4468 23.1794 23.116ZM24.5938 16.8583C23.5373 15.7988 22.1518 15.2688 20.7682 15.2688C19.3845 15.2688 17.9991 15.7988 16.9408 16.86C15.8826 17.9212 15.3564 19.3082 15.3564 20.6957C15.3564 22.0832 15.8849 23.4725 16.9432 24.5337C18.0015 25.5949 19.3845 26.1225 20.7682 26.1225C22.1518 26.1225 23.5373 25.5925 24.5955 24.5313C25.6538 23.4701 26.18 22.0832 26.18 20.6957C26.18 19.3082 25.6514 17.9189 24.5938 16.8583ZM23.1794 23.116C22.5144 23.7828 21.641 24.1162 20.7682 24.1162C19.8954 24.1162 19.0219 23.7828 18.3546 23.1136C17.6873 22.4444 17.3572 21.5709 17.3572 20.6957C17.3572 19.8204 17.6897 18.9445 18.357 18.2754C19.0243 17.6062 19.8954 17.2752 20.7682 17.2752C21.641 17.2752 22.5144 17.6086 23.1818 18.2777C23.8491 18.9469 24.1792 19.8204 24.1792 20.6957C24.1792 21.5709 23.8467 22.4468 23.1794 23.116ZM32.5219 19.0979C32.5219 18.591 32.1392 18.1552 31.626 18.103L30.1396 17.9491C30.041 17.6115 29.9241 17.2781 29.7888 16.95C29.6542 16.6243 29.5018 16.3045 29.3317 15.9925L30.2288 14.8868C30.5985 14.4936 30.5914 13.8748 30.2081 13.4904L27.9522 11.2318C27.5955 10.8735 27.0186 10.8368 26.6182 11.1631L25.4595 12.1083C25.1483 11.9371 24.8306 11.7843 24.5052 11.6511C24.1774 11.5155 23.8444 11.3982 23.5077 11.2993L23.3619 9.88577C23.3495 9.34332 22.906 8.90687 22.3621 8.90687L19.1749 8.90983C18.6694 8.90983 18.2347 9.29357 18.1828 9.80819L18.0298 11.2987C17.6938 11.397 17.3613 11.5143 17.0342 11.6499C16.7088 11.7849 16.3893 11.9377 16.0786 12.1089L14.9342 11.1756C14.5432 10.8433 13.9562 10.8611 13.5865 11.23L11.3318 13.4904C10.9728 13.8481 10.9356 14.4279 11.2615 14.83L12.2052 15.9936C12.0352 16.3046 11.8828 16.6243 11.7481 16.9506C11.6129 17.2781 11.496 17.6121 11.398 17.9491L9.98831 18.0947C9.44737 18.1072 9.01214 18.5519 9.01214 19.0973L9.01509 22.2946C9.01509 22.8015 9.39776 23.2374 9.91095 23.2895L11.398 23.4428C11.4913 23.7638 11.6023 24.0818 11.7293 24.3951L11.7487 24.4466C11.8816 24.7694 12.034 25.088 12.2046 25.4L11.3082 26.5051C10.9385 26.8983 10.9456 27.5171 11.3289 27.9015L13.5848 30.1601C13.9414 30.5184 14.5184 30.5551 14.9188 30.2288L16.0775 29.2836C16.3887 29.4548 16.7064 29.6076 17.0318 29.7408C17.3595 29.8764 17.6926 29.9937 18.0292 30.0926L18.1745 31.5067C18.1869 32.0492 18.6304 32.4856 19.1743 32.4856L22.3627 32.4827C22.8682 32.4827 23.3028 32.0989 23.3548 31.5843L23.5077 30.0926C23.8432 29.9943 24.1757 29.877 24.5028 29.7414C24.8276 29.6064 25.1471 29.4536 25.4577 29.2831L26.5615 30.1826C26.953 30.5533 27.5701 30.5462 27.9534 30.1619L30.2057 27.8997C30.563 27.542 30.5996 26.9634 30.2743 26.5619L29.3317 25.4C29.503 25.0874 29.6554 24.7688 29.7894 24.4419C29.9246 24.1138 30.0416 23.7798 30.1396 23.4428L31.5487 23.2966C32.0896 23.2835 32.5248 22.8394 32.5248 22.294L32.5219 19.0979ZM30.5241 21.3921L29.2414 21.5247C28.7985 21.5697 28.453 21.9008 28.3662 22.3159C28.2682 22.7808 28.1282 23.2379 27.9457 23.6779C27.7644 24.1162 27.5424 24.5414 27.2814 24.9429C27.0339 25.3248 27.08 25.8128 27.3623 26.1409L28.1577 27.1216L27.1756 28.1064L26.1747 27.2903C25.8304 27.0096 25.3556 26.9978 25.0024 27.2276C24.5985 27.4911 24.1757 27.7137 23.7446 27.8926C23.304 28.075 22.8475 28.2159 22.3839 28.3142C21.9387 28.4066 21.6251 28.7844 21.5926 29.2179L21.4627 30.4793H20.0743L19.942 29.1919C19.8971 28.7477 19.567 28.4013 19.153 28.3142C18.69 28.2159 18.233 28.075 17.7936 27.892C17.3572 27.7108 16.9332 27.4881 16.534 27.227C16.1531 26.9788 15.6664 27.025 15.3393 27.3081L14.3607 28.1064L13.3787 27.1216L14.193 26.1178C14.4729 25.7725 14.4848 25.2964 14.2556 24.9423C13.9952 24.542 13.7731 24.1168 13.5924 23.6791L13.5735 23.6359C13.4005 23.2089 13.2659 22.7648 13.1714 22.3159C13.0792 21.8694 12.7025 21.5549 12.2708 21.5224L11.0129 21.3927V19.9992L12.2962 19.8672C12.7391 19.8222 13.0846 19.4911 13.1714 19.076C13.2694 18.6111 13.41 18.1522 13.5918 17.711C13.7702 17.2787 13.9916 16.8553 14.255 16.4502C14.5025 16.0683 14.4564 15.5809 14.1747 15.2528L13.3763 14.2686L14.359 13.2838L15.3617 14.1016C15.706 14.3823 16.1808 14.3941 16.534 14.1644C16.9391 13.9002 17.3613 13.6776 17.7924 13.4987C18.2324 13.3163 18.6895 13.1754 19.1536 13.0771C19.5989 12.9847 19.9125 12.6069 19.945 12.174L20.0743 10.9132H21.4627L21.595 12.2001C21.6398 12.6442 21.97 12.9906 22.3839 13.0777C22.8469 13.176 23.304 13.3169 23.7434 13.4999C24.1798 13.6811 24.6038 13.9038 25.003 14.165C25.3839 14.4131 25.8705 14.3669 26.1977 14.0838L27.1762 13.2855L28.1583 14.2704L27.3439 15.2741C27.064 15.6194 27.0522 16.0955 27.2814 16.4496C27.5447 16.8553 27.7668 17.2787 27.9451 17.7104C28.127 18.1516 28.2682 18.6105 28.3662 19.076C28.4583 19.5219 28.8351 19.8364 29.2668 19.8696L30.5241 19.9998V21.3921ZM20.7682 15.2688C19.3845 15.2688 17.9991 15.7988 16.9408 16.86C15.8826 17.9212 15.3564 19.3082 15.3564 20.6957C15.3564 22.0832 15.8849 23.4725 16.9432 24.5337C18.0015 25.5949 19.3845 26.1225 20.7682 26.1225C22.1518 26.1225 23.5373 25.5925 24.5955 24.5313C25.6538 23.4701 26.18 22.0832 26.18 20.6957C26.18 19.3082 25.6514 17.9189 24.5938 16.8583C23.5373 15.7988 22.1518 15.2688 20.7682 15.2688ZM23.1794 23.116C22.5144 23.7828 21.641 24.1162 20.7682 24.1162C19.8954 24.1162 19.0219 23.7828 18.3546 23.1136C17.6873 22.4444 17.3572 21.5709 17.3572 20.6957C17.3572 19.8204 17.6897 18.9445 18.357 18.2754C19.0243 17.6062 19.8954 17.2752 20.7682 17.2752C21.641 17.2752 22.5144 17.6086 23.1818 18.2777C23.8491 18.9469 24.1792 19.8204 24.1792 20.6957C24.1792 21.5709 23.8467 22.4468 23.1794 23.116ZM24.5938 16.8583C23.5373 15.7988 22.1518 15.2688 20.7682 15.2688C19.3845 15.2688 17.9991 15.7988 16.9408 16.86C15.8826 17.9212 15.3564 19.3082 15.3564 20.6957C15.3564 22.0832 15.8849 23.4725 16.9432 24.5337C18.0015 25.5949 19.3845 26.1225 20.7682 26.1225C22.1518 26.1225 23.5373 25.5925 24.5955 24.5313C25.6538 23.4701 26.18 22.0832 26.18 20.6957C26.18 19.3082 25.6514 17.9189 24.5938 16.8583ZM23.1794 23.116C22.5144 23.7828 21.641 24.1162 20.7682 24.1162C19.8954 24.1162 19.0219 23.7828 18.3546 23.1136C17.6873 22.4444 17.3572 21.5709 17.3572 20.6957C17.3572 19.8204 17.6897 18.9445 18.357 18.2754C19.0243 17.6062 19.8954 17.2752 20.7682 17.2752C21.641 17.2752 22.5144 17.6086 23.1818 18.2777C23.8491 18.9469 24.1792 19.8204 24.1792 20.6957C24.1792 21.5709 23.8467 22.4468 23.1794 23.116ZM24.5938 16.8583C23.5373 15.7988 22.1518 15.2688 20.7682 15.2688C19.3845 15.2688 17.9991 15.7988 16.9408 16.86C15.8826 17.9212 15.3564 19.3082 15.3564 20.6957C15.3564 22.0832 15.8849 23.4725 16.9432 24.5337C18.0015 25.5949 19.3845 26.1225 20.7682 26.1225C22.1518 26.1225 23.5373 25.5925 24.5955 24.5313C25.6538 23.4701 26.18 22.0832 26.18 20.6957C26.18 19.3082 25.6514 17.9189 24.5938 16.8583ZM23.1794 23.116C22.5144 23.7828 21.641 24.1162 20.7682 24.1162C19.8954 24.1162 19.0219 23.7828 18.3546 23.1136C17.6873 22.4444 17.3572 21.5709 17.3572 20.6957C17.3572 19.8204 17.6897 18.9445 18.357 18.2754C19.0243 17.6062 19.8954 17.2752 20.7682 17.2752C21.641 17.2752 22.5144 17.6086 23.1818 18.2777C23.8491 18.9469 24.1792 19.8204 24.1792 20.6957C24.1792 21.5709 23.8467 22.4468 23.1794 23.116ZM24.5938 16.8583C23.5373 15.7988 22.1518 15.2688 20.7682 15.2688C19.3845 15.2688 17.9991 15.7988 16.9408 16.86C15.8826 17.9212 15.3564 19.3082 15.3564 20.6957C15.3564 22.0832 15.8849 23.4725 16.9432 24.5337C18.0015 25.5949 19.3845 26.1225 20.7682 26.1225C22.1518 26.1225 23.5373 25.5925 24.5955 24.5313C25.6538 23.4701 26.18 22.0832 26.18 20.6957C26.18 19.3082 25.6514 17.9189 24.5938 16.8583ZM23.1794 23.116C22.5144 23.7828 21.641 24.1162 20.7682 24.1162C19.8954 24.1162 19.0219 23.7828 18.3546 23.1136C17.6873 22.4444 17.3572 21.5709 17.3572 20.6957C17.3572 19.8204 17.6897 18.9445 18.357 18.2754C19.0243 17.6062 19.8954 17.2752 20.7682 17.2752C21.641 17.2752 22.5144 17.6086 23.1818 18.2777C23.8491 18.9469 24.1792 19.8204 24.1792 20.6957C24.1792 21.5709 23.8467 22.4468 23.1794 23.116ZM24.5938 16.8583C23.5373 15.7988 22.1518 15.2688 20.7682 15.2688C19.3845 15.2688 17.9991 15.7988 16.9408 16.86C15.8826 17.9212 15.3564 19.3082 15.3564 20.6957C15.3564 22.0832 15.8849 23.4725 16.9432 24.5337C18.0015 25.5949 19.3845 26.1225 20.7682 26.1225C22.1518 26.1225 23.5373 25.5925 24.5955 24.5313C25.6538 23.4701 26.18 22.0832 26.18 20.6957C26.18 19.3082 25.6514 17.9189 24.5938 16.8583ZM23.1794 23.116C22.5144 23.7828 21.641 24.1162 20.7682 24.1162C19.8954 24.1162 19.0219 23.7828 18.3546 23.1136C17.6873 22.4444 17.3572 21.5709 17.3572 20.6957C17.3572 19.8204 17.6897 18.9445 18.357 18.2754C19.0243 17.6062 19.8954 17.2752 20.7682 17.2752C21.641 17.2752 22.5144 17.6086 23.1818 18.2777C23.8491 18.9469 24.1792 19.8204 24.1792 20.6957C24.1792 21.5709 23.8467 22.4468 23.1794 23.116ZM24.5938 16.8583C23.5373 15.7988 22.1518 15.2688 20.7682 15.2688C19.3845 15.2688 17.9991 15.7988 16.9408 16.86C15.8826 17.9212 15.3564 19.3082 15.3564 20.6957C15.3564 22.0832 15.8849 23.4725 16.9432 24.5337C18.0015 25.5949 19.3845 26.1225 20.7682 26.1225C22.1518 26.1225 23.5373 25.5925 24.5955 24.5313C25.6538 23.4701 26.18 22.0832 26.18 20.6957C26.18 19.3082 25.6514 17.9189 24.5938 16.8583ZM23.1794 23.116C22.5144 23.7828 21.641 24.1162 20.7682 24.1162C19.8954 24.1162 19.0219 23.7828 18.3546 23.1136C17.6873 22.4444 17.3572 21.5709 17.3572 20.6957C17.3572 19.8204 17.6897 18.9445 18.357 18.2754C19.0243 17.6062 19.8954 17.2752 20.7682 17.2752C21.641 17.2752 22.5144 17.6086 23.1818 18.2777C23.8491 18.9469 24.1792 19.8204 24.1792 20.6957C24.1792 21.5709 23.8467 22.4468 23.1794 23.116ZM13.371 37.9978C9.97237 36.5345 7.09108 34.0964 5.08203 31.0395C3.135 28.0762 2.00055 24.5206 2.00055 20.6951C2.00055 20.1414 1.55233 19.6919 1.00016 19.6919C0.447999 19.6919 -0.000227589 20.1414 -0.000227589 20.6951C-0.000227589 24.9162 1.25823 28.8496 3.41787 32.1362C5.64542 35.5254 8.83025 38.2246 12.582 39.8395C13.0887 40.0574 13.6775 39.8223 13.8948 39.3142C14.1121 38.8061 13.8777 38.2157 13.371 37.9978ZM23.0648 0.00147112H23.0495C22.4997 -0.0186634 22.0373 0.413045 22.0178 0.964377C21.9983 1.51571 22.4288 1.9794 22.9786 1.99894H22.994C23.5438 2.01907 24.0062 1.58736 24.0257 1.03603C24.0451 0.484701 23.6146 0.0210135 23.0648 0.00147112ZM38.1191 9.25449C35.8916 5.86537 32.7067 3.16674 28.9556 1.55124C28.4489 1.33331 27.8601 1.56841 27.6428 2.07652C27.4254 2.58462 27.6599 3.17503 28.1666 3.39296C31.5646 4.85627 34.4459 7.29433 36.4549 10.3512C38.402 13.3146 39.5364 16.8695 39.5364 20.6951C39.5364 21.2488 39.9846 21.6982 40.5368 21.6982C41.089 21.6982 41.5372 21.2488 41.5372 20.6951C41.5372 16.4739 40.2787 12.5412 38.1191 9.25449ZM18.6032 39.3936L18.5578 39.3912C18.008 39.3634 17.5385 39.788 17.5107 40.3393C17.483 40.8906 17.9064 41.3614 18.4562 41.3893L18.5017 41.3916C19.0515 41.4195 19.521 40.9949 19.5487 40.4435C19.5765 39.8922 19.153 39.4214 18.6032 39.3936ZM24.5938 16.8583C23.5373 15.7988 22.1518 15.2688 20.7682 15.2688C19.3845 15.2688 17.9991 15.7988 16.9408 16.86C15.8826 17.9212 15.3564 19.3082 15.3564 20.6957C15.3564 22.0832 15.8849 23.4725 16.9432 24.5337C18.0015 25.5949 19.3845 26.1225 20.7682 26.1225C22.1518 26.1225 23.5373 25.5925 24.5955 24.5313C25.6538 23.4701 26.18 22.0832 26.18 20.6957C26.18 19.3082 25.6514 17.9189 24.5938 16.8583ZM23.1794 23.116C22.5144 23.7828 21.641 24.1162 20.7682 24.1162C19.8954 24.1162 19.0219 23.7828 18.3546 23.1136C17.6873 22.4444 17.3572 21.5709 17.3572 20.6957C17.3572 19.8204 17.6897 18.9445 18.357 18.2754C19.0243 17.6062 19.8954 17.2752 20.7682 17.2752C21.641 17.2752 22.5144 17.6086 23.1818 18.2777C23.8491 18.9469 24.1792 19.8204 24.1792 20.6957C24.1792 21.5709 23.8467 22.4468 23.1794 23.116ZM24.5938 16.8583C23.5373 15.7988 22.1518 15.2688 20.7682 15.2688C19.3845 15.2688 17.9991 15.7988 16.9408 16.86C15.8826 17.9212 15.3564 19.3082 15.3564 20.6957C15.3564 22.0832 15.8849 23.4725 16.9432 24.5337C18.0015 25.5949 19.3845 26.1225 20.7682 26.1225C22.1518 26.1225 23.5373 25.5925 24.5955 24.5313C25.6538 23.4701 26.18 22.0832 26.18 20.6957C26.18 19.3082 25.6514 17.9189 24.5938 16.8583ZM23.1794 23.116C22.5144 23.7828 21.641 24.1162 20.7682 24.1162C19.8954 24.1162 19.0219 23.7828 18.3546 23.1136C17.6873 22.4444 17.3572 21.5709 17.3572 20.6957C17.3572 19.8204 17.6897 18.9445 18.357 18.2754C19.0243 17.6062 19.8954 17.2752 20.7682 17.2752C21.641 17.2752 22.5144 17.6086 23.1818 18.2777C23.8491 18.9469 24.1792 19.8204 24.1792 20.6957C24.1792 21.5709 23.8467 22.4468 23.1794 23.116ZM24.5938 16.8583C23.5373 15.7988 22.1518 15.2688 20.7682 15.2688C19.3845 15.2688 17.9991 15.7988 16.9408 16.86C15.8826 17.9212 15.3564 19.3082 15.3564 20.6957C15.3564 22.0832 15.8849 23.4725 16.9432 24.5337C18.0015 25.5949 19.3845 26.1225 20.7682 26.1225C22.1518 26.1225 23.5373 25.5925 24.5955 24.5313C25.6538 23.4701 26.18 22.0832 26.18 20.6957C26.18 19.3082 25.6514 17.9189 24.5938 16.8583ZM23.1794 23.116C22.5144 23.7828 21.641 24.1162 20.7682 24.1162C19.8954 24.1162 19.0219 23.7828 18.3546 23.1136C17.6873 22.4444 17.3572 21.5709 17.3572 20.6957C17.3572 19.8204 17.6897 18.9445 18.357 18.2754C19.0243 17.6062 19.8954 17.2752 20.7682 17.2752C21.641 17.2752 22.5144 17.6086 23.1818 18.2777C23.8491 18.9469 24.1792 19.8204 24.1792 20.6957C24.1792 21.5709 23.8467 22.4468 23.1794 23.116ZM24.5938 16.8583C23.5373 15.7988 22.1518 15.2688 20.7682 15.2688C19.3845 15.2688 17.9991 15.7988 16.9408 16.86C15.8826 17.9212 15.3564 19.3082 15.3564 20.6957C15.3564 22.0832 15.8849 23.4725 16.9432 24.5337C18.0015 25.5949 19.3845 26.1225 20.7682 26.1225C22.1518 26.1225 23.5373 25.5925 24.5955 24.5313C25.6538 23.4701 26.18 22.0832 26.18 20.6957C26.18 19.3082 25.6514 17.9189 24.5938 16.8583ZM23.1794 23.116C22.5144 23.7828 21.641 24.1162 20.7682 24.1162C19.8954 24.1162 19.0219 23.7828 18.3546 23.1136C17.6873 22.4444 17.3572 21.5709 17.3572 20.6957C17.3572 19.8204 17.6897 18.9445 18.357 18.2754C19.0243 17.6062 19.8954 17.2752 20.7682 17.2752C21.641 17.2752 22.5144 17.6086 23.1818 18.2777C23.8491 18.9469 24.1792 19.8204 24.1792 20.6957C24.1792 21.5709 23.8467 22.4468 23.1794 23.116ZM32.5219 19.0979C32.5219 18.591 32.1392 18.1552 31.626 18.103L30.1396 17.9491C30.041 17.6115 29.9241 17.2781 29.7888 16.95C29.6542 16.6243 29.5018 16.3045 29.3317 15.9925L30.2288 14.8868C30.5985 14.4936 30.5914 13.8748 30.2081 13.4904L27.9522 11.2318C27.5955 10.8735 27.0186 10.8368 26.6182 11.1631L25.4595 12.1083C25.1483 11.9371 24.8306 11.7843 24.5052 11.6511C24.1774 11.5155 23.8444 11.3982 23.5077 11.2993L23.3619 9.88577C23.3495 9.34332 22.906 8.90687 22.3621 8.90687L19.1749 8.90983C18.6694 8.90983 18.2347 9.29357 18.1828 9.80819L18.0298 11.2987C17.6938 11.397 17.3613 11.5143 17.0342 11.6499C16.7088 11.7849 16.3893 11.9377 16.0786 12.1089L14.9342 11.1756C14.5432 10.8433 13.9562 10.8611 13.5865 11.23L11.3318 13.4904C10.9728 13.8481 10.9356 14.4279 11.2615 14.83L12.2052 15.9936C12.0352 16.3046 11.8828 16.6243 11.7481 16.9506C11.6129 17.2781 11.496 17.6121 11.398 17.9491L9.98831 18.0947C9.44737 18.1072 9.01214 18.5519 9.01214 19.0973L9.01509 22.2946C9.01509 22.8015 9.39776 23.2374 9.91095 23.2895L11.398 23.4428C11.4913 23.7638 11.6023 24.0818 11.7293 24.3951L11.7487 24.4466C11.8816 24.7694 12.034 25.088 12.2046 25.4L11.3082 26.5051C10.9385 26.8983 10.9456 27.5171 11.3289 27.9015L13.5848 30.1601C13.9414 30.5184 14.5184 30.5551 14.9188 30.2288L16.0775 29.2836C16.3887 29.4548 16.7064 29.6076 17.0318 29.7408C17.3595 29.8764 17.6926 29.9937 18.0292 30.0926L18.1745 31.5067C18.1869 32.0492 18.6304 32.4856 19.1743 32.4856L22.3627 32.4827C22.8682 32.4827 23.3028 32.0989 23.3548 31.5843L23.5077 30.0926C23.8432 29.9943 24.1757 29.877 24.5028 29.7414C24.8276 29.6064 25.1471 29.4536 25.4577 29.2831L26.5615 30.1826C26.953 30.5533 27.5701 30.5462 27.9534 30.1619L30.2057 27.8997C30.563 27.542 30.5996 26.9634 30.2743 26.5619L29.3317 25.4C29.503 25.0874 29.6554 24.7688 29.7894 24.4419C29.9246 24.1138 30.0416 23.7798 30.1396 23.4428L31.5487 23.2966C32.0896 23.2835 32.5248 22.8394 32.5248 22.294L32.5219 19.0979ZM30.5241 21.3921L29.2414 21.5247C28.7985 21.5697 28.453 21.9008 28.3662 22.3159C28.2682 22.7808 28.1282 23.2379 27.9457 23.6779C27.7644 24.1162 27.5424 24.5414 27.2814 24.9429C27.0339 25.3248 27.08 25.8128 27.3623 26.1409L28.1577 27.1216L27.1756 28.1064L26.1747 27.2903C25.8304 27.0096 25.3556 26.9978 25.0024 27.2276C24.5985 27.4911 24.1757 27.7137 23.7446 27.8926C23.304 28.075 22.8475 28.2159 22.3839 28.3142C21.9387 28.4066 21.6251 28.7844 21.5926 29.2179L21.4627 30.4793H20.0743L19.942 29.1919C19.8971 28.7477 19.567 28.4013 19.153 28.3142C18.69 28.2159 18.233 28.075 17.7936 27.892C17.3572 27.7108 16.9332 27.4881 16.534 27.227C16.1531 26.9788 15.6664 27.025 15.3393 27.3081L14.3607 28.1064L13.3787 27.1216L14.193 26.1178C14.4729 25.7725 14.4848 25.2964 14.2556 24.9423C13.9952 24.542 13.7731 24.1168 13.5924 23.6791L13.5735 23.6359C13.4005 23.2089 13.2659 22.7648 13.1714 22.3159C13.0792 21.8694 12.7025 21.5549 12.2708 21.5224L11.0129 21.3927V19.9992L12.2962 19.8672C12.7391 19.8222 13.0846 19.4911 13.1714 19.076C13.2694 18.6111 13.41 18.1522 13.5918 17.711C13.7702 17.2787 13.9916 16.8553 14.255 16.4502C14.5025 16.0683 14.4564 15.5809 14.1747 15.2528L13.3763 14.2686L14.359 13.2838L15.3617 14.1016C15.706 14.3823 16.1808 14.3941 16.534 14.1644C16.9391 13.9002 17.3613 13.6776 17.7924 13.4987C18.2324 13.3163 18.6895 13.1754 19.1536 13.0771C19.5989 12.9847 19.9125 12.6069 19.945 12.174L20.0743 10.9132H21.4627L21.595 12.2001C21.6398 12.6442 21.97 12.9906 22.3839 13.0777C22.8469 13.176 23.304 13.3169 23.7434 13.4999C24.1798 13.6811 24.6038 13.9038 25.003 14.165C25.3839 14.4131 25.8705 14.3669 26.1977 14.0838L27.1762 13.2855L28.1583 14.2704L27.3439 15.2741C27.064 15.6194 27.0522 16.0955 27.2814 16.4496C27.5447 16.8553 27.7668 17.2787 27.9451 17.7104C28.127 18.1516 28.2682 18.6105 28.3662 19.076C28.4583 19.5219 28.8351 19.8364 29.2668 19.8696L30.5241 19.9998V21.3921ZM20.7682 15.2688C19.3845 15.2688 17.9991 15.7988 16.9408 16.86C15.8826 17.9212 15.3564 19.3082 15.3564 20.6957C15.3564 22.0832 15.8849 23.4725 16.9432 24.5337C18.0015 25.5949 19.3845 26.1225 20.7682 26.1225C22.1518 26.1225 23.5373 25.5925 24.5955 24.5313C25.6538 23.4701 26.18 22.0832 26.18 20.6957C26.18 19.3082 25.6514 17.9189 24.5938 16.8583C23.5373 15.7988 22.1518 15.2688 20.7682 15.2688ZM23.1794 23.116C22.5144 23.7828 21.641 24.1162 20.7682 24.1162C19.8954 24.1162 19.0219 23.7828 18.3546 23.1136C17.6873 22.4444 17.3572 21.5709 17.3572 20.6957C17.3572 19.8204 17.6897 18.9445 18.357 18.2754C19.0243 17.6062 19.8954 17.2752 20.7682 17.2752C21.641 17.2752 22.5144 17.6086 23.1818 18.2777C23.8491 18.9469 24.1792 19.8204 24.1792 20.6957C24.1792 21.5709 23.8467 22.4468 23.1794 23.116ZM24.5938 16.8583C23.5373 15.7988 22.1518 15.2688 20.7682 15.2688C19.3845 15.2688 17.9991 15.7988 16.9408 16.86C15.8826 17.9212 15.3564 19.3082 15.3564 20.6957C15.3564 22.0832 15.8849 23.4725 16.9432 24.5337C18.0015 25.5949 19.3845 26.1225 20.7682 26.1225C22.1518 26.1225 23.5373 25.5925 24.5955 24.5313C25.6538 23.4701 26.18 22.0832 26.18 20.6957C26.18 19.3082 25.6514 17.9189 24.5938 16.8583ZM23.1794 23.116C22.5144 23.7828 21.641 24.1162 20.7682 24.1162C19.8954 24.1162 19.0219 23.7828 18.3546 23.1136C17.6873 22.4444 17.3572 21.5709 17.3572 20.6957C17.3572 19.8204 17.6897 18.9445 18.357 18.2754C19.0243 17.6062 19.8954 17.2752 20.7682 17.2752C21.641 17.2752 22.5144 17.6086 23.1818 18.2777C23.8491 18.9469 24.1792 19.8204 24.1792 20.6957C24.1792 21.5709 23.8467 22.4468 23.1794 23.116ZM24.5938 16.8583C23.5373 15.7988 22.1518 15.2688 20.7682 15.2688C19.3845 15.2688 17.9991 15.7988 16.9408 16.86C15.8826 17.9212 15.3564 19.3082 15.3564 20.6957C15.3564 22.0832 15.8849 23.4725 16.9432 24.5337C18.0015 25.5949 19.3845 26.1225 20.7682 26.1225C22.1518 26.1225 23.5373 25.5925 24.5955 24.5313C25.6538 23.4701 26.18 22.0832 26.18 20.6957C26.18 19.3082 25.6514 17.9189 24.5938 16.8583ZM23.1794 23.116C22.5144 23.7828 21.641 24.1162 20.7682 24.1162C19.8954 24.1162 19.0219 23.7828 18.3546 23.1136C17.6873 22.4444 17.3572 21.5709 17.3572 20.6957C17.3572 19.8204 17.6897 18.9445 18.357 18.2754C19.0243 17.6062 19.8954 17.2752 20.7682 17.2752C21.641 17.2752 22.5144 17.6086 23.1818 18.2777C23.8491 18.9469 24.1792 19.8204 24.1792 20.6957C24.1792 21.5709 23.8467 22.4468 23.1794 23.116ZM24.5938 16.8583C23.5373 15.7988 22.1518 15.2688 20.7682 15.2688C19.3845 15.2688 17.9991 15.7988 16.9408 16.86C15.8826 17.9212 15.3564 19.3082 15.3564 20.6957C15.3564 22.0832 15.8849 23.4725 16.9432 24.5337C18.0015 25.5949 19.3845 26.1225 20.7682 26.1225C22.1518 26.1225 23.5373 25.5925 24.5955 24.5313C25.6538 23.4701 26.18 22.0832 26.18 20.6957C26.18 19.3082 25.6514 17.9189 24.5938 16.8583ZM23.1794 23.116C22.5144 23.7828 21.641 24.1162 20.7682 24.1162C19.8954 24.1162 19.0219 23.7828 18.3546 23.1136C17.6873 22.4444 17.3572 21.5709 17.3572 20.6957C17.3572 19.8204 17.6897 18.9445 18.357 18.2754C19.0243 17.6062 19.8954 17.2752 20.7682 17.2752C21.641 17.2752 22.5144 17.6086 23.1818 18.2777C23.8491 18.9469 24.1792 19.8204 24.1792 20.6957C24.1792 21.5709 23.8467 22.4468 23.1794 23.116ZM24.5938 16.8583C23.5373 15.7988 22.1518 15.2688 20.7682 15.2688C19.3845 15.2688 17.9991 15.7988 16.9408 16.86C15.8826 17.9212 15.3564 19.3082 15.3564 20.6957C15.3564 22.0832 15.8849 23.4725 16.9432 24.5337C18.0015 25.5949 19.3845 26.1225 20.7682 26.1225C22.1518 26.1225 23.5373 25.5925 24.5955 24.5313C25.6538 23.4701 26.18 22.0832 26.18 20.6957C26.18 19.3082 25.6514 17.9189 24.5938 16.8583ZM23.1794 23.116C22.5144 23.7828 21.641 24.1162 20.7682 24.1162C19.8954 24.1162 19.0219 23.7828 18.3546 23.1136C17.6873 22.4444 17.3572 21.5709 17.3572 20.6957C17.3572 19.8204 17.6897 18.9445 18.357 18.2754C19.0243 17.6062 19.8954 17.2752 20.7682 17.2752C21.641 17.2752 22.5144 17.6086 23.1818 18.2777C23.8491 18.9469 24.1792 19.8204 24.1792 20.6957C24.1792 21.5709 23.8467 22.4468 23.1794 23.116Z" fill="var(--fill-0, black)"/>
<path id="Vector_2" d="M24.5931 16.8581C23.5366 15.7987 22.1512 15.2687 20.7675 15.2687C19.3839 15.2687 17.9985 15.7987 16.9402 16.8599C15.8819 17.9211 15.3557 19.308 15.3557 20.6955C15.3557 22.083 15.8843 23.4723 16.9426 24.5335C18.0008 25.5947 19.3839 26.1224 20.7675 26.1224C22.1512 26.1224 23.5366 25.5924 24.5949 24.5312C25.6531 23.47 26.1793 22.083 26.1793 20.6955C26.1793 19.308 25.6508 17.9187 24.5931 16.8581ZM23.1787 23.1158C22.5138 23.7826 21.6404 24.116 20.7675 24.116C19.8947 24.116 19.0213 23.7826 18.354 23.1135C17.6866 22.4443 17.3565 21.5708 17.3565 20.6955C17.3565 19.8203 17.689 18.9444 18.3563 18.2752C19.0236 17.6061 19.8947 17.275 20.7675 17.275C21.6404 17.275 22.5138 17.6084 23.1811 18.2776C23.8484 18.9468 24.1785 19.8203 24.1785 20.6955C24.1785 21.5708 23.8461 22.4466 23.1787 23.1158Z" fill="var(--fill-0, #75E1B3)"/>
<path id="Vector_3" d="M32.5216 19.0978C32.5216 18.5909 32.1389 18.155 31.6257 18.1029L30.1393 17.9489C30.0407 17.6114 29.9238 17.278 29.7885 16.9499C29.6539 16.6242 29.5015 16.3044 29.3314 15.9923L30.2285 14.8867C30.5982 14.4935 30.5911 13.8747 30.2078 13.4903L27.9519 11.2317C27.5952 10.8734 27.0183 10.8367 26.6179 11.163L25.4592 12.1081C25.148 11.937 24.8303 11.7842 24.5049 11.651C24.1771 11.5154 23.8441 11.3981 23.5075 11.2992L23.3616 9.88564C23.3492 9.34319 22.9057 8.90674 22.3618 8.90674L19.1746 8.9097C18.6691 8.9097 18.2344 9.29345 18.1825 9.80806L18.0295 11.2986C17.6935 11.3969 17.361 11.5142 17.0339 11.6498C16.7085 11.7848 16.389 11.9376 16.0783 12.1087L14.9339 11.1754C14.5429 10.8432 13.9559 10.861 13.5862 11.2299L11.3315 13.4903C10.9725 13.848 10.9353 14.4278 11.2612 14.8299L12.2049 15.9935C12.0349 16.3044 11.8825 16.6242 11.7479 16.9505C11.6126 17.278 11.4957 17.612 11.3977 17.9489L9.98802 18.0946C9.44708 18.1071 9.01184 18.5518 9.01184 19.0972L9.0148 22.2945C9.0148 22.8014 9.39747 23.2372 9.91066 23.2893L11.3977 23.4427C11.491 23.7637 11.602 24.0817 11.729 24.395L11.7484 24.4465C11.8813 24.7692 12.0337 25.0878 12.2044 25.3999L11.3079 26.5049C10.9382 26.8982 10.9453 27.517 11.3286 27.9013L13.5845 30.16C13.9412 30.5182 14.5181 30.555 14.9185 30.2287L16.0772 29.2835C16.3884 29.4547 16.7061 29.6074 17.0315 29.7407C17.3593 29.8763 17.6923 29.9936 18.0289 30.0925L18.1742 31.5066C18.1866 32.0491 18.6301 32.4855 19.174 32.4855L22.3624 32.4825C22.8679 32.4825 23.3025 32.0988 23.3545 31.5842L23.5075 30.0925C23.8429 29.9941 24.1754 29.8769 24.5025 29.7413C24.8273 29.6063 25.1468 29.4535 25.4574 29.2829L26.5612 30.1825C26.9527 30.5532 27.5698 30.5461 27.9531 30.1617L30.2055 27.8996C30.5627 27.5419 30.5994 26.9633 30.274 26.5618L29.3314 25.3999C29.5027 25.0872 29.6551 24.7686 29.7891 24.4417C29.9244 24.1137 30.0413 23.7797 30.1393 23.4427L31.5484 23.2964C32.0893 23.2834 32.5245 22.8393 32.5245 22.2939L32.5216 19.0978ZM30.5238 21.392L29.2411 21.5246C28.7982 21.5696 28.4527 21.9006 28.3659 22.3158C28.2679 22.7806 28.1279 23.2378 27.9454 23.6778C27.7641 24.116 27.5421 24.5412 27.2811 24.9427C27.0336 25.3247 27.0797 25.8127 27.362 26.1407L28.1574 27.1214L27.1754 28.1062L26.1744 27.2902C25.8301 27.0095 25.3553 26.9976 25.0021 27.2274C24.5982 27.4909 24.1754 27.7136 23.7443 27.8925C23.3037 28.0748 22.8472 28.2158 22.3836 28.3141C21.9384 28.4065 21.6248 28.7843 21.5923 29.2178L21.4624 30.4792H20.074L19.9417 29.1917C19.8968 28.7476 19.5667 28.4011 19.1527 28.3141C18.6898 28.2158 18.2327 28.0748 17.7933 27.8919C17.3569 27.7106 16.9329 27.488 16.5337 27.2268C16.1528 26.9787 15.6661 27.0249 15.339 27.308L14.3604 28.1062L13.3784 27.1214L14.1927 26.1177C14.4726 25.7724 14.4845 25.2963 14.2553 24.9421C13.9949 24.5418 13.7728 24.1166 13.5921 23.679L13.5732 23.6358C13.4002 23.2088 13.2656 22.7647 13.1711 22.3158C13.079 21.8693 12.7022 21.5548 12.2705 21.5222L11.0126 21.3925V19.9991L12.2959 19.8671C12.7388 19.822 13.0843 19.491 13.1711 19.0759C13.2691 18.611 13.4097 18.1521 13.5915 17.7109C13.7699 17.2786 13.9914 16.8552 14.2547 16.4501C14.5022 16.0681 14.4561 15.5808 14.1744 15.2527L13.376 14.2685L14.3587 13.2836L15.3614 14.1015C15.7057 14.3822 16.1805 14.394 16.5337 14.1642C16.9388 13.9001 17.361 13.6775 17.7921 13.4986C18.2321 13.3162 18.6892 13.1753 19.1533 13.077C19.5986 12.9846 19.9122 12.6068 19.9447 12.1739L20.074 10.9131H21.4624L21.5947 12.1999C21.6395 12.6441 21.9697 12.9905 22.3836 13.0776C22.8466 13.1759 23.3037 13.3168 23.7431 13.4998C24.1795 13.681 24.6035 13.9037 25.0027 14.1648C25.3836 14.413 25.8702 14.3668 26.1974 14.0837L27.1759 13.2854L28.158 14.2702L27.3437 15.274C27.0637 15.6193 27.0519 16.0954 27.2811 16.4495C27.5444 16.8552 27.7665 17.2786 27.9448 17.7103C28.1267 18.1515 28.2679 18.6104 28.3659 19.0759C28.458 19.5218 28.8348 19.8363 29.2665 19.8694L30.5238 19.9997V21.392Z" fill="var(--fill-0, #75E1B3)"/>
</g>
<path id="Vector_4" d="M13.8948 39.3142C13.6775 39.8223 13.0887 40.0574 12.582 39.8395C8.83025 38.2245 5.64542 35.5253 3.41787 32.1362C1.25823 28.8495 -0.000227589 24.9162 -0.000227589 20.695C-0.000227589 20.1413 0.447999 19.6919 1.00016 19.6919C1.55233 19.6919 2.00055 20.1413 2.00055 20.695C2.00055 24.5206 3.135 28.0761 5.08203 31.0395C7.09108 34.0964 9.97237 36.5344 13.371 37.9977C13.8777 38.2157 14.1121 38.8061 13.8948 39.3142Z" fill="var(--fill-0, #75E1B3)"/>
<path id="Vector_5" d="M19.5485 40.4436C19.5207 40.9949 19.0512 41.4195 18.5014 41.3917L18.4559 41.3893C17.9061 41.3615 17.4827 40.8907 17.5105 40.3394C17.5382 39.788 18.0077 39.3634 18.5575 39.3913L18.603 39.3936C19.1528 39.4215 19.5762 39.8922 19.5485 40.4436Z" fill="var(--fill-0, #75E1B3)"/>
<path id="Vector_6" d="M24.0256 1.0359C24.0061 1.58724 23.5437 2.01894 22.9939 1.9994H22.9786C22.4288 1.97927 21.9983 1.51558 22.0177 0.964248C22.0372 0.412916 22.4996 -0.0187925 23.0494 0.000749876H23.0648C23.6146 0.0208844 24.0451 0.484572 24.0256 1.0359Z" fill="var(--fill-0, #75E1B3)"/>
<path id="Vector_7" d="M41.5372 20.6949C41.5372 21.2486 41.089 21.6981 40.5368 21.6981C39.9846 21.6981 39.5364 21.2486 39.5364 20.6949C39.5364 16.8694 38.402 13.3144 36.4549 10.3511C34.4459 7.29418 31.5646 4.85613 28.1666 3.39282C27.6599 3.17489 27.4254 2.58447 27.6428 2.07637C27.8601 1.56827 28.4489 1.33317 28.9556 1.5511C32.7067 3.1666 35.8915 5.86522 38.1191 9.25434C40.2787 12.541 41.5372 16.4738 41.5372 20.6949Z" fill="var(--fill-0, #75E1B3)"/>
</g>
<defs>
<clipPath id="clip0_319_89">
<rect width="47" height="47" fill="white"/>
</clipPath>
</defs>
</svg>
