<svg preserveAspectRatio="none" width="100%" height="100%" overflow="visible" style="display: block;" viewBox="0 0 57 44" fill="none" xmlns="http://www.w3.org/2000/svg">
<g id="Layer_1" clip-path="url(#clip0_319_78)">
<g id="Group">
<path id="Vector" d="M36.3723 43.2305C36.3723 43.2404 35.2382 43.7187 34.6689 43.9575C34.4315 44.0571 34.1564 43.9795 34.0081 43.7712C33.5256 43.0914 32.5975 41.7683 31.929 40.8832C31.7124 40.5957 31.5226 40.3539 31.3851 40.1957C31.1292 39.9022 30.8603 39.6201 30.5791 39.3494C29.5472 38.3601 28.3517 37.5366 27.0394 36.9275C25.7432 37.6248 24.3641 38.1784 22.9265 38.5662C21.313 39.0004 19.6158 39.2331 17.8671 39.2331C16.1184 39.2331 14.4211 39.0004 12.8076 38.5662C11.3701 38.1784 9.99094 37.6248 8.69477 36.9275C7.02519 37.7031 5.54309 38.824 4.34834 40.1957C3.72369 40.9136 3.1774 41.7006 2.72332 42.5439C2.43827 43.0731 1.80901 43.3195 1.23891 43.1149C0.627321 42.8952 0.0403175 42.6154 0.0172676 42.4884V42.4861C-0.0157705 42.3492 -0.00270892 42.2055 0.0572207 42.0785C0.667274 40.7843 1.45327 39.5859 2.38602 38.5153C3.97416 36.6918 5.99025 35.2379 8.27296 34.3072C8.67864 34.1422 9.12119 34.1962 9.46464 34.4129C10.7024 35.1292 12.0539 35.6949 13.4884 36.0812C14.8806 36.4553 16.3496 36.6568 17.8671 36.6568C19.3845 36.6568 20.8536 36.4553 22.2458 36.0812C23.6972 35.6904 25.0632 35.1163 26.3125 34.3878C26.6752 34.1772 27.0993 34.1612 27.4604 34.3079C29.3743 35.0874 31.0992 36.2348 32.5422 37.6575C32.8211 37.9335 33.09 38.2195 33.3474 38.5153C33.5033 38.694 33.6831 38.9304 33.8752 39.2011C34.9232 40.6748 36.3462 43.1857 36.3723 43.2305Z" fill="var(--fill-0, black)"/>
<path id="Vector_2" d="M25.6399 13.8052C23.6492 11.8358 20.9001 10.6161 17.8667 10.6161C14.8334 10.6161 12.0843 11.8358 10.0889 13.8098C8.09897 15.78 6.86657 18.5007 6.86657 21.5028C6.86657 24.5048 8.09897 27.2248 10.0936 29.2003C12.0843 31.1698 14.8334 32.3895 17.8667 32.3895C20.9001 32.3895 23.6492 31.1698 25.6445 29.1958C27.6345 27.2248 28.8669 24.5041 28.8669 21.5028C28.8669 18.5015 27.6345 15.78 25.6399 13.8052ZM23.8075 27.3822C22.2885 28.8832 20.1879 29.8132 17.8667 29.8132C15.5456 29.8132 13.445 28.8832 11.926 27.3822C10.4093 25.8789 9.46967 23.7992 9.46967 21.5028C9.46967 19.2063 10.4093 17.1266 11.926 15.6233C13.445 14.1223 15.5456 13.1923 17.8667 13.1923C20.1879 13.1923 22.2885 14.1223 23.8075 15.6233C25.3241 17.1266 26.2638 19.2056 26.2638 21.5028C26.2638 23.7999 25.3241 25.8789 23.8075 27.3822Z" fill="var(--fill-0, black)"/>
</g>
<g id="Group_2">
<path id="Vector_3" d="M56.9999 43.3949C56.9999 43.4025 56.1079 43.7789 55.6607 43.9667C55.4733 44.045 55.2574 43.9842 55.1406 43.82C54.6381 43.112 53.5202 41.5159 53.0776 41.0087C52.1387 39.9305 50.9739 39.0484 49.6609 38.4386C48.6413 38.9868 47.5564 39.4225 46.4262 39.7275C45.1577 40.0689 43.8231 40.2514 42.4478 40.2514C41.0725 40.2514 39.7379 40.0689 38.4686 39.7275C37.3384 39.4225 36.2535 38.9868 35.2347 38.4386C34.7607 38.6583 34.3066 38.9138 33.8756 39.2013C33.1572 39.6788 32.5026 40.2445 31.9294 40.8833C31.7127 40.5958 31.5229 40.354 31.3854 40.1959C31.1295 39.9024 30.8606 39.6202 30.5794 39.3495C31.1703 38.7199 31.8287 38.1519 32.5425 37.6576C33.2747 37.1497 34.0661 36.7193 34.9028 36.3779C35.2217 36.2486 35.5697 36.2904 35.8402 36.4615C36.8136 37.0242 37.8762 37.4691 39.0041 37.7732C40.099 38.0675 41.2546 38.2257 42.4478 38.2257C43.641 38.2257 44.7958 38.0675 45.8907 37.7732C47.0324 37.466 48.1065 37.0143 49.0892 36.4418C49.3743 36.276 49.7077 36.2631 49.9912 36.3786C51.7876 37.1102 53.3727 38.2538 54.6212 39.6872C55.411 40.5936 56.9761 43.3531 56.9999 43.3949Z" fill="var(--fill-0, black)"/>
<path id="Vector_4" d="M48.5607 20.2558C46.9949 18.7069 44.8328 17.748 42.4479 17.748C40.063 17.748 37.9002 18.7069 36.3313 20.2589C34.7662 21.8086 33.7973 23.9484 33.7973 26.3087C33.7973 28.6689 34.7662 30.8087 36.3351 32.3622C37.9002 33.9112 40.0623 34.87 42.4479 34.87C44.8336 34.87 46.9949 33.9112 48.5638 32.3584C50.1289 30.8087 51.0978 28.6689 51.0978 26.3087C51.0978 23.9484 50.1289 21.8086 48.5607 20.2558ZM47.1194 30.9327C45.9246 32.1128 44.2727 32.8443 42.4479 32.8443C40.6231 32.8443 38.9705 32.1128 37.7757 30.9327C36.5833 29.7502 35.8441 28.1146 35.8441 26.3087C35.8441 24.5027 36.5833 22.8678 37.7757 21.6854C38.9705 20.5053 40.6224 19.7737 42.4479 19.7737C44.2735 19.7737 45.9246 20.5053 47.1194 21.6854C48.3118 22.8678 49.0509 24.5027 49.0509 26.3087C49.0509 28.1146 48.3118 29.7502 47.1194 30.9327Z" fill="var(--fill-0, black)"/>
</g>
<path id="Vector_5" d="M41.5129 5.55026C41.4099 5.23545 41.2355 4.96171 41.0027 4.74195C40.773 4.52524 40.4902 4.36631 40.1683 4.27735C39.3669 4.05607 37.8579 3.74278 37.1695 3.4371L37.1204 3.38311L35.4369 0.873018C35.2518 0.596991 35.0105 0.379516 34.7293 0.230477C34.445 0.0791565 34.1292 7.44836e-05 33.7973 7.44836e-05C33.4654 7.44836e-05 33.1489 0.0791565 32.8646 0.230477C32.5841 0.379516 32.3429 0.596991 32.1577 0.873018C31.9003 1.25702 30.6003 3.3565 30.3544 3.46904L27.4256 4.27735C27.1083 4.36479 26.8286 4.52144 26.6012 4.73283L26.5912 4.74195C26.3584 4.96171 26.184 5.23697 26.081 5.55026C25.9888 5.83085 25.9619 6.1198 25.9996 6.40419L26.0103 6.49392C26.0664 6.80645 26.2024 7.10301 26.4114 7.36382L28.3022 9.72336L28.3399 9.78723L28.3483 9.86403L28.2193 12.8737C28.2054 13.2037 28.2715 13.5185 28.409 13.8014C28.5481 14.0866 28.7571 14.3344 29.0283 14.5299C29.2988 14.7245 29.5992 14.8439 29.9188 14.8865C30.2354 14.9283 30.5565 14.8941 30.87 14.777L33.722 13.7254L33.7958 13.7132L33.8703 13.7254L36.7262 14.78C37.0243 14.8888 37.3316 14.9253 37.6351 14.8903L37.6774 14.8857C37.9932 14.8424 38.2944 14.723 38.5648 14.5291C38.8353 14.3344 39.045 14.0866 39.1841 13.8014C39.3216 13.5193 39.3869 13.2045 39.3739 12.8737L39.2448 9.86403L39.254 9.78723L39.2916 9.72336L41.1825 7.36306C41.3923 7.10225 41.5275 6.80569 41.5805 6.49316C41.6374 6.1814 41.6151 5.86051 41.5129 5.55026ZM39.851 6.19432C39.8464 6.2217 39.831 6.25211 39.8072 6.28101L37.9163 8.6413C37.7657 8.82836 37.6536 9.03139 37.5829 9.24886C37.5122 9.46406 37.4822 9.69218 37.4922 9.93171L37.6213 12.9414C37.6228 12.9817 37.6167 13.0182 37.6029 13.0463C37.5906 13.0707 37.5667 13.098 37.5345 13.1208C37.5007 13.1452 37.4669 13.1604 37.4377 13.1642H37.4323C37.4039 13.1665 37.3701 13.1604 37.3316 13.1467L34.4834 12.0989C34.2514 12.0137 34.0224 11.9711 33.7966 11.9711C33.5707 11.9711 33.3432 12.0137 33.1104 12.0989L30.2622 13.1467C30.2215 13.1619 30.1854 13.1672 30.157 13.1642C30.127 13.1604 30.0932 13.1452 30.0602 13.1208C30.0279 13.098 30.0041 13.0714 29.9918 13.0456C29.978 13.0174 29.9718 12.9809 29.9734 12.9414L30.1024 9.93171C30.1124 9.69294 30.0825 9.46482 30.0118 9.24886C29.9403 9.03139 29.8289 8.82836 29.6783 8.6413L27.7875 6.28177C27.7644 6.25211 27.7483 6.22246 27.7437 6.19508L27.7383 6.16695L27.7537 6.08939C27.7667 6.04985 27.7836 6.02019 27.8028 6.00194L27.8082 5.99662C27.829 5.97837 27.8589 5.96164 27.895 5.95251L30.83 5.14345C31.0621 5.07881 31.2726 4.97996 31.4578 4.84689L31.5308 4.7891C31.689 4.66287 31.8258 4.51459 31.9403 4.34502L33.6237 1.83493C33.6452 1.80223 33.6713 1.77714 33.6974 1.76345C33.7205 1.75128 33.7551 1.7452 33.7989 1.7452C33.8427 1.7452 33.8765 1.75204 33.8995 1.76345C33.9256 1.77714 33.9518 1.80223 33.974 1.83493L35.6575 4.34502C35.7919 4.54425 35.9525 4.71306 36.14 4.84765C36.3251 4.98072 36.5357 5.08033 36.7677 5.14421L39.7027 5.95328C39.7403 5.96392 39.7711 5.97989 39.7949 6.00346C39.8133 6.02171 39.831 6.05137 39.8441 6.09091C39.8579 6.13121 39.8617 6.16695 39.8533 6.1966L39.851 6.19432Z" fill="var(--fill-0, #75E1B3)"/>
</g>
<defs>
<clipPath id="clip0_319_78">
<rect width="57" height="44" fill="white"/>
</clipPath>
</defs>
</svg>
