<svg preserveAspectRatio="none" width="100%" height="100%" overflow="visible" style="display: block;" viewBox="0 0 30 29" fill="none" xmlns="http://www.w3.org/2000/svg">
<g id="Group 56">
<ellipse id="Ellipse 12" cx="15" cy="14.5" rx="15" ry="14.5" fill="var(--fill-0, white)"/>
<g id="Group">
<path id="Vector" d="M9.75012 10.0001C9.34997 10.0001 8.98336 10.1302 8.68919 10.3438L14.7157 15.7345C14.8511 15.8555 15.1491 15.8555 15.2845 15.7345L21.311 10.3438C21.0169 10.1302 20.6502 10.0001 20.2501 10.0001H9.75012ZM8.22981 10.8438C8.0857 11.0863 8.00013 11.3672 8.00013 11.6668V17.3334C8.00013 17.6729 8.1084 17.9873 8.28996 18.2501L8.30641 18.2398L12.7087 14.8543L8.22981 10.8438ZM21.7704 10.8438L17.2915 14.8543L21.6938 18.2397L21.7103 18.25C21.8919 17.9872 22.0001 17.6728 22.0001 17.3333V11.6667C22.0001 11.3671 21.9145 11.0863 21.7704 10.8438ZM13.2228 15.3126L8.78762 18.7241C9.06356 18.897 9.39372 19.0001 9.75012 19.0001H20.2501C20.6065 19.0001 20.9367 18.897 21.2126 18.7241L16.7774 15.3126L15.7657 16.2188C15.3374 16.6019 14.6628 16.6019 14.2345 16.2188L13.2228 15.3126Z" fill="var(--fill-0, #1E1E1E)"/>
</g>
</g>
</svg>
