<svg preserveAspectRatio="none" width="100%" height="100%" overflow="visible" style="display: block;" viewBox="0 0 51 51" fill="none" xmlns="http://www.w3.org/2000/svg">
<g id="Layer_1" clip-path="url(#clip0_319_21)">
<path id="Vector" d="M44.7115 31.2925L43.116 32.1409C43.0809 32.4505 42.9757 32.76 42.8062 33.0466H42.8004L41.8886 34.6001L33.8756 48.2142C33.5483 48.7645 33.0223 49.16 32.397 49.3263C31.7657 49.4868 31.1111 49.4065 30.5501 49.0855L20.7078 43.5137C20.1408 43.1927 19.7376 42.6768 19.5681 42.0635C19.4044 41.4444 19.4862 40.8024 19.8135 40.2521L28.7441 25.0788C29.1941 24.3164 30.0124 23.8865 30.8598 23.8865C31.269 23.8865 31.6898 23.9896 32.0697 24.2075L39.6969 28.5239L41.345 29.4582L43.0049 28.5812C42.9172 28.5181 42.8237 28.4608 42.7244 28.4035L41.3684 27.6354L32.8821 22.826C32.1515 22.4133 31.3449 22.2528 30.5559 22.3101H19.5388C18.7089 22.3101 17.9374 22.5566 17.2945 22.975C17.2887 22.9808 17.2828 22.9808 17.277 22.9808L7.72105 28.3977C6.78007 28.9251 6.10794 29.785 5.8274 30.811C5.54102 31.8371 5.68129 32.9148 6.22483 33.8377L15.1554 49.011C15.9093 50.2836 17.277 50.9944 18.6855 50.9944C19.3752 50.9944 20.0707 50.8224 20.7078 50.467L25.2198 47.9047L29.7377 50.467C30.363 50.8167 31.0527 51.0001 31.7599 51.0001C32.1106 51.0001 32.4671 50.9542 32.8178 50.8625C33.864 50.5874 34.7348 49.9282 35.2784 49.011L44.2089 33.8434C44.3316 33.637 44.431 33.4249 44.507 33.2071C44.7408 32.5823 44.8051 31.9231 44.7115 31.2925ZM19.8954 49.0855C18.7323 49.739 17.2361 49.3492 16.5639 48.2142L7.63338 33.0409C7.30609 32.4906 7.22426 31.8428 7.39375 31.2238C7.56325 30.6104 7.96653 30.1002 8.52761 29.7792L15.5294 25.8125C15.5061 25.9673 15.4827 26.1278 15.4827 26.2883V43.8004C15.4827 45.9958 17.3004 47.7843 19.5388 47.7843H22.1923L19.8954 49.0855ZM19.5388 46.1907C18.1946 46.1907 17.1016 45.1188 17.1016 43.8004V26.2883C17.1016 24.9699 18.1946 23.8979 19.5388 23.8979H27.6219C27.5226 24.024 27.4174 24.1444 27.3355 24.2877L18.4108 39.4553C17.2887 41.3527 17.955 43.7946 19.8954 44.8895L22.1923 46.1907H19.5388Z" fill="var(--fill-0, black)"/>
<path id="Vector_2" d="M50.6145 26.3513C49.767 24.8093 47.7915 24.2303 46.2193 25.0672L41.3683 27.6353L39.6967 28.5238L31.6137 32.8058C31.2279 33.0064 30.9006 33.316 30.6785 33.6886L28.4926 37.2999C28.3465 37.5407 28.3407 37.8387 28.4751 38.0852C28.6095 38.3317 28.8667 38.4922 29.1531 38.5037L33.4313 38.6928C33.8755 38.71 34.3139 38.6126 34.6996 38.4062L41.8885 34.6L44.5069 33.2071L49.3053 30.6677C50.8775 29.8308 51.4678 27.899 50.6145 26.3513ZM48.5338 29.269L44.7114 31.2925L43.1158 32.1409L33.9281 37.0076C33.7995 37.0706 33.6534 37.105 33.5073 37.0993L30.5792 36.9732L32.0754 34.4968C32.1514 34.3764 32.2566 34.2733 32.3851 34.2045L41.3449 29.4582L43.0048 28.5811L46.9908 26.4659C47.774 26.0475 48.7617 26.3341 49.1884 27.1079C49.615 27.8818 49.317 28.8505 48.5338 29.269Z" fill="var(--fill-0, #75E1B3)"/>
<path id="Vector_3" d="M4.61139 33.4421H4.05615C2.7119 33.4421 1.61896 32.3701 1.61896 31.0517V3.98393C1.61896 2.66551 2.7119 1.59357 4.05615 1.59357H23.5362C24.8805 1.59357 25.9734 2.66551 25.9734 3.98393V20.7164C25.9734 21.1578 26.3358 21.5132 26.7858 21.5132C27.2359 21.5132 27.5982 21.1578 27.5982 20.7164V3.98393C27.5982 1.78847 25.7747 0 23.5362 0H4.062C1.82352 0 0 1.78847 0 3.98393V31.0517C0 33.2472 1.82352 35.0356 4.062 35.0356H4.61724C5.06727 35.0356 5.42964 34.6802 5.42964 34.2388C5.42964 33.7975 5.06727 33.4421 4.61724 33.4421H4.61139Z" fill="var(--fill-0, black)"/>
<path id="Vector_4" d="M23.5423 15.1277V8.75913C23.5423 7.44071 22.4493 6.36877 21.1051 6.36877H6.49355C5.14929 6.36877 4.05635 7.44071 4.05635 8.75913V15.1277C4.05635 16.4461 5.14929 17.518 6.49355 17.518H21.1051C22.4493 17.518 23.5423 16.4461 23.5423 15.1277ZM5.68699 15.1277V8.75913C5.68699 8.31774 6.04936 7.96234 6.49939 7.96234H21.1109C21.5609 7.96234 21.9233 8.31774 21.9233 8.75913V15.1277C21.9233 15.5691 21.5609 15.9245 21.1109 15.9245H6.49355C6.04351 15.9245 5.68115 15.5691 5.68115 15.1277H5.68699Z" fill="var(--fill-0, #75E1B3)"/>
<path id="Vector_5" d="M5.68709 4.78092C6.13712 4.78092 6.49949 4.42552 6.49949 3.98413C6.49949 3.54275 6.13712 3.18735 5.68709 3.18735H4.87469C4.42465 3.18735 4.06229 3.54275 4.06229 3.98413C4.06229 4.42552 4.42465 4.78092 4.87469 4.78092H5.68709Z" fill="var(--fill-0, black)"/>
<path id="Vector_6" d="M9.74291 4.78092C10.1929 4.78092 10.5553 4.42552 10.5553 3.98413C10.5553 3.54275 10.1929 3.18735 9.74291 3.18735H8.93051C8.48047 3.18735 8.11811 3.54275 8.11811 3.98413C8.11811 4.42552 8.48047 4.78092 8.93051 4.78092H9.74291Z" fill="var(--fill-0, black)"/>
<path id="Vector_7" d="M13.7992 4.78092C14.2492 4.78092 14.6116 4.42552 14.6116 3.98413C14.6116 3.54275 14.2492 3.18735 13.7992 3.18735H12.9868C12.5368 3.18735 12.1744 3.54275 12.1744 3.98413C12.1744 4.42552 12.5368 4.78092 12.9868 4.78092H13.7992Z" fill="var(--fill-0, black)"/>
<path id="Vector_8" d="M11.3619 19.1113H6.49336C6.04333 19.1113 5.68096 19.4667 5.68096 19.9081C5.68096 20.3495 6.04333 20.7049 6.49336 20.7049H11.3619C11.8119 20.7049 12.1743 20.3495 12.1743 19.9081C12.1743 19.4667 11.8119 19.1113 11.3619 19.1113Z" fill="var(--fill-0, #75E1B3)"/>
<path id="Vector_9" d="M11.3619 21.4961H6.49336C6.04333 21.4961 5.68096 21.8515 5.68096 22.2929C5.68096 22.7343 6.04333 23.0897 6.49336 23.0897H11.3619C11.8119 23.0897 12.1743 22.7343 12.1743 22.2929C12.1743 21.8515 11.8119 21.4961 11.3619 21.4961Z" fill="var(--fill-0, #75E1B3)"/>
<path id="Vector_10" d="M6.49336 25.4801H8.11816C8.5682 25.4801 8.93056 25.1247 8.93056 24.6833C8.93056 24.2419 8.5682 23.8865 8.11816 23.8865H6.49336C6.04333 23.8865 5.68096 24.2419 5.68096 24.6833C5.68096 25.1247 6.04333 25.4801 6.49336 25.4801Z" fill="var(--fill-0, #75E1B3)"/>
</g>
<defs>
<clipPath id="clip0_319_21">
<rect width="51" height="51" fill="white"/>
</clipPath>
</defs>
</svg>
