<svg preserveAspectRatio="none" width="100%" height="100%" overflow="visible" style="display: block;" viewBox="0 0 53 53" fill="none" xmlns="http://www.w3.org/2000/svg">
<g id="Layer_1" clip-path="url(#clip0_319_39)">
<path id="Vector" d="M33.664 43.362H12.0442C10.7143 43.362 9.63303 42.2808 9.63303 40.951V12.043C9.63303 10.7132 10.7143 9.63208 12.0442 9.63208H40.9554C42.2853 9.63208 43.3666 10.7132 43.3666 12.043V33.6604C43.3666 34.1056 43.7251 34.4641 44.1703 34.4641C44.6156 34.4641 44.9741 34.1056 44.9741 33.6604V12.043C44.9741 9.82866 43.17 8.02479 40.9554 8.02479H12.0442C9.82962 8.02479 8.02557 9.82866 8.02557 12.043V40.951C8.02557 43.1654 9.82962 44.9693 12.0442 44.9693H33.664C34.1092 44.9693 34.4677 44.6108 34.4677 44.1656C34.4677 43.7204 34.1092 43.362 33.664 43.362Z" fill="var(--fill-0, black)"/>
<path id="Vector_2" d="M14.4552 11.2395C14.4552 10.7943 14.0967 10.4358 13.6515 10.4358H12.8478C12.4025 10.4358 12.044 10.7943 12.044 11.2395C12.044 11.6846 12.4025 12.0431 12.8478 12.0431H13.6515C14.0967 12.0431 14.4552 11.6846 14.4552 11.2395Z" fill="var(--fill-0, black)"/>
<path id="Vector_3" d="M17.67 12.0431C18.1152 12.0431 18.4737 11.6846 18.4737 11.2395C18.4737 10.7943 18.1152 10.4358 17.67 10.4358H16.8662C16.421 10.4358 16.0625 10.7943 16.0625 11.2395C16.0625 11.6846 16.421 12.0431 16.8662 12.0431H17.67Z" fill="var(--fill-0, black)"/>
<path id="Vector_4" d="M21.683 12.0431C22.1283 12.0431 22.4868 11.6846 22.4868 11.2395C22.4868 10.7943 22.1283 10.4358 21.683 10.4358H20.8793C20.4341 10.4358 20.0756 10.7943 20.0756 11.2395C20.0756 11.6846 20.4341 12.0431 20.8793 12.0431H21.683Z" fill="var(--fill-0, black)"/>
<path id="Vector_5" d="M51.4211 38.8929L36.2138 31.6543C35.757 31.4346 35.2482 31.3248 34.7393 31.3248C32.8485 31.3248 31.3163 32.8627 31.3163 34.7475C31.3163 35.2562 31.4319 35.765 31.6458 36.2218L38.8852 51.4274C39.342 52.3871 40.325 53.0058 41.3889 53.0058C42.9154 53.0058 44.1586 51.7627 44.1586 50.2364V49.9068C44.1586 49.8028 44.1586 49.7045 44.1413 49.6004C43.9736 48.103 44.494 46.6345 45.5579 45.5706C46.6218 44.5068 48.0905 43.9923 49.5823 44.1541C49.6864 44.1657 49.7905 44.1715 49.8888 44.1715H50.2184C51.7449 44.1715 52.9881 42.9284 52.9881 41.4021C52.9881 40.3383 52.3694 39.3554 51.4095 38.8987L51.4211 38.8929ZM50.23 42.5584H49.9004C49.8599 42.5584 49.8194 42.5584 49.7732 42.5526C47.7899 42.3329 45.8412 43.0152 44.4304 44.4259C43.0195 45.8366 42.3372 47.785 42.5569 49.7623C42.5569 49.8028 42.5627 49.849 42.5627 49.8953V50.2248C42.5627 50.8666 42.0365 51.3927 41.3947 51.3927C40.9495 51.3927 40.5331 51.1325 40.3423 50.7278L33.103 35.5222C32.9873 35.2794 32.9295 35.0076 32.9295 34.7417C32.9295 33.7415 33.7448 32.9263 34.7451 32.9263C35.0111 32.9263 35.2829 32.9899 35.5257 33.0997L50.733 40.3383C51.1378 40.5291 51.398 40.9453 51.398 41.3905C51.398 42.0323 50.8718 42.5584 50.23 42.5584Z" fill="var(--fill-0, #75E1B3)"/>
<path id="Vector_6" d="M6.60332 14.2979C3.70641 13.6388 1.60746 11.0024 1.60746 8.03065C1.60746 4.48653 4.48702 1.60729 8.03153 1.60729C11.0036 1.60729 13.6403 3.70601 14.2995 6.6026C14.3978 7.03622 14.8257 7.30795 15.2593 7.20966C15.693 7.11138 15.959 6.68354 15.8665 6.24992C15.028 2.57282 11.8073 0 8.03153 0C3.60233 0 0 3.60194 0 8.03065C0 11.8118 2.56731 15.0264 6.2506 15.8647C6.3142 15.8763 6.37203 15.8879 6.42985 15.8879C6.79413 15.8879 7.1295 15.6335 7.21623 15.2634C7.31453 14.8298 7.04277 14.402 6.6091 14.3037L6.60332 14.2979Z" fill="var(--fill-0, #75E1B3)"/>
<path id="Vector_7" d="M24.898 17.6629C24.898 16.3331 23.8167 15.252 22.4868 15.252H16.0627C14.7328 15.252 13.6515 16.3331 13.6515 17.6629V24.0863C13.6515 25.416 14.7328 26.4972 16.0627 26.4972H22.4868C23.8167 26.4972 24.898 25.416 24.898 24.0863V17.6629ZM23.2905 24.0863C23.2905 24.5315 22.932 24.8899 22.4868 24.8899H16.0627C15.6175 24.8899 15.259 24.5315 15.259 24.0863V17.6629C15.259 17.2177 15.6175 16.8593 16.0627 16.8593H22.4868C22.932 16.8593 23.2905 17.2177 23.2905 17.6629V24.0863Z" fill="var(--fill-0, #75E1B3)"/>
<path id="Vector_8" d="M39.3536 16.0615C39.3536 15.6163 38.9951 15.2578 38.5499 15.2578H28.9109C28.4656 15.2578 28.1071 15.6163 28.1071 16.0615C28.1071 16.5067 28.4656 16.8651 28.9109 16.8651H38.5499C38.9951 16.8651 39.3536 16.5067 39.3536 16.0615Z" fill="var(--fill-0, black)"/>
<path id="Vector_9" d="M28.1071 25.6936C28.1071 26.1388 28.4656 26.4972 28.9109 26.4972H36.9424C37.3876 26.4972 37.7461 26.1388 37.7461 25.6936C37.7461 25.2484 37.3876 24.8899 36.9424 24.8899H28.9109C28.4656 24.8899 28.1071 25.2484 28.1071 25.6936Z" fill="var(--fill-0, black)"/>
<path id="Vector_10" d="M30.5183 19.2701H33.7275C34.1727 19.2701 34.5312 18.9116 34.5312 18.4664C34.5312 18.0212 34.1727 17.6628 33.7275 17.6628H30.5183C30.0731 17.6628 29.7146 18.0212 29.7146 18.4664C29.7146 18.9116 30.0731 19.2701 30.5183 19.2701Z" fill="var(--fill-0, black)"/>
<path id="Vector_11" d="M30.5183 21.6811H33.7275C34.1727 21.6811 34.5312 21.3226 34.5312 20.8774C34.5312 20.4322 34.1727 20.0738 33.7275 20.0738H30.5183C30.0731 20.0738 29.7146 20.4322 29.7146 20.8774C29.7146 21.3226 30.0731 21.6811 30.5183 21.6811Z" fill="var(--fill-0, black)"/>
<path id="Vector_12" d="M30.5183 24.0862H33.7275C34.1727 24.0862 34.5312 23.7278 34.5312 23.2826C34.5312 22.8374 34.1727 22.4789 33.7275 22.4789H30.5183C30.0731 22.4789 29.7146 22.8374 29.7146 23.2826C29.7146 23.7278 30.0731 24.0862 30.5183 24.0862Z" fill="var(--fill-0, black)"/>
<path id="Vector_13" d="M24.0884 28.9081H14.4494C14.0042 28.9081 13.6457 29.2665 13.6457 29.7117C13.6457 30.1569 14.0042 30.5154 14.4494 30.5154H24.0884C24.5336 30.5154 24.8921 30.1569 24.8921 29.7117C24.8921 29.2665 24.5336 28.9081 24.0884 28.9081Z" fill="var(--fill-0, black)"/>
<path id="Vector_14" d="M15.259 39.3438C15.259 39.789 15.6175 40.1475 16.0627 40.1475H24.0942C24.5395 40.1475 24.898 39.789 24.898 39.3438C24.898 38.8987 24.5395 38.5402 24.0942 38.5402H16.0627C15.6175 38.5402 15.259 38.8987 15.259 39.3438Z" fill="var(--fill-0, black)"/>
<path id="Vector_15" d="M19.2718 32.9205H22.481C22.9262 32.9205 23.2847 32.5621 23.2847 32.1169C23.2847 31.6717 22.9262 31.3132 22.481 31.3132H19.2718C18.8266 31.3132 18.4681 31.6717 18.4681 32.1169C18.4681 32.5621 18.8266 32.9205 19.2718 32.9205Z" fill="var(--fill-0, black)"/>
<path id="Vector_16" d="M19.2718 35.3315H22.481C22.9262 35.3315 23.2847 34.9731 23.2847 34.5279C23.2847 34.0827 22.9262 33.7243 22.481 33.7243H19.2718C18.8266 33.7243 18.4681 34.0827 18.4681 34.5279C18.4681 34.9731 18.8266 35.3315 19.2718 35.3315Z" fill="var(--fill-0, black)"/>
<path id="Vector_17" d="M19.2718 37.7426H22.481C22.9262 37.7426 23.2847 37.3841 23.2847 36.9389C23.2847 36.4937 22.9262 36.1353 22.481 36.1353H19.2718C18.8266 36.1353 18.4681 36.4937 18.4681 36.9389C18.4681 37.3841 18.8266 37.7426 19.2718 37.7426Z" fill="var(--fill-0, black)"/>
</g>
<defs>
<clipPath id="clip0_319_39">
<rect width="53" height="53" fill="white"/>
</clipPath>
</defs>
</svg>
