<svg preserveAspectRatio="none" width="100%" height="100%" overflow="visible" style="display: block;" viewBox="0 0 114 109" fill="none" xmlns="http://www.w3.org/2000/svg">
<g id="Layer_1" clip-path="url(#clip0_319_170)">
<g id="Group">
<path id="Vector" d="M59.6537 39.0962C57.0912 36.6392 53.7308 35.41 50.3747 35.41C47.0186 35.41 43.6582 36.6392 41.0913 39.1003C38.5245 41.5614 37.2482 44.7779 37.2482 47.9957C37.2482 51.2136 38.5302 54.4355 41.0971 56.8966C43.6639 59.3577 47.0186 60.5814 50.3747 60.5814C53.7308 60.5814 57.0912 59.3522 59.658 56.8911C62.2249 54.43 63.5012 51.2136 63.5012 47.9957C63.5012 44.7779 62.2192 41.5559 59.6537 39.0962ZM56.2232 53.6087C54.6103 55.1552 52.4918 55.9284 50.3747 55.9284C48.2576 55.9284 46.1391 55.1552 44.5205 53.6032C42.9019 52.0513 42.1012 50.0256 42.1012 47.9957C42.1012 45.9659 42.9076 43.9346 44.5262 42.3827C46.1448 40.8308 48.2576 40.0631 50.3747 40.0631C52.4918 40.0631 54.6103 40.8363 56.2289 42.3882C57.8475 43.9401 58.6482 45.9659 58.6482 47.9957C58.6482 50.0256 57.8418 52.0568 56.2232 53.6087ZM59.6537 39.0962C57.0912 36.6392 53.7308 35.41 50.3747 35.41C47.0186 35.41 43.6582 36.6392 41.0913 39.1003C38.5245 41.5614 37.2482 44.7779 37.2482 47.9957C37.2482 51.2136 38.5302 54.4355 41.0971 56.8966C43.6639 59.3577 47.0186 60.5814 50.3747 60.5814C53.7308 60.5814 57.0912 59.3522 59.658 56.8911C62.2249 54.43 63.5012 51.2136 63.5012 47.9957C63.5012 44.7779 62.2192 41.5559 59.6537 39.0962ZM56.2232 53.6087C54.6103 55.1552 52.4918 55.9284 50.3747 55.9284C48.2576 55.9284 46.1391 55.1552 44.5205 53.6032C42.9019 52.0513 42.1012 50.0256 42.1012 47.9957C42.1012 45.9659 42.9076 43.9346 44.5262 42.3827C46.1448 40.8308 48.2576 40.0631 50.3747 40.0631C52.4918 40.0631 54.6103 40.8363 56.2289 42.3882C57.8475 43.9401 58.6482 45.9659 58.6482 47.9957C58.6482 50.0256 57.8418 52.0568 56.2232 53.6087ZM59.6537 39.0962C57.0912 36.6392 53.7308 35.41 50.3747 35.41C47.0186 35.41 43.6582 36.6392 41.0913 39.1003C38.5245 41.5614 37.2482 44.7779 37.2482 47.9957C37.2482 51.2136 38.5302 54.4355 41.0971 56.8966C43.6639 59.3577 47.0186 60.5814 50.3747 60.5814C53.7308 60.5814 57.0912 59.3522 59.658 56.8911C62.2249 54.43 63.5012 51.2136 63.5012 47.9957C63.5012 44.7779 62.2192 41.5559 59.6537 39.0962ZM56.2232 53.6087C54.6103 55.1552 52.4918 55.9284 50.3747 55.9284C48.2576 55.9284 46.1391 55.1552 44.5205 53.6032C42.9019 52.0513 42.1012 50.0256 42.1012 47.9957C42.1012 45.9659 42.9076 43.9346 44.5262 42.3827C46.1448 40.8308 48.2576 40.0631 50.3747 40.0631C52.4918 40.0631 54.6103 40.8363 56.2289 42.3882C57.8475 43.9401 58.6482 45.9659 58.6482 47.9957C58.6482 50.0256 57.8418 52.0568 56.2232 53.6087ZM59.6537 39.0962C57.0912 36.6392 53.7308 35.41 50.3747 35.41C47.0186 35.41 43.6582 36.6392 41.0913 39.1003C38.5245 41.5614 37.2482 44.7779 37.2482 47.9957C37.2482 51.2136 38.5302 54.4355 41.0971 56.8966C43.6639 59.3577 47.0186 60.5814 50.3747 60.5814C53.7308 60.5814 57.0912 59.3522 59.658 56.8911C62.2249 54.43 63.5012 51.2136 63.5012 47.9957C63.5012 44.7779 62.2192 41.5559 59.6537 39.0962ZM56.2232 53.6087C54.6103 55.1552 52.4918 55.9284 50.3747 55.9284C48.2576 55.9284 46.1391 55.1552 44.5205 53.6032C42.9019 52.0513 42.1012 50.0256 42.1012 47.9957C42.1012 45.9659 42.9076 43.9346 44.5262 42.3827C46.1448 40.8308 48.2576 40.0631 50.3747 40.0631C52.4918 40.0631 54.6103 40.8363 56.2289 42.3882C57.8475 43.9401 58.6482 45.9659 58.6482 47.9957C58.6482 50.0256 57.8418 52.0568 56.2232 53.6087ZM78.8836 44.2903C78.8836 43.1147 77.9554 42.1039 76.7107 41.983L73.1054 41.626C72.8661 40.8431 72.5825 40.0699 72.2545 39.3091C71.9279 38.5537 71.5584 37.8121 71.1458 37.0883L73.3217 34.5242C74.2183 33.6123 74.2011 32.1771 73.2715 31.2858L67.7998 26.0477C66.9346 25.2168 65.5352 25.1316 64.564 25.8884L61.7536 28.0803C60.9988 27.6834 60.2281 27.329 59.4389 27.02C58.6439 26.7055 57.836 26.4336 57.0196 26.2042L56.6658 22.926C56.6357 21.6679 55.56 20.6558 54.2407 20.6558L46.5101 20.6626C45.284 20.6626 44.2297 21.5526 44.1037 22.7461L43.7327 26.2029C42.9176 26.4308 42.1112 26.7028 41.3177 27.0173C40.5284 27.3304 39.7535 27.6847 39 28.0817L36.2241 25.9172C35.2758 25.1467 33.852 25.1879 32.9553 26.0436L27.4865 31.2858C26.6156 32.1153 26.5253 33.4598 27.316 34.3924L29.605 37.0911C29.1924 37.8121 28.8229 38.5537 28.4963 39.3104C28.1683 40.0699 27.8847 40.8445 27.6469 41.626L24.2278 41.9638C22.9157 41.9927 21.86 43.0241 21.86 44.289L21.8672 51.7039C21.8672 52.8795 22.7954 53.8903 24.0401 54.0111L27.6469 54.3668C27.8732 55.1112 28.1425 55.8487 28.4505 56.5753L28.4977 56.6947C28.82 57.4432 29.1896 58.1821 29.6035 58.9059L27.4292 61.4686C26.5325 62.3805 26.5497 63.8157 27.4793 64.7071L32.951 69.9451C33.8162 70.776 35.2157 70.8612 36.1868 70.1045L38.9972 67.9125C39.752 68.3094 40.5227 68.6638 41.3119 68.9728C42.1069 69.2873 42.9148 69.5592 43.7312 69.7886L44.0836 73.0682C44.1137 74.3263 45.1894 75.3384 46.5087 75.3384L54.2422 75.3316C55.4683 75.3316 56.5225 74.4416 56.6486 73.2481L57.0196 69.7886C57.8332 69.5606 58.6396 69.2887 59.4332 68.9742C60.221 68.661 60.9959 68.3067 61.7493 67.9112L64.4265 69.9973C65.3762 70.8571 66.873 70.8406 67.8026 69.9493L73.2658 64.7029C74.1324 63.8734 74.2212 62.5316 73.4319 61.6005L71.1458 58.9059C71.5612 58.1807 71.9308 57.4419 72.256 56.6838C72.584 55.9229 72.8676 55.1483 73.1054 54.3668L76.5231 54.0276C77.8351 53.9974 78.8908 52.9674 78.8908 51.7025L78.8836 44.2903ZM74.0378 49.6108L70.9267 49.9185C69.8524 50.0228 69.0144 50.7906 68.8039 51.7533C68.5661 52.8314 68.2266 53.8917 67.784 54.9121C67.3443 55.9284 66.8057 56.9145 66.1726 57.8456C65.5724 58.7315 65.6841 59.8631 66.3688 60.624L68.2982 62.8983L65.9162 65.1823L63.4883 63.2897C62.6532 62.6387 61.5015 62.6113 60.645 63.1441C59.6652 63.7553 58.6396 64.2717 57.594 64.6865C56.5254 65.1095 55.4182 65.4363 54.2937 65.6643C53.2137 65.8786 52.4531 66.7548 52.3743 67.7601L52.0592 70.6854H48.6916L48.3708 67.6997C48.2619 66.6696 47.4612 65.8662 46.4571 65.6643C45.3341 65.4363 44.2254 65.1095 43.1597 64.6851C42.1012 64.2648 41.0727 63.7484 40.1044 63.1428C39.1805 62.5673 38.0002 62.6745 37.2067 63.3309L34.8332 65.1823L32.4511 62.8983L34.4264 60.5704C35.1054 59.7697 35.134 58.6655 34.5782 57.8443C33.9466 56.9159 33.408 55.9298 32.9697 54.9148L32.9238 54.8146C32.5041 53.8244 32.1775 52.7943 31.9484 51.7533C31.7249 50.7178 30.811 49.9885 29.764 49.913L26.713 49.6122V46.3806L29.8256 46.0744C30.8999 45.97 31.7378 45.2023 31.9484 44.2395C32.1861 43.1614 32.5271 42.097 32.9682 41.0739C33.4008 40.0713 33.938 39.0893 34.5768 38.1499C35.177 37.2641 35.0653 36.1338 34.382 35.3729L32.4454 33.0904L34.8289 30.8064L37.2611 32.7031C38.0962 33.3541 39.2478 33.3815 40.1044 32.8487C41.087 32.2361 42.1112 31.7197 43.1569 31.305C44.224 30.882 45.3327 30.5551 46.4585 30.3271C47.5385 30.1129 48.2991 29.2367 48.3779 28.2327L48.6916 25.3088H52.0592L52.38 28.2932C52.4889 29.3232 53.2896 30.1266 54.2937 30.3285C55.4167 30.5565 56.5254 30.8834 57.5911 31.3077C58.6496 31.728 59.6781 32.2444 60.6464 32.85C61.5703 33.4255 62.7506 33.3184 63.5441 32.6619L65.9176 30.8106L68.2997 33.0945L66.3244 35.4224C65.6454 36.2231 65.6168 37.3273 66.1726 38.1486C66.8114 39.0893 67.35 40.0713 67.7826 41.0725C68.2238 42.0957 68.5661 43.16 68.8039 44.2395C69.0273 45.2737 69.9412 46.0029 70.9883 46.0799L74.0378 46.382V49.6108ZM50.3747 35.41C47.0186 35.41 43.6582 36.6392 41.0913 39.1003C38.5245 41.5614 37.2482 44.7779 37.2482 47.9957C37.2482 51.2136 38.5302 54.4355 41.0971 56.8966C43.6639 59.3577 47.0186 60.5814 50.3747 60.5814C53.7308 60.5814 57.0912 59.3522 59.658 56.8911C62.2249 54.43 63.5012 51.2136 63.5012 47.9957C63.5012 44.7779 62.2192 41.5559 59.6537 39.0962C57.0912 36.6392 53.7308 35.41 50.3747 35.41ZM56.2232 53.6087C54.6103 55.1552 52.4918 55.9284 50.3747 55.9284C48.2576 55.9284 46.1391 55.1552 44.5205 53.6032C42.9019 52.0513 42.1012 50.0256 42.1012 47.9957C42.1012 45.9659 42.9076 43.9346 44.5262 42.3827C46.1448 40.8308 48.2576 40.0631 50.3747 40.0631C52.4918 40.0631 54.6103 40.8363 56.2289 42.3882C57.8475 43.9401 58.6482 45.9659 58.6482 47.9957C58.6482 50.0256 57.8418 52.0568 56.2232 53.6087ZM59.6537 39.0962C57.0912 36.6392 53.7308 35.41 50.3747 35.41C47.0186 35.41 43.6582 36.6392 41.0913 39.1003C38.5245 41.5614 37.2482 44.7779 37.2482 47.9957C37.2482 51.2136 38.5302 54.4355 41.0971 56.8966C43.6639 59.3577 47.0186 60.5814 50.3747 60.5814C53.7308 60.5814 57.0912 59.3522 59.658 56.8911C62.2249 54.43 63.5012 51.2136 63.5012 47.9957C63.5012 44.7779 62.2192 41.5559 59.6537 39.0962ZM56.2232 53.6087C54.6103 55.1552 52.4918 55.9284 50.3747 55.9284C48.2576 55.9284 46.1391 55.1552 44.5205 53.6032C42.9019 52.0513 42.1012 50.0256 42.1012 47.9957C42.1012 45.9659 42.9076 43.9346 44.5262 42.3827C46.1448 40.8308 48.2576 40.0631 50.3747 40.0631C52.4918 40.0631 54.6103 40.8363 56.2289 42.3882C57.8475 43.9401 58.6482 45.9659 58.6482 47.9957C58.6482 50.0256 57.8418 52.0568 56.2232 53.6087ZM59.6537 39.0962C57.0912 36.6392 53.7308 35.41 50.3747 35.41C47.0186 35.41 43.6582 36.6392 41.0913 39.1003C38.5245 41.5614 37.2482 44.7779 37.2482 47.9957C37.2482 51.2136 38.5302 54.4355 41.0971 56.8966C43.6639 59.3577 47.0186 60.5814 50.3747 60.5814C53.7308 60.5814 57.0912 59.3522 59.658 56.8911C62.2249 54.43 63.5012 51.2136 63.5012 47.9957C63.5012 44.7779 62.2192 41.5559 59.6537 39.0962ZM56.2232 53.6087C54.6103 55.1552 52.4918 55.9284 50.3747 55.9284C48.2576 55.9284 46.1391 55.1552 44.5205 53.6032C42.9019 52.0513 42.1012 50.0256 42.1012 47.9957C42.1012 45.9659 42.9076 43.9346 44.5262 42.3827C46.1448 40.8308 48.2576 40.0631 50.3747 40.0631C52.4918 40.0631 54.6103 40.8363 56.2289 42.3882C57.8475 43.9401 58.6482 45.9659 58.6482 47.9957C58.6482 50.0256 57.8418 52.0568 56.2232 53.6087ZM59.6537 39.0962C57.0912 36.6392 53.7308 35.41 50.3747 35.41C47.0186 35.41 43.6582 36.6392 41.0913 39.1003C38.5245 41.5614 37.2482 44.7779 37.2482 47.9957C37.2482 51.2136 38.5302 54.4355 41.0971 56.8966C43.6639 59.3577 47.0186 60.5814 50.3747 60.5814C53.7308 60.5814 57.0912 59.3522 59.658 56.8911C62.2249 54.43 63.5012 51.2136 63.5012 47.9957C63.5012 44.7779 62.2192 41.5559 59.6537 39.0962ZM56.2232 53.6087C54.6103 55.1552 52.4918 55.9284 50.3747 55.9284C48.2576 55.9284 46.1391 55.1552 44.5205 53.6032C42.9019 52.0513 42.1012 50.0256 42.1012 47.9957C42.1012 45.9659 42.9076 43.9346 44.5262 42.3827C46.1448 40.8308 48.2576 40.0631 50.3747 40.0631C52.4918 40.0631 54.6103 40.8363 56.2289 42.3882C57.8475 43.9401 58.6482 45.9659 58.6482 47.9957C58.6482 50.0256 57.8418 52.0568 56.2232 53.6087ZM59.6537 39.0962C57.0912 36.6392 53.7308 35.41 50.3747 35.41C47.0186 35.41 43.6582 36.6392 41.0913 39.1003C38.5245 41.5614 37.2482 44.7779 37.2482 47.9957C37.2482 51.2136 38.5302 54.4355 41.0971 56.8966C43.6639 59.3577 47.0186 60.5814 50.3747 60.5814C53.7308 60.5814 57.0912 59.3522 59.658 56.8911C62.2249 54.43 63.5012 51.2136 63.5012 47.9957C63.5012 44.7779 62.2192 41.5559 59.6537 39.0962ZM56.2232 53.6087C54.6103 55.1552 52.4918 55.9284 50.3747 55.9284C48.2576 55.9284 46.1391 55.1552 44.5205 53.6032C42.9019 52.0513 42.1012 50.0256 42.1012 47.9957C42.1012 45.9659 42.9076 43.9346 44.5262 42.3827C46.1448 40.8308 48.2576 40.0631 50.3747 40.0631C52.4918 40.0631 54.6103 40.8363 56.2289 42.3882C57.8475 43.9401 58.6482 45.9659 58.6482 47.9957C58.6482 50.0256 57.8418 52.0568 56.2232 53.6087ZM78.8836 44.2903C78.8836 43.1147 77.9554 42.1039 76.7107 41.983L73.1054 41.626C72.8661 40.8431 72.5825 40.0699 72.2545 39.3091C71.9279 38.5537 71.5584 37.8121 71.1458 37.0883L73.3217 34.5242C74.2183 33.6123 74.2011 32.1771 73.2715 31.2858L67.7998 26.0477C66.9346 25.2168 65.5352 25.1316 64.564 25.8884L61.7536 28.0803C60.9988 27.6834 60.2281 27.329 59.4389 27.02C58.6439 26.7055 57.836 26.4336 57.0196 26.2042L56.6658 22.926C56.6357 21.6679 55.56 20.6558 54.2407 20.6558L46.5101 20.6626C45.284 20.6626 44.2297 21.5526 44.1037 22.7461L43.7327 26.2029C42.9176 26.4308 42.1112 26.7028 41.3177 27.0173C40.5284 27.3304 39.7535 27.6847 39 28.0817L36.2241 25.9172C35.2758 25.1467 33.852 25.1879 32.9553 26.0436L27.4865 31.2858C26.6156 32.1153 26.5253 33.4598 27.316 34.3924L29.605 37.0911C29.1924 37.8121 28.8229 38.5537 28.4963 39.3104C28.1683 40.0699 27.8847 40.8445 27.6469 41.626L24.2278 41.9638C22.9157 41.9927 21.86 43.0241 21.86 44.289L21.8672 51.7039C21.8672 52.8795 22.7954 53.8903 24.0401 54.0111L27.6469 54.3668C27.8732 55.1112 28.1425 55.8487 28.4505 56.5753L28.4977 56.6947C28.82 57.4432 29.1896 58.1821 29.6035 58.9059L27.4292 61.4686C26.5325 62.3805 26.5497 63.8157 27.4793 64.7071L32.951 69.9451C33.8162 70.776 35.2157 70.8612 36.1868 70.1045L38.9972 67.9125C39.752 68.3094 40.5227 68.6638 41.3119 68.9728C42.1069 69.2873 42.9148 69.5592 43.7312 69.7886L44.0836 73.0682C44.1137 74.3263 45.1894 75.3384 46.5087 75.3384L54.2422 75.3316C55.4683 75.3316 56.5225 74.4416 56.6486 73.2481L57.0196 69.7886C57.8332 69.5606 58.6396 69.2887 59.4332 68.9742C60.221 68.661 60.9959 68.3067 61.7493 67.9112L64.4265 69.9973C65.3762 70.8571 66.873 70.8406 67.8026 69.9493L73.2658 64.7029C74.1324 63.8734 74.2212 62.5316 73.4319 61.6005L71.1458 58.9059C71.5612 58.1807 71.9308 57.4419 72.256 56.6838C72.584 55.9229 72.8676 55.1483 73.1054 54.3668L76.5231 54.0276C77.8351 53.9974 78.8908 52.9674 78.8908 51.7025L78.8836 44.2903ZM74.0378 49.6108L70.9267 49.9185C69.8524 50.0228 69.0144 50.7906 68.8039 51.7533C68.5661 52.8314 68.2266 53.8917 67.784 54.9121C67.3443 55.9284 66.8057 56.9145 66.1726 57.8456C65.5724 58.7315 65.6841 59.8631 66.3688 60.624L68.2982 62.8983L65.9162 65.1823L63.4883 63.2897C62.6532 62.6387 61.5015 62.6113 60.645 63.1441C59.6652 63.7553 58.6396 64.2717 57.594 64.6865C56.5254 65.1095 55.4182 65.4363 54.2937 65.6643C53.2137 65.8786 52.4531 66.7548 52.3743 67.7601L52.0592 70.6854H48.6916L48.3708 67.6997C48.2619 66.6696 47.4612 65.8662 46.4571 65.6643C45.3341 65.4363 44.2254 65.1095 43.1597 64.6851C42.1012 64.2648 41.0727 63.7484 40.1044 63.1428C39.1805 62.5673 38.0002 62.6745 37.2067 63.3309L34.8332 65.1823L32.4511 62.8983L34.4264 60.5704C35.1054 59.7697 35.134 58.6655 34.5782 57.8443C33.9466 56.9159 33.408 55.9298 32.9697 54.9148L32.9238 54.8146C32.5041 53.8244 32.1775 52.7943 31.9484 51.7533C31.7249 50.7178 30.811 49.9885 29.764 49.913L26.713 49.6122V46.3806L29.8256 46.0744C30.8999 45.97 31.7378 45.2023 31.9484 44.2395C32.1861 43.1614 32.5271 42.097 32.9682 41.0739C33.4008 40.0713 33.938 39.0893 34.5768 38.1499C35.177 37.2641 35.0653 36.1338 34.382 35.3729L32.4454 33.0904L34.8289 30.8064L37.2611 32.7031C38.0962 33.3541 39.2478 33.3815 40.1044 32.8487C41.087 32.2361 42.1112 31.7197 43.1569 31.305C44.224 30.882 45.3327 30.5551 46.4585 30.3271C47.5385 30.1129 48.2991 29.2367 48.3779 28.2327L48.6916 25.3088H52.0592L52.38 28.2932C52.4889 29.3232 53.2896 30.1266 54.2937 30.3285C55.4167 30.5565 56.5254 30.8834 57.5911 31.3077C58.6496 31.728 59.6781 32.2444 60.6464 32.85C61.5703 33.4255 62.7506 33.3184 63.5441 32.6619L65.9176 30.8106L68.2997 33.0945L66.3244 35.4224C65.6454 36.2231 65.6168 37.3273 66.1726 38.1486C66.8114 39.0893 67.35 40.0713 67.7826 41.0725C68.2238 42.0957 68.5661 43.16 68.8039 44.2395C69.0273 45.2737 69.9412 46.0029 70.9883 46.0799L74.0378 46.382V49.6108ZM50.3747 35.41C47.0186 35.41 43.6582 36.6392 41.0913 39.1003C38.5245 41.5614 37.2482 44.7779 37.2482 47.9957C37.2482 51.2136 38.5302 54.4355 41.0971 56.8966C43.6639 59.3577 47.0186 60.5814 50.3747 60.5814C53.7308 60.5814 57.0912 59.3522 59.658 56.8911C62.2249 54.43 63.5012 51.2136 63.5012 47.9957C63.5012 44.7779 62.2192 41.5559 59.6537 39.0962C57.0912 36.6392 53.7308 35.41 50.3747 35.41ZM56.2232 53.6087C54.6103 55.1552 52.4918 55.9284 50.3747 55.9284C48.2576 55.9284 46.1391 55.1552 44.5205 53.6032C42.9019 52.0513 42.1012 50.0256 42.1012 47.9957C42.1012 45.9659 42.9076 43.9346 44.5262 42.3827C46.1448 40.8308 48.2576 40.0631 50.3747 40.0631C52.4918 40.0631 54.6103 40.8363 56.2289 42.3882C57.8475 43.9401 58.6482 45.9659 58.6482 47.9957C58.6482 50.0256 57.8418 52.0568 56.2232 53.6087ZM59.6537 39.0962C57.0912 36.6392 53.7308 35.41 50.3747 35.41C47.0186 35.41 43.6582 36.6392 41.0913 39.1003C38.5245 41.5614 37.2482 44.7779 37.2482 47.9957C37.2482 51.2136 38.5302 54.4355 41.0971 56.8966C43.6639 59.3577 47.0186 60.5814 50.3747 60.5814C53.7308 60.5814 57.0912 59.3522 59.658 56.8911C62.2249 54.43 63.5012 51.2136 63.5012 47.9957C63.5012 44.7779 62.2192 41.5559 59.6537 39.0962ZM56.2232 53.6087C54.6103 55.1552 52.4918 55.9284 50.3747 55.9284C48.2576 55.9284 46.1391 55.1552 44.5205 53.6032C42.9019 52.0513 42.1012 50.0256 42.1012 47.9957C42.1012 45.9659 42.9076 43.9346 44.5262 42.3827C46.1448 40.8308 48.2576 40.0631 50.3747 40.0631C52.4918 40.0631 54.6103 40.8363 56.2289 42.3882C57.8475 43.9401 58.6482 45.9659 58.6482 47.9957C58.6482 50.0256 57.8418 52.0568 56.2232 53.6087ZM59.6537 39.0962C57.0912 36.6392 53.7308 35.41 50.3747 35.41C47.0186 35.41 43.6582 36.6392 41.0913 39.1003C38.5245 41.5614 37.2482 44.7779 37.2482 47.9957C37.2482 51.2136 38.5302 54.4355 41.0971 56.8966C43.6639 59.3577 47.0186 60.5814 50.3747 60.5814C53.7308 60.5814 57.0912 59.3522 59.658 56.8911C62.2249 54.43 63.5012 51.2136 63.5012 47.9957C63.5012 44.7779 62.2192 41.5559 59.6537 39.0962ZM56.2232 53.6087C54.6103 55.1552 52.4918 55.9284 50.3747 55.9284C48.2576 55.9284 46.1391 55.1552 44.5205 53.6032C42.9019 52.0513 42.1012 50.0256 42.1012 47.9957C42.1012 45.9659 42.9076 43.9346 44.5262 42.3827C46.1448 40.8308 48.2576 40.0631 50.3747 40.0631C52.4918 40.0631 54.6103 40.8363 56.2289 42.3882C57.8475 43.9401 58.6482 45.9659 58.6482 47.9957C58.6482 50.0256 57.8418 52.0568 56.2232 53.6087ZM59.6537 39.0962C57.0912 36.6392 53.7308 35.41 50.3747 35.41C47.0186 35.41 43.6582 36.6392 41.0913 39.1003C38.5245 41.5614 37.2482 44.7779 37.2482 47.9957C37.2482 51.2136 38.5302 54.4355 41.0971 56.8966C43.6639 59.3577 47.0186 60.5814 50.3747 60.5814C53.7308 60.5814 57.0912 59.3522 59.658 56.8911C62.2249 54.43 63.5012 51.2136 63.5012 47.9957C63.5012 44.7779 62.2192 41.5559 59.6537 39.0962ZM56.2232 53.6087C54.6103 55.1552 52.4918 55.9284 50.3747 55.9284C48.2576 55.9284 46.1391 55.1552 44.5205 53.6032C42.9019 52.0513 42.1012 50.0256 42.1012 47.9957C42.1012 45.9659 42.9076 43.9346 44.5262 42.3827C46.1448 40.8308 48.2576 40.0631 50.3747 40.0631C52.4918 40.0631 54.6103 40.8363 56.2289 42.3882C57.8475 43.9401 58.6482 45.9659 58.6482 47.9957C58.6482 50.0256 57.8418 52.0568 56.2232 53.6087ZM59.6537 39.0962C57.0912 36.6392 53.7308 35.41 50.3747 35.41C47.0186 35.41 43.6582 36.6392 41.0913 39.1003C38.5245 41.5614 37.2482 44.7779 37.2482 47.9957C37.2482 51.2136 38.5302 54.4355 41.0971 56.8966C43.6639 59.3577 47.0186 60.5814 50.3747 60.5814C53.7308 60.5814 57.0912 59.3522 59.658 56.8911C62.2249 54.43 63.5012 51.2136 63.5012 47.9957C63.5012 44.7779 62.2192 41.5559 59.6537 39.0962ZM56.2232 53.6087C54.6103 55.1552 52.4918 55.9284 50.3747 55.9284C48.2576 55.9284 46.1391 55.1552 44.5205 53.6032C42.9019 52.0513 42.1012 50.0256 42.1012 47.9957C42.1012 45.9659 42.9076 43.9346 44.5262 42.3827C46.1448 40.8308 48.2576 40.0631 50.3747 40.0631C52.4918 40.0631 54.6103 40.8363 56.2289 42.3882C57.8475 43.9401 58.6482 45.9659 58.6482 47.9957C58.6482 50.0256 57.8418 52.0568 56.2232 53.6087ZM78.8836 44.2903C78.8836 43.1147 77.9554 42.1039 76.7107 41.983L73.1054 41.626C72.8661 40.8431 72.5825 40.0699 72.2545 39.3091C71.9279 38.5537 71.5584 37.8121 71.1458 37.0883L73.3217 34.5242C74.2183 33.6123 74.2011 32.1771 73.2715 31.2858L67.7998 26.0477C66.9346 25.2168 65.5352 25.1316 64.564 25.8884L61.7536 28.0803C60.9988 27.6834 60.2281 27.329 59.4389 27.02C58.6439 26.7055 57.836 26.4336 57.0196 26.2042L56.6658 22.926C56.6357 21.6679 55.56 20.6558 54.2407 20.6558L46.5101 20.6626C45.284 20.6626 44.2297 21.5526 44.1037 22.7461L43.7327 26.2029C42.9176 26.4308 42.1112 26.7028 41.3177 27.0173C40.5284 27.3304 39.7535 27.6847 39 28.0817L36.2241 25.9172C35.2758 25.1467 33.852 25.1879 32.9553 26.0436L27.4865 31.2858C26.6156 32.1153 26.5253 33.4598 27.316 34.3924L29.605 37.0911C29.1924 37.8121 28.8229 38.5537 28.4963 39.3104C28.1683 40.0699 27.8847 40.8445 27.6469 41.626L24.2278 41.9638C22.9157 41.9927 21.86 43.0241 21.86 44.289L21.8672 51.7039C21.8672 52.8795 22.7954 53.8903 24.0401 54.0111L27.6469 54.3668C27.8732 55.1112 28.1425 55.8487 28.4505 56.5753L28.4977 56.6947C28.82 57.4432 29.1896 58.1821 29.6035 58.9059L27.4292 61.4686C26.5325 62.3805 26.5497 63.8157 27.4793 64.7071L32.951 69.9451C33.8162 70.776 35.2157 70.8612 36.1868 70.1045L38.9972 67.9125C39.752 68.3094 40.5227 68.6638 41.3119 68.9728C42.1069 69.2873 42.9148 69.5592 43.7312 69.7886L44.0836 73.0682C44.1137 74.3263 45.1894 75.3384 46.5087 75.3384L54.2422 75.3316C55.4683 75.3316 56.5225 74.4416 56.6486 73.2481L57.0196 69.7886C57.8332 69.5606 58.6396 69.2887 59.4332 68.9742C60.221 68.661 60.9959 68.3067 61.7493 67.9112L64.4265 69.9973C65.3762 70.8571 66.873 70.8406 67.8026 69.9493L73.2658 64.7029C74.1324 63.8734 74.2212 62.5316 73.4319 61.6005L71.1458 58.9059C71.5612 58.1807 71.9308 57.4419 72.256 56.6838C72.584 55.9229 72.8676 55.1483 73.1054 54.3668L76.5231 54.0276C77.8351 53.9974 78.8908 52.9674 78.8908 51.7025L78.8836 44.2903ZM74.0378 49.6108L70.9267 49.9185C69.8524 50.0228 69.0144 50.7906 68.8039 51.7533C68.5661 52.8314 68.2266 53.8917 67.784 54.9121C67.3443 55.9284 66.8057 56.9145 66.1726 57.8456C65.5724 58.7315 65.6841 59.8631 66.3688 60.624L68.2982 62.8983L65.9162 65.1823L63.4883 63.2897C62.6532 62.6387 61.5015 62.6113 60.645 63.1441C59.6652 63.7553 58.6396 64.2717 57.594 64.6865C56.5254 65.1095 55.4182 65.4363 54.2937 65.6643C53.2137 65.8786 52.4531 66.7548 52.3743 67.7601L52.0592 70.6854H48.6916L48.3708 67.6997C48.2619 66.6696 47.4612 65.8662 46.4571 65.6643C45.3341 65.4363 44.2254 65.1095 43.1597 64.6851C42.1012 64.2648 41.0727 63.7484 40.1044 63.1428C39.1805 62.5673 38.0002 62.6745 37.2067 63.3309L34.8332 65.1823L32.4511 62.8983L34.4264 60.5704C35.1054 59.7697 35.134 58.6655 34.5782 57.8443C33.9466 56.9159 33.408 55.9298 32.9697 54.9148L32.9238 54.8146C32.5041 53.8244 32.1775 52.7943 31.9484 51.7533C31.7249 50.7178 30.811 49.9885 29.764 49.913L26.713 49.6122V46.3806L29.8256 46.0744C30.8999 45.97 31.7378 45.2023 31.9484 44.2395C32.1861 43.1614 32.5271 42.097 32.9682 41.0739C33.4008 40.0713 33.938 39.0893 34.5768 38.1499C35.177 37.2641 35.0653 36.1338 34.382 35.3729L32.4454 33.0904L34.8289 30.8064L37.2611 32.7031C38.0962 33.3541 39.2478 33.3815 40.1044 32.8487C41.087 32.2361 42.1112 31.7197 43.1569 31.305C44.224 30.882 45.3327 30.5551 46.4585 30.3271C47.5385 30.1129 48.2991 29.2367 48.3779 28.2327L48.6916 25.3088H52.0592L52.38 28.2932C52.4889 29.3232 53.2896 30.1266 54.2937 30.3285C55.4167 30.5565 56.5254 30.8834 57.5911 31.3077C58.6496 31.728 59.6781 32.2444 60.6464 32.85C61.5703 33.4255 62.7506 33.3184 63.5441 32.6619L65.9176 30.8106L68.2997 33.0945L66.3244 35.4224C65.6454 36.2231 65.6168 37.3273 66.1726 38.1486C66.8114 39.0893 67.35 40.0713 67.7826 41.0725C68.2238 42.0957 68.5661 43.16 68.8039 44.2395C69.0273 45.2737 69.9412 46.0029 70.9883 46.0799L74.0378 46.382V49.6108ZM50.3747 35.41C47.0186 35.41 43.6582 36.6392 41.0913 39.1003C38.5245 41.5614 37.2482 44.7779 37.2482 47.9957C37.2482 51.2136 38.5302 54.4355 41.0971 56.8966C43.6639 59.3577 47.0186 60.5814 50.3747 60.5814C53.7308 60.5814 57.0912 59.3522 59.658 56.8911C62.2249 54.43 63.5012 51.2136 63.5012 47.9957C63.5012 44.7779 62.2192 41.5559 59.6537 39.0962C57.0912 36.6392 53.7308 35.41 50.3747 35.41ZM56.2232 53.6087C54.6103 55.1552 52.4918 55.9284 50.3747 55.9284C48.2576 55.9284 46.1391 55.1552 44.5205 53.6032C42.9019 52.0513 42.1012 50.0256 42.1012 47.9957C42.1012 45.9659 42.9076 43.9346 44.5262 42.3827C46.1448 40.8308 48.2576 40.0631 50.3747 40.0631C52.4918 40.0631 54.6103 40.8363 56.2289 42.3882C57.8475 43.9401 58.6482 45.9659 58.6482 47.9957C58.6482 50.0256 57.8418 52.0568 56.2232 53.6087ZM78.8836 44.2903C78.8836 43.1147 77.9554 42.1039 76.7107 41.983L73.1054 41.626C72.8661 40.8431 72.5825 40.0699 72.2545 39.3091C71.9279 38.5537 71.5584 37.8121 71.1458 37.0883L73.3217 34.5242C74.2183 33.6123 74.2011 32.1771 73.2715 31.2858L67.7998 26.0477C66.9346 25.2168 65.5352 25.1316 64.564 25.8884L61.7536 28.0803C60.9988 27.6834 60.2281 27.329 59.4389 27.02C58.6439 26.7055 57.836 26.4336 57.0196 26.2042L56.6658 22.926C56.6357 21.6679 55.56 20.6558 54.2407 20.6558L46.5101 20.6626C45.284 20.6626 44.2297 21.5526 44.1037 22.7461L43.7327 26.2029C42.9176 26.4308 42.1112 26.7028 41.3177 27.0173C40.5284 27.3304 39.7535 27.6847 39 28.0817L36.2241 25.9172C35.2758 25.1467 33.852 25.1879 32.9553 26.0436L27.4865 31.2858C26.6156 32.1153 26.5253 33.4598 27.316 34.3924L29.605 37.0911C29.1924 37.8121 28.8229 38.5537 28.4963 39.3104C28.1683 40.0699 27.8847 40.8445 27.6469 41.626L24.2278 41.9638C22.9157 41.9927 21.86 43.0241 21.86 44.289L21.8672 51.7039C21.8672 52.8795 22.7954 53.8903 24.0401 54.0111L27.6469 54.3668C27.8732 55.1112 28.1425 55.8487 28.4505 56.5753L28.4977 56.6947C28.82 57.4432 29.1896 58.1821 29.6035 58.9059L27.4292 61.4686C26.5325 62.3805 26.5497 63.8157 27.4793 64.7071L32.951 69.9451C33.8162 70.776 35.2157 70.8612 36.1868 70.1045L38.9972 67.9125C39.752 68.3094 40.5227 68.6638 41.3119 68.9728C42.1069 69.2873 42.9148 69.5592 43.7312 69.7886L44.0836 73.0682C44.1137 74.3263 45.1894 75.3384 46.5087 75.3384L54.2422 75.3316C55.4683 75.3316 56.5225 74.4416 56.6486 73.2481L57.0196 69.7886C57.8332 69.5606 58.6396 69.2887 59.4332 68.9742C60.221 68.661 60.9959 68.3067 61.7493 67.9112L64.4265 69.9973C65.3762 70.8571 66.873 70.8406 67.8026 69.9493L73.2658 64.7029C74.1324 63.8734 74.2212 62.5316 73.4319 61.6005L71.1458 58.9059C71.5612 58.1807 71.9308 57.4419 72.256 56.6838C72.584 55.9229 72.8676 55.1483 73.1054 54.3668L76.5231 54.0276C77.8351 53.9974 78.8908 52.9674 78.8908 51.7025L78.8836 44.2903ZM74.0378 49.6108L70.9267 49.9185C69.8524 50.0228 69.0144 50.7906 68.8039 51.7533C68.5661 52.8314 68.2266 53.8917 67.784 54.9121C67.3443 55.9284 66.8057 56.9145 66.1726 57.8456C65.5724 58.7315 65.6841 59.8631 66.3688 60.624L68.2982 62.8983L65.9162 65.1823L63.4883 63.2897C62.6532 62.6387 61.5015 62.6113 60.645 63.1441C59.6652 63.7553 58.6396 64.2717 57.594 64.6865C56.5254 65.1095 55.4182 65.4363 54.2937 65.6643C53.2137 65.8786 52.4531 66.7548 52.3743 67.7601L52.0592 70.6854H48.6916L48.3708 67.6997C48.2619 66.6696 47.4612 65.8662 46.4571 65.6643C45.3341 65.4363 44.2254 65.1095 43.1597 64.6851C42.1012 64.2648 41.0727 63.7484 40.1044 63.1428C39.1805 62.5673 38.0002 62.6745 37.2067 63.3309L34.8332 65.1823L32.4511 62.8983L34.4264 60.5704C35.1054 59.7697 35.134 58.6655 34.5782 57.8443C33.9466 56.9159 33.408 55.9298 32.9697 54.9148L32.9238 54.8146C32.5041 53.8244 32.1775 52.7943 31.9484 51.7533C31.7249 50.7178 30.811 49.9885 29.764 49.913L26.713 49.6122V46.3806L29.8256 46.0744C30.8999 45.97 31.7378 45.2023 31.9484 44.2395C32.1861 43.1614 32.5271 42.097 32.9682 41.0739C33.4008 40.0713 33.938 39.0893 34.5768 38.1499C35.177 37.2641 35.0653 36.1338 34.382 35.3729L32.4454 33.0904L34.8289 30.8064L37.2611 32.7031C38.0962 33.3541 39.2478 33.3815 40.1044 32.8487C41.087 32.2361 42.1112 31.7197 43.1569 31.305C44.224 30.882 45.3327 30.5551 46.4585 30.3271C47.5385 30.1129 48.2991 29.2367 48.3779 28.2327L48.6916 25.3088H52.0592L52.38 28.2932C52.4889 29.3232 53.2896 30.1266 54.2937 30.3285C55.4167 30.5565 56.5254 30.8834 57.5911 31.3077C58.6496 31.728 59.6781 32.2444 60.6464 32.85C61.5703 33.4255 62.7506 33.3184 63.5441 32.6619L65.9176 30.8106L68.2997 33.0945L66.3244 35.4224C65.6454 36.2231 65.6168 37.3273 66.1726 38.1486C66.8114 39.0893 67.35 40.0713 67.7826 41.0725C68.2238 42.0957 68.5661 43.16 68.8039 44.2395C69.0273 45.2737 69.9412 46.0029 70.9883 46.0799L74.0378 46.382V49.6108ZM50.3747 35.41C47.0186 35.41 43.6582 36.6392 41.0913 39.1003C38.5245 41.5614 37.2482 44.7779 37.2482 47.9957C37.2482 51.2136 38.5302 54.4355 41.0971 56.8966C43.6639 59.3577 47.0186 60.5814 50.3747 60.5814C53.7308 60.5814 57.0912 59.3522 59.658 56.8911C62.2249 54.43 63.5012 51.2136 63.5012 47.9957C63.5012 44.7779 62.2192 41.5559 59.6537 39.0962C57.0912 36.6392 53.7308 35.41 50.3747 35.41ZM56.2232 53.6087C54.6103 55.1552 52.4918 55.9284 50.3747 55.9284C48.2576 55.9284 46.1391 55.1552 44.5205 53.6032C42.9019 52.0513 42.1012 50.0256 42.1012 47.9957C42.1012 45.9659 42.9076 43.9346 44.5262 42.3827C46.1448 40.8308 48.2576 40.0631 50.3747 40.0631C52.4918 40.0631 54.6103 40.8363 56.2289 42.3882C57.8475 43.9401 58.6482 45.9659 58.6482 47.9957C58.6482 50.0256 57.8418 52.0568 56.2232 53.6087ZM112.678 92.2585L92.6475 73.0531C91.768 72.2099 90.6078 71.7841 89.4533 71.7841C88.5552 71.7841 87.6571 72.0382 86.8879 72.5477L82.9832 68.8039C87.3534 62.5234 89.5392 55.2582 89.5392 47.9957C89.5392 38.3875 85.7133 28.7752 78.0643 21.4413C70.4168 14.1102 60.3943 10.4433 50.3747 10.4433C40.3551 10.4433 30.3326 14.1102 22.6822 21.4441C15.0361 28.7752 11.2102 38.3875 11.2102 47.9957C11.2102 57.6039 15.0361 67.2162 22.6822 74.5474C30.3283 81.8785 40.3537 85.5468 50.3747 85.5468C57.9492 85.5468 65.5266 83.4496 72.0769 79.2594L75.983 83.0047C75.4516 83.7435 75.1852 84.6033 75.1852 85.4644C75.1852 86.5713 75.6264 87.681 76.5087 88.527L96.5465 107.732C97.4303 108.577 98.5862 109 99.7336 109C100.881 109 102.047 108.574 102.926 107.731L112.678 98.3824C113.559 97.5378 114 96.4281 114 95.3212C114 94.2142 113.559 93.1032 112.678 92.2585ZM50.3747 80.8938C41.5927 80.8938 32.8092 77.6814 26.1114 71.2595C19.4135 64.8375 16.0631 56.4159 16.0631 47.9957C16.0631 39.5755 19.4135 31.1539 26.1142 24.7292C32.8121 18.3087 41.5941 15.0963 50.3747 15.0963C59.1553 15.0963 67.9373 18.3087 74.638 24.732C81.3359 31.1539 84.6863 39.5755 84.6863 47.9957C84.6863 56.4159 81.3359 64.8375 74.638 71.2595C67.9401 77.6814 59.1567 80.8938 50.3747 80.8938ZM75.9701 76.4165C76.6878 75.8232 77.3868 75.1997 78.0672 74.5474C78.7476 73.895 79.3979 73.2248 80.0181 72.5367L83.4071 75.7862L79.3606 79.6673L75.9701 76.4165ZM99.7321 104.219L80.1728 85.4644L89.4533 76.5662L109.013 95.3198L99.7321 104.219ZM78.8836 44.2903C78.8836 43.1147 77.9554 42.1039 76.7107 41.983L73.1054 41.626C72.8661 40.8431 72.5825 40.0699 72.2545 39.3091C71.9279 38.5537 71.5584 37.8121 71.1458 37.0883L73.3217 34.5242C74.2183 33.6123 74.2011 32.1771 73.2715 31.2858L67.7998 26.0477C66.9346 25.2168 65.5352 25.1316 64.564 25.8884L61.7536 28.0803C60.9988 27.6834 60.2281 27.329 59.4389 27.02C58.6439 26.7055 57.836 26.4336 57.0196 26.2042L56.6658 22.926C56.6357 21.6679 55.56 20.6558 54.2407 20.6558L46.5101 20.6626C45.284 20.6626 44.2297 21.5526 44.1037 22.7461L43.7327 26.2029C42.9176 26.4308 42.1112 26.7028 41.3177 27.0173C40.5284 27.3304 39.7535 27.6847 39 28.0817L36.2241 25.9172C35.2758 25.1467 33.852 25.1879 32.9553 26.0436L27.4865 31.2858C26.6156 32.1153 26.5253 33.4598 27.316 34.3924L29.605 37.0911C29.1924 37.8121 28.8229 38.5537 28.4963 39.3104C28.1683 40.0699 27.8847 40.8445 27.6469 41.626L24.2278 41.9638C22.9157 41.9927 21.86 43.0241 21.86 44.289L21.8672 51.7039C21.8672 52.8795 22.7954 53.8903 24.0401 54.0111L27.6469 54.3668C27.8732 55.1112 28.1425 55.8487 28.4505 56.5753L28.4977 56.6947C28.82 57.4432 29.1896 58.1821 29.6035 58.9059L27.4292 61.4686C26.5325 62.3805 26.5497 63.8157 27.4793 64.7071L32.951 69.9451C33.8162 70.776 35.2157 70.8612 36.1868 70.1045L38.9972 67.9125C39.752 68.3094 40.5227 68.6638 41.3119 68.9728C42.1069 69.2873 42.9148 69.5592 43.7312 69.7886L44.0836 73.0682C44.1137 74.3263 45.1894 75.3384 46.5087 75.3384L54.2422 75.3316C55.4683 75.3316 56.5225 74.4416 56.6486 73.2481L57.0196 69.7886C57.8332 69.5606 58.6396 69.2887 59.4332 68.9742C60.221 68.661 60.9959 68.3067 61.7493 67.9112L64.4265 69.9973C65.3762 70.8571 66.873 70.8406 67.8026 69.9493L73.2658 64.7029C74.1324 63.8734 74.2212 62.5316 73.4319 61.6005L71.1458 58.9059C71.5612 58.1807 71.9308 57.4419 72.256 56.6838C72.584 55.9229 72.8676 55.1483 73.1054 54.3668L76.5231 54.0276C77.8351 53.9974 78.8908 52.9674 78.8908 51.7025L78.8836 44.2903ZM74.0378 49.6108L70.9267 49.9185C69.8524 50.0228 69.0144 50.7906 68.8039 51.7533C68.5661 52.8314 68.2266 53.8917 67.784 54.9121C67.3443 55.9284 66.8057 56.9145 66.1726 57.8456C65.5724 58.7315 65.6841 59.8631 66.3688 60.624L68.2982 62.8983L65.9162 65.1823L63.4883 63.2897C62.6532 62.6387 61.5015 62.6113 60.645 63.1441C59.6652 63.7553 58.6396 64.2717 57.594 64.6865C56.5254 65.1095 55.4182 65.4363 54.2937 65.6643C53.2137 65.8786 52.4531 66.7548 52.3743 67.7601L52.0592 70.6854H48.6916L48.3708 67.6997C48.2619 66.6696 47.4612 65.8662 46.4571 65.6643C45.3341 65.4363 44.2254 65.1095 43.1597 64.6851C42.1012 64.2648 41.0727 63.7484 40.1044 63.1428C39.1805 62.5673 38.0002 62.6745 37.2067 63.3309L34.8332 65.1823L32.4511 62.8983L34.4264 60.5704C35.1054 59.7697 35.134 58.6655 34.5782 57.8443C33.9466 56.9159 33.408 55.9298 32.9697 54.9148L32.9238 54.8146C32.5041 53.8244 32.1775 52.7943 31.9484 51.7533C31.7249 50.7178 30.811 49.9885 29.764 49.913L26.713 49.6122V46.3806L29.8256 46.0744C30.8999 45.97 31.7378 45.2023 31.9484 44.2395C32.1861 43.1614 32.5271 42.097 32.9682 41.0739C33.4008 40.0713 33.938 39.0893 34.5768 38.1499C35.177 37.2641 35.0653 36.1338 34.382 35.3729L32.4454 33.0904L34.8289 30.8064L37.2611 32.7031C38.0962 33.3541 39.2478 33.3815 40.1044 32.8487C41.087 32.2361 42.1112 31.7197 43.1569 31.305C44.224 30.882 45.3327 30.5551 46.4585 30.3271C47.5385 30.1129 48.2991 29.2367 48.3779 28.2327L48.6916 25.3088H52.0592L52.38 28.2932C52.4889 29.3232 53.2896 30.1266 54.2937 30.3285C55.4167 30.5565 56.5254 30.8834 57.5911 31.3077C58.6496 31.728 59.6781 32.2444 60.6464 32.85C61.5703 33.4255 62.7506 33.3184 63.5441 32.6619L65.9176 30.8106L68.2997 33.0945L66.3244 35.4224C65.6454 36.2231 65.6168 37.3273 66.1726 38.1486C66.8114 39.0893 67.35 40.0713 67.7826 41.0725C68.2238 42.0957 68.5661 43.16 68.8039 44.2395C69.0273 45.2737 69.9412 46.0029 70.9883 46.0799L74.0378 46.382V49.6108ZM50.3747 35.41C47.0186 35.41 43.6582 36.6392 41.0913 39.1003C38.5245 41.5614 37.2482 44.7779 37.2482 47.9957C37.2482 51.2136 38.5302 54.4355 41.0971 56.8966C43.6639 59.3577 47.0186 60.5814 50.3747 60.5814C53.7308 60.5814 57.0912 59.3522 59.658 56.8911C62.2249 54.43 63.5012 51.2136 63.5012 47.9957C63.5012 44.7779 62.2192 41.5559 59.6537 39.0962C57.0912 36.6392 53.7308 35.41 50.3747 35.41ZM56.2232 53.6087C54.6103 55.1552 52.4918 55.9284 50.3747 55.9284C48.2576 55.9284 46.1391 55.1552 44.5205 53.6032C42.9019 52.0513 42.1012 50.0256 42.1012 47.9957C42.1012 45.9659 42.9076 43.9346 44.5262 42.3827C46.1448 40.8308 48.2576 40.0631 50.3747 40.0631C52.4918 40.0631 54.6103 40.8363 56.2289 42.3882C57.8475 43.9401 58.6482 45.9659 58.6482 47.9957C58.6482 50.0256 57.8418 52.0568 56.2232 53.6087ZM59.6537 39.0962C57.0912 36.6392 53.7308 35.41 50.3747 35.41C47.0186 35.41 43.6582 36.6392 41.0913 39.1003C38.5245 41.5614 37.2482 44.7779 37.2482 47.9957C37.2482 51.2136 38.5302 54.4355 41.0971 56.8966C43.6639 59.3577 47.0186 60.5814 50.3747 60.5814C53.7308 60.5814 57.0912 59.3522 59.658 56.8911C62.2249 54.43 63.5012 51.2136 63.5012 47.9957C63.5012 44.7779 62.2192 41.5559 59.6537 39.0962ZM56.2232 53.6087C54.6103 55.1552 52.4918 55.9284 50.3747 55.9284C48.2576 55.9284 46.1391 55.1552 44.5205 53.6032C42.9019 52.0513 42.1012 50.0256 42.1012 47.9957C42.1012 45.9659 42.9076 43.9346 44.5262 42.3827C46.1448 40.8308 48.2576 40.0631 50.3747 40.0631C52.4918 40.0631 54.6103 40.8363 56.2289 42.3882C57.8475 43.9401 58.6482 45.9659 58.6482 47.9957C58.6482 50.0256 57.8418 52.0568 56.2232 53.6087ZM59.6537 39.0962C57.0912 36.6392 53.7308 35.41 50.3747 35.41C47.0186 35.41 43.6582 36.6392 41.0913 39.1003C38.5245 41.5614 37.2482 44.7779 37.2482 47.9957C37.2482 51.2136 38.5302 54.4355 41.0971 56.8966C43.6639 59.3577 47.0186 60.5814 50.3747 60.5814C53.7308 60.5814 57.0912 59.3522 59.658 56.8911C62.2249 54.43 63.5012 51.2136 63.5012 47.9957C63.5012 44.7779 62.2192 41.5559 59.6537 39.0962ZM56.2232 53.6087C54.6103 55.1552 52.4918 55.9284 50.3747 55.9284C48.2576 55.9284 46.1391 55.1552 44.5205 53.6032C42.9019 52.0513 42.1012 50.0256 42.1012 47.9957C42.1012 45.9659 42.9076 43.9346 44.5262 42.3827C46.1448 40.8308 48.2576 40.0631 50.3747 40.0631C52.4918 40.0631 54.6103 40.8363 56.2289 42.3882C57.8475 43.9401 58.6482 45.9659 58.6482 47.9957C58.6482 50.0256 57.8418 52.0568 56.2232 53.6087ZM78.8836 44.2903C78.8836 43.1147 77.9554 42.1039 76.7107 41.983L73.1054 41.626C72.8661 40.8431 72.5825 40.0699 72.2545 39.3091C71.9279 38.5537 71.5584 37.8121 71.1458 37.0883L73.3217 34.5242C74.2183 33.6123 74.2011 32.1771 73.2715 31.2858L67.7998 26.0477C66.9346 25.2168 65.5352 25.1316 64.564 25.8884L61.7536 28.0803C60.9988 27.6834 60.2281 27.329 59.4389 27.02C58.6439 26.7055 57.836 26.4336 57.0196 26.2042L56.6658 22.926C56.6357 21.6679 55.56 20.6558 54.2407 20.6558L46.5101 20.6626C45.284 20.6626 44.2297 21.5526 44.1037 22.7461L43.7327 26.2029C42.9176 26.4308 42.1112 26.7028 41.3177 27.0173C40.5284 27.3304 39.7535 27.6847 39 28.0817L36.2241 25.9172C35.2758 25.1467 33.852 25.1879 32.9553 26.0436L27.4865 31.2858C26.6156 32.1153 26.5253 33.4598 27.316 34.3924L29.605 37.0911C29.1924 37.8121 28.8229 38.5537 28.4963 39.3104C28.1683 40.0699 27.8847 40.8445 27.6469 41.626L24.2278 41.9638C22.9157 41.9927 21.86 43.0241 21.86 44.289L21.8672 51.7039C21.8672 52.8795 22.7954 53.8903 24.0401 54.0111L27.6469 54.3668C27.8732 55.1112 28.1425 55.8487 28.4505 56.5753L28.4977 56.6947C28.82 57.4432 29.1896 58.1821 29.6035 58.9059L27.4292 61.4686C26.5325 62.3805 26.5497 63.8157 27.4793 64.7071L32.951 69.9451C33.8162 70.776 35.2157 70.8612 36.1868 70.1045L38.9972 67.9125C39.752 68.3094 40.5227 68.6638 41.3119 68.9728C42.1069 69.2873 42.9148 69.5592 43.7312 69.7886L44.0836 73.0682C44.1137 74.3263 45.1894 75.3384 46.5087 75.3384L54.2422 75.3316C55.4683 75.3316 56.5225 74.4416 56.6486 73.2481L57.0196 69.7886C57.8332 69.5606 58.6396 69.2887 59.4332 68.9742C60.221 68.661 60.9959 68.3067 61.7493 67.9112L64.4265 69.9973C65.3762 70.8571 66.873 70.8406 67.8026 69.9493L73.2658 64.7029C74.1324 63.8734 74.2212 62.5316 73.4319 61.6005L71.1458 58.9059C71.5612 58.1807 71.9308 57.4419 72.256 56.6838C72.584 55.9229 72.8676 55.1483 73.1054 54.3668L76.5231 54.0276C77.8351 53.9974 78.8908 52.9674 78.8908 51.7025L78.8836 44.2903ZM74.0378 49.6108L70.9267 49.9185C69.8524 50.0228 69.0144 50.7906 68.8039 51.7533C68.5661 52.8314 68.2266 53.8917 67.784 54.9121C67.3443 55.9284 66.8057 56.9145 66.1726 57.8456C65.5724 58.7315 65.6841 59.8631 66.3688 60.624L68.2982 62.8983L65.9162 65.1823L63.4883 63.2897C62.6532 62.6387 61.5015 62.6113 60.645 63.1441C59.6652 63.7553 58.6396 64.2717 57.594 64.6865C56.5254 65.1095 55.4182 65.4363 54.2937 65.6643C53.2137 65.8786 52.4531 66.7548 52.3743 67.7601L52.0592 70.6854H48.6916L48.3708 67.6997C48.2619 66.6696 47.4612 65.8662 46.4571 65.6643C45.3341 65.4363 44.2254 65.1095 43.1597 64.6851C42.1012 64.2648 41.0727 63.7484 40.1044 63.1428C39.1805 62.5673 38.0002 62.6745 37.2067 63.3309L34.8332 65.1823L32.4511 62.8983L34.4264 60.5704C35.1054 59.7697 35.134 58.6655 34.5782 57.8443C33.9466 56.9159 33.408 55.9298 32.9697 54.9148L32.9238 54.8146C32.5041 53.8244 32.1775 52.7943 31.9484 51.7533C31.7249 50.7178 30.811 49.9885 29.764 49.913L26.713 49.6122V46.3806L29.8256 46.0744C30.8999 45.97 31.7378 45.2023 31.9484 44.2395C32.1861 43.1614 32.5271 42.097 32.9682 41.0739C33.4008 40.0713 33.938 39.0893 34.5768 38.1499C35.177 37.2641 35.0653 36.1338 34.382 35.3729L32.4454 33.0904L34.8289 30.8064L37.2611 32.7031C38.0962 33.3541 39.2478 33.3815 40.1044 32.8487C41.087 32.2361 42.1112 31.7197 43.1569 31.305C44.224 30.882 45.3327 30.5551 46.4585 30.3271C47.5385 30.1129 48.2991 29.2367 48.3779 28.2327L48.6916 25.3088H52.0592L52.38 28.2932C52.4889 29.3232 53.2896 30.1266 54.2937 30.3285C55.4167 30.5565 56.5254 30.8834 57.5911 31.3077C58.6496 31.728 59.6781 32.2444 60.6464 32.85C61.5703 33.4255 62.7506 33.3184 63.5441 32.6619L65.9176 30.8106L68.2997 33.0945L66.3244 35.4224C65.6454 36.2231 65.6168 37.3273 66.1726 38.1486C66.8114 39.0893 67.35 40.0713 67.7826 41.0725C68.2238 42.0957 68.5661 43.16 68.8039 44.2395C69.0273 45.2737 69.9412 46.0029 70.9883 46.0799L74.0378 46.382V49.6108ZM50.3747 35.41C47.0186 35.41 43.6582 36.6392 41.0913 39.1003C38.5245 41.5614 37.2482 44.7779 37.2482 47.9957C37.2482 51.2136 38.5302 54.4355 41.0971 56.8966C43.6639 59.3577 47.0186 60.5814 50.3747 60.5814C53.7308 60.5814 57.0912 59.3522 59.658 56.8911C62.2249 54.43 63.5012 51.2136 63.5012 47.9957C63.5012 44.7779 62.2192 41.5559 59.6537 39.0962C57.0912 36.6392 53.7308 35.41 50.3747 35.41ZM56.2232 53.6087C54.6103 55.1552 52.4918 55.9284 50.3747 55.9284C48.2576 55.9284 46.1391 55.1552 44.5205 53.6032C42.9019 52.0513 42.1012 50.0256 42.1012 47.9957C42.1012 45.9659 42.9076 43.9346 44.5262 42.3827C46.1448 40.8308 48.2576 40.0631 50.3747 40.0631C52.4918 40.0631 54.6103 40.8363 56.2289 42.3882C57.8475 43.9401 58.6482 45.9659 58.6482 47.9957C58.6482 50.0256 57.8418 52.0568 56.2232 53.6087ZM59.6537 39.0962C57.0912 36.6392 53.7308 35.41 50.3747 35.41C47.0186 35.41 43.6582 36.6392 41.0913 39.1003C38.5245 41.5614 37.2482 44.7779 37.2482 47.9957C37.2482 51.2136 38.5302 54.4355 41.0971 56.8966C43.6639 59.3577 47.0186 60.5814 50.3747 60.5814C53.7308 60.5814 57.0912 59.3522 59.658 56.8911C62.2249 54.43 63.5012 51.2136 63.5012 47.9957C63.5012 44.7779 62.2192 41.5559 59.6537 39.0962ZM56.2232 53.6087C54.6103 55.1552 52.4918 55.9284 50.3747 55.9284C48.2576 55.9284 46.1391 55.1552 44.5205 53.6032C42.9019 52.0513 42.1012 50.0256 42.1012 47.9957C42.1012 45.9659 42.9076 43.9346 44.5262 42.3827C46.1448 40.8308 48.2576 40.0631 50.3747 40.0631C52.4918 40.0631 54.6103 40.8363 56.2289 42.3882C57.8475 43.9401 58.6482 45.9659 58.6482 47.9957C58.6482 50.0256 57.8418 52.0568 56.2232 53.6087ZM59.6537 39.0962C57.0912 36.6392 53.7308 35.41 50.3747 35.41C47.0186 35.41 43.6582 36.6392 41.0913 39.1003C38.5245 41.5614 37.2482 44.7779 37.2482 47.9957C37.2482 51.2136 38.5302 54.4355 41.0971 56.8966C43.6639 59.3577 47.0186 60.5814 50.3747 60.5814C53.7308 60.5814 57.0912 59.3522 59.658 56.8911C62.2249 54.43 63.5012 51.2136 63.5012 47.9957C63.5012 44.7779 62.2192 41.5559 59.6537 39.0962ZM56.2232 53.6087C54.6103 55.1552 52.4918 55.9284 50.3747 55.9284C48.2576 55.9284 46.1391 55.1552 44.5205 53.6032C42.9019 52.0513 42.1012 50.0256 42.1012 47.9957C42.1012 45.9659 42.9076 43.9346 44.5262 42.3827C46.1448 40.8308 48.2576 40.0631 50.3747 40.0631C52.4918 40.0631 54.6103 40.8363 56.2289 42.3882C57.8475 43.9401 58.6482 45.9659 58.6482 47.9957C58.6482 50.0256 57.8418 52.0568 56.2232 53.6087ZM78.8836 44.2903C78.8836 43.1147 77.9554 42.1039 76.7107 41.983L73.1054 41.626C72.8661 40.8431 72.5825 40.0699 72.2545 39.3091C71.9279 38.5537 71.5584 37.8121 71.1458 37.0883L73.3217 34.5242C74.2183 33.6123 74.2011 32.1771 73.2715 31.2858L67.7998 26.0477C66.9346 25.2168 65.5352 25.1316 64.564 25.8884L61.7536 28.0803C60.9988 27.6834 60.2281 27.329 59.4389 27.02C58.6439 26.7055 57.836 26.4336 57.0196 26.2042L56.6658 22.926C56.6357 21.6679 55.56 20.6558 54.2407 20.6558L46.5101 20.6626C45.284 20.6626 44.2297 21.5526 44.1037 22.7461L43.7327 26.2029C42.9176 26.4308 42.1112 26.7028 41.3177 27.0173C40.5284 27.3304 39.7535 27.6847 39 28.0817L36.2241 25.9172C35.2758 25.1467 33.852 25.1879 32.9553 26.0436L27.4865 31.2858C26.6156 32.1153 26.5253 33.4598 27.316 34.3924L29.605 37.0911C29.1924 37.8121 28.8229 38.5537 28.4963 39.3104C28.1683 40.0699 27.8847 40.8445 27.6469 41.626L24.2278 41.9638C22.9157 41.9927 21.86 43.0241 21.86 44.289L21.8672 51.7039C21.8672 52.8795 22.7954 53.8903 24.0401 54.0111L27.6469 54.3668C27.8732 55.1112 28.1425 55.8487 28.4505 56.5753L28.4977 56.6947C28.82 57.4432 29.1896 58.1821 29.6035 58.9059L27.4292 61.4686C26.5325 62.3805 26.5497 63.8157 27.4793 64.7071L32.951 69.9451C33.8162 70.776 35.2157 70.8612 36.1868 70.1045L38.9972 67.9125C39.752 68.3094 40.5227 68.6638 41.3119 68.9728C42.1069 69.2873 42.9148 69.5592 43.7312 69.7886L44.0836 73.0682C44.1137 74.3263 45.1894 75.3384 46.5087 75.3384L54.2422 75.3316C55.4683 75.3316 56.5225 74.4416 56.6486 73.2481L57.0196 69.7886C57.8332 69.5606 58.6396 69.2887 59.4332 68.9742C60.221 68.661 60.9959 68.3067 61.7493 67.9112L64.4265 69.9973C65.3762 70.8571 66.873 70.8406 67.8026 69.9493L73.2658 64.7029C74.1324 63.8734 74.2212 62.5316 73.4319 61.6005L71.1458 58.9059C71.5612 58.1807 71.9308 57.4419 72.256 56.6838C72.584 55.9229 72.8676 55.1483 73.1054 54.3668L76.5231 54.0276C77.8351 53.9974 78.8908 52.9674 78.8908 51.7025L78.8836 44.2903ZM74.0378 49.6108L70.9267 49.9185C69.8524 50.0228 69.0144 50.7906 68.8039 51.7533C68.5661 52.8314 68.2266 53.8917 67.784 54.9121C67.3443 55.9284 66.8057 56.9145 66.1726 57.8456C65.5724 58.7315 65.6841 59.8631 66.3688 60.624L68.2982 62.8983L65.9162 65.1823L63.4883 63.2897C62.6532 62.6387 61.5015 62.6113 60.645 63.1441C59.6652 63.7553 58.6396 64.2717 57.594 64.6865C56.5254 65.1095 55.4182 65.4363 54.2937 65.6643C53.2137 65.8786 52.4531 66.7548 52.3743 67.7601L52.0592 70.6854H48.6916L48.3708 67.6997C48.2619 66.6696 47.4612 65.8662 46.4571 65.6643C45.3341 65.4363 44.2254 65.1095 43.1597 64.6851C42.1012 64.2648 41.0727 63.7484 40.1044 63.1428C39.1805 62.5673 38.0002 62.6745 37.2067 63.3309L34.8332 65.1823L32.4511 62.8983L34.4264 60.5704C35.1054 59.7697 35.134 58.6655 34.5782 57.8443C33.9466 56.9159 33.408 55.9298 32.9697 54.9148L32.9238 54.8146C32.5041 53.8244 32.1775 52.7943 31.9484 51.7533C31.7249 50.7178 30.811 49.9885 29.764 49.913L26.713 49.6122V46.3806L29.8256 46.0744C30.8999 45.97 31.7378 45.2023 31.9484 44.2395C32.1861 43.1614 32.5271 42.097 32.9682 41.0739C33.4008 40.0713 33.938 39.0893 34.5768 38.1499C35.177 37.2641 35.0653 36.1338 34.382 35.3729L32.4454 33.0904L34.8289 30.8064L37.2611 32.7031C38.0962 33.3541 39.2478 33.3815 40.1044 32.8487C41.087 32.2361 42.1112 31.7197 43.1569 31.305C44.224 30.882 45.3327 30.5551 46.4585 30.3271C47.5385 30.1129 48.2991 29.2367 48.3779 28.2327L48.6916 25.3088H52.0592L52.38 28.2932C52.4889 29.3232 53.2896 30.1266 54.2937 30.3285C55.4167 30.5565 56.5254 30.8834 57.5911 31.3077C58.6496 31.728 59.6781 32.2444 60.6464 32.85C61.5703 33.4255 62.7506 33.3184 63.5441 32.6619L65.9176 30.8106L68.2997 33.0945L66.3244 35.4224C65.6454 36.2231 65.6168 37.3273 66.1726 38.1486C66.8114 39.0893 67.35 40.0713 67.7826 41.0725C68.2238 42.0957 68.5661 43.16 68.8039 44.2395C69.0273 45.2737 69.9412 46.0029 70.9883 46.0799L74.0378 46.382V49.6108ZM50.3747 35.41C47.0186 35.41 43.6582 36.6392 41.0913 39.1003C38.5245 41.5614 37.2482 44.7779 37.2482 47.9957C37.2482 51.2136 38.5302 54.4355 41.0971 56.8966C43.6639 59.3577 47.0186 60.5814 50.3747 60.5814C53.7308 60.5814 57.0912 59.3522 59.658 56.8911C62.2249 54.43 63.5012 51.2136 63.5012 47.9957C63.5012 44.7779 62.2192 41.5559 59.6537 39.0962C57.0912 36.6392 53.7308 35.41 50.3747 35.41ZM56.2232 53.6087C54.6103 55.1552 52.4918 55.9284 50.3747 55.9284C48.2576 55.9284 46.1391 55.1552 44.5205 53.6032C42.9019 52.0513 42.1012 50.0256 42.1012 47.9957C42.1012 45.9659 42.9076 43.9346 44.5262 42.3827C46.1448 40.8308 48.2576 40.0631 50.3747 40.0631C52.4918 40.0631 54.6103 40.8363 56.2289 42.3882C57.8475 43.9401 58.6482 45.9659 58.6482 47.9957C58.6482 50.0256 57.8418 52.0568 56.2232 53.6087ZM59.6537 39.0962C57.0912 36.6392 53.7308 35.41 50.3747 35.41C47.0186 35.41 43.6582 36.6392 41.0913 39.1003C38.5245 41.5614 37.2482 44.7779 37.2482 47.9957C37.2482 51.2136 38.5302 54.4355 41.0971 56.8966C43.6639 59.3577 47.0186 60.5814 50.3747 60.5814C53.7308 60.5814 57.0912 59.3522 59.658 56.8911C62.2249 54.43 63.5012 51.2136 63.5012 47.9957C63.5012 44.7779 62.2192 41.5559 59.6537 39.0962ZM56.2232 53.6087C54.6103 55.1552 52.4918 55.9284 50.3747 55.9284C48.2576 55.9284 46.1391 55.1552 44.5205 53.6032C42.9019 52.0513 42.1012 50.0256 42.1012 47.9957C42.1012 45.9659 42.9076 43.9346 44.5262 42.3827C46.1448 40.8308 48.2576 40.0631 50.3747 40.0631C52.4918 40.0631 54.6103 40.8363 56.2289 42.3882C57.8475 43.9401 58.6482 45.9659 58.6482 47.9957C58.6482 50.0256 57.8418 52.0568 56.2232 53.6087ZM59.6537 39.0962C57.0912 36.6392 53.7308 35.41 50.3747 35.41C47.0186 35.41 43.6582 36.6392 41.0913 39.1003C38.5245 41.5614 37.2482 44.7779 37.2482 47.9957C37.2482 51.2136 38.5302 54.4355 41.0971 56.8966C43.6639 59.3577 47.0186 60.5814 50.3747 60.5814C53.7308 60.5814 57.0912 59.3522 59.658 56.8911C62.2249 54.43 63.5012 51.2136 63.5012 47.9957C63.5012 44.7779 62.2192 41.5559 59.6537 39.0962ZM56.2232 53.6087C54.6103 55.1552 52.4918 55.9284 50.3747 55.9284C48.2576 55.9284 46.1391 55.1552 44.5205 53.6032C42.9019 52.0513 42.1012 50.0256 42.1012 47.9957C42.1012 45.9659 42.9076 43.9346 44.5262 42.3827C46.1448 40.8308 48.2576 40.0631 50.3747 40.0631C52.4918 40.0631 54.6103 40.8363 56.2289 42.3882C57.8475 43.9401 58.6482 45.9659 58.6482 47.9957C58.6482 50.0256 57.8418 52.0568 56.2232 53.6087ZM59.6537 39.0962C57.0912 36.6392 53.7308 35.41 50.3747 35.41C47.0186 35.41 43.6582 36.6392 41.0913 39.1003C38.5245 41.5614 37.2482 44.7779 37.2482 47.9957C37.2482 51.2136 38.5302 54.4355 41.0971 56.8966C43.6639 59.3577 47.0186 60.5814 50.3747 60.5814C53.7308 60.5814 57.0912 59.3522 59.658 56.8911C62.2249 54.43 63.5012 51.2136 63.5012 47.9957C63.5012 44.7779 62.2192 41.5559 59.6537 39.0962ZM56.2232 53.6087C54.6103 55.1552 52.4918 55.9284 50.3747 55.9284C48.2576 55.9284 46.1391 55.1552 44.5205 53.6032C42.9019 52.0513 42.1012 50.0256 42.1012 47.9957C42.1012 45.9659 42.9076 43.9346 44.5262 42.3827C46.1448 40.8308 48.2576 40.0631 50.3747 40.0631C52.4918 40.0631 54.6103 40.8363 56.2289 42.3882C57.8475 43.9401 58.6482 45.9659 58.6482 47.9957C58.6482 50.0256 57.8418 52.0568 56.2232 53.6087ZM59.6537 39.0962C57.0912 36.6392 53.7308 35.41 50.3747 35.41C47.0186 35.41 43.6582 36.6392 41.0913 39.1003C38.5245 41.5614 37.2482 44.7779 37.2482 47.9957C37.2482 51.2136 38.5302 54.4355 41.0971 56.8966C43.6639 59.3577 47.0186 60.5814 50.3747 60.5814C53.7308 60.5814 57.0912 59.3522 59.658 56.8911C62.2249 54.43 63.5012 51.2136 63.5012 47.9957C63.5012 44.7779 62.2192 41.5559 59.6537 39.0962ZM56.2232 53.6087C54.6103 55.1552 52.4918 55.9284 50.3747 55.9284C48.2576 55.9284 46.1391 55.1552 44.5205 53.6032C42.9019 52.0513 42.1012 50.0256 42.1012 47.9957C42.1012 45.9659 42.9076 43.9346 44.5262 42.3827C46.1448 40.8308 48.2576 40.0631 50.3747 40.0631C52.4918 40.0631 54.6103 40.8363 56.2289 42.3882C57.8475 43.9401 58.6482 45.9659 58.6482 47.9957C58.6482 50.0256 57.8418 52.0568 56.2232 53.6087ZM59.6537 39.0962C57.0912 36.6392 53.7308 35.41 50.3747 35.41C47.0186 35.41 43.6582 36.6392 41.0913 39.1003C38.5245 41.5614 37.2482 44.7779 37.2482 47.9957C37.2482 51.2136 38.5302 54.4355 41.0971 56.8966C43.6639 59.3577 47.0186 60.5814 50.3747 60.5814C53.7308 60.5814 57.0912 59.3522 59.658 56.8911C62.2249 54.43 63.5012 51.2136 63.5012 47.9957C63.5012 44.7779 62.2192 41.5559 59.6537 39.0962ZM56.2232 53.6087C54.6103 55.1552 52.4918 55.9284 50.3747 55.9284C48.2576 55.9284 46.1391 55.1552 44.5205 53.6032C42.9019 52.0513 42.1012 50.0256 42.1012 47.9957C42.1012 45.9659 42.9076 43.9346 44.5262 42.3827C46.1448 40.8308 48.2576 40.0631 50.3747 40.0631C52.4918 40.0631 54.6103 40.8363 56.2289 42.3882C57.8475 43.9401 58.6482 45.9659 58.6482 47.9957C58.6482 50.0256 57.8418 52.0568 56.2232 53.6087ZM59.6537 39.0962C57.0912 36.6392 53.7308 35.41 50.3747 35.41C47.0186 35.41 43.6582 36.6392 41.0913 39.1003C38.5245 41.5614 37.2482 44.7779 37.2482 47.9957C37.2482 51.2136 38.5302 54.4355 41.0971 56.8966C43.6639 59.3577 47.0186 60.5814 50.3747 60.5814C53.7308 60.5814 57.0912 59.3522 59.658 56.8911C62.2249 54.43 63.5012 51.2136 63.5012 47.9957C63.5012 44.7779 62.2192 41.5559 59.6537 39.0962ZM56.2232 53.6087C54.6103 55.1552 52.4918 55.9284 50.3747 55.9284C48.2576 55.9284 46.1391 55.1552 44.5205 53.6032C42.9019 52.0513 42.1012 50.0256 42.1012 47.9957C42.1012 45.9659 42.9076 43.9346 44.5262 42.3827C46.1448 40.8308 48.2576 40.0631 50.3747 40.0631C52.4918 40.0631 54.6103 40.8363 56.2289 42.3882C57.8475 43.9401 58.6482 45.9659 58.6482 47.9957C58.6482 50.0256 57.8418 52.0568 56.2232 53.6087ZM78.8836 44.2903C78.8836 43.1147 77.9554 42.1039 76.7107 41.983L73.1054 41.626C72.8661 40.8431 72.5825 40.0699 72.2545 39.3091C71.9279 38.5537 71.5584 37.8121 71.1458 37.0883L73.3217 34.5242C74.2183 33.6123 74.2011 32.1771 73.2715 31.2858L67.7998 26.0477C66.9346 25.2168 65.5352 25.1316 64.564 25.8884L61.7536 28.0803C60.9988 27.6834 60.2281 27.329 59.4389 27.02C58.6439 26.7055 57.836 26.4336 57.0196 26.2042L56.6658 22.926C56.6357 21.6679 55.56 20.6558 54.2407 20.6558L46.5101 20.6626C45.284 20.6626 44.2297 21.5526 44.1037 22.7461L43.7327 26.2029C42.9176 26.4308 42.1112 26.7028 41.3177 27.0173C40.5284 27.3304 39.7535 27.6847 39 28.0817L36.2241 25.9172C35.2758 25.1467 33.852 25.1879 32.9553 26.0436L27.4865 31.2858C26.6156 32.1153 26.5253 33.4598 27.316 34.3924L29.605 37.0911C29.1924 37.8121 28.8229 38.5537 28.4963 39.3104C28.1683 40.0699 27.8847 40.8445 27.6469 41.626L24.2278 41.9638C22.9157 41.9927 21.86 43.0241 21.86 44.289L21.8672 51.7039C21.8672 52.8795 22.7954 53.8903 24.0401 54.0111L27.6469 54.3668C27.8732 55.1112 28.1425 55.8487 28.4505 56.5753L28.4977 56.6947C28.82 57.4432 29.1896 58.1821 29.6035 58.9059L27.4292 61.4686C26.5325 62.3805 26.5497 63.8157 27.4793 64.7071L32.951 69.9451C33.8162 70.776 35.2157 70.8612 36.1868 70.1045L38.9972 67.9125C39.752 68.3094 40.5227 68.6638 41.3119 68.9728C42.1069 69.2873 42.9148 69.5592 43.7312 69.7886L44.0836 73.0682C44.1137 74.3263 45.1894 75.3384 46.5087 75.3384L54.2422 75.3316C55.4683 75.3316 56.5225 74.4416 56.6486 73.2481L57.0196 69.7886C57.8332 69.5606 58.6396 69.2887 59.4332 68.9742C60.221 68.661 60.9959 68.3067 61.7493 67.9112L64.4265 69.9973C65.3762 70.8571 66.873 70.8406 67.8026 69.9493L73.2658 64.7029C74.1324 63.8734 74.2212 62.5316 73.4319 61.6005L71.1458 58.9059C71.5612 58.1807 71.9308 57.4419 72.256 56.6838C72.584 55.9229 72.8676 55.1483 73.1054 54.3668L76.5231 54.0276C77.8351 53.9974 78.8908 52.9674 78.8908 51.7025L78.8836 44.2903ZM74.0378 49.6108L70.9267 49.9185C69.8524 50.0228 69.0144 50.7906 68.8039 51.7533C68.5661 52.8314 68.2266 53.8917 67.784 54.9121C67.3443 55.9284 66.8057 56.9145 66.1726 57.8456C65.5724 58.7315 65.6841 59.8631 66.3688 60.624L68.2982 62.8983L65.9162 65.1823L63.4883 63.2897C62.6532 62.6387 61.5015 62.6113 60.645 63.1441C59.6652 63.7553 58.6396 64.2717 57.594 64.6865C56.5254 65.1095 55.4182 65.4363 54.2937 65.6643C53.2137 65.8786 52.4531 66.7548 52.3743 67.7601L52.0592 70.6854H48.6916L48.3708 67.6997C48.2619 66.6696 47.4612 65.8662 46.4571 65.6643C45.3341 65.4363 44.2254 65.1095 43.1597 64.6851C42.1012 64.2648 41.0727 63.7484 40.1044 63.1428C39.1805 62.5673 38.0002 62.6745 37.2067 63.3309L34.8332 65.1823L32.4511 62.8983L34.4264 60.5704C35.1054 59.7697 35.134 58.6655 34.5782 57.8443C33.9466 56.9159 33.408 55.9298 32.9697 54.9148L32.9238 54.8146C32.5041 53.8244 32.1775 52.7943 31.9484 51.7533C31.7249 50.7178 30.811 49.9885 29.764 49.913L26.713 49.6122V46.3806L29.8256 46.0744C30.8999 45.97 31.7378 45.2023 31.9484 44.2395C32.1861 43.1614 32.5271 42.097 32.9682 41.0739C33.4008 40.0713 33.938 39.0893 34.5768 38.1499C35.177 37.2641 35.0653 36.1338 34.382 35.3729L32.4454 33.0904L34.8289 30.8064L37.2611 32.7031C38.0962 33.3541 39.2478 33.3815 40.1044 32.8487C41.087 32.2361 42.1112 31.7197 43.1569 31.305C44.224 30.882 45.3327 30.5551 46.4585 30.3271C47.5385 30.1129 48.2991 29.2367 48.3779 28.2327L48.6916 25.3088H52.0592L52.38 28.2932C52.4889 29.3232 53.2896 30.1266 54.2937 30.3285C55.4167 30.5565 56.5254 30.8834 57.5911 31.3077C58.6496 31.728 59.6781 32.2444 60.6464 32.85C61.5703 33.4255 62.7506 33.3184 63.5441 32.6619L65.9176 30.8106L68.2997 33.0945L66.3244 35.4224C65.6454 36.2231 65.6168 37.3273 66.1726 38.1486C66.8114 39.0893 67.35 40.0713 67.7826 41.0725C68.2238 42.0957 68.5661 43.16 68.8039 44.2395C69.0273 45.2737 69.9412 46.0029 70.9883 46.0799L74.0378 46.382V49.6108ZM50.3747 35.41C47.0186 35.41 43.6582 36.6392 41.0913 39.1003C38.5245 41.5614 37.2482 44.7779 37.2482 47.9957C37.2482 51.2136 38.5302 54.4355 41.0971 56.8966C43.6639 59.3577 47.0186 60.5814 50.3747 60.5814C53.7308 60.5814 57.0912 59.3522 59.658 56.8911C62.2249 54.43 63.5012 51.2136 63.5012 47.9957C63.5012 44.7779 62.2192 41.5559 59.6537 39.0962C57.0912 36.6392 53.7308 35.41 50.3747 35.41ZM56.2232 53.6087C54.6103 55.1552 52.4918 55.9284 50.3747 55.9284C48.2576 55.9284 46.1391 55.1552 44.5205 53.6032C42.9019 52.0513 42.1012 50.0256 42.1012 47.9957C42.1012 45.9659 42.9076 43.9346 44.5262 42.3827C46.1448 40.8308 48.2576 40.0631 50.3747 40.0631C52.4918 40.0631 54.6103 40.8363 56.2289 42.3882C57.8475 43.9401 58.6482 45.9659 58.6482 47.9957C58.6482 50.0256 57.8418 52.0568 56.2232 53.6087ZM59.6537 39.0962C57.0912 36.6392 53.7308 35.41 50.3747 35.41C47.0186 35.41 43.6582 36.6392 41.0913 39.1003C38.5245 41.5614 37.2482 44.7779 37.2482 47.9957C37.2482 51.2136 38.5302 54.4355 41.0971 56.8966C43.6639 59.3577 47.0186 60.5814 50.3747 60.5814C53.7308 60.5814 57.0912 59.3522 59.658 56.8911C62.2249 54.43 63.5012 51.2136 63.5012 47.9957C63.5012 44.7779 62.2192 41.5559 59.6537 39.0962ZM56.2232 53.6087C54.6103 55.1552 52.4918 55.9284 50.3747 55.9284C48.2576 55.9284 46.1391 55.1552 44.5205 53.6032C42.9019 52.0513 42.1012 50.0256 42.1012 47.9957C42.1012 45.9659 42.9076 43.9346 44.5262 42.3827C46.1448 40.8308 48.2576 40.0631 50.3747 40.0631C52.4918 40.0631 54.6103 40.8363 56.2289 42.3882C57.8475 43.9401 58.6482 45.9659 58.6482 47.9957C58.6482 50.0256 57.8418 52.0568 56.2232 53.6087ZM59.6537 39.0962C57.0912 36.6392 53.7308 35.41 50.3747 35.41C47.0186 35.41 43.6582 36.6392 41.0913 39.1003C38.5245 41.5614 37.2482 44.7779 37.2482 47.9957C37.2482 51.2136 38.5302 54.4355 41.0971 56.8966C43.6639 59.3577 47.0186 60.5814 50.3747 60.5814C53.7308 60.5814 57.0912 59.3522 59.658 56.8911C62.2249 54.43 63.5012 51.2136 63.5012 47.9957C63.5012 44.7779 62.2192 41.5559 59.6537 39.0962ZM56.2232 53.6087C54.6103 55.1552 52.4918 55.9284 50.3747 55.9284C48.2576 55.9284 46.1391 55.1552 44.5205 53.6032C42.9019 52.0513 42.1012 50.0256 42.1012 47.9957C42.1012 45.9659 42.9076 43.9346 44.5262 42.3827C46.1448 40.8308 48.2576 40.0631 50.3747 40.0631C52.4918 40.0631 54.6103 40.8363 56.2289 42.3882C57.8475 43.9401 58.6482 45.9659 58.6482 47.9957C58.6482 50.0256 57.8418 52.0568 56.2232 53.6087ZM59.6537 39.0962C57.0912 36.6392 53.7308 35.41 50.3747 35.41C47.0186 35.41 43.6582 36.6392 41.0913 39.1003C38.5245 41.5614 37.2482 44.7779 37.2482 47.9957C37.2482 51.2136 38.5302 54.4355 41.0971 56.8966C43.6639 59.3577 47.0186 60.5814 50.3747 60.5814C53.7308 60.5814 57.0912 59.3522 59.658 56.8911C62.2249 54.43 63.5012 51.2136 63.5012 47.9957C63.5012 44.7779 62.2192 41.5559 59.6537 39.0962ZM56.2232 53.6087C54.6103 55.1552 52.4918 55.9284 50.3747 55.9284C48.2576 55.9284 46.1391 55.1552 44.5205 53.6032C42.9019 52.0513 42.1012 50.0256 42.1012 47.9957C42.1012 45.9659 42.9076 43.9346 44.5262 42.3827C46.1448 40.8308 48.2576 40.0631 50.3747 40.0631C52.4918 40.0631 54.6103 40.8363 56.2289 42.3882C57.8475 43.9401 58.6482 45.9659 58.6482 47.9957C58.6482 50.0256 57.8418 52.0568 56.2232 53.6087ZM59.6537 39.0962C57.0912 36.6392 53.7308 35.41 50.3747 35.41C47.0186 35.41 43.6582 36.6392 41.0913 39.1003C38.5245 41.5614 37.2482 44.7779 37.2482 47.9957C37.2482 51.2136 38.5302 54.4355 41.0971 56.8966C43.6639 59.3577 47.0186 60.5814 50.3747 60.5814C53.7308 60.5814 57.0912 59.3522 59.658 56.8911C62.2249 54.43 63.5012 51.2136 63.5012 47.9957C63.5012 44.7779 62.2192 41.5559 59.6537 39.0962ZM56.2232 53.6087C54.6103 55.1552 52.4918 55.9284 50.3747 55.9284C48.2576 55.9284 46.1391 55.1552 44.5205 53.6032C42.9019 52.0513 42.1012 50.0256 42.1012 47.9957C42.1012 45.9659 42.9076 43.9346 44.5262 42.3827C46.1448 40.8308 48.2576 40.0631 50.3747 40.0631C52.4918 40.0631 54.6103 40.8363 56.2289 42.3882C57.8475 43.9401 58.6482 45.9659 58.6482 47.9957C58.6482 50.0256 57.8418 52.0568 56.2232 53.6087ZM59.6537 39.0962C57.0912 36.6392 53.7308 35.41 50.3747 35.41C47.0186 35.41 43.6582 36.6392 41.0913 39.1003C38.5245 41.5614 37.2482 44.7779 37.2482 47.9957C37.2482 51.2136 38.5302 54.4355 41.0971 56.8966C43.6639 59.3577 47.0186 60.5814 50.3747 60.5814C53.7308 60.5814 57.0912 59.3522 59.658 56.8911C62.2249 54.43 63.5012 51.2136 63.5012 47.9957C63.5012 44.7779 62.2192 41.5559 59.6537 39.0962ZM56.2232 53.6087C54.6103 55.1552 52.4918 55.9284 50.3747 55.9284C48.2576 55.9284 46.1391 55.1552 44.5205 53.6032C42.9019 52.0513 42.1012 50.0256 42.1012 47.9957C42.1012 45.9659 42.9076 43.9346 44.5262 42.3827C46.1448 40.8308 48.2576 40.0631 50.3747 40.0631C52.4918 40.0631 54.6103 40.8363 56.2289 42.3882C57.8475 43.9401 58.6482 45.9659 58.6482 47.9957C58.6482 50.0256 57.8418 52.0568 56.2232 53.6087ZM59.6537 39.0962C57.0912 36.6392 53.7308 35.41 50.3747 35.41C47.0186 35.41 43.6582 36.6392 41.0913 39.1003C38.5245 41.5614 37.2482 44.7779 37.2482 47.9957C37.2482 51.2136 38.5302 54.4355 41.0971 56.8966C43.6639 59.3577 47.0186 60.5814 50.3747 60.5814C53.7308 60.5814 57.0912 59.3522 59.658 56.8911C62.2249 54.43 63.5012 51.2136 63.5012 47.9957C63.5012 44.7779 62.2192 41.5559 59.6537 39.0962ZM56.2232 53.6087C54.6103 55.1552 52.4918 55.9284 50.3747 55.9284C48.2576 55.9284 46.1391 55.1552 44.5205 53.6032C42.9019 52.0513 42.1012 50.0256 42.1012 47.9957C42.1012 45.9659 42.9076 43.9346 44.5262 42.3827C46.1448 40.8308 48.2576 40.0631 50.3747 40.0631C52.4918 40.0631 54.6103 40.8363 56.2289 42.3882C57.8475 43.9401 58.6482 45.9659 58.6482 47.9957C58.6482 50.0256 57.8418 52.0568 56.2232 53.6087ZM78.8836 44.2903C78.8836 43.1147 77.9554 42.1039 76.7107 41.983L73.1054 41.626C72.8661 40.8431 72.5825 40.0699 72.2545 39.3091C71.9279 38.5537 71.5584 37.8121 71.1458 37.0883L73.3217 34.5242C74.2183 33.6123 74.2011 32.1771 73.2715 31.2858L67.7998 26.0477C66.9346 25.2168 65.5352 25.1316 64.564 25.8884L61.7536 28.0803C60.9988 27.6834 60.2281 27.329 59.4389 27.02C58.6439 26.7055 57.836 26.4336 57.0196 26.2042L56.6658 22.926C56.6357 21.6679 55.56 20.6558 54.2407 20.6558L46.5101 20.6626C45.284 20.6626 44.2297 21.5526 44.1037 22.7461L43.7327 26.2029C42.9176 26.4308 42.1112 26.7028 41.3177 27.0173C40.5284 27.3304 39.7535 27.6847 39 28.0817L36.2241 25.9172C35.2758 25.1467 33.852 25.1879 32.9553 26.0436L27.4865 31.2858C26.6156 32.1153 26.5253 33.4598 27.316 34.3924L29.605 37.0911C29.1924 37.8121 28.8229 38.5537 28.4963 39.3104C28.1683 40.0699 27.8847 40.8445 27.6469 41.626L24.2278 41.9638C22.9157 41.9927 21.86 43.0241 21.86 44.289L21.8672 51.7039C21.8672 52.8795 22.7954 53.8903 24.0401 54.0111L27.6469 54.3668C27.8732 55.1112 28.1425 55.8487 28.4505 56.5753L28.4977 56.6947C28.82 57.4432 29.1896 58.1821 29.6035 58.9059L27.4292 61.4686C26.5325 62.3805 26.5497 63.8157 27.4793 64.7071L32.951 69.9451C33.8162 70.776 35.2157 70.8612 36.1868 70.1045L38.9972 67.9125C39.752 68.3094 40.5227 68.6638 41.3119 68.9728C42.1069 69.2873 42.9148 69.5592 43.7312 69.7886L44.0836 73.0682C44.1137 74.3263 45.1894 75.3384 46.5087 75.3384L54.2422 75.3316C55.4683 75.3316 56.5225 74.4416 56.6486 73.2481L57.0196 69.7886C57.8332 69.5606 58.6396 69.2887 59.4332 68.9742C60.221 68.661 60.9959 68.3067 61.7493 67.9112L64.4265 69.9973C65.3762 70.8571 66.873 70.8406 67.8026 69.9493L73.2658 64.7029C74.1324 63.8734 74.2212 62.5316 73.4319 61.6005L71.1458 58.9059C71.5612 58.1807 71.9308 57.4419 72.256 56.6838C72.584 55.9229 72.8676 55.1483 73.1054 54.3668L76.5231 54.0276C77.8351 53.9974 78.8908 52.9674 78.8908 51.7025L78.8836 44.2903ZM74.0378 49.6108L70.9267 49.9185C69.8524 50.0228 69.0144 50.7906 68.8039 51.7533C68.5661 52.8314 68.2266 53.8917 67.784 54.9121C67.3443 55.9284 66.8057 56.9145 66.1726 57.8456C65.5724 58.7315 65.6841 59.8631 66.3688 60.624L68.2982 62.8983L65.9162 65.1823L63.4883 63.2897C62.6532 62.6387 61.5015 62.6113 60.645 63.1441C59.6652 63.7553 58.6396 64.2717 57.594 64.6865C56.5254 65.1095 55.4182 65.4363 54.2937 65.6643C53.2137 65.8786 52.4531 66.7548 52.3743 67.7601L52.0592 70.6854H48.6916L48.3708 67.6997C48.2619 66.6696 47.4612 65.8662 46.4571 65.6643C45.3341 65.4363 44.2254 65.1095 43.1597 64.6851C42.1012 64.2648 41.0727 63.7484 40.1044 63.1428C39.1805 62.5673 38.0002 62.6745 37.2067 63.3309L34.8332 65.1823L32.4511 62.8983L34.4264 60.5704C35.1054 59.7697 35.134 58.6655 34.5782 57.8443C33.9466 56.9159 33.408 55.9298 32.9697 54.9148L32.9238 54.8146C32.5041 53.8244 32.1775 52.7943 31.9484 51.7533C31.7249 50.7178 30.811 49.9885 29.764 49.913L26.713 49.6122V46.3806L29.8256 46.0744C30.8999 45.97 31.7378 45.2023 31.9484 44.2395C32.1861 43.1614 32.5271 42.097 32.9682 41.0739C33.4008 40.0713 33.938 39.0893 34.5768 38.1499C35.177 37.2641 35.0653 36.1338 34.382 35.3729L32.4454 33.0904L34.8289 30.8064L37.2611 32.7031C38.0962 33.3541 39.2478 33.3815 40.1044 32.8487C41.087 32.2361 42.1112 31.7197 43.1569 31.305C44.224 30.882 45.3327 30.5551 46.4585 30.3271C47.5385 30.1129 48.2991 29.2367 48.3779 28.2327L48.6916 25.3088H52.0592L52.38 28.2932C52.4889 29.3232 53.2896 30.1266 54.2937 30.3285C55.4167 30.5565 56.5254 30.8834 57.5911 31.3077C58.6496 31.728 59.6781 32.2444 60.6464 32.85C61.5703 33.4255 62.7506 33.3184 63.5441 32.6619L65.9176 30.8106L68.2997 33.0945L66.3244 35.4224C65.6454 36.2231 65.6168 37.3273 66.1726 38.1486C66.8114 39.0893 67.35 40.0713 67.7826 41.0725C68.2238 42.0957 68.5661 43.16 68.8039 44.2395C69.0273 45.2737 69.9412 46.0029 70.9883 46.0799L74.0378 46.382V49.6108ZM50.3747 35.41C47.0186 35.41 43.6582 36.6392 41.0913 39.1003C38.5245 41.5614 37.2482 44.7779 37.2482 47.9957C37.2482 51.2136 38.5302 54.4355 41.0971 56.8966C43.6639 59.3577 47.0186 60.5814 50.3747 60.5814C53.7308 60.5814 57.0912 59.3522 59.658 56.8911C62.2249 54.43 63.5012 51.2136 63.5012 47.9957C63.5012 44.7779 62.2192 41.5559 59.6537 39.0962C57.0912 36.6392 53.7308 35.41 50.3747 35.41ZM56.2232 53.6087C54.6103 55.1552 52.4918 55.9284 50.3747 55.9284C48.2576 55.9284 46.1391 55.1552 44.5205 53.6032C42.9019 52.0513 42.1012 50.0256 42.1012 47.9957C42.1012 45.9659 42.9076 43.9346 44.5262 42.3827C46.1448 40.8308 48.2576 40.0631 50.3747 40.0631C52.4918 40.0631 54.6103 40.8363 56.2289 42.3882C57.8475 43.9401 58.6482 45.9659 58.6482 47.9957C58.6482 50.0256 57.8418 52.0568 56.2232 53.6087ZM59.6537 39.0962C57.0912 36.6392 53.7308 35.41 50.3747 35.41C47.0186 35.41 43.6582 36.6392 41.0913 39.1003C38.5245 41.5614 37.2482 44.7779 37.2482 47.9957C37.2482 51.2136 38.5302 54.4355 41.0971 56.8966C43.6639 59.3577 47.0186 60.5814 50.3747 60.5814C53.7308 60.5814 57.0912 59.3522 59.658 56.8911C62.2249 54.43 63.5012 51.2136 63.5012 47.9957C63.5012 44.7779 62.2192 41.5559 59.6537 39.0962ZM56.2232 53.6087C54.6103 55.1552 52.4918 55.9284 50.3747 55.9284C48.2576 55.9284 46.1391 55.1552 44.5205 53.6032C42.9019 52.0513 42.1012 50.0256 42.1012 47.9957C42.1012 45.9659 42.9076 43.9346 44.5262 42.3827C46.1448 40.8308 48.2576 40.0631 50.3747 40.0631C52.4918 40.0631 54.6103 40.8363 56.2289 42.3882C57.8475 43.9401 58.6482 45.9659 58.6482 47.9957C58.6482 50.0256 57.8418 52.0568 56.2232 53.6087ZM59.6537 39.0962C57.0912 36.6392 53.7308 35.41 50.3747 35.41C47.0186 35.41 43.6582 36.6392 41.0913 39.1003C38.5245 41.5614 37.2482 44.7779 37.2482 47.9957C37.2482 51.2136 38.5302 54.4355 41.0971 56.8966C43.6639 59.3577 47.0186 60.5814 50.3747 60.5814C53.7308 60.5814 57.0912 59.3522 59.658 56.8911C62.2249 54.43 63.5012 51.2136 63.5012 47.9957C63.5012 44.7779 62.2192 41.5559 59.6537 39.0962ZM56.2232 53.6087C54.6103 55.1552 52.4918 55.9284 50.3747 55.9284C48.2576 55.9284 46.1391 55.1552 44.5205 53.6032C42.9019 52.0513 42.1012 50.0256 42.1012 47.9957C42.1012 45.9659 42.9076 43.9346 44.5262 42.3827C46.1448 40.8308 48.2576 40.0631 50.3747 40.0631C52.4918 40.0631 54.6103 40.8363 56.2289 42.3882C57.8475 43.9401 58.6482 45.9659 58.6482 47.9957C58.6482 50.0256 57.8418 52.0568 56.2232 53.6087ZM59.6537 39.0962C57.0912 36.6392 53.7308 35.41 50.3747 35.41C47.0186 35.41 43.6582 36.6392 41.0913 39.1003C38.5245 41.5614 37.2482 44.7779 37.2482 47.9957C37.2482 51.2136 38.5302 54.4355 41.0971 56.8966C43.6639 59.3577 47.0186 60.5814 50.3747 60.5814C53.7308 60.5814 57.0912 59.3522 59.658 56.8911C62.2249 54.43 63.5012 51.2136 63.5012 47.9957C63.5012 44.7779 62.2192 41.5559 59.6537 39.0962ZM56.2232 53.6087C54.6103 55.1552 52.4918 55.9284 50.3747 55.9284C48.2576 55.9284 46.1391 55.1552 44.5205 53.6032C42.9019 52.0513 42.1012 50.0256 42.1012 47.9957C42.1012 45.9659 42.9076 43.9346 44.5262 42.3827C46.1448 40.8308 48.2576 40.0631 50.3747 40.0631C52.4918 40.0631 54.6103 40.8363 56.2289 42.3882C57.8475 43.9401 58.6482 45.9659 58.6482 47.9957C58.6482 50.0256 57.8418 52.0568 56.2232 53.6087ZM59.6537 39.0962C57.0912 36.6392 53.7308 35.41 50.3747 35.41C47.0186 35.41 43.6582 36.6392 41.0913 39.1003C38.5245 41.5614 37.2482 44.7779 37.2482 47.9957C37.2482 51.2136 38.5302 54.4355 41.0971 56.8966C43.6639 59.3577 47.0186 60.5814 50.3747 60.5814C53.7308 60.5814 57.0912 59.3522 59.658 56.8911C62.2249 54.43 63.5012 51.2136 63.5012 47.9957C63.5012 44.7779 62.2192 41.5559 59.6537 39.0962ZM56.2232 53.6087C54.6103 55.1552 52.4918 55.9284 50.3747 55.9284C48.2576 55.9284 46.1391 55.1552 44.5205 53.6032C42.9019 52.0513 42.1012 50.0256 42.1012 47.9957C42.1012 45.9659 42.9076 43.9346 44.5262 42.3827C46.1448 40.8308 48.2576 40.0631 50.3747 40.0631C52.4918 40.0631 54.6103 40.8363 56.2289 42.3882C57.8475 43.9401 58.6482 45.9659 58.6482 47.9957C58.6482 50.0256 57.8418 52.0568 56.2232 53.6087ZM59.6537 39.0962C57.0912 36.6392 53.7308 35.41 50.3747 35.41C47.0186 35.41 43.6582 36.6392 41.0913 39.1003C38.5245 41.5614 37.2482 44.7779 37.2482 47.9957C37.2482 51.2136 38.5302 54.4355 41.0971 56.8966C43.6639 59.3577 47.0186 60.5814 50.3747 60.5814C53.7308 60.5814 57.0912 59.3522 59.658 56.8911C62.2249 54.43 63.5012 51.2136 63.5012 47.9957C63.5012 44.7779 62.2192 41.5559 59.6537 39.0962ZM56.2232 53.6087C54.6103 55.1552 52.4918 55.9284 50.3747 55.9284C48.2576 55.9284 46.1391 55.1552 44.5205 53.6032C42.9019 52.0513 42.1012 50.0256 42.1012 47.9957C42.1012 45.9659 42.9076 43.9346 44.5262 42.3827C46.1448 40.8308 48.2576 40.0631 50.3747 40.0631C52.4918 40.0631 54.6103 40.8363 56.2289 42.3882C57.8475 43.9401 58.6482 45.9659 58.6482 47.9957C58.6482 50.0256 57.8418 52.0568 56.2232 53.6087ZM59.6537 39.0962C57.0912 36.6392 53.7308 35.41 50.3747 35.41C47.0186 35.41 43.6582 36.6392 41.0913 39.1003C38.5245 41.5614 37.2482 44.7779 37.2482 47.9957C37.2482 51.2136 38.5302 54.4355 41.0971 56.8966C43.6639 59.3577 47.0186 60.5814 50.3747 60.5814C53.7308 60.5814 57.0912 59.3522 59.658 56.8911C62.2249 54.43 63.5012 51.2136 63.5012 47.9957C63.5012 44.7779 62.2192 41.5559 59.6537 39.0962ZM56.2232 53.6087C54.6103 55.1552 52.4918 55.9284 50.3747 55.9284C48.2576 55.9284 46.1391 55.1552 44.5205 53.6032C42.9019 52.0513 42.1012 50.0256 42.1012 47.9957C42.1012 45.9659 42.9076 43.9346 44.5262 42.3827C46.1448 40.8308 48.2576 40.0631 50.3747 40.0631C52.4918 40.0631 54.6103 40.8363 56.2289 42.3882C57.8475 43.9401 58.6482 45.9659 58.6482 47.9957C58.6482 50.0256 57.8418 52.0568 56.2232 53.6087ZM59.6537 39.0962C57.0912 36.6392 53.7308 35.41 50.3747 35.41C47.0186 35.41 43.6582 36.6392 41.0913 39.1003C38.5245 41.5614 37.2482 44.7779 37.2482 47.9957C37.2482 51.2136 38.5302 54.4355 41.0971 56.8966C43.6639 59.3577 47.0186 60.5814 50.3747 60.5814C53.7308 60.5814 57.0912 59.3522 59.658 56.8911C62.2249 54.43 63.5012 51.2136 63.5012 47.9957C63.5012 44.7779 62.2192 41.5559 59.6537 39.0962ZM56.2232 53.6087C54.6103 55.1552 52.4918 55.9284 50.3747 55.9284C48.2576 55.9284 46.1391 55.1552 44.5205 53.6032C42.9019 52.0513 42.1012 50.0256 42.1012 47.9957C42.1012 45.9659 42.9076 43.9346 44.5262 42.3827C46.1448 40.8308 48.2576 40.0631 50.3747 40.0631C52.4918 40.0631 54.6103 40.8363 56.2289 42.3882C57.8475 43.9401 58.6482 45.9659 58.6482 47.9957C58.6482 50.0256 57.8418 52.0568 56.2232 53.6087ZM59.6537 39.0962C57.0912 36.6392 53.7308 35.41 50.3747 35.41C47.0186 35.41 43.6582 36.6392 41.0913 39.1003C38.5245 41.5614 37.2482 44.7779 37.2482 47.9957C37.2482 51.2136 38.5302 54.4355 41.0971 56.8966C43.6639 59.3577 47.0186 60.5814 50.3747 60.5814C53.7308 60.5814 57.0912 59.3522 59.658 56.8911C62.2249 54.43 63.5012 51.2136 63.5012 47.9957C63.5012 44.7779 62.2192 41.5559 59.6537 39.0962ZM56.2232 53.6087C54.6103 55.1552 52.4918 55.9284 50.3747 55.9284C48.2576 55.9284 46.1391 55.1552 44.5205 53.6032C42.9019 52.0513 42.1012 50.0256 42.1012 47.9957C42.1012 45.9659 42.9076 43.9346 44.5262 42.3827C46.1448 40.8308 48.2576 40.0631 50.3747 40.0631C52.4918 40.0631 54.6103 40.8363 56.2289 42.3882C57.8475 43.9401 58.6482 45.9659 58.6482 47.9957C58.6482 50.0256 57.8418 52.0568 56.2232 53.6087ZM59.6537 39.0962C57.0912 36.6392 53.7308 35.41 50.3747 35.41C47.0186 35.41 43.6582 36.6392 41.0913 39.1003C38.5245 41.5614 37.2482 44.7779 37.2482 47.9957C37.2482 51.2136 38.5302 54.4355 41.0971 56.8966C43.6639 59.3577 47.0186 60.5814 50.3747 60.5814C53.7308 60.5814 57.0912 59.3522 59.658 56.8911C62.2249 54.43 63.5012 51.2136 63.5012 47.9957C63.5012 44.7779 62.2192 41.5559 59.6537 39.0962ZM56.2232 53.6087C54.6103 55.1552 52.4918 55.9284 50.3747 55.9284C48.2576 55.9284 46.1391 55.1552 44.5205 53.6032C42.9019 52.0513 42.1012 50.0256 42.1012 47.9957C42.1012 45.9659 42.9076 43.9346 44.5262 42.3827C46.1448 40.8308 48.2576 40.0631 50.3747 40.0631C52.4918 40.0631 54.6103 40.8363 56.2289 42.3882C57.8475 43.9401 58.6482 45.9659 58.6482 47.9957C58.6482 50.0256 57.8418 52.0568 56.2232 53.6087ZM78.8836 44.2903C78.8836 43.1147 77.9554 42.1039 76.7107 41.983L73.1054 41.626C72.8661 40.8431 72.5825 40.0699 72.2545 39.3091C71.9279 38.5537 71.5584 37.8121 71.1458 37.0883L73.3217 34.5242C74.2183 33.6123 74.2011 32.1771 73.2715 31.2858L67.7998 26.0477C66.9346 25.2168 65.5352 25.1316 64.564 25.8884L61.7536 28.0803C60.9988 27.6834 60.2281 27.329 59.4389 27.02C58.6439 26.7055 57.836 26.4336 57.0196 26.2042L56.6658 22.926C56.6357 21.6679 55.56 20.6558 54.2407 20.6558L46.5101 20.6626C45.284 20.6626 44.2297 21.5526 44.1037 22.7461L43.7327 26.2029C42.9176 26.4308 42.1112 26.7028 41.3177 27.0173C40.5284 27.3304 39.7535 27.6847 39 28.0817L36.2241 25.9172C35.2758 25.1467 33.852 25.1879 32.9553 26.0436L27.4865 31.2858C26.6156 32.1153 26.5253 33.4598 27.316 34.3924L29.605 37.0911C29.1924 37.8121 28.8229 38.5537 28.4963 39.3104C28.1683 40.0699 27.8847 40.8445 27.6469 41.626L24.2278 41.9638C22.9157 41.9927 21.86 43.0241 21.86 44.289L21.8672 51.7039C21.8672 52.8795 22.7954 53.8903 24.0401 54.0111L27.6469 54.3668C27.8732 55.1112 28.1425 55.8487 28.4505 56.5753L28.4977 56.6947C28.82 57.4432 29.1896 58.1821 29.6035 58.9059L27.4292 61.4686C26.5325 62.3805 26.5497 63.8157 27.4793 64.7071L32.951 69.9451C33.8162 70.776 35.2157 70.8612 36.1868 70.1045L38.9972 67.9125C39.752 68.3094 40.5227 68.6638 41.3119 68.9728C42.1069 69.2873 42.9148 69.5592 43.7312 69.7886L44.0836 73.0682C44.1137 74.3263 45.1894 75.3384 46.5087 75.3384L54.2422 75.3316C55.4683 75.3316 56.5225 74.4416 56.6486 73.2481L57.0196 69.7886C57.8332 69.5606 58.6396 69.2887 59.4332 68.9742C60.221 68.661 60.9959 68.3067 61.7493 67.9112L64.4265 69.9973C65.3762 70.8571 66.873 70.8406 67.8026 69.9493L73.2658 64.7029C74.1324 63.8734 74.2212 62.5316 73.4319 61.6005L71.1458 58.9059C71.5612 58.1807 71.9308 57.4419 72.256 56.6838C72.584 55.9229 72.8676 55.1483 73.1054 54.3668L76.5231 54.0276C77.8351 53.9974 78.8908 52.9674 78.8908 51.7025L78.8836 44.2903ZM74.0378 49.6108L70.9267 49.9185C69.8524 50.0228 69.0144 50.7906 68.8039 51.7533C68.5661 52.8314 68.2266 53.8917 67.784 54.9121C67.3443 55.9284 66.8057 56.9145 66.1726 57.8456C65.5724 58.7315 65.6841 59.8631 66.3688 60.624L68.2982 62.8983L65.9162 65.1823L63.4883 63.2897C62.6532 62.6387 61.5015 62.6113 60.645 63.1441C59.6652 63.7553 58.6396 64.2717 57.594 64.6865C56.5254 65.1095 55.4182 65.4363 54.2937 65.6643C53.2137 65.8786 52.4531 66.7548 52.3743 67.7601L52.0592 70.6854H48.6916L48.3708 67.6997C48.2619 66.6696 47.4612 65.8662 46.4571 65.6643C45.3341 65.4363 44.2254 65.1095 43.1597 64.6851C42.1012 64.2648 41.0727 63.7484 40.1044 63.1428C39.1805 62.5673 38.0002 62.6745 37.2067 63.3309L34.8332 65.1823L32.4511 62.8983L34.4264 60.5704C35.1054 59.7697 35.134 58.6655 34.5782 57.8443C33.9466 56.9159 33.408 55.9298 32.9697 54.9148L32.9238 54.8146C32.5041 53.8244 32.1775 52.7943 31.9484 51.7533C31.7249 50.7178 30.811 49.9885 29.764 49.913L26.713 49.6122V46.3806L29.8256 46.0744C30.8999 45.97 31.7378 45.2023 31.9484 44.2395C32.1861 43.1614 32.5271 42.097 32.9682 41.0739C33.4008 40.0713 33.938 39.0893 34.5768 38.1499C35.177 37.2641 35.0653 36.1338 34.382 35.3729L32.4454 33.0904L34.8289 30.8064L37.2611 32.7031C38.0962 33.3541 39.2478 33.3815 40.1044 32.8487C41.087 32.2361 42.1112 31.7197 43.1569 31.305C44.224 30.882 45.3327 30.5551 46.4585 30.3271C47.5385 30.1129 48.2991 29.2367 48.3779 28.2327L48.6916 25.3088H52.0592L52.38 28.2932C52.4889 29.3232 53.2896 30.1266 54.2937 30.3285C55.4167 30.5565 56.5254 30.8834 57.5911 31.3077C58.6496 31.728 59.6781 32.2444 60.6464 32.85C61.5703 33.4255 62.7506 33.3184 63.5441 32.6619L65.9176 30.8106L68.2997 33.0945L66.3244 35.4224C65.6454 36.2231 65.6168 37.3273 66.1726 38.1486C66.8114 39.0893 67.35 40.0713 67.7826 41.0725C68.2238 42.0957 68.5661 43.16 68.8039 44.2395C69.0273 45.2737 69.9412 46.0029 70.9883 46.0799L74.0378 46.382V49.6108ZM50.3747 35.41C47.0186 35.41 43.6582 36.6392 41.0913 39.1003C38.5245 41.5614 37.2482 44.7779 37.2482 47.9957C37.2482 51.2136 38.5302 54.4355 41.0971 56.8966C43.6639 59.3577 47.0186 60.5814 50.3747 60.5814C53.7308 60.5814 57.0912 59.3522 59.658 56.8911C62.2249 54.43 63.5012 51.2136 63.5012 47.9957C63.5012 44.7779 62.2192 41.5559 59.6537 39.0962C57.0912 36.6392 53.7308 35.41 50.3747 35.41ZM56.2232 53.6087C54.6103 55.1552 52.4918 55.9284 50.3747 55.9284C48.2576 55.9284 46.1391 55.1552 44.5205 53.6032C42.9019 52.0513 42.1012 50.0256 42.1012 47.9957C42.1012 45.9659 42.9076 43.9346 44.5262 42.3827C46.1448 40.8308 48.2576 40.0631 50.3747 40.0631C52.4918 40.0631 54.6103 40.8363 56.2289 42.3882C57.8475 43.9401 58.6482 45.9659 58.6482 47.9957C58.6482 50.0256 57.8418 52.0568 56.2232 53.6087ZM59.6537 39.0962C57.0912 36.6392 53.7308 35.41 50.3747 35.41C47.0186 35.41 43.6582 36.6392 41.0913 39.1003C38.5245 41.5614 37.2482 44.7779 37.2482 47.9957C37.2482 51.2136 38.5302 54.4355 41.0971 56.8966C43.6639 59.3577 47.0186 60.5814 50.3747 60.5814C53.7308 60.5814 57.0912 59.3522 59.658 56.8911C62.2249 54.43 63.5012 51.2136 63.5012 47.9957C63.5012 44.7779 62.2192 41.5559 59.6537 39.0962ZM56.2232 53.6087C54.6103 55.1552 52.4918 55.9284 50.3747 55.9284C48.2576 55.9284 46.1391 55.1552 44.5205 53.6032C42.9019 52.0513 42.1012 50.0256 42.1012 47.9957C42.1012 45.9659 42.9076 43.9346 44.5262 42.3827C46.1448 40.8308 48.2576 40.0631 50.3747 40.0631C52.4918 40.0631 54.6103 40.8363 56.2289 42.3882C57.8475 43.9401 58.6482 45.9659 58.6482 47.9957C58.6482 50.0256 57.8418 52.0568 56.2232 53.6087ZM59.6537 39.0962C57.0912 36.6392 53.7308 35.41 50.3747 35.41C47.0186 35.41 43.6582 36.6392 41.0913 39.1003C38.5245 41.5614 37.2482 44.7779 37.2482 47.9957C37.2482 51.2136 38.5302 54.4355 41.0971 56.8966C43.6639 59.3577 47.0186 60.5814 50.3747 60.5814C53.7308 60.5814 57.0912 59.3522 59.658 56.8911C62.2249 54.43 63.5012 51.2136 63.5012 47.9957C63.5012 44.7779 62.2192 41.5559 59.6537 39.0962ZM56.2232 53.6087C54.6103 55.1552 52.4918 55.9284 50.3747 55.9284C48.2576 55.9284 46.1391 55.1552 44.5205 53.6032C42.9019 52.0513 42.1012 50.0256 42.1012 47.9957C42.1012 45.9659 42.9076 43.9346 44.5262 42.3827C46.1448 40.8308 48.2576 40.0631 50.3747 40.0631C52.4918 40.0631 54.6103 40.8363 56.2289 42.3882C57.8475 43.9401 58.6482 45.9659 58.6482 47.9957C58.6482 50.0256 57.8418 52.0568 56.2232 53.6087ZM59.6537 39.0962C57.0912 36.6392 53.7308 35.41 50.3747 35.41C47.0186 35.41 43.6582 36.6392 41.0913 39.1003C38.5245 41.5614 37.2482 44.7779 37.2482 47.9957C37.2482 51.2136 38.5302 54.4355 41.0971 56.8966C43.6639 59.3577 47.0186 60.5814 50.3747 60.5814C53.7308 60.5814 57.0912 59.3522 59.658 56.8911C62.2249 54.43 63.5012 51.2136 63.5012 47.9957C63.5012 44.7779 62.2192 41.5559 59.6537 39.0962ZM56.2232 53.6087C54.6103 55.1552 52.4918 55.9284 50.3747 55.9284C48.2576 55.9284 46.1391 55.1552 44.5205 53.6032C42.9019 52.0513 42.1012 50.0256 42.1012 47.9957C42.1012 45.9659 42.9076 43.9346 44.5262 42.3827C46.1448 40.8308 48.2576 40.0631 50.3747 40.0631C52.4918 40.0631 54.6103 40.8363 56.2289 42.3882C57.8475 43.9401 58.6482 45.9659 58.6482 47.9957C58.6482 50.0256 57.8418 52.0568 56.2232 53.6087ZM59.6537 39.0962C57.0912 36.6392 53.7308 35.41 50.3747 35.41C47.0186 35.41 43.6582 36.6392 41.0913 39.1003C38.5245 41.5614 37.2482 44.7779 37.2482 47.9957C37.2482 51.2136 38.5302 54.4355 41.0971 56.8966C43.6639 59.3577 47.0186 60.5814 50.3747 60.5814C53.7308 60.5814 57.0912 59.3522 59.658 56.8911C62.2249 54.43 63.5012 51.2136 63.5012 47.9957C63.5012 44.7779 62.2192 41.5559 59.6537 39.0962ZM56.2232 53.6087C54.6103 55.1552 52.4918 55.9284 50.3747 55.9284C48.2576 55.9284 46.1391 55.1552 44.5205 53.6032C42.9019 52.0513 42.1012 50.0256 42.1012 47.9957C42.1012 45.9659 42.9076 43.9346 44.5262 42.3827C46.1448 40.8308 48.2576 40.0631 50.3747 40.0631C52.4918 40.0631 54.6103 40.8363 56.2289 42.3882C57.8475 43.9401 58.6482 45.9659 58.6482 47.9957C58.6482 50.0256 57.8418 52.0568 56.2232 53.6087ZM59.6537 39.0962C57.0912 36.6392 53.7308 35.41 50.3747 35.41C47.0186 35.41 43.6582 36.6392 41.0913 39.1003C38.5245 41.5614 37.2482 44.7779 37.2482 47.9957C37.2482 51.2136 38.5302 54.4355 41.0971 56.8966C43.6639 59.3577 47.0186 60.5814 50.3747 60.5814C53.7308 60.5814 57.0912 59.3522 59.658 56.8911C62.2249 54.43 63.5012 51.2136 63.5012 47.9957C63.5012 44.7779 62.2192 41.5559 59.6537 39.0962ZM56.2232 53.6087C54.6103 55.1552 52.4918 55.9284 50.3747 55.9284C48.2576 55.9284 46.1391 55.1552 44.5205 53.6032C42.9019 52.0513 42.1012 50.0256 42.1012 47.9957C42.1012 45.9659 42.9076 43.9346 44.5262 42.3827C46.1448 40.8308 48.2576 40.0631 50.3747 40.0631C52.4918 40.0631 54.6103 40.8363 56.2289 42.3882C57.8475 43.9401 58.6482 45.9659 58.6482 47.9957C58.6482 50.0256 57.8418 52.0568 56.2232 53.6087ZM32.4325 88.1219C24.1891 84.7283 17.2004 79.074 12.3274 71.9846C7.60482 65.1122 4.85319 56.8664 4.85319 47.9943C4.85319 46.7102 3.766 45.6678 2.42671 45.6678C1.08742 45.6678 0.000232703 46.7102 0.000232703 47.9943C0.000232703 57.7838 3.05267 66.9058 8.29093 74.5281C13.6939 82.388 21.4188 88.6479 30.5188 92.3931C31.7478 92.8985 33.1759 92.3533 33.703 91.1749C34.2302 89.9966 33.6615 88.6273 32.4325 88.1219ZM55.9453 0.00281397H55.908C54.5745 -0.0438811 53.4529 0.957316 53.4056 2.23594C53.3584 3.51456 54.4026 4.58992 55.7361 4.63524H55.7734C57.1069 4.68193 58.2285 3.68074 58.2758 2.40212C58.323 1.1235 57.2788 0.0481357 55.9453 0.00281397ZM92.4599 21.4619C87.0569 13.6021 79.332 7.34355 70.2334 3.59696C69.0044 3.09156 67.5763 3.63679 67.0492 4.81515C66.5221 5.99352 67.0907 7.36278 68.3197 7.86818C76.5617 11.2618 83.5504 16.916 88.4234 24.0054C93.146 30.8779 95.8976 39.1223 95.8976 47.9943C95.8976 49.2785 96.9848 50.3209 98.3241 50.3209C99.6634 50.3209 100.751 49.2785 100.751 47.9943C100.751 38.2049 97.6981 29.0842 92.4599 21.4619ZM45.1235 91.359L45.0132 91.3535C43.6797 91.2889 42.5409 92.2736 42.4736 93.5523C42.4063 94.8309 43.4333 95.9227 44.7669 95.9873L44.8772 95.9928C46.2107 96.0573 47.3495 95.0726 47.4168 93.794C47.4841 92.5153 46.4571 91.4235 45.1235 91.359ZM59.6537 39.0962C57.0912 36.6392 53.7308 35.41 50.3747 35.41C47.0186 35.41 43.6582 36.6392 41.0913 39.1003C38.5245 41.5614 37.2482 44.7779 37.2482 47.9957C37.2482 51.2136 38.5302 54.4355 41.0971 56.8966C43.6639 59.3577 47.0186 60.5814 50.3747 60.5814C53.7308 60.5814 57.0912 59.3522 59.658 56.8911C62.2249 54.43 63.5012 51.2136 63.5012 47.9957C63.5012 44.7779 62.2192 41.5559 59.6537 39.0962ZM56.2232 53.6087C54.6103 55.1552 52.4918 55.9284 50.3747 55.9284C48.2576 55.9284 46.1391 55.1552 44.5205 53.6032C42.9019 52.0513 42.1012 50.0256 42.1012 47.9957C42.1012 45.9659 42.9076 43.9346 44.5262 42.3827C46.1448 40.8308 48.2576 40.0631 50.3747 40.0631C52.4918 40.0631 54.6103 40.8363 56.2289 42.3882C57.8475 43.9401 58.6482 45.9659 58.6482 47.9957C58.6482 50.0256 57.8418 52.0568 56.2232 53.6087ZM59.6537 39.0962C57.0912 36.6392 53.7308 35.41 50.3747 35.41C47.0186 35.41 43.6582 36.6392 41.0913 39.1003C38.5245 41.5614 37.2482 44.7779 37.2482 47.9957C37.2482 51.2136 38.5302 54.4355 41.0971 56.8966C43.6639 59.3577 47.0186 60.5814 50.3747 60.5814C53.7308 60.5814 57.0912 59.3522 59.658 56.8911C62.2249 54.43 63.5012 51.2136 63.5012 47.9957C63.5012 44.7779 62.2192 41.5559 59.6537 39.0962ZM56.2232 53.6087C54.6103 55.1552 52.4918 55.9284 50.3747 55.9284C48.2576 55.9284 46.1391 55.1552 44.5205 53.6032C42.9019 52.0513 42.1012 50.0256 42.1012 47.9957C42.1012 45.9659 42.9076 43.9346 44.5262 42.3827C46.1448 40.8308 48.2576 40.0631 50.3747 40.0631C52.4918 40.0631 54.6103 40.8363 56.2289 42.3882C57.8475 43.9401 58.6482 45.9659 58.6482 47.9957C58.6482 50.0256 57.8418 52.0568 56.2232 53.6087ZM59.6537 39.0962C57.0912 36.6392 53.7308 35.41 50.3747 35.41C47.0186 35.41 43.6582 36.6392 41.0913 39.1003C38.5245 41.5614 37.2482 44.7779 37.2482 47.9957C37.2482 51.2136 38.5302 54.4355 41.0971 56.8966C43.6639 59.3577 47.0186 60.5814 50.3747 60.5814C53.7308 60.5814 57.0912 59.3522 59.658 56.8911C62.2249 54.43 63.5012 51.2136 63.5012 47.9957C63.5012 44.7779 62.2192 41.5559 59.6537 39.0962ZM56.2232 53.6087C54.6103 55.1552 52.4918 55.9284 50.3747 55.9284C48.2576 55.9284 46.1391 55.1552 44.5205 53.6032C42.9019 52.0513 42.1012 50.0256 42.1012 47.9957C42.1012 45.9659 42.9076 43.9346 44.5262 42.3827C46.1448 40.8308 48.2576 40.0631 50.3747 40.0631C52.4918 40.0631 54.6103 40.8363 56.2289 42.3882C57.8475 43.9401 58.6482 45.9659 58.6482 47.9957C58.6482 50.0256 57.8418 52.0568 56.2232 53.6087ZM59.6537 39.0962C57.0912 36.6392 53.7308 35.41 50.3747 35.41C47.0186 35.41 43.6582 36.6392 41.0913 39.1003C38.5245 41.5614 37.2482 44.7779 37.2482 47.9957C37.2482 51.2136 38.5302 54.4355 41.0971 56.8966C43.6639 59.3577 47.0186 60.5814 50.3747 60.5814C53.7308 60.5814 57.0912 59.3522 59.658 56.8911C62.2249 54.43 63.5012 51.2136 63.5012 47.9957C63.5012 44.7779 62.2192 41.5559 59.6537 39.0962ZM56.2232 53.6087C54.6103 55.1552 52.4918 55.9284 50.3747 55.9284C48.2576 55.9284 46.1391 55.1552 44.5205 53.6032C42.9019 52.0513 42.1012 50.0256 42.1012 47.9957C42.1012 45.9659 42.9076 43.9346 44.5262 42.3827C46.1448 40.8308 48.2576 40.0631 50.3747 40.0631C52.4918 40.0631 54.6103 40.8363 56.2289 42.3882C57.8475 43.9401 58.6482 45.9659 58.6482 47.9957C58.6482 50.0256 57.8418 52.0568 56.2232 53.6087ZM78.8836 44.2903C78.8836 43.1147 77.9554 42.1039 76.7107 41.983L73.1054 41.626C72.8661 40.8431 72.5825 40.0699 72.2545 39.3091C71.9279 38.5537 71.5584 37.8121 71.1458 37.0883L73.3217 34.5242C74.2183 33.6123 74.2011 32.1771 73.2715 31.2858L67.7998 26.0477C66.9346 25.2168 65.5352 25.1316 64.564 25.8884L61.7536 28.0803C60.9988 27.6834 60.2281 27.329 59.4389 27.02C58.6439 26.7055 57.836 26.4336 57.0196 26.2042L56.6658 22.926C56.6357 21.6679 55.56 20.6558 54.2407 20.6558L46.5101 20.6626C45.284 20.6626 44.2297 21.5526 44.1037 22.7461L43.7327 26.2029C42.9176 26.4308 42.1112 26.7028 41.3177 27.0173C40.5284 27.3304 39.7535 27.6847 39 28.0817L36.2241 25.9172C35.2758 25.1467 33.852 25.1879 32.9553 26.0436L27.4865 31.2858C26.6156 32.1153 26.5253 33.4598 27.316 34.3924L29.605 37.0911C29.1924 37.8121 28.8229 38.5537 28.4963 39.3104C28.1683 40.0699 27.8847 40.8445 27.6469 41.626L24.2278 41.9638C22.9157 41.9927 21.86 43.0241 21.86 44.289L21.8672 51.7039C21.8672 52.8795 22.7954 53.8903 24.0401 54.0111L27.6469 54.3668C27.8732 55.1112 28.1425 55.8487 28.4505 56.5753L28.4977 56.6947C28.82 57.4432 29.1896 58.1821 29.6035 58.9059L27.4292 61.4686C26.5325 62.3805 26.5497 63.8157 27.4793 64.7071L32.951 69.9451C33.8162 70.776 35.2157 70.8612 36.1868 70.1045L38.9972 67.9125C39.752 68.3094 40.5227 68.6638 41.3119 68.9728C42.1069 69.2873 42.9148 69.5592 43.7312 69.7886L44.0836 73.0682C44.1137 74.3263 45.1894 75.3384 46.5087 75.3384L54.2422 75.3316C55.4683 75.3316 56.5225 74.4416 56.6486 73.2481L57.0196 69.7886C57.8332 69.5606 58.6396 69.2887 59.4332 68.9742C60.221 68.661 60.9959 68.3067 61.7493 67.9112L64.4265 69.9973C65.3762 70.8571 66.873 70.8406 67.8026 69.9493L73.2658 64.7029C74.1324 63.8734 74.2212 62.5316 73.4319 61.6005L71.1458 58.9059C71.5612 58.1807 71.9308 57.4419 72.256 56.6838C72.584 55.9229 72.8676 55.1483 73.1054 54.3668L76.5231 54.0276C77.8351 53.9974 78.8908 52.9674 78.8908 51.7025L78.8836 44.2903ZM74.0378 49.6108L70.9267 49.9185C69.8524 50.0228 69.0144 50.7906 68.8039 51.7533C68.5661 52.8314 68.2266 53.8917 67.784 54.9121C67.3443 55.9284 66.8057 56.9145 66.1726 57.8456C65.5724 58.7315 65.6841 59.8631 66.3688 60.624L68.2982 62.8983L65.9162 65.1823L63.4883 63.2897C62.6532 62.6387 61.5015 62.6113 60.645 63.1441C59.6652 63.7553 58.6396 64.2717 57.594 64.6865C56.5254 65.1095 55.4182 65.4363 54.2937 65.6643C53.2137 65.8786 52.4531 66.7548 52.3743 67.7601L52.0592 70.6854H48.6916L48.3708 67.6997C48.2619 66.6696 47.4612 65.8662 46.4571 65.6643C45.3341 65.4363 44.2254 65.1095 43.1597 64.6851C42.1012 64.2648 41.0727 63.7484 40.1044 63.1428C39.1805 62.5673 38.0002 62.6745 37.2067 63.3309L34.8332 65.1823L32.4511 62.8983L34.4264 60.5704C35.1054 59.7697 35.134 58.6655 34.5782 57.8443C33.9466 56.9159 33.408 55.9298 32.9697 54.9148L32.9238 54.8146C32.5041 53.8244 32.1775 52.7943 31.9484 51.7533C31.7249 50.7178 30.811 49.9885 29.764 49.913L26.713 49.6122V46.3806L29.8256 46.0744C30.8999 45.97 31.7378 45.2023 31.9484 44.2395C32.1861 43.1614 32.5271 42.097 32.9682 41.0739C33.4008 40.0713 33.938 39.0893 34.5768 38.1499C35.177 37.2641 35.0653 36.1338 34.382 35.3729L32.4454 33.0904L34.8289 30.8064L37.2611 32.7031C38.0962 33.3541 39.2478 33.3815 40.1044 32.8487C41.087 32.2361 42.1112 31.7197 43.1569 31.305C44.224 30.882 45.3327 30.5551 46.4585 30.3271C47.5385 30.1129 48.2991 29.2367 48.3779 28.2327L48.6916 25.3088H52.0592L52.38 28.2932C52.4889 29.3232 53.2896 30.1266 54.2937 30.3285C55.4167 30.5565 56.5254 30.8834 57.5911 31.3077C58.6496 31.728 59.6781 32.2444 60.6464 32.85C61.5703 33.4255 62.7506 33.3184 63.5441 32.6619L65.9176 30.8106L68.2997 33.0945L66.3244 35.4224C65.6454 36.2231 65.6168 37.3273 66.1726 38.1486C66.8114 39.0893 67.35 40.0713 67.7826 41.0725C68.2238 42.0957 68.5661 43.16 68.8039 44.2395C69.0273 45.2737 69.9412 46.0029 70.9883 46.0799L74.0378 46.382V49.6108ZM50.3747 35.41C47.0186 35.41 43.6582 36.6392 41.0913 39.1003C38.5245 41.5614 37.2482 44.7779 37.2482 47.9957C37.2482 51.2136 38.5302 54.4355 41.0971 56.8966C43.6639 59.3577 47.0186 60.5814 50.3747 60.5814C53.7308 60.5814 57.0912 59.3522 59.658 56.8911C62.2249 54.43 63.5012 51.2136 63.5012 47.9957C63.5012 44.7779 62.2192 41.5559 59.6537 39.0962C57.0912 36.6392 53.7308 35.41 50.3747 35.41ZM56.2232 53.6087C54.6103 55.1552 52.4918 55.9284 50.3747 55.9284C48.2576 55.9284 46.1391 55.1552 44.5205 53.6032C42.9019 52.0513 42.1012 50.0256 42.1012 47.9957C42.1012 45.9659 42.9076 43.9346 44.5262 42.3827C46.1448 40.8308 48.2576 40.0631 50.3747 40.0631C52.4918 40.0631 54.6103 40.8363 56.2289 42.3882C57.8475 43.9401 58.6482 45.9659 58.6482 47.9957C58.6482 50.0256 57.8418 52.0568 56.2232 53.6087ZM59.6537 39.0962C57.0912 36.6392 53.7308 35.41 50.3747 35.41C47.0186 35.41 43.6582 36.6392 41.0913 39.1003C38.5245 41.5614 37.2482 44.7779 37.2482 47.9957C37.2482 51.2136 38.5302 54.4355 41.0971 56.8966C43.6639 59.3577 47.0186 60.5814 50.3747 60.5814C53.7308 60.5814 57.0912 59.3522 59.658 56.8911C62.2249 54.43 63.5012 51.2136 63.5012 47.9957C63.5012 44.7779 62.2192 41.5559 59.6537 39.0962ZM56.2232 53.6087C54.6103 55.1552 52.4918 55.9284 50.3747 55.9284C48.2576 55.9284 46.1391 55.1552 44.5205 53.6032C42.9019 52.0513 42.1012 50.0256 42.1012 47.9957C42.1012 45.9659 42.9076 43.9346 44.5262 42.3827C46.1448 40.8308 48.2576 40.0631 50.3747 40.0631C52.4918 40.0631 54.6103 40.8363 56.2289 42.3882C57.8475 43.9401 58.6482 45.9659 58.6482 47.9957C58.6482 50.0256 57.8418 52.0568 56.2232 53.6087ZM59.6537 39.0962C57.0912 36.6392 53.7308 35.41 50.3747 35.41C47.0186 35.41 43.6582 36.6392 41.0913 39.1003C38.5245 41.5614 37.2482 44.7779 37.2482 47.9957C37.2482 51.2136 38.5302 54.4355 41.0971 56.8966C43.6639 59.3577 47.0186 60.5814 50.3747 60.5814C53.7308 60.5814 57.0912 59.3522 59.658 56.8911C62.2249 54.43 63.5012 51.2136 63.5012 47.9957C63.5012 44.7779 62.2192 41.5559 59.6537 39.0962ZM56.2232 53.6087C54.6103 55.1552 52.4918 55.9284 50.3747 55.9284C48.2576 55.9284 46.1391 55.1552 44.5205 53.6032C42.9019 52.0513 42.1012 50.0256 42.1012 47.9957C42.1012 45.9659 42.9076 43.9346 44.5262 42.3827C46.1448 40.8308 48.2576 40.0631 50.3747 40.0631C52.4918 40.0631 54.6103 40.8363 56.2289 42.3882C57.8475 43.9401 58.6482 45.9659 58.6482 47.9957C58.6482 50.0256 57.8418 52.0568 56.2232 53.6087ZM59.6537 39.0962C57.0912 36.6392 53.7308 35.41 50.3747 35.41C47.0186 35.41 43.6582 36.6392 41.0913 39.1003C38.5245 41.5614 37.2482 44.7779 37.2482 47.9957C37.2482 51.2136 38.5302 54.4355 41.0971 56.8966C43.6639 59.3577 47.0186 60.5814 50.3747 60.5814C53.7308 60.5814 57.0912 59.3522 59.658 56.8911C62.2249 54.43 63.5012 51.2136 63.5012 47.9957C63.5012 44.7779 62.2192 41.5559 59.6537 39.0962ZM56.2232 53.6087C54.6103 55.1552 52.4918 55.9284 50.3747 55.9284C48.2576 55.9284 46.1391 55.1552 44.5205 53.6032C42.9019 52.0513 42.1012 50.0256 42.1012 47.9957C42.1012 45.9659 42.9076 43.9346 44.5262 42.3827C46.1448 40.8308 48.2576 40.0631 50.3747 40.0631C52.4918 40.0631 54.6103 40.8363 56.2289 42.3882C57.8475 43.9401 58.6482 45.9659 58.6482 47.9957C58.6482 50.0256 57.8418 52.0568 56.2232 53.6087ZM59.6537 39.0962C57.0912 36.6392 53.7308 35.41 50.3747 35.41C47.0186 35.41 43.6582 36.6392 41.0913 39.1003C38.5245 41.5614 37.2482 44.7779 37.2482 47.9957C37.2482 51.2136 38.5302 54.4355 41.0971 56.8966C43.6639 59.3577 47.0186 60.5814 50.3747 60.5814C53.7308 60.5814 57.0912 59.3522 59.658 56.8911C62.2249 54.43 63.5012 51.2136 63.5012 47.9957C63.5012 44.7779 62.2192 41.5559 59.6537 39.0962ZM56.2232 53.6087C54.6103 55.1552 52.4918 55.9284 50.3747 55.9284C48.2576 55.9284 46.1391 55.1552 44.5205 53.6032C42.9019 52.0513 42.1012 50.0256 42.1012 47.9957C42.1012 45.9659 42.9076 43.9346 44.5262 42.3827C46.1448 40.8308 48.2576 40.0631 50.3747 40.0631C52.4918 40.0631 54.6103 40.8363 56.2289 42.3882C57.8475 43.9401 58.6482 45.9659 58.6482 47.9957C58.6482 50.0256 57.8418 52.0568 56.2232 53.6087Z" fill="var(--fill-0, #1E1E1E)"/>
<path id="Vector_2" d="M59.6538 39.0961C57.0912 36.6392 53.7308 35.41 50.3747 35.41C47.0186 35.41 43.6582 36.6392 41.0914 39.1003C38.5245 41.5614 37.2483 44.7778 37.2483 47.9957C37.2483 51.2135 38.5303 54.4355 41.0971 56.8966C43.664 59.3577 47.0186 60.5814 50.3747 60.5814C53.7308 60.5814 57.0912 59.3522 59.6581 56.8911C62.2249 54.43 63.5012 51.2135 63.5012 47.9957C63.5012 44.7778 62.2192 41.5559 59.6538 39.0961ZM56.2232 53.6087C54.6103 55.1551 52.4918 55.9283 50.3747 55.9283C48.2577 55.9283 46.1392 55.1551 44.5205 53.6032C42.9019 52.0513 42.1012 50.0255 42.1012 47.9957C42.1012 45.9658 42.9077 43.9346 44.5263 42.3827C46.1449 40.8307 48.2577 40.063 50.3747 40.063C52.4918 40.063 54.6103 40.8362 56.2289 42.3882C57.8475 43.9401 58.6483 45.9658 58.6483 47.9957C58.6483 50.0255 57.8418 52.0568 56.2232 53.6087Z" fill="var(--fill-0, #75E1B3)"/>
<path id="Vector_3" d="M78.8837 44.2903C78.8837 43.1147 77.9555 42.1039 76.7108 41.983L73.1054 41.6259C72.8662 40.8431 72.5826 40.0699 72.2546 39.309C71.928 38.5537 71.5585 37.812 71.1459 37.0883L73.3217 34.5241C74.2184 33.6122 74.2012 32.177 73.2716 31.2857L67.7998 26.0476C66.9347 25.2167 65.5352 25.1316 64.5641 25.8883L61.7537 28.0802C60.9988 27.6833 60.2282 27.329 59.439 27.02C58.644 26.7055 57.8361 26.4335 57.0196 26.2042L56.6658 22.9259C56.6358 21.6679 55.56 20.6557 54.2408 20.6557L46.5102 20.6626C45.284 20.6626 44.2298 21.5525 44.1037 22.746L43.7328 26.2028C42.9177 26.4308 42.1113 26.7027 41.3177 27.0172C40.5285 27.3304 39.7536 27.6847 39.0001 28.0816L36.2241 25.9171C35.2759 25.1467 33.8521 25.1879 32.9554 26.0435L27.4865 31.2857C26.6156 32.1152 26.5254 33.4598 27.3161 34.3923L29.605 37.091C29.1925 37.812 28.823 38.5537 28.4964 39.3104C28.1684 40.0699 27.8847 40.8445 27.647 41.6259L24.2278 41.9638C22.9158 41.9926 21.8601 43.024 21.8601 44.2889L21.8673 51.7038C21.8673 52.8794 22.7954 53.8902 24.0402 54.0111L27.647 54.3668C27.8733 55.1112 28.1426 55.8487 28.4505 56.5752L28.4978 56.6947C28.8201 57.4432 29.1897 58.1821 29.6036 58.9058L27.4292 61.4686C26.5326 62.3805 26.5498 63.8157 27.4794 64.707L32.9511 69.9451C33.8163 70.776 35.2157 70.8611 36.1869 70.1044L38.9973 67.9125C39.7521 68.3094 40.5228 68.6637 41.312 68.9727C42.107 69.2872 42.9149 69.5592 43.7313 69.7885L44.0837 73.0682C44.1138 74.3262 45.1895 75.3384 46.5087 75.3384L54.2422 75.3315C55.4684 75.3315 56.5226 74.4416 56.6487 73.2481L57.0196 69.7885C57.8332 69.5605 58.6397 69.2886 59.4332 68.9741C60.221 68.661 60.996 68.3066 61.7494 67.9111L64.4266 69.9973C65.3762 70.857 66.8731 70.8405 67.8027 69.9492L73.2659 64.7029C74.1325 63.8734 74.2213 62.5316 73.432 61.6004L71.1459 58.9058C71.5613 58.1807 71.9309 57.4418 72.256 56.6837C72.584 55.9228 72.8677 55.1483 73.1054 54.3668L76.5231 54.0276C77.8352 53.9974 78.8909 52.9673 78.8909 51.7024L78.8837 44.2903ZM74.0379 49.6108L70.9268 49.9184C69.8525 50.0228 69.0145 50.7905 68.804 51.7532C68.5662 52.8314 68.2267 53.8916 67.7841 54.912C67.3443 55.9283 66.8058 56.9144 66.1726 57.8456C65.5725 58.7314 65.6842 59.8631 66.3689 60.6239L68.2983 62.8983L65.9163 65.1822L63.4883 63.2897C62.6533 62.6387 61.5016 62.6112 60.645 63.1441C59.6653 63.7552 58.6397 64.2716 57.594 64.6864C56.5255 65.1094 55.4182 65.4363 54.2938 65.6643C53.2138 65.8785 52.4532 66.7547 52.3744 67.76L52.0593 70.6853H48.6917L48.3709 67.6996C48.262 66.6696 47.4613 65.8661 46.4572 65.6643C45.3342 65.4363 44.2255 65.1094 43.1598 64.685C42.1013 64.2648 41.0728 63.7484 40.1045 63.1427C39.1806 62.5673 38.0003 62.6744 37.2068 63.3309L34.8333 65.1822L32.4512 62.8983L34.4265 60.5704C35.1054 59.7697 35.1341 58.6655 34.5783 57.8442C33.9466 56.9158 33.4081 55.9297 32.9697 54.9148L32.9239 54.8145C32.5042 53.8243 32.1776 52.7943 31.9484 51.7532C31.725 50.7177 30.8111 49.9884 29.764 49.9129L26.713 49.6121V46.3806L29.8256 46.0743C30.8999 45.9699 31.7379 45.2022 31.9484 44.2395C32.1862 43.1614 32.5271 42.097 32.9683 41.0738C33.4009 40.0712 33.938 39.0893 34.5769 38.1499C35.1771 37.264 35.0653 36.1338 34.3821 35.3729L32.4455 33.0903L34.829 30.8064L37.2612 32.703C38.0963 33.354 39.2479 33.3815 40.1045 32.8486C41.0871 32.2361 42.1113 31.7197 43.1569 31.3049C44.2241 30.8819 45.3327 30.5551 46.4586 30.3271C47.5386 30.1128 48.2992 29.2366 48.378 28.2327L48.6917 25.3087H52.0593L52.3801 28.2931C52.489 29.3231 53.2897 30.1266 54.2938 30.3285C55.4168 30.5564 56.5255 30.8833 57.5912 31.3077C58.6497 31.7279 59.6782 32.2443 60.6465 32.85C61.5704 33.4254 62.7507 33.3183 63.5442 32.6618L65.9177 30.8105L68.2998 33.0945L66.3245 35.4223C65.6455 36.223 65.6169 37.3272 66.1726 38.1485C66.8115 39.0893 67.3501 40.0712 67.7827 41.0724C68.2238 42.0956 68.5662 43.16 68.804 44.2395C69.0274 45.2736 69.9413 46.0029 70.9884 46.0798L74.0379 46.3819V49.6108Z" fill="var(--fill-0, #75E1B3)"/>
</g>
<path id="Vector_4" d="M33.703 91.1749C33.1759 92.3532 31.7478 92.8985 30.5188 92.393C21.4188 88.6478 13.6939 82.3879 8.29093 74.5281C3.05267 66.9058 0.000232703 57.7838 0.000232703 47.9943C0.000232703 46.7102 1.08742 45.6678 2.42671 45.6678C3.766 45.6678 4.85319 46.7102 4.85319 47.9943C4.85319 56.8663 7.60482 65.1121 12.3274 71.9846C17.2004 79.074 24.1891 84.7282 32.4325 88.1218C33.6615 88.6272 34.2302 89.9965 33.703 91.1749Z" fill="var(--fill-0, #75E1B3)"/>
<path id="Vector_5" d="M47.4167 93.7939C47.3494 95.0725 46.2106 96.0572 44.877 95.9927L44.7668 95.9872C43.4332 95.9227 42.4062 94.8308 42.4735 93.5522C42.5408 92.2736 43.6796 91.2889 45.0131 91.3534L45.1234 91.3589C46.457 91.4235 47.484 92.5153 47.4167 93.7939Z" fill="var(--fill-0, #75E1B3)"/>
<path id="Vector_6" d="M58.2759 2.40203C58.2287 3.68066 57.1071 4.68185 55.7735 4.63653H55.7363C54.4027 4.58983 53.3585 3.51448 53.4058 2.23586C53.4531 0.957235 54.5746 -0.0439624 55.9082 0.00135927H55.9454C57.279 0.0480543 58.3232 1.12341 58.2759 2.40203Z" fill="var(--fill-0, #75E1B3)"/>
<path id="Vector_7" d="M100.75 47.9942C100.75 49.2783 99.6633 50.3207 98.324 50.3207C96.9847 50.3207 95.8975 49.2783 95.8975 47.9942C95.8975 39.1222 93.1459 30.8777 88.4233 24.0053C83.5503 16.9159 76.5616 11.2617 68.3196 7.86806C67.0906 7.36266 66.522 5.99339 67.0491 4.81503C67.5762 3.63666 69.0043 3.09143 70.2333 3.59684C79.3319 7.34343 87.0568 13.6019 92.4598 21.4618C97.6981 29.0841 100.75 38.2047 100.75 47.9942Z" fill="var(--fill-0, #75E1B3)"/>
</g>
<defs>
<clipPath id="clip0_319_170">
<rect width="114" height="109" fill="white"/>
</clipPath>
</defs>
</svg>
