<svg preserveAspectRatio="none" width="100%" height="100%" overflow="visible" style="display: block;" viewBox="0 0 120 92" fill="none" xmlns="http://www.w3.org/2000/svg">
<g id="Layer_1" clip-path="url(#clip0_319_306)">
<g id="Group">
<path id="Vector" d="M76.5745 90.391C76.5745 90.4117 74.187 91.4117 72.9884 91.911C72.4886 92.1193 71.9095 91.9571 71.5973 91.5215C70.5815 90.1 68.6276 87.3336 67.2203 85.4829C66.7642 84.8819 66.3646 84.3763 66.0751 84.0456C65.5364 83.4319 64.9703 82.842 64.3783 82.276C62.2059 80.2075 59.6891 78.4856 56.9263 77.212C54.1975 78.67 51.2941 79.8275 48.2677 80.6383C44.8708 81.5462 41.2977 82.0327 37.6162 82.0327C33.9347 82.0327 30.3616 81.5462 26.9647 80.6383C23.9383 79.8275 21.0348 78.67 18.3061 77.212C14.7912 78.8338 11.6709 81.1773 9.15568 84.0456C7.84062 85.5465 6.69056 87.1921 5.7346 88.9553C5.13449 90.0619 3.80973 90.577 2.60952 90.1493C1.32196 89.6898 0.086167 89.1048 0.037641 88.8392V88.8345C-0.0319129 88.5483 -0.00441486 88.2478 0.121753 87.9823C1.40607 85.2762 3.06081 82.7705 5.0245 80.5318C8.36794 76.7192 12.6124 73.6792 17.418 71.7331C18.2721 71.3881 19.2038 71.501 19.9268 71.9541C22.5327 73.4518 25.3779 74.6348 28.3979 75.4424C31.3288 76.2247 34.4216 76.646 37.6162 76.646C40.8108 76.646 43.9035 76.2247 46.8345 75.4424C49.89 74.6252 52.766 73.4248 55.3961 71.9017C56.1596 71.4612 57.0525 71.4279 57.8127 71.7347C61.842 73.3644 65.4734 75.7636 68.5111 78.7384C69.0983 79.3155 69.6644 79.9133 70.2063 80.5318C70.5346 80.9055 70.9131 81.3999 71.3175 81.9659C73.5238 85.0472 76.5195 90.2972 76.5745 90.391Z" fill="var(--fill-0, #1E1E1E)"/>
<path id="Vector_2" d="M53.981 28.8654C49.7899 24.7474 44.0024 22.1972 37.6164 22.1972C31.2304 22.1972 25.4428 24.7474 21.2421 28.8749C17.0527 32.9944 14.4581 38.6832 14.4581 44.9603C14.4581 51.2373 17.0527 56.9245 21.2518 61.0552C25.4428 65.1731 31.2304 67.7234 37.6164 67.7234C44.0024 67.7234 49.7899 65.1731 53.9907 61.0456C58.1801 56.9245 60.7746 51.2357 60.7746 44.9603C60.7746 38.6848 58.1801 32.9944 53.981 28.8654ZM50.1232 57.2536C46.9253 60.3922 42.503 62.3367 37.6164 62.3367C32.7298 62.3367 28.3075 60.3922 25.1096 57.2536C21.9166 54.1103 19.9383 49.7619 19.9383 44.9603C19.9383 40.1587 21.9166 35.8102 25.1096 32.6669C28.3075 29.5284 32.7298 27.5839 37.6164 27.5839C42.503 27.5839 46.9253 29.5284 50.1232 32.6669C53.3162 35.8102 55.2944 40.1571 55.2944 44.9603C55.2944 49.7635 53.3162 54.1103 50.1232 57.2536Z" fill="var(--fill-0, #1E1E1E)"/>
</g>
<g id="Group_2">
<path id="Vector_3" d="M120 90.7344C120 90.7503 118.122 91.5373 117.181 91.9301C116.786 92.0938 116.331 91.9666 116.085 91.6232C115.028 90.143 112.674 86.8057 111.742 85.7452C109.766 83.4907 107.314 81.6464 104.549 80.3712C102.403 81.5176 100.119 82.4286 97.7394 83.0662C95.0688 83.7801 92.2592 84.1616 89.3638 84.1616C86.4684 84.1616 83.6588 83.7801 80.9866 83.0662C78.6072 82.4286 76.3232 81.5176 74.1784 80.3712C73.1804 80.8307 72.2244 81.3649 71.317 81.9659C69.8046 82.9644 68.4264 84.1473 67.2198 85.4829C66.7636 84.8819 66.3641 84.3763 66.0745 84.0456C65.5359 83.4319 64.9698 82.842 64.3777 82.276C65.6216 80.9595 67.0079 79.7718 68.5105 78.7384C70.0521 77.6763 71.7181 76.7764 73.4796 76.0625C74.1509 75.7922 74.8836 75.8797 75.453 76.2374C77.5024 77.414 79.7395 78.3441 82.114 78.98C84.419 79.5953 86.8518 79.926 89.3638 79.926C91.8758 79.926 94.307 79.5953 96.612 78.98C99.0156 78.3377 101.277 77.3933 103.346 76.1961C103.946 75.8495 104.648 75.8224 105.245 76.0641C109.027 77.5936 112.364 79.9849 114.992 82.9819C116.655 84.8771 119.95 90.647 120 90.7344Z" fill="var(--fill-0, #1E1E1E)"/>
<path id="Vector_4" d="M102.233 42.3527C98.9363 39.114 94.3846 37.1091 89.3638 37.1091C84.3429 37.1091 79.7896 39.114 76.4866 42.3591C73.1917 45.5994 71.152 50.0734 71.152 55.0086C71.152 59.9438 73.1917 64.4178 76.4947 67.6661C79.7896 70.9048 84.3413 72.9097 89.3638 72.9097C94.3862 72.9097 98.9363 70.9048 102.239 67.6581C105.534 64.4178 107.574 59.9438 107.574 55.0086C107.574 50.0734 105.534 45.5994 102.233 42.3527ZM99.1984 64.677C96.6831 67.1446 93.2054 68.6741 89.3638 68.6741C85.5221 68.6741 82.0428 67.1446 79.5276 64.677C77.0171 62.2046 75.4611 58.7847 75.4611 55.0086C75.4611 51.2325 77.0171 47.8141 79.5276 45.3418C82.0428 42.8742 85.5205 41.3447 89.3638 41.3447C93.207 41.3447 96.6831 42.8742 99.1984 45.3418C101.709 47.8141 103.265 51.2325 103.265 55.0086C103.265 58.7847 101.709 62.2046 99.1984 64.677Z" fill="var(--fill-0, #1E1E1E)"/>
</g>
<path id="Vector_5" d="M87.3972 11.605C87.1804 10.9467 86.8132 10.3744 86.3231 9.91486C85.8395 9.46173 85.2442 9.12944 84.5665 8.94341C82.8794 8.48074 79.7026 7.82569 78.2532 7.18653L78.1497 7.07365L74.6057 1.82527C74.2159 1.24813 73.708 0.793406 73.116 0.481778C72.5175 0.165381 71.8527 2.78772e-05 71.1539 2.78772e-05C70.4551 2.78772e-05 69.7887 0.165381 69.1902 0.481778C68.5998 0.793406 68.0919 1.24813 67.7021 1.82527C67.1602 2.62819 64.4233 7.018 63.9057 7.25331L57.7397 8.94341C57.0716 9.12626 56.4829 9.45378 56.0041 9.89578L55.983 9.91486C55.4929 10.3744 55.1257 10.9499 54.909 11.605C54.7149 12.1917 54.6583 12.7958 54.7375 13.3905L54.7602 13.5781C54.8783 14.2315 55.1646 14.8516 55.6045 15.397L59.5853 20.3305L59.6645 20.4641L59.6823 20.6247L59.4106 26.9176C59.3815 27.6077 59.5206 28.2659 59.8101 28.8574C60.1029 29.4536 60.5429 29.9719 61.1139 30.3805C61.6832 30.7875 62.3157 31.0372 62.9886 31.1262C63.655 31.2136 64.3311 31.1421 64.9911 30.8972L70.9954 28.6984L71.1506 28.6729L71.3076 28.6984L77.3199 30.9036C77.9475 31.131 78.5945 31.2073 79.2335 31.1341L79.3224 31.1246C79.9872 31.034 80.6213 30.7844 81.1907 30.3789C81.7601 29.9719 82.2016 29.4536 82.4944 28.8574C82.784 28.2675 82.9214 27.6093 82.8939 26.9176L82.6222 20.6247L82.6416 20.4641L82.7209 20.3305L86.7016 15.3954C87.1432 14.85 87.4279 14.2299 87.5395 13.5765C87.6592 12.9246 87.6123 12.2537 87.3972 11.605ZM83.8984 12.9516C83.8887 13.0089 83.8564 13.0725 83.8062 13.1329L79.8255 18.0681C79.5084 18.4592 79.2723 18.8837 79.1235 19.3384C78.9747 19.7884 78.9116 20.2653 78.9326 20.7662L79.2044 27.0591C79.2076 27.1434 79.1946 27.2197 79.1655 27.2785C79.1397 27.3294 79.0895 27.3867 79.0216 27.4344C78.9504 27.4852 78.8792 27.517 78.8178 27.525H78.8064C78.7466 27.5298 78.6754 27.517 78.5945 27.4884L72.5983 25.2975C72.1098 25.1194 71.6278 25.0304 71.1523 25.0304C70.6767 25.0304 70.1979 25.1194 69.7078 25.2975L63.7116 27.4884C63.6259 27.5202 63.5499 27.5313 63.49 27.525C63.4269 27.517 63.3558 27.4852 63.2862 27.4344C63.2183 27.3867 63.1681 27.331 63.1422 27.277C63.1131 27.2181 63.1002 27.1418 63.1034 27.0591L63.3752 20.7662C63.3962 20.2669 63.3331 19.7899 63.1843 19.3384C63.0339 18.8837 62.7993 18.4592 62.4823 18.0681L58.5015 13.1345C58.453 13.0725 58.419 13.0105 58.4093 12.9532L58.398 12.8944L58.4304 12.7322C58.4579 12.6496 58.4934 12.5875 58.5339 12.5494L58.5452 12.5383C58.5889 12.5001 58.652 12.4651 58.728 12.446L64.907 10.7543C65.3955 10.6192 65.8387 10.4125 66.2285 10.1343L66.3822 10.0134C66.7154 9.74951 67.0033 9.43947 67.2443 9.08492L70.7883 3.83654C70.8336 3.76817 70.8886 3.71571 70.9436 3.68709C70.9921 3.66165 71.0649 3.64893 71.1571 3.64893C71.2493 3.64893 71.3205 3.66324 71.369 3.68709C71.424 3.71571 71.479 3.76817 71.5259 3.83654L75.0699 9.08492C75.353 9.50148 75.6911 9.85445 76.0857 10.1359C76.4756 10.4141 76.9188 10.6224 77.4073 10.7559L83.5863 12.4476C83.6655 12.4699 83.7302 12.5033 83.7804 12.5526C83.8192 12.5907 83.8564 12.6527 83.8839 12.7354C83.913 12.8197 83.9211 12.8944 83.9033 12.9564L83.8984 12.9516Z" fill="var(--fill-0, #75E1B3)"/>
</g>
<defs>
<clipPath id="clip0_319_306">
<rect width="120" height="92" fill="white"/>
</clipPath>
</defs>
</svg>
