<svg preserveAspectRatio="none" width="100%" height="100%" overflow="visible" style="display: block;" viewBox="0 0 79 79" fill="none" xmlns="http://www.w3.org/2000/svg">
<g id="Layer_1" clip-path="url(#clip0_319_249)">
<path id="Vector" fill-rule="evenodd" clip-rule="evenodd" d="M61.4835 13.7456H42.2523C41.6807 13.7456 41.2147 14.2029 41.2147 14.7745C41.2147 15.3462 41.6807 15.8035 42.2523 15.8035H61.4835C62.0551 15.8035 62.5123 15.3462 62.5123 14.7745C62.5123 14.2029 62.0551 13.7456 61.4835 13.7456ZM61.4835 8.2491H42.2523C41.6807 8.2491 41.2147 8.70641 41.2147 9.27804C41.2147 9.84968 41.6807 10.307 42.2523 10.307H61.4835C62.0551 10.307 62.5123 9.84968 62.5123 9.27804C62.5123 8.70641 62.0551 8.2491 61.4835 8.2491ZM61.4835 8.2491H42.2523C41.6807 8.2491 41.2147 8.70641 41.2147 9.27804C41.2147 9.84968 41.6807 10.307 42.2523 10.307H61.4835C62.0551 10.307 62.5123 9.84968 62.5123 9.27804C62.5123 8.70641 62.0551 8.2491 61.4835 8.2491ZM61.4835 13.7456H42.2523C41.6807 13.7456 41.2147 14.2029 41.2147 14.7745C41.2147 15.3462 41.6807 15.8035 42.2523 15.8035H61.4835C62.0551 15.8035 62.5123 15.3462 62.5123 14.7745C62.5123 14.2029 62.0551 13.7456 61.4835 13.7456ZM69.5295 27.0163C68.2456 25.9082 65.8802 25.6708 64.2358 27.157C62.5827 25.6708 60.2172 25.9082 58.9334 27.0163C57.4737 28.2651 57.2539 30.7715 58.7048 33.2779C59.5929 34.9049 61.8264 36.567 63.717 37.6487C64.0336 37.8334 64.4293 37.8334 64.7458 37.6487C66.6364 36.567 68.87 34.9049 69.7581 33.2779C71.209 30.7715 70.9892 28.2651 69.5295 27.0163ZM67.973 32.2578C67.973 32.2578 67.9642 32.2754 67.9554 32.2842C67.2959 33.4978 65.6955 34.685 64.2358 35.5645C62.7761 34.685 61.1669 33.4978 60.5074 32.2842C60.5074 32.2842 60.4986 32.2666 60.4986 32.2578C60.0238 31.4399 59.7688 30.622 59.7688 29.9097C59.7688 29.3644 59.9183 28.8807 60.2788 28.5729C61.0438 27.9134 62.5651 27.9837 63.3389 29.3029C63.5236 29.6195 63.8665 29.8217 64.2358 29.8217C64.6052 29.8217 64.9393 29.6195 65.124 29.3029C65.8978 27.9837 67.4191 27.9134 68.1929 28.5729C68.5534 28.8895 68.6941 29.3644 68.6941 29.9097C68.6941 30.622 68.4391 31.4399 67.973 32.2578ZM69.5295 27.0163C68.2456 25.9082 65.8802 25.6708 64.2358 27.157C62.5827 25.6708 60.2172 25.9082 58.9334 27.0163C57.4737 28.2651 57.2539 30.7715 58.7048 33.2779C59.5929 34.9049 61.8264 36.567 63.717 37.6487C64.0336 37.8334 64.4293 37.8334 64.7458 37.6487C66.6364 36.567 68.87 34.9049 69.7581 33.2779C71.209 30.7715 70.9892 28.2651 69.5295 27.0163ZM67.973 32.2578C67.973 32.2578 67.9642 32.2754 67.9554 32.2842C67.2959 33.4978 65.6955 34.685 64.2358 35.5645C62.7761 34.685 61.1669 33.4978 60.5074 32.2842C60.5074 32.2842 60.4986 32.2666 60.4986 32.2578C60.0238 31.4399 59.7688 30.622 59.7688 29.9097C59.7688 29.3644 59.9183 28.8807 60.2788 28.5729C61.0438 27.9134 62.5651 27.9837 63.3389 29.3029C63.5236 29.6195 63.8665 29.8217 64.2358 29.8217C64.6052 29.8217 64.9393 29.6195 65.124 29.3029C65.8978 27.9837 67.4191 27.9134 68.1929 28.5729C68.5534 28.8895 68.6941 29.3644 68.6941 29.9097C68.6941 30.622 68.4391 31.4399 67.973 32.2578ZM61.4835 13.7456H42.2523C41.6807 13.7456 41.2147 14.2029 41.2147 14.7745C41.2147 15.3462 41.6807 15.8035 42.2523 15.8035H61.4835C62.0551 15.8035 62.5123 15.3462 62.5123 14.7745C62.5123 14.2029 62.0551 13.7456 61.4835 13.7456ZM61.4835 8.2491H42.2523C41.6807 8.2491 41.2147 8.70641 41.2147 9.27804C41.2147 9.84968 41.6807 10.307 42.2523 10.307H61.4835C62.0551 10.307 62.5123 9.84968 62.5123 9.27804C62.5123 8.70641 62.0551 8.2491 61.4835 8.2491ZM69.5295 27.0163C68.2456 25.9082 65.8802 25.6708 64.2358 27.157C62.5827 25.6708 60.2172 25.9082 58.9334 27.0163C57.4737 28.2651 57.2539 30.7715 58.7048 33.2779C59.5929 34.9049 61.8264 36.567 63.717 37.6487C64.0336 37.8334 64.4293 37.8334 64.7458 37.6487C66.6364 36.567 68.87 34.9049 69.7581 33.2779C71.209 30.7715 70.9892 28.2651 69.5295 27.0163ZM67.973 32.2578C67.973 32.2578 67.9642 32.2754 67.9554 32.2842C67.2959 33.4978 65.6955 34.685 64.2358 35.5645C62.7761 34.685 61.1669 33.4978 60.5074 32.2842C60.5074 32.2842 60.4986 32.2666 60.4986 32.2578C60.0238 31.4399 59.7688 30.622 59.7688 29.9097C59.7688 29.3644 59.9183 28.8807 60.2788 28.5729C61.0438 27.9134 62.5651 27.9837 63.3389 29.3029C63.5236 29.6195 63.8665 29.8217 64.2358 29.8217C64.6052 29.8217 64.9393 29.6195 65.124 29.3029C65.8978 27.9837 67.4191 27.9134 68.1929 28.5729C68.5534 28.8895 68.6941 29.3644 68.6941 29.9097C68.6941 30.622 68.4391 31.4399 67.973 32.2578ZM69.5295 27.0163C68.2456 25.9082 65.8802 25.6708 64.2358 27.157C62.5827 25.6708 60.2172 25.9082 58.9334 27.0163C57.4737 28.2651 57.2539 30.7715 58.7048 33.2779C59.5929 34.9049 61.8264 36.567 63.717 37.6487C64.0336 37.8334 64.4293 37.8334 64.7458 37.6487C66.6364 36.567 68.87 34.9049 69.7581 33.2779C71.209 30.7715 70.9892 28.2651 69.5295 27.0163ZM67.973 32.2578C67.973 32.2578 67.9642 32.2754 67.9554 32.2842C67.2959 33.4978 65.6955 34.685 64.2358 35.5645C62.7761 34.685 61.1669 33.4978 60.5074 32.2842C60.5074 32.2842 60.4986 32.2666 60.4986 32.2578C60.0238 31.4399 59.7688 30.622 59.7688 29.9097C59.7688 29.3644 59.9183 28.8807 60.2788 28.5729C61.0438 27.9134 62.5651 27.9837 63.3389 29.3029C63.5236 29.6195 63.8665 29.8217 64.2358 29.8217C64.6052 29.8217 64.9393 29.6195 65.124 29.3029C65.8978 27.9837 67.4191 27.9134 68.1929 28.5729C68.5534 28.8895 68.6941 29.3644 68.6941 29.9097C68.6941 30.622 68.4391 31.4399 67.973 32.2578ZM42.2523 10.307H61.4835C62.0551 10.307 62.5123 9.84968 62.5123 9.27804C62.5123 8.70641 62.0551 8.2491 61.4835 8.2491H42.2523C41.6807 8.2491 41.2147 8.70641 41.2147 9.27804C41.2147 9.84968 41.6807 10.307 42.2523 10.307ZM61.4835 13.7456H42.2523C41.6807 13.7456 41.2147 14.2029 41.2147 14.7745C41.2147 15.3462 41.6807 15.8035 42.2523 15.8035H61.4835C62.0551 15.8035 62.5123 15.3462 62.5123 14.7745C62.5123 14.2029 62.0551 13.7456 61.4835 13.7456ZM77.892 21.7133C77.1885 21.0098 76.23 20.6052 75.2276 20.6052H67.9994C67.9994 20.4997 68.0082 20.3854 68.0082 20.2622V3.77275C68.0082 2.77019 67.6125 1.8116 66.9002 1.09926C66.188 0.386913 65.2383 -4.06244e-05 64.2358 -4.06244e-05H39.5C38.4975 -4.06244e-05 37.539 0.395707 36.8268 1.09926C36.1233 1.8116 35.7188 2.77019 35.7188 3.77275V20.2622C35.7276 21.2648 36.1233 22.2322 36.8356 22.9357C37.539 23.6481 38.4975 24.0438 39.5 24.0438H41.2147V31.264C41.2147 31.6773 41.4697 32.0555 41.8566 32.2138C42.2347 32.3721 42.6832 32.2842 42.9734 31.9939L49.4629 25.5037V39.5044C49.4629 40.5069 49.8674 41.4655 50.5709 42.1778C51.2831 42.8814 52.2416 43.2859 53.2441 43.2859H65.1855L71.7542 49.8466C72.0444 50.1456 72.4928 50.2335 72.871 50.0752C73.2579 49.9169 73.5129 49.5388 73.5129 49.1254V43.2771H75.2276C76.2213 43.2771 77.1885 42.8814 77.892 42.1691C78.6043 41.4655 79 40.5069 79 39.5044V24.3868C79 23.3842 78.6043 22.4257 77.892 21.7133ZM50.4917 21.9859C50.2103 21.9859 49.9553 22.1003 49.7619 22.2849L43.2723 28.7752V23.0149C43.2723 22.7423 43.1668 22.4784 42.9734 22.2849C42.7799 22.0915 42.5161 21.9859 42.2435 21.9859H39.5C39.0427 21.9859 38.603 21.81 38.2865 21.4847C37.9611 21.1593 37.7853 20.7195 37.7853 20.271V3.78155C37.7853 3.32424 37.9611 2.88452 38.2865 2.56792C38.603 2.24253 39.0427 2.05785 39.5 2.05785H64.2358C64.6843 2.05785 65.124 2.24253 65.4493 2.56792C65.7747 2.89331 65.9505 3.31544 65.9505 3.77275V20.271C65.9418 20.7283 65.7659 21.1593 65.4405 21.4847C65.124 21.81 64.6843 21.9859 64.227 21.9859H50.4917ZM76.9335 39.5044C76.9335 39.9617 76.7576 40.3926 76.4323 40.718C76.1157 41.0434 75.6761 41.2193 75.2188 41.2193H72.4753C72.2027 41.2193 71.9389 41.3336 71.7454 41.5271C71.5519 41.7117 71.4464 41.9756 71.4464 42.2482V46.6366L66.3375 41.5271C66.144 41.3336 65.8802 41.2281 65.6076 41.2281H53.2441C52.7868 41.2281 52.3471 41.0434 52.0218 40.7268C51.7052 40.4014 51.5206 39.9617 51.5206 39.5044V24.3956C51.5206 24.2725 51.5381 24.1581 51.5557 24.0438H64.2358C65.2383 24.0438 66.1968 23.6481 66.9002 22.9445C66.9882 22.8566 67.0761 22.7686 67.1465 22.6719H75.2188C75.6761 22.6719 76.1157 22.8566 76.4323 23.1732C76.7489 23.4898 76.9335 23.9383 76.9335 24.3956V39.5044ZM64.2358 27.157C62.5827 25.6708 60.2172 25.9082 58.9334 27.0163C57.4737 28.2651 57.2539 30.7715 58.7048 33.2779C59.5929 34.9049 61.8264 36.567 63.717 37.6487C64.0336 37.8334 64.4293 37.8334 64.7458 37.6487C66.6364 36.567 68.87 34.9049 69.7581 33.2779C71.209 30.7715 70.9892 28.2651 69.5295 27.0163C68.2456 25.9082 65.8802 25.6708 64.2358 27.157ZM67.973 32.2578C67.973 32.2578 67.9642 32.2754 67.9554 32.2842C67.2959 33.4978 65.6955 34.685 64.2358 35.5645C62.7761 34.685 61.1669 33.4978 60.5074 32.2842C60.5074 32.2842 60.4986 32.2666 60.4986 32.2578C60.0238 31.4399 59.7688 30.622 59.7688 29.9097C59.7688 29.3644 59.9183 28.8807 60.2788 28.5729C61.0438 27.9134 62.5651 27.9837 63.3389 29.3029C63.5236 29.6195 63.8665 29.8217 64.2358 29.8217C64.6052 29.8217 64.9393 29.6195 65.124 29.3029C65.8978 27.9837 67.4191 27.9134 68.1929 28.5729C68.5534 28.8895 68.6941 29.3644 68.6941 29.9097C68.6941 30.622 68.4391 31.4399 67.973 32.2578ZM61.4835 8.2491H42.2523C41.6807 8.2491 41.2147 8.70641 41.2147 9.27804C41.2147 9.84968 41.6807 10.307 42.2523 10.307H61.4835C62.0551 10.307 62.5123 9.84968 62.5123 9.27804C62.5123 8.70641 62.0551 8.2491 61.4835 8.2491ZM61.4835 13.7456H42.2523C41.6807 13.7456 41.2147 14.2029 41.2147 14.7745C41.2147 15.3462 41.6807 15.8035 42.2523 15.8035H61.4835C62.0551 15.8035 62.5123 15.3462 62.5123 14.7745C62.5123 14.2029 62.0551 13.7456 61.4835 13.7456ZM61.4835 13.7456H42.2523C41.6807 13.7456 41.2147 14.2029 41.2147 14.7745C41.2147 15.3462 41.6807 15.8035 42.2523 15.8035H61.4835C62.0551 15.8035 62.5123 15.3462 62.5123 14.7745C62.5123 14.2029 62.0551 13.7456 61.4835 13.7456ZM61.4835 8.2491H42.2523C41.6807 8.2491 41.2147 8.70641 41.2147 9.27804C41.2147 9.84968 41.6807 10.307 42.2523 10.307H61.4835C62.0551 10.307 62.5123 9.84968 62.5123 9.27804C62.5123 8.70641 62.0551 8.2491 61.4835 8.2491ZM69.5295 27.0163C68.2456 25.9082 65.8802 25.6708 64.2358 27.157C62.5827 25.6708 60.2172 25.9082 58.9334 27.0163C57.4737 28.2651 57.2539 30.7715 58.7048 33.2779C59.5929 34.9049 61.8264 36.567 63.717 37.6487C64.0336 37.8334 64.4293 37.8334 64.7458 37.6487C66.6364 36.567 68.87 34.9049 69.7581 33.2779C71.209 30.7715 70.9892 28.2651 69.5295 27.0163ZM67.973 32.2578C67.973 32.2578 67.9642 32.2754 67.9554 32.2842C67.2959 33.4978 65.6955 34.685 64.2358 35.5645C62.7761 34.685 61.1669 33.4978 60.5074 32.2842C60.5074 32.2842 60.4986 32.2666 60.4986 32.2578C60.0238 31.4399 59.7688 30.622 59.7688 29.9097C59.7688 29.3644 59.9183 28.8807 60.2788 28.5729C61.0438 27.9134 62.5651 27.9837 63.3389 29.3029C63.5236 29.6195 63.8665 29.8217 64.2358 29.8217C64.6052 29.8217 64.9393 29.6195 65.124 29.3029C65.8978 27.9837 67.4191 27.9134 68.1929 28.5729C68.5534 28.8895 68.6941 29.3644 68.6941 29.9097C68.6941 30.622 68.4391 31.4399 67.973 32.2578ZM69.5295 27.0163C68.2456 25.9082 65.8802 25.6708 64.2358 27.157C62.5827 25.6708 60.2172 25.9082 58.9334 27.0163C57.4737 28.2651 57.2539 30.7715 58.7048 33.2779C59.5929 34.9049 61.8264 36.567 63.717 37.6487C64.0336 37.8334 64.4293 37.8334 64.7458 37.6487C66.6364 36.567 68.87 34.9049 69.7581 33.2779C71.209 30.7715 70.9892 28.2651 69.5295 27.0163ZM67.973 32.2578C67.973 32.2578 67.9642 32.2754 67.9554 32.2842C67.2959 33.4978 65.6955 34.685 64.2358 35.5645C62.7761 34.685 61.1669 33.4978 60.5074 32.2842C60.5074 32.2842 60.4986 32.2666 60.4986 32.2578C60.0238 31.4399 59.7688 30.622 59.7688 29.9097C59.7688 29.3644 59.9183 28.8807 60.2788 28.5729C61.0438 27.9134 62.5651 27.9837 63.3389 29.3029C63.5236 29.6195 63.8665 29.8217 64.2358 29.8217C64.6052 29.8217 64.9393 29.6195 65.124 29.3029C65.8978 27.9837 67.4191 27.9134 68.1929 28.5729C68.5534 28.8895 68.6941 29.3644 68.6941 29.9097C68.6941 30.622 68.4391 31.4399 67.973 32.2578ZM61.4835 8.2491H42.2523C41.6807 8.2491 41.2147 8.70641 41.2147 9.27804C41.2147 9.84968 41.6807 10.307 42.2523 10.307H61.4835C62.0551 10.307 62.5123 9.84968 62.5123 9.27804C62.5123 8.70641 62.0551 8.2491 61.4835 8.2491ZM61.4835 13.7456H42.2523C41.6807 13.7456 41.2147 14.2029 41.2147 14.7745C41.2147 15.3462 41.6807 15.8035 42.2523 15.8035H61.4835C62.0551 15.8035 62.5123 15.3462 62.5123 14.7745C62.5123 14.2029 62.0551 13.7456 61.4835 13.7456ZM48.5572 55.8531L42.8503 45.9594C45.3036 43.9807 46.0159 40.4454 44.3891 37.6312C42.7623 34.8169 39.3505 33.6737 36.4047 34.7994L30.6978 24.9145C30.1965 24.0438 29.37 23.4106 28.4027 23.1556C27.4354 22.8918 26.4066 23.0325 25.536 23.5337C24.6743 24.035 24.0412 24.8529 23.7773 25.8291C23.5135 26.7965 23.6542 27.8254 24.1555 28.6961L24.4984 29.2941L12.5042 45.335L5.54861 49.3541C4.04493 50.2247 3.36784 51.9572 3.77234 53.5578L1.53881 54.8418C0.0703113 55.6948 -0.439707 57.5768 0.413254 59.0455L3.50854 64.4101C4.00976 65.2807 4.83634 65.9139 5.80362 66.1689C6.77089 66.4328 7.79972 66.2921 8.67027 65.7908L10.2883 64.8586C10.851 65.4038 11.5721 65.7556 12.3283 65.8699L18.431 76.432C19.108 77.6104 20.2336 78.4723 21.5438 78.8329C22.8628 79.1758 24.261 78.9912 25.4481 78.314C26.6264 77.6368 27.4882 76.5111 27.8399 75.192C28.1916 73.8816 28.007 72.4745 27.3211 71.2961L21.6493 61.4639L21.7637 61.4024L41.6631 59.0279L42.0061 59.6259C42.5073 60.4966 43.3339 61.1298 44.3012 61.3848C45.2684 61.6486 46.3061 61.5079 47.1678 61.0066C48.0384 60.5054 48.6715 59.6875 48.9265 58.7113C49.1903 57.7527 49.0496 56.715 48.5484 55.8531H48.5572ZM42.604 38.6689C43.6593 40.4893 43.2723 42.7583 41.8038 44.1478L37.4599 36.6198C39.3944 36.0394 41.5488 36.8397 42.604 38.6689ZM7.64144 64.0143C7.24573 64.2342 6.77968 64.2957 6.34001 64.1814C5.90034 64.0671 5.52223 63.7769 5.2936 63.3811L2.18952 58.0165C1.90813 57.5329 2.084 56.9085 2.56764 56.627L4.67806 55.4134L9.13632 63.1437L7.64144 64.0143ZM11.4402 63.0118L5.94431 53.4874C5.46947 52.6696 5.75085 51.6142 6.57744 51.1393L12.8208 47.5336L14.5355 50.5061L10.6664 52.7399C10.1739 53.0213 10.0069 53.6545 10.2883 54.147C10.5784 54.6395 11.2028 54.8154 11.6952 54.5252L15.5643 52.2914L17.279 55.2639L13.4187 57.4977C12.9175 57.7879 12.7504 58.4211 13.0406 58.9136C13.322 59.4061 13.9551 59.5732 14.4475 59.2829L18.3166 57.058L20.0314 60.0305L19.7324 60.1976L13.788 63.6362C12.9615 64.1111 11.915 63.8296 11.4402 63.0118ZM25.5448 72.3338C25.9581 73.0374 26.0724 73.8816 25.8526 74.6643C25.6416 75.4558 25.1315 76.1242 24.4193 76.5375C23.7158 76.9421 22.8716 77.0564 22.089 76.8453C21.2976 76.6343 20.6293 76.1154 20.216 75.4118L14.5443 65.5797L19.8731 62.5017L25.5448 72.3338ZM21.9923 59.3005L14.43 46.2057L25.624 31.2376L40.5552 57.0931L21.9923 59.3005ZM46.948 58.1924C46.8249 58.6322 46.5347 59.0103 46.1478 59.239C45.7521 59.4588 45.2772 59.5292 44.8376 59.4061C44.3979 59.2917 44.0286 59.0015 43.7999 58.6058L25.9405 27.6671C25.7119 27.2714 25.6503 26.7965 25.7647 26.3567C25.8878 25.917 26.1692 25.5389 26.5649 25.319C26.9606 25.0904 27.4266 25.0288 27.8663 25.1431C28.306 25.2574 28.6841 25.5477 28.9127 25.9434L46.7721 56.8821C47.0007 57.2866 47.0623 57.7527 46.948 58.1924Z" fill="var(--fill-0, #1E1E1E)"/>
<path id="Vector_2" d="M69.5293 27.0163C68.2455 25.9082 65.8801 25.6708 64.2357 27.157C62.5825 25.6708 60.2171 25.9082 58.9333 27.0163C57.4736 28.2651 57.2537 30.7715 58.7046 33.2779C59.5928 34.9049 61.8263 36.567 63.7169 37.6487C64.0334 37.8334 64.4291 37.8334 64.7457 37.6487C66.6363 36.567 68.8698 34.9049 69.758 33.2779C71.2089 30.7715 70.989 28.2651 69.5293 27.0163ZM67.9729 32.2578C67.9729 32.2578 67.9641 32.2753 67.9553 32.2841C67.2958 33.4978 65.6954 34.685 64.2357 35.5644C62.776 34.685 61.1668 33.4978 60.5073 32.2841C60.5073 32.2841 60.4985 32.2666 60.4985 32.2578C60.0236 31.4399 59.7686 30.622 59.7686 29.9097C59.7686 29.3644 59.9181 28.8807 60.2787 28.5729C61.0437 27.9133 62.5649 27.9837 63.3388 29.3028C63.5234 29.6194 63.8664 29.8217 64.2357 29.8217C64.605 29.8217 64.9392 29.6194 65.1238 29.3028C65.8976 27.9837 67.4189 27.9133 68.1927 28.5729C68.5533 28.8895 68.694 29.3644 68.694 29.9097C68.694 30.622 68.4389 31.4399 67.9729 32.2578Z" fill="var(--fill-0, #75E1B3)"/>
<path id="Vector_3" d="M62.5124 14.7746C62.5124 15.3462 62.0551 15.8035 61.4836 15.8035H42.2524C41.6808 15.8035 41.2148 15.3462 41.2148 14.7746C41.2148 14.2029 41.6808 13.7456 42.2524 13.7456H61.4836C62.0551 13.7456 62.5124 14.2029 62.5124 14.7746Z" fill="var(--fill-0, #75E1B3)"/>
<path id="Vector_4" d="M41.2148 9.27804C41.2148 8.7064 41.6808 8.24909 42.2524 8.24909H61.4836C62.0551 8.24909 62.5124 8.7064 62.5124 9.27804C62.5124 9.84967 62.0551 10.307 61.4836 10.307H42.2524C41.6808 10.307 41.2148 9.84967 41.2148 9.27804Z" fill="var(--fill-0, #75E1B3)"/>
</g>
<defs>
<clipPath id="clip0_319_249">
<rect width="79" height="79" fill="white"/>
</clipPath>
</defs>
</svg>
