<svg preserveAspectRatio="none" width="100%" height="100%" overflow="visible" style="display: block;" viewBox="0 0 30 29" fill="none" xmlns="http://www.w3.org/2000/svg">
<g id="Group 55">
<ellipse id="Ellipse 11" cx="15" cy="14.5" rx="15" ry="14.5" fill="var(--fill-0, white)"/>
<path id="Vector" d="M13.0974 18.2257C13.0154 17.188 13.0154 16.1503 12.9335 15.0328C12.9335 14.474 12.6875 14.0749 12.0317 14.0749C11.6218 14.0749 11.2119 14.1547 11.1299 13.5959C11.0479 12.8775 10.884 12.0793 11.1299 11.3609C11.1299 11.281 11.4578 11.1214 11.6218 11.1214C12.8515 11.3609 13.0974 10.7223 13.0974 9.76439C13.0974 7.21002 15.3109 5.853 18.1802 6.01265C19 6.09247 19 6.73107 19 7.28984C18.918 7.84861 19.2459 8.64686 18.1802 8.64686C17.2784 8.56703 16.6226 8.88633 16.6226 9.92404C16.6226 10.6425 16.7046 11.2012 17.6063 11.281C18.918 11.3609 18.6721 12.2389 18.6721 13.117C18.7541 14.0749 18.2622 14.3942 17.3604 14.3942C16.4586 14.3942 16.2947 14.8731 16.2947 15.6714C16.2947 17.4275 16.2947 19.1038 16.2127 20.8599C16.1307 21.9774 15.8847 22.0573 14.3271 21.9774C13.2614 21.9774 13.0974 21.4985 13.1794 20.6205C13.0154 19.902 13.0154 19.1038 13.0974 18.2257Z" fill="var(--fill-0, #1E1E1E)"/>
</g>
</svg>
