<svg preserveAspectRatio="none" width="100%" height="100%" overflow="visible" style="display: block;" viewBox="0 0 53 53" fill="none" xmlns="http://www.w3.org/2000/svg">
<g id="Layer_1" clip-path="url(#clip0_319_33)">
<path id="Vector" fill-rule="evenodd" clip-rule="evenodd" d="M41.2484 9.22165H28.3464C27.963 9.22165 27.6503 9.52845 27.6503 9.91196C27.6503 10.2955 27.963 10.6023 28.3464 10.6023H41.2484C41.6318 10.6023 41.9386 10.2955 41.9386 9.91196C41.9386 9.52845 41.6318 9.22165 41.2484 9.22165ZM41.2484 5.53413H28.3464C27.963 5.53413 27.6503 5.84093 27.6503 6.22443C27.6503 6.60794 27.963 6.91474 28.3464 6.91474H41.2484C41.6318 6.91474 41.9386 6.60794 41.9386 6.22443C41.9386 5.84093 41.6318 5.53413 41.2484 5.53413ZM41.2484 5.53413H28.3464C27.963 5.53413 27.6503 5.84093 27.6503 6.22443C27.6503 6.60794 27.963 6.91474 28.3464 6.91474H41.2484C41.6318 6.91474 41.9386 6.60794 41.9386 6.22443C41.9386 5.84093 41.6318 5.53413 41.2484 5.53413ZM41.2484 9.22165H28.3464C27.963 9.22165 27.6503 9.52845 27.6503 9.91196C27.6503 10.2955 27.963 10.6023 28.3464 10.6023H41.2484C41.6318 10.6023 41.9386 10.2955 41.9386 9.91196C41.9386 9.52845 41.6318 9.22165 41.2484 9.22165ZM46.6463 18.1248C45.785 17.3814 44.198 17.2221 43.0949 18.2192C41.9858 17.2221 40.3988 17.3814 39.5375 18.1248C38.5582 18.9626 38.4108 20.6441 39.3842 22.3256C39.98 23.4171 41.4784 24.5322 42.7468 25.2579C42.9592 25.3818 43.2246 25.3818 43.437 25.2579C44.7054 24.5322 46.2038 23.4171 46.7997 22.3256C47.7731 20.6441 47.6256 18.9626 46.6463 18.1248ZM45.6021 21.6412C45.6021 21.6412 45.5962 21.653 45.5903 21.6589C45.1478 22.4731 44.0742 23.2696 43.0949 23.8596C42.1156 23.2696 41.036 22.4731 40.5935 21.6589C40.5935 21.6589 40.5876 21.6471 40.5876 21.6412C40.2691 21.0925 40.098 20.5438 40.098 20.0659C40.098 19.7001 40.1983 19.3756 40.4401 19.1691C40.9534 18.7266 41.974 18.7738 42.4931 19.6588C42.617 19.8712 42.8471 20.0069 43.0949 20.0069C43.3426 20.0069 43.5668 19.8712 43.6907 19.6588C44.2098 18.7738 45.2304 18.7266 45.7496 19.1691C45.9915 19.3815 46.0858 19.7001 46.0858 20.0659C46.0858 20.5438 45.9148 21.0925 45.6021 21.6412ZM46.6463 18.1248C45.785 17.3814 44.198 17.2221 43.0949 18.2192C41.9858 17.2221 40.3988 17.3814 39.5375 18.1248C38.5582 18.9626 38.4108 20.6441 39.3842 22.3256C39.98 23.4171 41.4784 24.5322 42.7468 25.2579C42.9592 25.3818 43.2246 25.3818 43.437 25.2579C44.7054 24.5322 46.2038 23.4171 46.7997 22.3256C47.7731 20.6441 47.6256 18.9626 46.6463 18.1248ZM45.6021 21.6412C45.6021 21.6412 45.5962 21.653 45.5903 21.6589C45.1478 22.4731 44.0742 23.2696 43.0949 23.8596C42.1156 23.2696 41.036 22.4731 40.5935 21.6589C40.5935 21.6589 40.5876 21.6471 40.5876 21.6412C40.2691 21.0925 40.098 20.5438 40.098 20.0659C40.098 19.7001 40.1983 19.3756 40.4401 19.1691C40.9534 18.7266 41.974 18.7738 42.4931 19.6588C42.617 19.8712 42.8471 20.0069 43.0949 20.0069C43.3426 20.0069 43.5668 19.8712 43.6907 19.6588C44.2098 18.7738 45.2304 18.7266 45.7496 19.1691C45.9915 19.3815 46.0858 19.7001 46.0858 20.0659C46.0858 20.5438 45.9148 21.0925 45.6021 21.6412ZM41.2484 9.22165H28.3464C27.963 9.22165 27.6503 9.52845 27.6503 9.91196C27.6503 10.2955 27.963 10.6023 28.3464 10.6023H41.2484C41.6318 10.6023 41.9386 10.2955 41.9386 9.91196C41.9386 9.52845 41.6318 9.22165 41.2484 9.22165ZM41.2484 5.53413H28.3464C27.963 5.53413 27.6503 5.84093 27.6503 6.22443C27.6503 6.60794 27.963 6.91474 28.3464 6.91474H41.2484C41.6318 6.91474 41.9386 6.60794 41.9386 6.22443C41.9386 5.84093 41.6318 5.53413 41.2484 5.53413ZM46.6463 18.1248C45.785 17.3814 44.198 17.2221 43.0949 18.2192C41.9858 17.2221 40.3988 17.3814 39.5375 18.1248C38.5582 18.9626 38.4108 20.6441 39.3842 22.3256C39.98 23.4171 41.4784 24.5322 42.7468 25.2579C42.9592 25.3818 43.2246 25.3818 43.437 25.2579C44.7054 24.5322 46.2038 23.4171 46.7997 22.3256C47.7731 20.6441 47.6256 18.9626 46.6463 18.1248ZM45.6021 21.6412C45.6021 21.6412 45.5962 21.653 45.5903 21.6589C45.1478 22.4731 44.0742 23.2696 43.0949 23.8596C42.1156 23.2696 41.036 22.4731 40.5935 21.6589C40.5935 21.6589 40.5876 21.6471 40.5876 21.6412C40.2691 21.0925 40.098 20.5438 40.098 20.0659C40.098 19.7001 40.1983 19.3756 40.4401 19.1691C40.9534 18.7266 41.974 18.7738 42.4931 19.6588C42.617 19.8712 42.8471 20.0069 43.0949 20.0069C43.3426 20.0069 43.5668 19.8712 43.6907 19.6588C44.2098 18.7738 45.2304 18.7266 45.7496 19.1691C45.9915 19.3815 46.0858 19.7001 46.0858 20.0659C46.0858 20.5438 45.9148 21.0925 45.6021 21.6412ZM46.6463 18.1248C45.785 17.3814 44.198 17.2221 43.0949 18.2192C41.9858 17.2221 40.3988 17.3814 39.5375 18.1248C38.5582 18.9626 38.4108 20.6441 39.3842 22.3256C39.98 23.4171 41.4784 24.5322 42.7468 25.2579C42.9592 25.3818 43.2246 25.3818 43.437 25.2579C44.7054 24.5322 46.2038 23.4171 46.7997 22.3256C47.7731 20.6441 47.6256 18.9626 46.6463 18.1248ZM45.6021 21.6412C45.6021 21.6412 45.5962 21.653 45.5903 21.6589C45.1478 22.4731 44.0742 23.2696 43.0949 23.8596C42.1156 23.2696 41.036 22.4731 40.5935 21.6589C40.5935 21.6589 40.5876 21.6471 40.5876 21.6412C40.2691 21.0925 40.098 20.5438 40.098 20.0659C40.098 19.7001 40.1983 19.3756 40.4401 19.1691C40.9534 18.7266 41.974 18.7738 42.4931 19.6588C42.617 19.8712 42.8471 20.0069 43.0949 20.0069C43.3426 20.0069 43.5668 19.8712 43.6907 19.6588C44.2098 18.7738 45.2304 18.7266 45.7496 19.1691C45.9915 19.3815 46.0858 19.7001 46.0858 20.0659C46.0858 20.5438 45.9148 21.0925 45.6021 21.6412ZM28.3464 6.91474H41.2484C41.6318 6.91474 41.9386 6.60794 41.9386 6.22443C41.9386 5.84093 41.6318 5.53413 41.2484 5.53413H28.3464C27.963 5.53413 27.6503 5.84093 27.6503 6.22443C27.6503 6.60794 27.963 6.91474 28.3464 6.91474ZM41.2484 9.22165H28.3464C27.963 9.22165 27.6503 9.52845 27.6503 9.91196C27.6503 10.2955 27.963 10.6023 28.3464 10.6023H41.2484C41.6318 10.6023 41.9386 10.2955 41.9386 9.91196C41.9386 9.52845 41.6318 9.22165 41.2484 9.22165ZM52.2566 14.5671C51.7846 14.0951 51.1416 13.8237 50.4691 13.8237H45.6198C45.6198 13.7529 45.6257 13.6762 45.6257 13.5936V2.53101C45.6257 1.85841 45.3602 1.21531 44.8824 0.737404C44.4045 0.259501 43.7674 -0.000100691 43.0949 -0.000100691H26.4999C25.8274 -0.000100691 25.1844 0.265401 24.7065 0.737404C24.2346 1.21531 23.9632 1.85841 23.9632 2.53101V13.5936C23.9691 14.2662 24.2346 14.9152 24.7124 15.3872C25.1844 15.8651 25.8274 16.1306 26.4999 16.1306H27.6503V20.9745C27.6503 21.2518 27.8214 21.5055 28.0809 21.6117C28.3346 21.7179 28.6355 21.6589 28.8302 21.4642L33.1839 17.11V26.5028C33.1839 27.1755 33.4553 27.8186 33.9272 28.2965C34.4051 28.7685 35.0481 29.0399 35.7206 29.0399H43.732L48.1388 33.4413C48.3335 33.6419 48.6344 33.7009 48.888 33.5947C49.1476 33.4885 49.3187 33.2348 49.3187 32.9575V29.034H50.4691C51.1357 29.034 51.7846 28.7685 52.2566 28.2906C52.7344 27.8186 52.9999 27.1755 52.9999 26.5028V16.3607C52.9999 15.6881 52.7344 15.045 52.2566 14.5671ZM33.8741 14.75C33.6854 14.75 33.5143 14.8267 33.3845 14.9506L29.0307 19.3048V15.4403C29.0307 15.2574 28.96 15.0804 28.8302 14.9506C28.7004 14.8208 28.5234 14.75 28.3405 14.75H26.4999C26.1931 14.75 25.8982 14.632 25.6858 14.4137C25.4675 14.1954 25.3495 13.9004 25.3495 13.5995V2.53691C25.3495 2.23011 25.4675 1.93511 25.6858 1.72271C25.8982 1.50441 26.1931 1.38051 26.4999 1.38051H43.0949C43.3957 1.38051 43.6907 1.50441 43.909 1.72271C44.1273 1.94101 44.2452 2.22421 44.2452 2.53101V13.5995C44.2393 13.9063 44.1213 14.1954 43.9031 14.4137C43.6907 14.632 43.3957 14.75 43.089 14.75H33.8741ZM51.6136 26.5028C51.6136 26.8097 51.4956 27.0988 51.2773 27.3171C51.0649 27.5354 50.7699 27.6534 50.4632 27.6534H48.6226C48.4397 27.6534 48.2627 27.7301 48.1329 27.8599C48.0031 27.9838 47.9323 28.1608 47.9323 28.3437V31.2878L44.5048 27.8599C44.375 27.7301 44.198 27.6593 44.0152 27.6593H35.7206C35.4139 27.6593 35.1189 27.5354 34.9006 27.323C34.6882 27.1047 34.5644 26.8097 34.5644 26.5028V16.3666C34.5644 16.284 34.5762 16.2073 34.588 16.1306H43.0949C43.7674 16.1306 44.4104 15.8651 44.8824 15.3931C44.9414 15.3341 45.0004 15.2751 45.0476 15.2102H50.4632C50.7699 15.2102 51.0649 15.3341 51.2773 15.5465C51.4897 15.7589 51.6136 16.0598 51.6136 16.3666V26.5028ZM43.0949 18.2192C41.9858 17.2221 40.3988 17.3814 39.5375 18.1248C38.5582 18.9626 38.4108 20.6441 39.3842 22.3256C39.98 23.4171 41.4784 24.5322 42.7468 25.2579C42.9592 25.3818 43.2246 25.3818 43.437 25.2579C44.7054 24.5322 46.2038 23.4171 46.7997 22.3256C47.7731 20.6441 47.6256 18.9626 46.6463 18.1248C45.785 17.3814 44.198 17.2221 43.0949 18.2192ZM45.6021 21.6412C45.6021 21.6412 45.5962 21.653 45.5903 21.6589C45.1478 22.4731 44.0742 23.2696 43.0949 23.8596C42.1156 23.2696 41.036 22.4731 40.5935 21.6589C40.5935 21.6589 40.5876 21.6471 40.5876 21.6412C40.2691 21.0925 40.098 20.5438 40.098 20.0659C40.098 19.7001 40.1983 19.3756 40.4401 19.1691C40.9534 18.7266 41.974 18.7738 42.4931 19.6588C42.617 19.8712 42.8471 20.0069 43.0949 20.0069C43.3426 20.0069 43.5668 19.8712 43.6907 19.6588C44.2098 18.7738 45.2304 18.7266 45.7496 19.1691C45.9915 19.3815 46.0858 19.7001 46.0858 20.0659C46.0858 20.5438 45.9148 21.0925 45.6021 21.6412ZM41.2484 5.53413H28.3464C27.963 5.53413 27.6503 5.84093 27.6503 6.22443C27.6503 6.60794 27.963 6.91474 28.3464 6.91474H41.2484C41.6318 6.91474 41.9386 6.60794 41.9386 6.22443C41.9386 5.84093 41.6318 5.53413 41.2484 5.53413ZM41.2484 9.22165H28.3464C27.963 9.22165 27.6503 9.52845 27.6503 9.91196C27.6503 10.2955 27.963 10.6023 28.3464 10.6023H41.2484C41.6318 10.6023 41.9386 10.2955 41.9386 9.91196C41.9386 9.52845 41.6318 9.22165 41.2484 9.22165ZM41.2484 9.22165H28.3464C27.963 9.22165 27.6503 9.52845 27.6503 9.91196C27.6503 10.2955 27.963 10.6023 28.3464 10.6023H41.2484C41.6318 10.6023 41.9386 10.2955 41.9386 9.91196C41.9386 9.52845 41.6318 9.22165 41.2484 9.22165ZM41.2484 5.53413H28.3464C27.963 5.53413 27.6503 5.84093 27.6503 6.22443C27.6503 6.60794 27.963 6.91474 28.3464 6.91474H41.2484C41.6318 6.91474 41.9386 6.60794 41.9386 6.22443C41.9386 5.84093 41.6318 5.53413 41.2484 5.53413ZM46.6463 18.1248C45.785 17.3814 44.198 17.2221 43.0949 18.2192C41.9858 17.2221 40.3988 17.3814 39.5375 18.1248C38.5582 18.9626 38.4108 20.6441 39.3842 22.3256C39.98 23.4171 41.4784 24.5322 42.7468 25.2579C42.9592 25.3818 43.2246 25.3818 43.437 25.2579C44.7054 24.5322 46.2038 23.4171 46.7997 22.3256C47.7731 20.6441 47.6256 18.9626 46.6463 18.1248ZM45.6021 21.6412C45.6021 21.6412 45.5962 21.653 45.5903 21.6589C45.1478 22.4731 44.0742 23.2696 43.0949 23.8596C42.1156 23.2696 41.036 22.4731 40.5935 21.6589C40.5935 21.6589 40.5876 21.6471 40.5876 21.6412C40.2691 21.0925 40.098 20.5438 40.098 20.0659C40.098 19.7001 40.1983 19.3756 40.4401 19.1691C40.9534 18.7266 41.974 18.7738 42.4931 19.6588C42.617 19.8712 42.8471 20.0069 43.0949 20.0069C43.3426 20.0069 43.5668 19.8712 43.6907 19.6588C44.2098 18.7738 45.2304 18.7266 45.7496 19.1691C45.9915 19.3815 46.0858 19.7001 46.0858 20.0659C46.0858 20.5438 45.9148 21.0925 45.6021 21.6412ZM46.6463 18.1248C45.785 17.3814 44.198 17.2221 43.0949 18.2192C41.9858 17.2221 40.3988 17.3814 39.5375 18.1248C38.5582 18.9626 38.4108 20.6441 39.3842 22.3256C39.98 23.4171 41.4784 24.5322 42.7468 25.2579C42.9592 25.3818 43.2246 25.3818 43.437 25.2579C44.7054 24.5322 46.2038 23.4171 46.7997 22.3256C47.7731 20.6441 47.6256 18.9626 46.6463 18.1248ZM45.6021 21.6412C45.6021 21.6412 45.5962 21.653 45.5903 21.6589C45.1478 22.4731 44.0742 23.2696 43.0949 23.8596C42.1156 23.2696 41.036 22.4731 40.5935 21.6589C40.5935 21.6589 40.5876 21.6471 40.5876 21.6412C40.2691 21.0925 40.098 20.5438 40.098 20.0659C40.098 19.7001 40.1983 19.3756 40.4401 19.1691C40.9534 18.7266 41.974 18.7738 42.4931 19.6588C42.617 19.8712 42.8471 20.0069 43.0949 20.0069C43.3426 20.0069 43.5668 19.8712 43.6907 19.6588C44.2098 18.7738 45.2304 18.7266 45.7496 19.1691C45.9915 19.3815 46.0858 19.7001 46.0858 20.0659C46.0858 20.5438 45.9148 21.0925 45.6021 21.6412ZM41.2484 5.53413H28.3464C27.963 5.53413 27.6503 5.84093 27.6503 6.22443C27.6503 6.60794 27.963 6.91474 28.3464 6.91474H41.2484C41.6318 6.91474 41.9386 6.60794 41.9386 6.22443C41.9386 5.84093 41.6318 5.53413 41.2484 5.53413ZM41.2484 9.22165H28.3464C27.963 9.22165 27.6503 9.52845 27.6503 9.91196C27.6503 10.2955 27.963 10.6023 28.3464 10.6023H41.2484C41.6318 10.6023 41.9386 10.2955 41.9386 9.91196C41.9386 9.52845 41.6318 9.22165 41.2484 9.22165ZM32.5763 37.471L28.7476 30.8335C30.3935 29.506 30.8713 27.1342 29.78 25.2461C28.6886 23.3581 26.3996 22.5911 24.4233 23.3463L20.5946 16.7147C20.2584 16.1306 19.7038 15.7058 19.0549 15.5347C18.406 15.3577 17.7157 15.4521 17.1317 15.7884C16.5536 16.1247 16.1288 16.6734 15.9518 17.3283C15.7748 17.9773 15.8692 18.6676 16.2055 19.2517L16.4356 19.6529L8.38883 30.4146L3.72242 33.1109C2.71362 33.695 2.25937 34.8573 2.53074 35.9311L1.0323 36.7925C0.0471064 37.3648 -0.295058 38.6274 0.277182 39.6127L2.35376 43.2117C2.69003 43.7958 3.24457 44.2207 3.8935 44.3918C4.54243 44.5688 5.23266 44.4744 5.8167 44.1381L6.90218 43.5126C7.27974 43.8785 7.76349 44.1145 8.27084 44.1912L12.365 51.2771C12.8193 52.0677 13.5744 52.6459 14.4534 52.8878C15.3383 53.1179 16.2763 52.994 17.0727 52.5397C17.8632 52.0854 18.4414 51.3302 18.6773 50.4452C18.9133 49.5661 18.7894 48.6221 18.3293 47.8315L14.5242 41.2352L14.6009 41.1939L27.9512 39.6009L28.1812 40.0021C28.5175 40.5862 29.072 41.011 29.721 41.1821C30.3699 41.3591 31.066 41.2647 31.6442 40.9284C32.2282 40.5921 32.653 40.0434 32.824 39.3885C33.001 38.7454 32.9066 38.0492 32.5704 37.471H32.5763ZM28.5824 25.9423C29.2903 27.1637 29.0307 28.6859 28.0455 29.6181L25.1313 24.5676C26.4291 24.1782 27.8745 24.7151 28.5824 25.9423ZM5.12647 42.9462C4.861 43.0937 4.54833 43.135 4.25336 43.0583C3.95839 42.9816 3.70472 42.7869 3.55134 42.5214L1.46886 38.9224C1.28008 38.5979 1.39806 38.179 1.72253 37.9902L3.13838 37.176L6.12936 42.3621L5.12647 42.9462ZM7.675 42.2736L3.98789 35.8839C3.66932 35.3352 3.8581 34.6272 4.41265 34.3086L8.6012 31.8896L9.75158 33.8838L7.15586 35.3824C6.82549 35.5712 6.7134 35.996 6.90218 36.3264C7.09686 36.6568 7.51572 36.7748 7.84608 36.5801L10.4418 35.0815L11.5922 37.0757L9.00236 38.5743C8.6661 38.769 8.55401 39.1938 8.74869 39.5242C8.93747 39.8546 9.36222 39.9667 9.69259 39.772L12.2883 38.2793L13.4387 40.2735L13.2381 40.3856L9.25013 42.6925C8.69559 43.0111 7.99357 42.8223 7.675 42.2736ZM17.1376 48.5277C17.4149 48.9997 17.4916 49.5661 17.3441 50.0912C17.2025 50.6222 16.8603 51.0706 16.3825 51.3479C15.9105 51.6193 15.3442 51.696 14.8191 51.5544C14.2882 51.4128 13.8398 51.0647 13.5626 50.5927L9.75748 43.9965L13.3325 41.9314L17.1376 48.5277ZM14.7543 39.7838L9.68079 30.9987L17.1907 20.9568L27.2078 38.3029L14.7543 39.7838ZM31.4967 39.0404C31.4141 39.3354 31.2194 39.5891 30.9598 39.7425C30.6944 39.89 30.3758 39.9372 30.0808 39.8546C29.7859 39.7779 29.5381 39.5832 29.3847 39.3177L17.4031 18.5614C17.2497 18.2959 17.2084 17.9773 17.2851 17.6823C17.3677 17.3873 17.5565 17.1336 17.8219 16.9861C18.0874 16.8327 18.4001 16.7914 18.695 16.8681C18.99 16.9448 19.2437 17.1395 19.3971 17.405L31.3787 38.1613C31.5321 38.4327 31.5734 38.7454 31.4967 39.0404Z" fill="var(--fill-0, black)"/>
<path id="Vector_2" d="M46.6467 18.1249C45.7854 17.3815 44.1985 17.2222 43.0953 18.2193C41.9862 17.2222 40.3993 17.3815 39.538 18.1249C38.5587 18.9627 38.4112 20.6442 39.3846 22.3257C39.9804 23.4172 41.4789 24.5323 42.7472 25.258C42.9596 25.3819 43.2251 25.3819 43.4374 25.258C44.7058 24.5323 46.2043 23.4172 46.8001 22.3257C47.7735 20.6442 47.626 18.9627 46.6467 18.1249ZM45.6025 21.6413C45.6025 21.6413 45.5966 21.6531 45.5907 21.659C45.1483 22.4732 44.0746 23.2697 43.0953 23.8597C42.116 23.2697 41.0364 22.4732 40.5939 21.659C40.5939 21.659 40.588 21.6472 40.588 21.6413C40.2695 21.0926 40.0984 20.5439 40.0984 20.066C40.0984 19.7002 40.1987 19.3757 40.4406 19.1692C40.9538 18.7267 41.9744 18.7739 42.4935 19.6589C42.6174 19.8713 42.8475 20.007 43.0953 20.007C43.3431 20.007 43.5672 19.8713 43.6911 19.6589C44.2103 18.7739 45.2309 18.7267 45.75 19.1692C45.9919 19.3816 46.0863 19.7002 46.0863 20.066C46.0863 20.5439 45.9152 21.0926 45.6025 21.6413Z" fill="var(--fill-0, #75E1B3)"/>
<path id="Vector_3" d="M41.9391 9.91263C41.9391 10.2964 41.6324 10.6034 41.2489 10.6034H28.347C27.9635 10.6034 27.6508 10.2964 27.6508 9.91263C27.6508 9.52887 27.9635 9.22186 28.347 9.22186H41.2489C41.6324 9.22186 41.9391 9.52887 41.9391 9.91263Z" fill="var(--fill-0, #75E1B3)"/>
<path id="Vector_4" d="M27.6508 6.22522C27.6508 5.84146 27.9635 5.53445 28.347 5.53445H41.2489C41.6324 5.53445 41.9391 5.84146 41.9391 6.22522C41.9391 6.60898 41.6324 6.91599 41.2489 6.91599H28.347C27.9635 6.91599 27.6508 6.60898 27.6508 6.22522Z" fill="var(--fill-0, #75E1B3)"/>
</g>
<defs>
<clipPath id="clip0_319_33">
<rect width="53" height="53" fill="white"/>
</clipPath>
</defs>
</svg>
