<svg preserveAspectRatio="none" width="100%" height="100%" overflow="visible" style="display: block;" viewBox="0 0 30 30" fill="none" xmlns="http://www.w3.org/2000/svg">
<g id="Group 55">
<circle id="Ellipse 11" cx="15" cy="15" r="15" fill="var(--fill-0, #1E1E1E)"/>
<path id="Vector" d="M13.0974 19.9898C13.0154 18.8873 13.0154 17.7847 12.9335 16.5973C12.9335 16.0036 12.6875 15.5796 12.0317 15.5796C11.6218 15.5796 11.2119 15.6644 11.1299 15.0707C11.0479 14.3074 10.884 13.4592 11.1299 12.6959C11.1299 12.6111 11.4578 12.4415 11.6218 12.4415C12.8515 12.6959 13.0974 12.0174 13.0974 10.9997C13.0974 8.28565 15.3109 6.84382 18.1802 7.01344C19 7.09825 19 7.77676 19 8.37045C18.918 8.96414 19.2459 9.81228 18.1802 9.81228C17.2784 9.72747 16.6226 10.0667 16.6226 11.1693C16.6226 11.9326 16.7046 12.5263 17.6063 12.6111C18.918 12.6959 18.6721 13.6289 18.6721 14.5618C18.7541 15.5796 18.2622 15.9188 17.3604 15.9188C16.4586 15.9188 16.2947 16.4277 16.2947 17.2758C16.2947 19.1417 16.2947 20.9228 16.2127 22.7887C16.1307 23.976 15.8847 24.0608 14.3271 23.976C13.2614 23.976 13.0974 23.4672 13.1794 22.5342C13.0154 21.7709 13.0154 20.9228 13.0974 19.9898Z" fill="var(--fill-0, white)"/>
</g>
</svg>
