<svg preserveAspectRatio="none" width="100%" height="100%" overflow="visible" style="display: block;" viewBox="0 0 115 115" fill="none" xmlns="http://www.w3.org/2000/svg">
<g id="Layer_1" clip-path="url(#clip0_319_264)">
<path id="Vector" d="M73.0447 94.0875H26.1339C23.2482 94.0875 20.902 91.7416 20.902 88.8562V26.1312C20.902 23.2459 23.2482 20.9 26.1339 20.9H88.8657C91.7514 20.9 94.0975 23.2459 94.0975 26.1312V73.037C94.0975 74.003 94.8754 74.7807 95.8415 74.7807C96.8076 74.7807 97.5854 74.003 97.5854 73.037V26.1312C97.5854 21.3265 93.671 17.4125 88.8657 17.4125H26.1339C21.3286 17.4125 17.4141 21.3265 17.4141 26.1312V88.8562C17.4141 93.661 21.3286 97.575 26.1339 97.575H73.0447C74.0108 97.575 74.7887 96.7972 74.7887 95.8313C74.7887 94.8653 74.0108 94.0875 73.0447 94.0875Z" fill="var(--fill-0, #1E1E1E)"/>
<path id="Vector_2" d="M31.3659 24.3875C31.3659 23.4215 30.588 22.6437 29.6219 22.6437H27.878C26.9119 22.6437 26.134 23.4215 26.134 24.3875C26.134 25.3534 26.9119 26.1312 27.878 26.1312H29.6219C30.588 26.1312 31.3659 25.3534 31.3659 24.3875Z" fill="var(--fill-0, #1E1E1E)"/>
<path id="Vector_3" d="M38.3418 26.1312C39.3079 26.1312 40.0857 25.3534 40.0857 24.3875C40.0857 23.4215 39.3079 22.6437 38.3418 22.6437H36.5978C35.6318 22.6437 34.8539 23.4215 34.8539 24.3875C34.8539 25.3534 35.6318 26.1312 36.5978 26.1312H38.3418Z" fill="var(--fill-0, #1E1E1E)"/>
<path id="Vector_4" d="M47.0489 26.1312C48.015 26.1312 48.7928 25.3534 48.7928 24.3875C48.7928 23.4215 48.015 22.6437 47.0489 22.6437H45.3049C44.3389 22.6437 43.561 23.4215 43.561 24.3875C43.561 25.3534 44.3389 26.1312 45.3049 26.1312H47.0489Z" fill="var(--fill-0, #1E1E1E)"/>
<path id="Vector_5" d="M111.575 84.3902L78.578 68.6838C77.5869 68.2071 76.4828 67.9688 75.3787 67.9688C71.2761 67.9688 67.9513 71.3057 67.9513 75.3954C67.9513 76.4994 68.2022 77.6033 68.6664 78.5944L84.3745 111.588C85.3656 113.67 87.4985 115.013 89.807 115.013C93.1193 115.013 95.8167 112.315 95.8167 109.003V108.288C95.8167 108.063 95.8167 107.849 95.7791 107.624C95.4153 104.374 96.5444 101.188 98.853 98.8797C101.161 96.5714 104.348 95.4549 107.585 95.8061C107.811 95.8312 108.037 95.8438 108.25 95.8438H108.965C112.278 95.8438 114.975 93.1466 114.975 89.8347C114.975 87.5264 113.633 85.3938 111.55 84.4027L111.575 84.3902ZM108.99 92.3437H108.275C108.187 92.3437 108.1 92.3437 107.999 92.3312C103.696 91.8545 99.4677 93.3348 96.4064 96.3957C93.3451 99.4567 91.8646 103.684 92.3414 107.975C92.3414 108.063 92.3539 108.163 92.3539 108.263V108.978C92.3539 110.371 91.2122 111.512 89.8196 111.512C88.8535 111.512 87.9502 110.948 87.5361 110.07L71.8281 77.0764C71.5772 76.5496 71.4517 75.9599 71.4517 75.3829C71.4517 73.2126 73.2207 71.4437 75.3913 71.4437C75.9684 71.4437 76.5581 71.5817 77.085 71.8201L110.082 87.5264C110.96 87.9404 111.525 88.8437 111.525 89.8096C111.525 91.2021 110.383 92.3437 108.99 92.3437Z" fill="var(--fill-0, #75E1B3)"/>
<path id="Vector_6" d="M14.328 31.0238C8.04222 29.5937 3.48789 23.8731 3.48789 17.425C3.48789 9.73492 9.73598 3.48751 17.4269 3.48751C23.8757 3.48751 29.5969 8.04134 31.0272 14.3264C31.2405 15.2673 32.1689 15.8569 33.1099 15.6436C34.0508 15.4303 34.628 14.502 34.4272 13.5611C32.608 5.58252 25.6197 0 17.4269 0C7.81639 0 0 7.81554 0 17.425C0 25.6294 5.57059 32.6045 13.5626 34.4235C13.7006 34.4486 13.8261 34.4737 13.9516 34.4737C14.742 34.4737 15.4697 33.9217 15.6579 33.1188C15.8712 32.1779 15.2815 31.2496 14.3405 31.0363L14.328 31.0238Z" fill="var(--fill-0, #75E1B3)"/>
<path id="Vector_7" d="M54.0247 38.325C54.0247 35.4396 51.6786 33.0937 48.7929 33.0937H34.8539C31.9682 33.0937 29.6221 35.4396 29.6221 38.325V52.2624C29.6221 55.1478 31.9682 57.4937 34.8539 57.4937H48.7929C51.6786 57.4937 54.0247 55.1478 54.0247 52.2624V38.325ZM50.5368 52.2624C50.5368 53.2284 49.759 54.0062 48.7929 54.0062H34.8539C33.8878 54.0062 33.1099 53.2284 33.1099 52.2624V38.325C33.1099 37.359 33.8878 36.5812 34.8539 36.5812H48.7929C49.759 36.5812 50.5368 37.359 50.5368 38.325V52.2624Z" fill="var(--fill-0, #75E1B3)"/>
<path id="Vector_8" d="M85.3907 34.85C85.3907 33.8841 84.6128 33.1063 83.6467 33.1063H62.7319C61.7659 33.1063 60.988 33.8841 60.988 34.85C60.988 35.816 61.7659 36.5938 62.7319 36.5938H83.6467C84.6128 36.5938 85.3907 35.816 85.3907 34.85Z" fill="var(--fill-0, #1E1E1E)"/>
<path id="Vector_9" d="M60.988 55.7499C60.988 56.7159 61.7659 57.4937 62.7319 57.4937H80.1588C81.1249 57.4937 81.9028 56.7159 81.9028 55.7499C81.9028 54.7839 81.1249 54.0061 80.1588 54.0061H62.7319C61.7659 54.0061 60.988 54.7839 60.988 55.7499Z" fill="var(--fill-0, #1E1E1E)"/>
<path id="Vector_10" d="M66.2196 41.8124H73.1828C74.1489 41.8124 74.9267 41.0346 74.9267 40.0687C74.9267 39.1027 74.1489 38.3249 73.1828 38.3249H66.2196C65.2535 38.3249 64.4756 39.1027 64.4756 40.0687C64.4756 41.0346 65.2535 41.8124 66.2196 41.8124Z" fill="var(--fill-0, #1E1E1E)"/>
<path id="Vector_11" d="M66.2196 47.0438H73.1828C74.1489 47.0438 74.9267 46.266 74.9267 45.3C74.9267 44.334 74.1489 43.5563 73.1828 43.5563H66.2196C65.2535 43.5563 64.4756 44.334 64.4756 45.3C64.4756 46.266 65.2535 47.0438 66.2196 47.0438Z" fill="var(--fill-0, #1E1E1E)"/>
<path id="Vector_12" d="M66.2196 52.2624H73.1828C74.1489 52.2624 74.9267 51.4846 74.9267 50.5187C74.9267 49.5527 74.1489 48.7749 73.1828 48.7749H66.2196C65.2535 48.7749 64.4756 49.5527 64.4756 50.5187C64.4756 51.4846 65.2535 52.2624 66.2196 52.2624Z" fill="var(--fill-0, #1E1E1E)"/>
<path id="Vector_13" d="M52.268 62.725H31.3532C30.3871 62.725 29.6093 63.5028 29.6093 64.4687C29.6093 65.4347 30.3871 66.2125 31.3532 66.2125H52.268C53.2341 66.2125 54.012 65.4347 54.012 64.4687C54.012 63.5028 53.2341 62.725 52.268 62.725Z" fill="var(--fill-0, #1E1E1E)"/>
<path id="Vector_14" d="M33.1097 85.3687C33.1097 86.3347 33.8876 87.1125 34.8536 87.1125H52.2805C53.2466 87.1125 54.0245 86.3347 54.0245 85.3687C54.0245 84.4027 53.2466 83.6249 52.2805 83.6249H34.8536C33.8876 83.6249 33.1097 84.4027 33.1097 85.3687Z" fill="var(--fill-0, #1E1E1E)"/>
<path id="Vector_15" d="M41.8169 71.4312H48.7802C49.7462 71.4312 50.5241 70.6534 50.5241 69.6875C50.5241 68.7215 49.7462 67.9437 48.7802 67.9437H41.8169C40.8509 67.9437 40.073 68.7215 40.073 69.6875C40.073 70.6534 40.8509 71.4312 41.8169 71.4312Z" fill="var(--fill-0, #1E1E1E)"/>
<path id="Vector_16" d="M41.8169 76.6625H48.7802C49.7462 76.6625 50.5241 75.8847 50.5241 74.9187C50.5241 73.9527 49.7462 73.175 48.7802 73.175H41.8169C40.8509 73.175 40.073 73.9527 40.073 74.9187C40.073 75.8847 40.8509 76.6625 41.8169 76.6625Z" fill="var(--fill-0, #1E1E1E)"/>
<path id="Vector_17" d="M41.8169 81.8937H48.7802C49.7462 81.8937 50.5241 81.1159 50.5241 80.15C50.5241 79.184 49.7462 78.4062 48.7802 78.4062H41.8169C40.8509 78.4062 40.073 79.184 40.073 80.15C40.073 81.1159 40.8509 81.8937 41.8169 81.8937Z" fill="var(--fill-0, #1E1E1E)"/>
</g>
<defs>
<clipPath id="clip0_319_264">
<rect width="115" height="115" fill="white"/>
</clipPath>
</defs>
</svg>
