<svg preserveAspectRatio="none" width="100%" height="100%" overflow="visible" style="display: block;" viewBox="0 0 53 48" fill="none" xmlns="http://www.w3.org/2000/svg">
<g id="Layer_1" clip-path="url(#clip0_319_116)">
<path id="Vector" d="M10.2948 15.4041C10.2948 15.9657 10.7526 16.4179 11.3213 16.4179H25.6845C26.2531 16.4179 26.711 15.9657 26.711 15.4041C26.711 14.8425 26.2531 14.3903 25.6845 14.3903H11.3213C10.7526 14.3903 10.2948 14.8425 10.2948 15.4041Z" fill="var(--fill-0, black)"/>
<path id="Vector_2" d="M30.8094 18.4457H16.4536C15.8849 18.4457 15.4271 18.898 15.4271 19.4596C15.4271 20.0212 15.8849 20.4734 16.4536 20.4734H30.8094C31.378 20.4734 31.8359 20.0212 31.8359 19.4596C31.8359 18.898 31.378 18.4457 30.8094 18.4457Z" fill="var(--fill-0, black)"/>
<path id="Vector_3" d="M16.4458 24.5215H27.7297C28.2983 24.5215 28.7561 24.0692 28.7561 23.5076C28.7561 22.946 28.2983 22.4938 27.7297 22.4938H16.4458C15.8772 22.4938 15.4194 22.946 15.4194 23.5076C15.4194 24.0692 15.8772 24.5215 16.4458 24.5215Z" fill="var(--fill-0, black)"/>
<path id="Vector_4" d="M16.4458 28.5767H27.7297C28.2983 28.5767 28.7561 28.1245 28.7561 27.5629C28.7561 27.0013 28.2983 26.549 27.7297 26.549H16.4458C15.8772 26.549 15.4194 27.0013 15.4194 27.5629C15.4194 28.1245 15.8772 28.5767 16.4458 28.5767Z" fill="var(--fill-0, black)"/>
<path id="Vector_5" d="M11.2548 32.6248H24.7171C25.2488 32.6248 25.6771 32.1725 25.6771 31.6109C25.6771 31.0493 25.2488 30.5971 24.7171 30.5971H11.2548C10.7231 30.5971 10.2948 31.0493 10.2948 31.6109C10.2948 32.1725 10.7231 32.6248 11.2548 32.6248Z" fill="var(--fill-0, black)"/>
<path id="Vector_6" d="M33.8812 27.5629C33.8812 27.0013 33.4233 26.549 32.8547 26.549H31.8282C31.2596 26.549 30.8017 27.0013 30.8017 27.5629C30.8017 28.1245 31.2596 28.5767 31.8282 28.5767H32.8547C33.4233 28.5767 33.8812 28.1245 33.8812 27.5629Z" fill="var(--fill-0, black)"/>
<path id="Vector_7" d="M32.8547 22.4938H31.8282C31.2596 22.4938 30.8017 22.946 30.8017 23.5076C30.8017 24.0692 31.2596 24.5215 31.8282 24.5215H32.8547C33.4233 24.5215 33.8812 24.0692 33.8812 23.5076C33.8812 22.946 33.4233 22.4938 32.8547 22.4938Z" fill="var(--fill-0, black)"/>
<path id="Vector_8" d="M35.9342 20.4662C36.5028 20.4662 36.9606 20.014 36.9606 19.4524C36.9606 18.8908 36.5028 18.4386 35.9342 18.4386H34.9077C34.3391 18.4386 33.8812 18.8908 33.8812 19.4524C33.8812 20.014 34.3391 20.4662 34.9077 20.4662H35.9342Z" fill="var(--fill-0, black)"/>
<path id="Vector_9" d="M9.26825 8.30752H8.24178C7.67316 8.30752 7.21531 8.75973 7.21531 9.32135C7.21531 9.88296 7.67316 10.3352 8.24178 10.3352H9.26825C9.83688 10.3352 10.2947 9.88296 10.2947 9.32135C10.2947 8.75973 9.83688 8.30752 9.26825 8.30752Z" fill="var(--fill-0, black)"/>
<path id="Vector_10" d="M14.3933 10.3424C14.9619 10.3424 15.4198 9.89015 15.4198 9.32854C15.4198 8.76692 14.9619 8.31471 14.3933 8.31471H13.3668C12.7982 8.31471 12.3403 8.76692 12.3403 9.32854C12.3403 9.89015 12.7982 10.3424 13.3668 10.3424H14.3933Z" fill="var(--fill-0, black)"/>
<path id="Vector_11" d="M19.5256 10.3424C20.0942 10.3424 20.5521 9.89015 20.5521 9.32854C20.5521 8.76692 20.0942 8.31471 19.5256 8.31471H18.4991C17.9305 8.31471 17.4726 8.76692 17.4726 9.32854C17.4726 9.89015 17.9305 10.3424 18.4991 10.3424H19.5256Z" fill="var(--fill-0, black)"/>
<path id="Vector_12" d="M29.5612 32.2965C29.5612 31.6328 29.3027 31.0128 28.8227 30.546C27.8405 29.576 26.2528 29.576 25.2707 30.546L18.5727 37.1615C18.1001 37.6283 17.8343 38.2555 17.8343 38.9119C17.8343 39.5684 18.0927 40.1956 18.5727 40.6624L25.2707 47.2778C25.7433 47.7446 26.3784 48.0072 27.043 48.0072C27.7076 48.0072 28.3427 47.7519 28.8153 47.2851C29.2879 46.8183 29.5538 46.1911 29.5538 45.5346C29.5538 44.8782 29.2953 44.251 28.8153 43.7842L23.8971 38.9265L28.8153 34.0689C29.2879 33.6021 29.5538 32.9749 29.5538 32.3184L29.5612 32.2965ZM27.6412 32.88L22.1248 38.3284C21.7999 38.6494 21.7999 39.1745 22.1248 39.4954L27.6412 44.9439C27.7962 45.097 27.8848 45.3085 27.8848 45.5274C27.8848 45.7462 27.7962 45.9577 27.6412 46.1109C27.3236 46.4245 26.7771 46.4245 26.4596 46.1109L19.7617 39.4954C19.6066 39.3423 19.518 39.1308 19.518 38.9119C19.518 38.6931 19.6066 38.4816 19.7617 38.3284L26.4596 31.713C26.6221 31.5526 26.8362 31.4723 27.0504 31.4723C27.2645 31.4723 27.4787 31.5526 27.6412 31.713C27.7962 31.8662 27.8848 32.0777 27.8848 32.2965C27.8848 32.5153 27.7962 32.7269 27.6412 32.88Z" fill="var(--fill-0, #75E1B3)"/>
<path id="Vector_13" d="M52.2617 37.154L45.5638 30.5386C44.5817 29.5686 42.9939 29.5686 42.0118 30.5386C41.5392 31.0054 41.2733 31.6327 41.2733 32.2891C41.2733 32.9456 41.5318 33.5728 42.0118 34.0396L46.93 38.8972L42.0118 43.7549C41.5392 44.2217 41.2733 44.8489 41.2733 45.5054C41.2733 46.1618 41.5318 46.789 42.0118 47.2558C42.4844 47.7226 43.1195 47.9852 43.7841 47.9852C44.4487 47.9852 45.0838 47.7299 45.5564 47.2558L52.2544 40.6404C52.727 40.1736 52.9928 39.5464 52.9928 38.8899C52.9928 38.2335 52.7344 37.6062 52.2544 37.1394L52.2617 37.154ZM51.0802 39.4953L44.3823 46.1107C44.0647 46.4244 43.5183 46.4244 43.2007 46.1107C43.0456 45.9576 42.957 45.746 42.957 45.5272C42.957 45.3084 43.0456 45.0969 43.2007 44.9437L48.7171 39.4953C49.042 39.1744 49.042 38.6493 48.7171 38.3283L43.2007 32.8799C43.0456 32.7267 42.957 32.5152 42.957 32.2964C42.957 32.0776 43.0456 31.8661 43.2007 31.7129C43.3558 31.5598 43.5773 31.4722 43.7915 31.4722C44.0057 31.4722 44.2198 31.5525 44.3823 31.7129L51.0802 38.3283C51.2353 38.4815 51.3239 38.693 51.3239 38.9118C51.3239 39.1306 51.2353 39.3422 51.0802 39.4953Z" fill="var(--fill-0, #75E1B3)"/>
<path id="Vector_14" d="M38.8141 29.97C37.5218 29.4886 36.067 30.1377 35.5796 31.4214L30.558 44.6522C30.3217 45.2722 30.3439 45.9505 30.6245 46.5486C30.9051 47.154 31.3999 47.6135 32.0276 47.8469C32.3082 47.949 32.611 48.0073 32.9137 48.0073C33.955 48.0073 34.9002 47.3582 35.2621 46.3954L40.2837 33.1646C40.7711 31.8809 40.1064 30.4514 38.8141 29.97ZM38.7181 32.5811L33.6965 45.8119C33.5414 46.2277 33.0467 46.4538 32.6184 46.2933C32.19 46.1329 31.9685 45.6588 32.131 45.2284L37.1526 31.9976C37.2781 31.6621 37.603 31.4579 37.9353 31.4579C38.0313 31.4579 38.1273 31.4725 38.2307 31.5089C38.659 31.6694 38.8806 32.1435 38.7181 32.5738V32.5811Z" fill="var(--fill-0, #75E1B3)"/>
<path id="Vector_15" d="M6.04807 14.923H4.53421C2.86526 14.923 1.51386 13.5809 1.51386 11.9398C1.51386 10.5248 2.53295 9.2922 3.93605 9.01504C4.14282 8.97128 4.32744 8.84729 4.43821 8.65765C4.52682 8.51178 4.55636 8.34402 4.53421 8.17626C4.54898 4.48564 7.59147 1.48792 11.3355 1.48792C13.4771 1.48792 15.4636 2.46528 16.7707 4.1793C16.911 4.36894 17.1473 4.47835 17.3836 4.47835C19.0008 4.47835 20.4999 5.19313 21.5043 6.43306C21.7627 6.75399 22.2353 6.80504 22.5676 6.54976C22.8926 6.29448 22.9443 5.82039 22.6858 5.49947C21.4673 3.99696 19.6876 3.09254 17.7454 2.99043C16.1503 1.08676 13.8315 0 11.3281 0C6.91947 0 3.29358 3.41346 3.03511 7.70947C1.24063 8.32943 0 10.0143 0 11.9325C0 14.3978 2.03079 16.4109 4.53421 16.4109H6.04807C6.469 16.4109 6.80131 16.0754 6.80131 15.6669C6.80131 15.2585 6.46161 14.923 6.04807 14.923Z" fill="var(--fill-0, #75E1B3)"/>
</g>
<defs>
<clipPath id="clip0_319_116">
<rect width="53" height="48" fill="white"/>
</clipPath>
</defs>
</svg>
