<svg preserveAspectRatio="none" width="100%" height="100%" overflow="visible" style="display: block;" viewBox="0 0 57 68" fill="none" xmlns="http://www.w3.org/2000/svg">
<g id="Group">
<path id="Vector" d="M57 27.7061C57 26.191 56.3172 24.8452 55.2441 23.9265C56.309 23.0078 57 21.662 57 20.147C57 17.3667 54.7239 15.1102 51.9194 15.1102H49.3832V6.29391C49.3832 2.82057 46.5381 0 43.0345 0H22.7122C19.2086 0 16.3635 2.82057 16.3635 6.29391V13.8128C14.9897 12.5314 13.3314 11.927 12.0796 11.6369C10.974 11.3871 9.81974 11.6369 8.91743 12.3541C7.99073 13.0875 7.47048 14.1673 7.47048 15.3359V34.9912C6.83642 36.4499 3.91001 43.5899 4.85297 49.771L0.251997 55.8635C0.0894181 56.0811 0 56.3389 0 56.621V66.7348C0 67.4278 0.569024 67.9919 1.26811 67.9919H22.5171C22.8748 67.9919 23.1999 67.8388 23.4438 67.589L27.8497 62.8666C30.0201 62.5523 38.775 60.9405 42.5712 55.3961H43.0264C46.5299 55.3961 49.3751 52.5755 49.3751 49.1022V47.845H51.9113C54.7158 47.845 56.9919 45.5885 56.9919 42.8082C56.9919 41.2932 56.309 39.9474 55.236 39.0287C56.3009 38.11 56.9919 36.7642 56.9919 35.2491C56.9919 33.7341 56.309 32.3882 55.236 31.4695C56.3009 30.5508 56.9919 29.205 56.9919 27.69L57 27.7061ZM51.9194 17.6326C53.3176 17.6326 54.4556 18.7689 54.4556 20.147C54.4556 21.525 53.3095 22.6613 51.9194 22.6613H49.3832V17.6246H51.9194V17.6326ZM39.222 2.5224V3.77957C39.222 4.47262 38.653 5.03674 37.9539 5.03674H27.7928C27.0937 5.03674 26.5247 4.47262 26.5247 3.77957V2.5224H39.222ZM27.0937 60.4247C26.7848 60.465 26.5084 60.602 26.3052 60.8116L21.9643 65.4615H2.53622V57.0239L7.21035 50.8267C7.42983 50.5366 7.50299 50.182 7.43796 49.8355C6.25927 43.7511 9.85225 35.8293 9.8929 35.7568C9.96606 35.5956 10.0067 35.4183 10.0067 35.2249V15.2956C10.0067 14.9087 10.1855 14.538 10.5026 14.2882C10.6651 14.1512 11.0391 13.9498 11.5024 14.0465C14.7296 14.7879 16.3554 16.9154 16.3554 20.3645V49.0619C16.3554 52.5352 19.2005 55.3558 22.7041 55.3558H39.2952C35.1169 59.4093 27.175 60.3683 27.0856 60.3764V60.4167L27.0937 60.4247ZM46.8388 49.1102C46.8388 51.1894 45.1236 52.8898 43.0264 52.8898H22.7041C20.6068 52.8898 18.8916 51.1894 18.8916 49.1102V6.29391C18.8916 4.21474 20.6068 2.51434 22.7041 2.51434H23.9722V3.77151C23.9722 5.85068 25.6874 7.55108 27.7847 7.55108H37.9458C40.0431 7.55108 41.7583 5.85068 41.7583 3.77151V2.51434H43.0264C45.1236 2.51434 46.8388 4.21474 46.8388 6.29391V49.1022V49.1102ZM54.4638 42.8082C54.4638 44.1944 53.3176 45.3226 51.9276 45.3226H49.3913V40.2859H51.9276C53.3257 40.2859 54.4638 41.4221 54.4638 42.8002V42.8082ZM54.4638 35.2572C54.4638 36.6433 53.3176 37.7715 51.9276 37.7715H49.3913V32.7348H51.9276C53.3257 32.7348 54.4638 33.8711 54.4638 35.2491V35.2572ZM49.3832 30.2204V25.1837H51.9194C53.3176 25.1837 54.4556 26.32 54.4556 27.698C54.4556 29.0761 53.3095 30.2124 51.9194 30.2124H49.3832V30.2204Z" fill="var(--fill-0, #1E1E1E)"/>
<path id="Vector_2" d="M35.401 20.6144C34.7263 20.4129 34.0191 20.7917 33.8159 21.4606L29.4995 35.7407C29.2962 36.4096 29.6783 37.1107 30.353 37.3122C30.4831 37.3525 30.5969 37.3606 30.7188 37.3606C31.2634 37.3606 31.7756 37.006 31.9381 36.466L36.2546 22.1859C36.4578 21.517 36.0758 20.8159 35.401 20.6144Z" fill="var(--fill-0, #75E1B3)"/>
<path id="Vector_3" d="M27.7029 23.3061C27.2071 22.8145 26.4104 22.8145 25.9146 23.3061L21.1104 28.0688C20.6145 28.5604 20.6145 29.3502 21.1104 29.8418L25.9146 34.6045C26.1666 34.8543 26.4836 34.9671 26.8169 34.9671C27.1502 34.9671 27.4672 34.8382 27.7192 34.6045C28.2151 34.1129 28.2151 33.3232 27.7192 32.8316L23.8173 28.9633L27.7192 25.0951C28.2151 24.6035 28.2151 23.8138 27.7192 23.3222L27.7029 23.3061Z" fill="var(--fill-0, #75E1B3)"/>
<path id="Vector_4" d="M39.8477 23.3061C39.3518 22.8145 38.5552 22.8145 38.0593 23.3061C37.5635 23.7977 37.5635 24.5874 38.0593 25.079L41.9612 28.9472L38.0593 32.8154C37.5635 33.307 37.5635 34.0968 38.0593 34.5884C38.3113 34.8382 38.6283 34.951 38.9616 34.951C39.2949 34.951 39.6119 34.8221 39.8639 34.5884L44.6681 29.8256C45.164 29.3341 45.164 28.5443 44.6681 28.0527L39.8639 23.29L39.8477 23.3061Z" fill="var(--fill-0, #75E1B3)"/>
</g>
</svg>
