<svg preserveAspectRatio="none" width="100%" height="100%" overflow="visible" style="display: block;" viewBox="0 0 42 46" fill="none" xmlns="http://www.w3.org/2000/svg">
<g id="Layer_1" clip-path="url(#clip0_319_105)">
<path id="Vector" d="M33.4656 14.9885H30.7345L31.6656 12.4001H33.4656C33.9997 12.4001 34.4333 11.9614 34.4333 11.421C34.4333 10.8805 33.9997 10.4418 33.4656 10.4418H32.3705L32.6184 9.75223C32.8001 9.24532 32.5413 8.68522 32.0403 8.50141C31.5393 8.31761 30.9858 8.57945 30.8042 9.08636L30.3163 10.4418H27.7212L27.9691 9.75223C28.1507 9.24532 27.892 8.68522 27.391 8.50141C26.89 8.31761 26.3365 8.57945 26.1548 9.08636L25.667 10.4418H22.2315C21.6974 10.4418 21.2638 10.8805 21.2638 11.421C21.2638 11.9614 21.6974 12.4001 22.2315 12.4001H24.9626L24.0315 14.9885H22.2315C21.6974 14.9885 21.2638 15.4272 21.2638 15.9676C21.2638 16.508 21.6974 16.9468 22.2315 16.9468H23.3272L23.0787 17.6369C22.897 18.1438 23.1558 18.7039 23.6568 18.8877C24.1578 19.0715 24.7113 18.8097 24.8929 18.3028L25.3808 16.9468H27.9765L27.728 17.6369C27.5464 18.1438 27.8051 18.7039 28.3061 18.8877C28.8071 19.0715 29.3606 18.8097 29.5423 18.3028L30.0301 16.9468H33.4656C33.9997 16.9468 34.4333 16.508 34.4333 15.9676C34.4333 15.4272 33.9997 14.9885 33.4656 14.9885ZM28.6808 14.9885H26.0851L27.0162 12.4001H29.612L28.6808 14.9885ZM25.9189 35.557C25.7304 35.2264 25.4585 34.9495 25.1197 34.7513L21.7671 32.7936C21.4226 32.5941 21.0496 32.4942 20.676 32.4907C20.2619 32.4907 19.9448 32.6028 19.5838 32.7941C19.2422 32.9936 18.9703 33.2698 18.7829 33.6022C18.5939 33.9346 18.4916 34.3114 18.4916 34.7056V38.6211C18.4916 39.043 18.5939 39.3604 18.7829 39.7291C18.9886 40.0892 19.2416 40.3135 19.5838 40.5326C19.9288 40.7349 20.303 40.8366 20.676 40.8366C21.0491 40.8366 21.4226 40.7349 21.7677 40.5308L25.1197 38.5754C25.4619 38.3754 25.7332 38.0991 25.9206 37.7708C26.1108 37.4379 26.2119 37.061 26.2119 36.6634C26.2119 36.2657 26.1108 35.8894 25.9189 35.557ZM24.2503 36.7917C24.2303 36.8264 24.196 36.8593 24.152 36.8853L20.8011 38.8425C20.7611 38.8662 20.7177 38.8783 20.676 38.8783C20.6343 38.8783 20.5915 38.8662 20.5515 38.8425L20.5235 38.8269C20.4938 38.8049 20.4698 38.7789 20.4532 38.75L20.4447 38.7355C20.4333 38.7061 20.427 38.6673 20.427 38.6211V34.7056C20.427 34.6501 20.4361 34.6056 20.4532 34.5773C20.4824 34.527 20.5258 34.4999 20.5732 34.471C20.6063 34.4565 20.6412 34.449 20.676 34.4449C20.7154 34.4449 20.7589 34.4577 20.8011 34.4837L24.152 36.4414C24.1989 36.4686 24.2326 36.4998 24.2503 36.535C24.2669 36.5645 24.2766 36.6084 24.2766 36.6634C24.2766 36.7183 24.2674 36.7622 24.2503 36.7917ZM16.6179 21.9934C16.0021 21.3397 15.1213 20.9819 14.213 21.0507C13.4738 21.1061 12.7226 21.4368 12.1011 22.1113C11.479 21.4368 10.7273 21.1061 9.98866 21.0507C9.08096 20.9819 8.19896 21.3397 7.58431 21.9934C6.97708 22.6385 6.62862 23.5667 6.76972 24.6442C6.97822 26.2337 8.31036 28.1856 11.6664 29.9006C11.7772 29.9567 11.8972 29.9914 12.0211 30.0012C12.0611 30.0052 12.1023 30.0064 12.1428 30.0041C12.2759 29.9989 12.4096 29.9653 12.5358 29.9006C15.8919 28.1856 17.2234 26.2348 17.4325 24.6447C17.5736 23.5667 17.2246 22.639 16.6179 21.9934ZM15.52 24.3927C15.3909 25.3713 14.4598 26.6366 12.1011 27.9273C9.74303 26.6366 8.81076 25.3707 8.68223 24.3921C8.62454 23.9494 8.75364 23.5823 8.98271 23.339C9.20321 23.1049 9.51968 22.9766 9.84471 23.0009C10.3268 23.0373 10.8512 23.4251 11.2054 24.3066C11.4053 24.8066 11.9697 25.0482 12.4639 24.8459C12.7158 24.7424 12.9014 24.5436 12.9968 24.3066C13.351 23.4251 13.8748 23.0373 14.357 23.0009C14.6826 22.9766 14.999 23.1049 15.2195 23.339C15.448 23.5823 15.5777 23.9494 15.52 24.3927ZM16.6179 21.9934C16.0021 21.3397 15.1213 20.9819 14.213 21.0507C13.4738 21.1061 12.7226 21.4368 12.1011 22.1113C11.479 21.4368 10.7273 21.1061 9.98866 21.0507C9.08096 20.9819 8.19896 21.3397 7.58431 21.9934C6.97708 22.6385 6.62862 23.5667 6.76972 24.6442C6.97822 26.2337 8.31036 28.1856 11.6664 29.9006C11.7772 29.9567 11.8972 29.9914 12.0211 30.0012C12.0611 30.0052 12.1023 30.0064 12.1428 30.0041C12.2759 29.9989 12.4096 29.9653 12.5358 29.9006C15.8919 28.1856 17.2234 26.2348 17.4325 24.6447C17.5736 23.5667 17.2246 22.639 16.6179 21.9934ZM15.52 24.3927C15.3909 25.3713 14.4598 26.6366 12.1011 27.9273C9.74303 26.6366 8.81076 25.3707 8.68223 24.3921C8.62454 23.9494 8.75364 23.5823 8.98271 23.339C9.20321 23.1049 9.51968 22.9766 9.84471 23.0009C10.3268 23.0373 10.8512 23.4251 11.2054 24.3066C11.4053 24.8066 11.9697 25.0482 12.4639 24.8459C12.7158 24.7424 12.9014 24.5436 12.9968 24.3066C13.351 23.4251 13.8748 23.0373 14.357 23.0009C14.6826 22.9766 14.999 23.1049 15.2195 23.339C15.448 23.5823 15.5777 23.9494 15.52 24.3927ZM25.9189 35.557C25.7304 35.2264 25.4585 34.9495 25.1197 34.7513L21.7671 32.7936C21.4226 32.5941 21.0496 32.4942 20.676 32.4907C20.2619 32.4907 19.9448 32.6028 19.5838 32.7941C19.2422 32.9936 18.9703 33.2698 18.7829 33.6022C18.5939 33.9346 18.4916 34.3114 18.4916 34.7056V38.6211C18.4916 39.043 18.5939 39.3604 18.7829 39.7291C18.9886 40.0892 19.2416 40.3135 19.5838 40.5326C19.9288 40.7349 20.303 40.8366 20.676 40.8366C21.0491 40.8366 21.4226 40.7349 21.7677 40.5308L25.1197 38.5754C25.4619 38.3754 25.7332 38.0991 25.9206 37.7708C26.1108 37.4379 26.2119 37.061 26.2119 36.6634C26.2119 36.2657 26.1108 35.8894 25.9189 35.557ZM24.2503 36.7917C24.2303 36.8264 24.196 36.8593 24.152 36.8853L20.8011 38.8425C20.7611 38.8662 20.7177 38.8783 20.676 38.8783C20.6343 38.8783 20.5915 38.8662 20.5515 38.8425L20.5235 38.8269C20.4938 38.8049 20.4698 38.7789 20.4532 38.75L20.4447 38.7355C20.4333 38.7061 20.427 38.6673 20.427 38.6211V34.7056C20.427 34.6501 20.4361 34.6056 20.4532 34.5773C20.4824 34.527 20.5258 34.4999 20.5732 34.471C20.6063 34.4565 20.6412 34.449 20.676 34.4449C20.7154 34.4449 20.7589 34.4577 20.8011 34.4837L24.152 36.4414C24.1989 36.4686 24.2326 36.4998 24.2503 36.535C24.2669 36.5645 24.2766 36.6084 24.2766 36.6634C24.2766 36.7183 24.2674 36.7622 24.2503 36.7917ZM33.4656 14.9885H30.7345L31.6656 12.4001H33.4656C33.9997 12.4001 34.4333 11.9614 34.4333 11.421C34.4333 10.8805 33.9997 10.4418 33.4656 10.4418H32.3705L32.6184 9.75223C32.8001 9.24532 32.5413 8.68522 32.0403 8.50141C31.5393 8.31761 30.9858 8.57945 30.8042 9.08636L30.3163 10.4418H27.7212L27.9691 9.75223C28.1507 9.24532 27.892 8.68522 27.391 8.50141C26.89 8.31761 26.3365 8.57945 26.1548 9.08636L25.667 10.4418H22.2315C21.6974 10.4418 21.2638 10.8805 21.2638 11.421C21.2638 11.9614 21.6974 12.4001 22.2315 12.4001H24.9626L24.0315 14.9885H22.2315C21.6974 14.9885 21.2638 15.4272 21.2638 15.9676C21.2638 16.508 21.6974 16.9468 22.2315 16.9468H23.3272L23.0787 17.6369C22.897 18.1438 23.1558 18.7039 23.6568 18.8877C24.1578 19.0715 24.7113 18.8097 24.8929 18.3028L25.3808 16.9468H27.9765L27.728 17.6369C27.5464 18.1438 27.8051 18.7039 28.3061 18.8877C28.8071 19.0715 29.3606 18.8097 29.5423 18.3028L30.0301 16.9468H33.4656C33.9997 16.9468 34.4333 16.508 34.4333 15.9676C34.4333 15.4272 33.9997 14.9885 33.4656 14.9885ZM28.6808 14.9885H26.0851L27.0162 12.4001H29.612L28.6808 14.9885ZM33.4656 14.9885H30.7345L31.6656 12.4001H33.4656C33.9997 12.4001 34.4333 11.9614 34.4333 11.421C34.4333 10.8805 33.9997 10.4418 33.4656 10.4418H32.3705L32.6184 9.75223C32.8001 9.24532 32.5413 8.68522 32.0403 8.50141C31.5393 8.31761 30.9858 8.57945 30.8042 9.08636L30.3163 10.4418H27.7212L27.9691 9.75223C28.1507 9.24532 27.892 8.68522 27.391 8.50141C26.89 8.31761 26.3365 8.57945 26.1548 9.08636L25.667 10.4418H22.2315C21.6974 10.4418 21.2638 10.8805 21.2638 11.421C21.2638 11.9614 21.6974 12.4001 22.2315 12.4001H24.9626L24.0315 14.9885H22.2315C21.6974 14.9885 21.2638 15.4272 21.2638 15.9676C21.2638 16.508 21.6974 16.9468 22.2315 16.9468H23.3272L23.0787 17.6369C22.897 18.1438 23.1558 18.7039 23.6568 18.8877C24.1578 19.0715 24.7113 18.8097 24.8929 18.3028L25.3808 16.9468H27.9765L27.728 17.6369C27.5464 18.1438 27.8051 18.7039 28.3061 18.8877C28.8071 19.0715 29.3606 18.8097 29.5423 18.3028L30.0301 16.9468H33.4656C33.9997 16.9468 34.4333 16.508 34.4333 15.9676C34.4333 15.4272 33.9997 14.9885 33.4656 14.9885ZM28.6808 14.9885H26.0851L27.0162 12.4001H29.612L28.6808 14.9885ZM25.9189 35.557C25.7304 35.2264 25.4585 34.9495 25.1197 34.7513L21.7671 32.7936C21.4226 32.5941 21.0496 32.4942 20.676 32.4907C20.2619 32.4907 19.9448 32.6028 19.5838 32.7941C19.2422 32.9936 18.9703 33.2698 18.7829 33.6022C18.5939 33.9346 18.4916 34.3114 18.4916 34.7056V38.6211C18.4916 39.043 18.5939 39.3604 18.7829 39.7291C18.9886 40.0892 19.2416 40.3135 19.5838 40.5326C19.9288 40.7349 20.303 40.8366 20.676 40.8366C21.0491 40.8366 21.4226 40.7349 21.7677 40.5308L25.1197 38.5754C25.4619 38.3754 25.7332 38.0991 25.9206 37.7708C26.1108 37.4379 26.2119 37.061 26.2119 36.6634C26.2119 36.2657 26.1108 35.8894 25.9189 35.557ZM24.2503 36.7917C24.2303 36.8264 24.196 36.8593 24.152 36.8853L20.8011 38.8425C20.7611 38.8662 20.7177 38.8783 20.676 38.8783C20.6343 38.8783 20.5915 38.8662 20.5515 38.8425L20.5235 38.8269C20.4938 38.8049 20.4698 38.7789 20.4532 38.75L20.4447 38.7355C20.4333 38.7061 20.427 38.6673 20.427 38.6211V34.7056C20.427 34.6501 20.4361 34.6056 20.4532 34.5773C20.4824 34.527 20.5258 34.4999 20.5732 34.471C20.6063 34.4565 20.6412 34.449 20.676 34.4449C20.7154 34.4449 20.7589 34.4577 20.8011 34.4837L24.152 36.4414C24.1989 36.4686 24.2326 36.4998 24.2503 36.535C24.2669 36.5645 24.2766 36.6084 24.2766 36.6634C24.2766 36.7183 24.2674 36.7622 24.2503 36.7917ZM16.6179 21.9934C16.0021 21.3397 15.1213 20.9819 14.213 21.0507C13.4738 21.1061 12.7226 21.4368 12.1011 22.1113C11.479 21.4368 10.7273 21.1061 9.98866 21.0507C9.08096 20.9819 8.19896 21.3397 7.58431 21.9934C6.97708 22.6385 6.62862 23.5667 6.76972 24.6442C6.97822 26.2337 8.31036 28.1856 11.6664 29.9006C11.7772 29.9567 11.8972 29.9914 12.0211 30.0012C12.0611 30.0052 12.1023 30.0064 12.1428 30.0041C12.2759 29.9989 12.4096 29.9653 12.5358 29.9006C15.8919 28.1856 17.2234 26.2348 17.4325 24.6447C17.5736 23.5667 17.2246 22.639 16.6179 21.9934ZM15.52 24.3927C15.3909 25.3713 14.4598 26.6366 12.1011 27.9273C9.74303 26.6366 8.81076 25.3707 8.68223 24.3921C8.62454 23.9494 8.75364 23.5823 8.98271 23.339C9.20321 23.1049 9.51968 22.9766 9.84471 23.0009C10.3268 23.0373 10.8512 23.4251 11.2054 24.3066C11.4053 24.8066 11.9697 25.0482 12.4639 24.8459C12.7158 24.7424 12.9014 24.5436 12.9968 24.3066C13.351 23.4251 13.8748 23.0373 14.357 23.0009C14.6826 22.9766 14.999 23.1049 15.2195 23.339C15.448 23.5823 15.5777 23.9494 15.52 24.3927ZM16.6179 21.9934C16.0021 21.3397 15.1213 20.9819 14.213 21.0507C13.4738 21.1061 12.7226 21.4368 12.1011 22.1113C11.479 21.4368 10.7273 21.1061 9.98866 21.0507C9.08096 20.9819 8.19896 21.3397 7.58431 21.9934C6.97708 22.6385 6.62862 23.5667 6.76972 24.6442C6.97822 26.2337 8.31036 28.1856 11.6664 29.9006C11.7772 29.9567 11.8972 29.9914 12.0211 30.0012C12.0611 30.0052 12.1023 30.0064 12.1428 30.0041C12.2759 29.9989 12.4096 29.9653 12.5358 29.9006C15.8919 28.1856 17.2234 26.2348 17.4325 24.6447C17.5736 23.5667 17.2246 22.639 16.6179 21.9934ZM15.52 24.3927C15.3909 25.3713 14.4598 26.6366 12.1011 27.9273C9.74303 26.6366 8.81076 25.3707 8.68223 24.3921C8.62454 23.9494 8.75364 23.5823 8.98271 23.339C9.20321 23.1049 9.51968 22.9766 9.84471 23.0009C10.3268 23.0373 10.8512 23.4251 11.2054 24.3066C11.4053 24.8066 11.9697 25.0482 12.4639 24.8459C12.7158 24.7424 12.9014 24.5436 12.9968 24.3066C13.351 23.4251 13.8748 23.0373 14.357 23.0009C14.6826 22.9766 14.999 23.1049 15.2195 23.339C15.448 23.5823 15.5777 23.9494 15.52 24.3927ZM25.9189 35.557C25.7304 35.2264 25.4585 34.9495 25.1197 34.7513L21.7671 32.7936C21.4226 32.5941 21.0496 32.4942 20.676 32.4907C20.2619 32.4907 19.9448 32.6028 19.5838 32.7941C19.2422 32.9936 18.9703 33.2698 18.7829 33.6022C18.5939 33.9346 18.4916 34.3114 18.4916 34.7056V38.6211C18.4916 39.043 18.5939 39.3604 18.7829 39.7291C18.9886 40.0892 19.2416 40.3135 19.5838 40.5326C19.9288 40.7349 20.303 40.8366 20.676 40.8366C21.0491 40.8366 21.4226 40.7349 21.7677 40.5308L25.1197 38.5754C25.4619 38.3754 25.7332 38.0991 25.9206 37.7708C26.1108 37.4379 26.2119 37.061 26.2119 36.6634C26.2119 36.2657 26.1108 35.8894 25.9189 35.557ZM24.2503 36.7917C24.2303 36.8264 24.196 36.8593 24.152 36.8853L20.8011 38.8425C20.7611 38.8662 20.7177 38.8783 20.676 38.8783C20.6343 38.8783 20.5915 38.8662 20.5515 38.8425L20.5235 38.8269C20.4938 38.8049 20.4698 38.7789 20.4532 38.75L20.4447 38.7355C20.4333 38.7061 20.427 38.6673 20.427 38.6211V34.7056C20.427 34.6501 20.4361 34.6056 20.4532 34.5773C20.4824 34.527 20.5258 34.4999 20.5732 34.471C20.6063 34.4565 20.6412 34.449 20.676 34.4449C20.7154 34.4449 20.7589 34.4577 20.8011 34.4837L24.152 36.4414C24.1989 36.4686 24.2326 36.4998 24.2503 36.535C24.2669 36.5645 24.2766 36.6084 24.2766 36.6634C24.2766 36.7183 24.2674 36.7622 24.2503 36.7917ZM33.4656 14.9885H30.7345L31.6656 12.4001H33.4656C33.9997 12.4001 34.4333 11.9614 34.4333 11.421C34.4333 10.8805 33.9997 10.4418 33.4656 10.4418H32.3705L32.6184 9.75223C32.8001 9.24532 32.5413 8.68522 32.0403 8.50141C31.5393 8.31761 30.9858 8.57945 30.8042 9.08636L30.3163 10.4418H27.7212L27.9691 9.75223C28.1507 9.24532 27.892 8.68522 27.391 8.50141C26.89 8.31761 26.3365 8.57945 26.1548 9.08636L25.667 10.4418H22.2315C21.6974 10.4418 21.2638 10.8805 21.2638 11.421C21.2638 11.9614 21.6974 12.4001 22.2315 12.4001H24.9626L24.0315 14.9885H22.2315C21.6974 14.9885 21.2638 15.4272 21.2638 15.9676C21.2638 16.508 21.6974 16.9468 22.2315 16.9468H23.3272L23.0787 17.6369C22.897 18.1438 23.1558 18.7039 23.6568 18.8877C24.1578 19.0715 24.7113 18.8097 24.8929 18.3028L25.3808 16.9468H27.9765L27.728 17.6369C27.5464 18.1438 27.8051 18.7039 28.3061 18.8877C28.8071 19.0715 29.3606 18.8097 29.5423 18.3028L30.0301 16.9468H33.4656C33.9997 16.9468 34.4333 16.508 34.4333 15.9676C34.4333 15.4272 33.9997 14.9885 33.4656 14.9885ZM28.6808 14.9885H26.0851L27.0162 12.4001H29.612L28.6808 14.9885ZM33.4656 14.9885H30.7345L31.6656 12.4001H33.4656C33.9997 12.4001 34.4333 11.9614 34.4333 11.421C34.4333 10.8805 33.9997 10.4418 33.4656 10.4418H32.3705L32.6184 9.75223C32.8001 9.24532 32.5413 8.68522 32.0403 8.50141C31.5393 8.31761 30.9858 8.57945 30.8042 9.08636L30.3163 10.4418H27.7212L27.9691 9.75223C28.1507 9.24532 27.892 8.68522 27.391 8.50141C26.89 8.31761 26.3365 8.57945 26.1548 9.08636L25.667 10.4418H22.2315C21.6974 10.4418 21.2638 10.8805 21.2638 11.421C21.2638 11.9614 21.6974 12.4001 22.2315 12.4001H24.9626L24.0315 14.9885H22.2315C21.6974 14.9885 21.2638 15.4272 21.2638 15.9676C21.2638 16.508 21.6974 16.9468 22.2315 16.9468H23.3272L23.0787 17.6369C22.897 18.1438 23.1558 18.7039 23.6568 18.8877C24.1578 19.0715 24.7113 18.8097 24.8929 18.3028L25.3808 16.9468H27.9765L27.728 17.6369C27.5464 18.1438 27.8051 18.7039 28.3061 18.8877C28.8071 19.0715 29.3606 18.8097 29.5423 18.3028L30.0301 16.9468H33.4656C33.9997 16.9468 34.4333 16.508 34.4333 15.9676C34.4333 15.4272 33.9997 14.9885 33.4656 14.9885ZM28.6808 14.9885H26.0851L27.0162 12.4001H29.612L28.6808 14.9885ZM25.9189 35.557C25.7304 35.2264 25.4585 34.9495 25.1197 34.7513L21.7671 32.7936C21.4226 32.5941 21.0496 32.4942 20.676 32.4907C20.2619 32.4907 19.9448 32.6028 19.5838 32.7941C19.2422 32.9936 18.9703 33.2698 18.7829 33.6022C18.5939 33.9346 18.4916 34.3114 18.4916 34.7056V38.6211C18.4916 39.043 18.5939 39.3604 18.7829 39.7291C18.9886 40.0892 19.2416 40.3135 19.5838 40.5326C19.9288 40.7349 20.303 40.8366 20.676 40.8366C21.0491 40.8366 21.4226 40.7349 21.7677 40.5308L25.1197 38.5754C25.4619 38.3754 25.7332 38.0991 25.9206 37.7708C26.1108 37.4379 26.2119 37.061 26.2119 36.6634C26.2119 36.2657 26.1108 35.8894 25.9189 35.557ZM24.2503 36.7917C24.2303 36.8264 24.196 36.8593 24.152 36.8853L20.8011 38.8425C20.7611 38.8662 20.7177 38.8783 20.676 38.8783C20.6343 38.8783 20.5915 38.8662 20.5515 38.8425L20.5235 38.8269C20.4938 38.8049 20.4698 38.7789 20.4532 38.75L20.4447 38.7355C20.4333 38.7061 20.427 38.6673 20.427 38.6211V34.7056C20.427 34.6501 20.4361 34.6056 20.4532 34.5773C20.4824 34.527 20.5258 34.4999 20.5732 34.471C20.6063 34.4565 20.6412 34.449 20.676 34.4449C20.7154 34.4449 20.7589 34.4577 20.8011 34.4837L24.152 36.4414C24.1989 36.4686 24.2326 36.4998 24.2503 36.535C24.2669 36.5645 24.2766 36.6084 24.2766 36.6634C24.2766 36.7183 24.2674 36.7622 24.2503 36.7917ZM16.6179 21.9934C16.0021 21.3397 15.1213 20.9819 14.213 21.0507C13.4738 21.1061 12.7226 21.4368 12.1011 22.1113C11.479 21.4368 10.7273 21.1061 9.98866 21.0507C9.08096 20.9819 8.19896 21.3397 7.58431 21.9934C6.97708 22.6385 6.62862 23.5667 6.76972 24.6442C6.97822 26.2337 8.31036 28.1856 11.6664 29.9006C11.7772 29.9567 11.8972 29.9914 12.0211 30.0012C12.0611 30.0052 12.1023 30.0064 12.1428 30.0041C12.2759 29.9989 12.4096 29.9653 12.5358 29.9006C15.8919 28.1856 17.2234 26.2348 17.4325 24.6447C17.5736 23.5667 17.2246 22.639 16.6179 21.9934ZM15.52 24.3927C15.3909 25.3713 14.4598 26.6366 12.1011 27.9273C9.74303 26.6366 8.81076 25.3707 8.68223 24.3921C8.62454 23.9494 8.75364 23.5823 8.98271 23.339C9.20321 23.1049 9.51968 22.9766 9.84471 23.0009C10.3268 23.0373 10.8512 23.4251 11.2054 24.3066C11.4053 24.8066 11.9697 25.0482 12.4639 24.8459C12.7158 24.7424 12.9014 24.5436 12.9968 24.3066C13.351 23.4251 13.8748 23.0373 14.357 23.0009C14.6826 22.9766 14.999 23.1049 15.2195 23.339C15.448 23.5823 15.5777 23.9494 15.52 24.3927ZM16.6179 21.9934C16.0021 21.3397 15.1213 20.9819 14.213 21.0507C13.4738 21.1061 12.7226 21.4368 12.1011 22.1113C11.479 21.4368 10.7273 21.1061 9.98866 21.0507C9.08096 20.9819 8.19896 21.3397 7.58431 21.9934C6.97708 22.6385 6.62862 23.5667 6.76972 24.6442C6.97822 26.2337 8.31036 28.1856 11.6664 29.9006C11.7772 29.9567 11.8972 29.9914 12.0211 30.0012C12.0611 30.0052 12.1023 30.0064 12.1428 30.0041C12.2759 29.9989 12.4096 29.9653 12.5358 29.9006C15.8919 28.1856 17.2234 26.2348 17.4325 24.6447C17.5736 23.5667 17.2246 22.639 16.6179 21.9934ZM15.52 24.3927C15.3909 25.3713 14.4598 26.6366 12.1011 27.9273C9.74303 26.6366 8.81076 25.3707 8.68223 24.3921C8.62454 23.9494 8.75364 23.5823 8.98271 23.339C9.20321 23.1049 9.51968 22.9766 9.84471 23.0009C10.3268 23.0373 10.8512 23.4251 11.2054 24.3066C11.4053 24.8066 11.9697 25.0482 12.4639 24.8459C12.7158 24.7424 12.9014 24.5436 12.9968 24.3066C13.351 23.4251 13.8748 23.0373 14.357 23.0009C14.6826 22.9766 14.999 23.1049 15.2195 23.339C15.448 23.5823 15.5777 23.9494 15.52 24.3927ZM25.9189 35.557C25.7304 35.2264 25.4585 34.9495 25.1197 34.7513L21.7671 32.7936C21.4226 32.5941 21.0496 32.4942 20.676 32.4907C20.2619 32.4907 19.9448 32.6028 19.5838 32.7941C19.2422 32.9936 18.9703 33.2698 18.7829 33.6022C18.5939 33.9346 18.4916 34.3114 18.4916 34.7056V38.6211C18.4916 39.043 18.5939 39.3604 18.7829 39.7291C18.9886 40.0892 19.2416 40.3135 19.5838 40.5326C19.9288 40.7349 20.303 40.8366 20.676 40.8366C21.0491 40.8366 21.4226 40.7349 21.7677 40.5308L25.1197 38.5754C25.4619 38.3754 25.7332 38.0991 25.9206 37.7708C26.1108 37.4379 26.2119 37.061 26.2119 36.6634C26.2119 36.2657 26.1108 35.8894 25.9189 35.557ZM24.2503 36.7917C24.2303 36.8264 24.196 36.8593 24.152 36.8853L20.8011 38.8425C20.7611 38.8662 20.7177 38.8783 20.676 38.8783C20.6343 38.8783 20.5915 38.8662 20.5515 38.8425L20.5235 38.8269C20.4938 38.8049 20.4698 38.7789 20.4532 38.75L20.4447 38.7355C20.4333 38.7061 20.427 38.6673 20.427 38.6211V34.7056C20.427 34.6501 20.4361 34.6056 20.4532 34.5773C20.4824 34.527 20.5258 34.4999 20.5732 34.471C20.6063 34.4565 20.6412 34.449 20.676 34.4449C20.7154 34.4449 20.7589 34.4577 20.8011 34.4837L24.152 36.4414C24.1989 36.4686 24.2326 36.4998 24.2503 36.535C24.2669 36.5645 24.2766 36.6084 24.2766 36.6634C24.2766 36.7183 24.2674 36.7622 24.2503 36.7917ZM33.4656 14.9885H30.7345L31.6656 12.4001H33.4656C33.9997 12.4001 34.4333 11.9614 34.4333 11.421C34.4333 10.8805 33.9997 10.4418 33.4656 10.4418H32.3705L32.6184 9.75223C32.8001 9.24532 32.5413 8.68522 32.0403 8.50141C31.5393 8.31761 30.9858 8.57945 30.8042 9.08636L30.3163 10.4418H27.7212L27.9691 9.75223C28.1507 9.24532 27.892 8.68522 27.391 8.50141C26.89 8.31761 26.3365 8.57945 26.1548 9.08636L25.667 10.4418H22.2315C21.6974 10.4418 21.2638 10.8805 21.2638 11.421C21.2638 11.9614 21.6974 12.4001 22.2315 12.4001H24.9626L24.0315 14.9885H22.2315C21.6974 14.9885 21.2638 15.4272 21.2638 15.9676C21.2638 16.508 21.6974 16.9468 22.2315 16.9468H23.3272L23.0787 17.6369C22.897 18.1438 23.1558 18.7039 23.6568 18.8877C24.1578 19.0715 24.7113 18.8097 24.8929 18.3028L25.3808 16.9468H27.9765L27.728 17.6369C27.5464 18.1438 27.8051 18.7039 28.3061 18.8877C28.8071 19.0715 29.3606 18.8097 29.5423 18.3028L30.0301 16.9468H33.4656C33.9997 16.9468 34.4333 16.508 34.4333 15.9676C34.4333 15.4272 33.9997 14.9885 33.4656 14.9885ZM28.6808 14.9885H26.0851L27.0162 12.4001H29.612L28.6808 14.9885ZM33.4656 14.9885H30.7345L31.6656 12.4001H33.4656C33.9997 12.4001 34.4333 11.9614 34.4333 11.421C34.4333 10.8805 33.9997 10.4418 33.4656 10.4418H32.3705L32.6184 9.75223C32.8001 9.24532 32.5413 8.68522 32.0403 8.50141C31.5393 8.31761 30.9858 8.57945 30.8042 9.08636L30.3163 10.4418H27.7212L27.9691 9.75223C28.1507 9.24532 27.892 8.68522 27.391 8.50141C26.89 8.31761 26.3365 8.57945 26.1548 9.08636L25.667 10.4418H22.2315C21.6974 10.4418 21.2638 10.8805 21.2638 11.421C21.2638 11.9614 21.6974 12.4001 22.2315 12.4001H24.9626L24.0315 14.9885H22.2315C21.6974 14.9885 21.2638 15.4272 21.2638 15.9676C21.2638 16.508 21.6974 16.9468 22.2315 16.9468H23.3272L23.0787 17.6369C22.897 18.1438 23.1558 18.7039 23.6568 18.8877C24.1578 19.0715 24.7113 18.8097 24.8929 18.3028L25.3808 16.9468H27.9765L27.728 17.6369C27.5464 18.1438 27.8051 18.7039 28.3061 18.8877C28.8071 19.0715 29.3606 18.8097 29.5423 18.3028L30.0301 16.9468H33.4656C33.9997 16.9468 34.4333 16.508 34.4333 15.9676C34.4333 15.4272 33.9997 14.9885 33.4656 14.9885ZM28.6808 14.9885H26.0851L27.0162 12.4001H29.612L28.6808 14.9885ZM25.9189 35.557C25.7304 35.2264 25.4585 34.9495 25.1197 34.7513L21.7671 32.7936C21.4226 32.5941 21.0496 32.4942 20.676 32.4907C20.2619 32.4907 19.9448 32.6028 19.5838 32.7941C19.2422 32.9936 18.9703 33.2698 18.7829 33.6022C18.5939 33.9346 18.4916 34.3114 18.4916 34.7056V38.6211C18.4916 39.043 18.5939 39.3604 18.7829 39.7291C18.9886 40.0892 19.2416 40.3135 19.5838 40.5326C19.9288 40.7349 20.303 40.8366 20.676 40.8366C21.0491 40.8366 21.4226 40.7349 21.7677 40.5308L25.1197 38.5754C25.4619 38.3754 25.7332 38.0991 25.9206 37.7708C26.1108 37.4379 26.2119 37.061 26.2119 36.6634C26.2119 36.2657 26.1108 35.8894 25.9189 35.557ZM24.2503 36.7917C24.2303 36.8264 24.196 36.8593 24.152 36.8853L20.8011 38.8425C20.7611 38.8662 20.7177 38.8783 20.676 38.8783C20.6343 38.8783 20.5915 38.8662 20.5515 38.8425L20.5235 38.8269C20.4938 38.8049 20.4698 38.7789 20.4532 38.75L20.4447 38.7355C20.4333 38.7061 20.427 38.6673 20.427 38.6211V34.7056C20.427 34.6501 20.4361 34.6056 20.4532 34.5773C20.4824 34.527 20.5258 34.4999 20.5732 34.471C20.6063 34.4565 20.6412 34.449 20.676 34.4449C20.7154 34.4449 20.7589 34.4577 20.8011 34.4837L24.152 36.4414C24.1989 36.4686 24.2326 36.4998 24.2503 36.535C24.2669 36.5645 24.2766 36.6084 24.2766 36.6634C24.2766 36.7183 24.2674 36.7622 24.2503 36.7917ZM16.6179 21.9934C16.0021 21.3397 15.1213 20.9819 14.213 21.0507C13.4738 21.1061 12.7226 21.4368 12.1011 22.1113C11.479 21.4368 10.7273 21.1061 9.98866 21.0507C9.08096 20.9819 8.19896 21.3397 7.58431 21.9934C6.97708 22.6385 6.62862 23.5667 6.76972 24.6442C6.97822 26.2337 8.31036 28.1856 11.6664 29.9006C11.7772 29.9567 11.8972 29.9914 12.0211 30.0012C12.0611 30.0052 12.1023 30.0064 12.1428 30.0041C12.2759 29.9989 12.4096 29.9653 12.5358 29.9006C15.8919 28.1856 17.2234 26.2348 17.4325 24.6447C17.5736 23.5667 17.2246 22.639 16.6179 21.9934ZM15.52 24.3927C15.3909 25.3713 14.4598 26.6366 12.1011 27.9273C9.74303 26.6366 8.81076 25.3707 8.68223 24.3921C8.62454 23.9494 8.75364 23.5823 8.98271 23.339C9.20321 23.1049 9.51968 22.9766 9.84471 23.0009C10.3268 23.0373 10.8512 23.4251 11.2054 24.3066C11.4053 24.8066 11.9697 25.0482 12.4639 24.8459C12.7158 24.7424 12.9014 24.5436 12.9968 24.3066C13.351 23.4251 13.8748 23.0373 14.357 23.0009C14.6826 22.9766 14.999 23.1049 15.2195 23.339C15.448 23.5823 15.5777 23.9494 15.52 24.3927ZM41.2436 24.8187C40.1999 24.5852 39.4328 24.2211 38.9438 23.7303C38.5816 23.3667 38.3663 22.9107 38.2983 22.3662C39.2363 21.2264 39.9914 19.9224 40.5193 18.5062C41.0768 17.0069 41.3824 15.3827 41.3824 13.6943C41.3824 9.9135 39.8669 6.48935 37.418 4.01141C34.9691 1.53347 31.585 0 27.8485 0C24.1121 0 20.728 1.53347 18.2791 4.01141C15.8302 6.48935 14.3147 9.9135 14.3147 13.6943L14.3193 14.0203C13.6018 13.8792 12.8603 13.8053 12.1023 13.8053C8.90502 13.8053 6.00825 15.1179 3.91293 17.2381C1.81705 19.3588 0.519756 22.2893 0.519756 25.5245C0.519756 26.9683 0.781956 28.359 1.25951 29.6428C1.70223 30.8335 2.33459 31.9317 3.11776 32.8947C3.05607 33.2924 2.89098 33.6265 2.62421 33.8947C2.23177 34.2883 1.60797 34.5831 0.755108 34.7738C0.235849 34.89 -0.0926157 35.4108 0.022204 35.9362C0.0844694 36.2212 0.264411 36.4489 0.49862 36.5795C1.71537 37.287 2.99038 37.6061 4.31966 37.5379C5.63466 37.4471 6.75429 37.079 7.91506 36.4518C8.49887 36.6813 9.10552 36.8645 9.72989 36.9957C10.5039 37.1587 11.2991 37.2443 12.1023 37.2443C12.5016 37.2443 12.9123 37.2211 13.3321 37.1761L13.3653 37.1726C13.4915 39.4846 14.4695 41.5672 15.9878 43.1036C17.6165 44.7515 19.8672 45.7717 22.3521 45.7717C22.9741 45.7717 23.5922 45.7046 24.1949 45.5769C24.6462 45.4821 25.0843 45.3532 25.5053 45.1937C26.4319 45.6804 27.3413 45.9474 28.2336 45.9931C29.2904 46.0468 30.3026 45.7925 31.2651 45.2272C31.4908 45.0948 31.6627 44.8717 31.7233 44.5943C31.8381 44.0689 31.5096 43.5481 30.9904 43.4319C30.39 43.2978 29.9553 43.0961 29.6908 42.8302C29.548 42.6868 29.4515 42.5111 29.4029 42.3048C29.9799 41.577 30.4466 40.754 30.7779 39.8638C31.1492 38.8656 31.3531 37.7847 31.3531 36.6639C31.3531 34.1502 30.3449 31.8722 28.7163 30.2243C27.3413 28.833 25.5236 27.8897 23.4951 27.629C23.522 27.4816 23.546 27.3337 23.5665 27.1857C23.5888 27.0261 23.6082 26.8649 23.6248 26.7048C24.0806 26.8568 24.5462 26.9845 25.0192 27.0863C25.936 27.2845 26.8837 27.3886 27.8485 27.3886C28.8134 27.3886 29.7177 27.2886 30.6202 27.0984C31.3765 26.9394 32.1117 26.7152 32.8166 26.4331C34.2625 27.2256 35.6717 27.6597 37.0455 27.7354C38.5993 27.84 40.1577 27.4053 41.5001 26.625C41.7343 26.4944 41.9142 26.2661 41.9765 25.9811C42.0913 25.4557 41.7629 24.9349 41.2436 24.8187ZM13.1276 35.2339C12.8077 35.268 12.465 35.286 12.1023 35.286C11.4156 35.286 10.753 35.216 10.1229 35.0836C9.46769 34.9455 8.8359 34.7397 8.23781 34.4762C7.96533 34.3565 7.64143 34.3652 7.36552 34.5288C6.41897 35.0906 5.32904 35.5368 4.2214 35.5877C4.02775 35.5975 3.83524 35.5963 3.64445 35.5831C3.76555 35.4865 3.87866 35.3848 3.98491 35.2784C4.69154 34.5692 5.05428 33.6721 5.07198 32.5965C5.07941 32.3572 5.00001 32.115 4.83092 31.9213C4.07859 31.0624 3.47593 30.0578 3.06578 28.955C2.67162 27.8955 2.45512 26.7377 2.45512 25.5245C2.45512 22.8286 3.53534 20.3877 5.28049 18.6218C7.02563 16.856 9.43799 15.7636 12.1023 15.7636C14.7665 15.7636 17.1806 16.856 18.9257 18.6201C20.6692 20.3859 21.7488 22.8275 21.7488 25.5245C21.7488 26.0036 21.7163 26.4666 21.654 26.9105C21.6214 27.1423 21.5809 27.3701 21.534 27.5932C19.3753 27.7903 17.4359 28.759 15.9878 30.2243C14.6843 31.5433 13.7783 33.2664 13.4687 35.1912C13.355 35.2073 13.2413 35.2218 13.1276 35.2339ZM27.3487 31.6081C28.6266 32.9011 29.4178 34.6894 29.4178 36.6639C29.4178 37.5541 29.2595 38.4014 28.9716 39.176C28.6711 39.984 28.2296 40.7193 27.6795 41.3476C27.5109 41.5406 27.4315 41.7828 27.4384 42.0221C27.4515 42.8088 27.6926 43.4804 28.1604 44.0301C27.4961 43.9648 26.7935 43.7122 26.0554 43.2741C25.7795 43.1105 25.4556 43.1018 25.1826 43.2203C24.7427 43.4151 24.2811 43.566 23.8042 43.6654C23.3426 43.7619 22.8565 43.8134 22.3521 43.8134C20.4001 43.8134 18.6333 43.0128 17.3554 41.7198C16.0775 40.4268 15.2864 38.639 15.2864 36.6639C15.2864 34.6889 16.0775 32.9011 17.3554 31.6081C18.6333 30.315 20.4001 29.5145 22.3521 29.5145C24.304 29.5145 26.0708 30.315 27.3487 31.6081ZM37.1695 25.7869C35.8299 25.725 34.5115 25.1886 33.3667 24.5089C33.0908 24.3453 32.7669 24.3367 32.4939 24.4551C31.7747 24.7731 31.0149 25.0204 30.2272 25.1863C29.4686 25.3459 28.6723 25.4303 27.8485 25.4303C27.0248 25.4303 26.1971 25.3418 25.4202 25.1742C24.8095 25.043 24.2183 24.8638 23.6516 24.6424C23.4391 21.7605 22.1944 19.1675 20.2882 17.2381C19.1588 16.0953 17.797 15.1873 16.2815 14.5931L16.2712 14.4417C16.2575 14.2174 16.25 13.9683 16.25 13.6943C16.25 10.4528 17.5485 7.51821 19.6467 5.39517C21.7448 3.27213 24.6456 1.95831 27.8485 1.95831C31.0515 1.95831 33.9523 3.27213 36.0504 5.39517C38.1486 7.51821 39.447 10.4528 39.447 13.6943C39.447 15.152 39.1871 16.5439 38.713 17.8184C38.2195 19.1438 37.4945 20.3524 36.5897 21.3859C36.4212 21.579 36.3418 21.8211 36.3486 22.0604C36.3681 23.2864 36.7793 24.3066 37.5831 25.1141C37.8064 25.3384 38.0589 25.543 38.34 25.7291C37.955 25.788 37.5642 25.8071 37.1695 25.7869ZM33.4656 12.4001C33.9997 12.4001 34.4333 11.9614 34.4333 11.421C34.4333 10.8805 33.9997 10.4418 33.4656 10.4418H32.3705L32.6184 9.75223C32.8001 9.24532 32.5413 8.68522 32.0403 8.50141C31.5393 8.31761 30.9858 8.57945 30.8042 9.08636L30.3163 10.4418H27.7212L27.9691 9.75223C28.1507 9.24532 27.892 8.68522 27.391 8.50141C26.89 8.31761 26.3365 8.57945 26.1548 9.08636L25.667 10.4418H22.2315C21.6974 10.4418 21.2638 10.8805 21.2638 11.421C21.2638 11.9614 21.6974 12.4001 22.2315 12.4001H24.9626L24.0315 14.9885H22.2315C21.6974 14.9885 21.2638 15.4272 21.2638 15.9676C21.2638 16.508 21.6974 16.9468 22.2315 16.9468H23.3272L23.0787 17.6369C22.897 18.1438 23.1558 18.7039 23.6568 18.8877C24.1578 19.0715 24.7113 18.8097 24.8929 18.3028L25.3808 16.9468H27.9765L27.728 17.6369C27.5464 18.1438 27.8051 18.7039 28.3061 18.8877C28.8071 19.0715 29.3606 18.8097 29.5423 18.3028L30.0301 16.9468H33.4656C33.9997 16.9468 34.4333 16.508 34.4333 15.9676C34.4333 15.4272 33.9997 14.9885 33.4656 14.9885H30.7345L31.6656 12.4001H33.4656ZM28.6808 14.9885H26.0851L27.0162 12.4001H29.612L28.6808 14.9885ZM20.676 32.4907C20.2619 32.4907 19.9448 32.6028 19.5838 32.7941C19.2422 32.9936 18.9703 33.2698 18.7829 33.6022C18.5939 33.9346 18.4916 34.3114 18.4916 34.7056V38.6211C18.4916 39.043 18.5939 39.3604 18.7829 39.7291C18.9886 40.0892 19.2416 40.3135 19.5838 40.5326C19.9288 40.7349 20.303 40.8366 20.676 40.8366C21.0491 40.8366 21.4226 40.7349 21.7677 40.5308L25.1197 38.5754C25.4619 38.3754 25.7332 38.0991 25.9206 37.7708C26.1108 37.4379 26.2119 37.061 26.2119 36.6634C26.2119 36.2657 26.1108 35.8894 25.9189 35.557C25.7304 35.2264 25.4585 34.9495 25.1197 34.7513L21.7671 32.7936C21.4226 32.5941 21.0496 32.4942 20.676 32.4907ZM24.2503 36.535C24.2669 36.5645 24.2766 36.6084 24.2766 36.6634C24.2766 36.7183 24.2674 36.7622 24.2503 36.7917C24.2303 36.8264 24.196 36.8593 24.152 36.8853L20.8011 38.8425C20.7611 38.8662 20.7177 38.8783 20.676 38.8783C20.6343 38.8783 20.5915 38.8662 20.5515 38.8425L20.5235 38.8269C20.4938 38.8049 20.4698 38.7789 20.4532 38.75L20.4447 38.7355C20.4333 38.7061 20.427 38.6673 20.427 38.6211V34.7056C20.427 34.6501 20.4361 34.6056 20.4532 34.5773C20.4824 34.527 20.5258 34.4999 20.5732 34.471C20.6063 34.4565 20.6412 34.449 20.676 34.4449C20.7154 34.4449 20.7589 34.4577 20.8011 34.4837L24.152 36.4414C24.1989 36.4686 24.2326 36.4998 24.2503 36.535ZM16.6179 21.9934C16.0021 21.3397 15.1213 20.9819 14.213 21.0507C13.4738 21.1061 12.7226 21.4368 12.1011 22.1113C11.479 21.4368 10.7273 21.1061 9.98866 21.0507C9.08096 20.9819 8.19896 21.3397 7.58431 21.9934C6.97708 22.6385 6.62862 23.5667 6.76972 24.6442C6.97822 26.2337 8.31036 28.1856 11.6664 29.9006C11.7772 29.9567 11.8972 29.9914 12.0211 30.0012C12.0611 30.0052 12.1023 30.0064 12.1428 30.0041C12.2759 29.9989 12.4096 29.9653 12.5358 29.9006C15.8919 28.1856 17.2234 26.2348 17.4325 24.6447C17.5736 23.5667 17.2246 22.639 16.6179 21.9934ZM15.52 24.3927C15.3909 25.3713 14.4598 26.6366 12.1011 27.9273C9.74303 26.6366 8.81076 25.3707 8.68223 24.3921C8.62454 23.9494 8.75364 23.5823 8.98271 23.339C9.20321 23.1049 9.51968 22.9766 9.84471 23.0009C10.3268 23.0373 10.8512 23.4251 11.2054 24.3066C11.4053 24.8066 11.9697 25.0482 12.4639 24.8459C12.7158 24.7424 12.9014 24.5436 12.9968 24.3066C13.351 23.4251 13.8748 23.0373 14.357 23.0009C14.6826 22.9766 14.999 23.1049 15.2195 23.339C15.448 23.5823 15.5777 23.9494 15.52 24.3927ZM16.6179 21.9934C16.0021 21.3397 15.1213 20.9819 14.213 21.0507C13.4738 21.1061 12.7226 21.4368 12.1011 22.1113C11.479 21.4368 10.7273 21.1061 9.98866 21.0507C9.08096 20.9819 8.19896 21.3397 7.58431 21.9934C6.97708 22.6385 6.62862 23.5667 6.76972 24.6442C6.97822 26.2337 8.31036 28.1856 11.6664 29.9006C11.7772 29.9567 11.8972 29.9914 12.0211 30.0012C12.0611 30.0052 12.1023 30.0064 12.1428 30.0041C12.2759 29.9989 12.4096 29.9653 12.5358 29.9006C15.8919 28.1856 17.2234 26.2348 17.4325 24.6447C17.5736 23.5667 17.2246 22.639 16.6179 21.9934ZM15.52 24.3927C15.3909 25.3713 14.4598 26.6366 12.1011 27.9273C9.74303 26.6366 8.81076 25.3707 8.68223 24.3921C8.62454 23.9494 8.75364 23.5823 8.98271 23.339C9.20321 23.1049 9.51968 22.9766 9.84471 23.0009C10.3268 23.0373 10.8512 23.4251 11.2054 24.3066C11.4053 24.8066 11.9697 25.0482 12.4639 24.8459C12.7158 24.7424 12.9014 24.5436 12.9968 24.3066C13.351 23.4251 13.8748 23.0373 14.357 23.0009C14.6826 22.9766 14.999 23.1049 15.2195 23.339C15.448 23.5823 15.5777 23.9494 15.52 24.3927ZM25.9189 35.557C25.7304 35.2264 25.4585 34.9495 25.1197 34.7513L21.7671 32.7936C21.4226 32.5941 21.0496 32.4942 20.676 32.4907C20.2619 32.4907 19.9448 32.6028 19.5838 32.7941C19.2422 32.9936 18.9703 33.2698 18.7829 33.6022C18.5939 33.9346 18.4916 34.3114 18.4916 34.7056V38.6211C18.4916 39.043 18.5939 39.3604 18.7829 39.7291C18.9886 40.0892 19.2416 40.3135 19.5838 40.5326C19.9288 40.7349 20.303 40.8366 20.676 40.8366C21.0491 40.8366 21.4226 40.7349 21.7677 40.5308L25.1197 38.5754C25.4619 38.3754 25.7332 38.0991 25.9206 37.7708C26.1108 37.4379 26.2119 37.061 26.2119 36.6634C26.2119 36.2657 26.1108 35.8894 25.9189 35.557ZM24.2503 36.7917C24.2303 36.8264 24.196 36.8593 24.152 36.8853L20.8011 38.8425C20.7611 38.8662 20.7177 38.8783 20.676 38.8783C20.6343 38.8783 20.5915 38.8662 20.5515 38.8425L20.5235 38.8269C20.4938 38.8049 20.4698 38.7789 20.4532 38.75L20.4447 38.7355C20.4333 38.7061 20.427 38.6673 20.427 38.6211V34.7056C20.427 34.6501 20.4361 34.6056 20.4532 34.5773C20.4824 34.527 20.5258 34.4999 20.5732 34.471C20.6063 34.4565 20.6412 34.449 20.676 34.4449C20.7154 34.4449 20.7589 34.4577 20.8011 34.4837L24.152 36.4414C24.1989 36.4686 24.2326 36.4998 24.2503 36.535C24.2669 36.5645 24.2766 36.6084 24.2766 36.6634C24.2766 36.7183 24.2674 36.7622 24.2503 36.7917ZM33.4656 14.9885H30.7345L31.6656 12.4001H33.4656C33.9997 12.4001 34.4333 11.9614 34.4333 11.421C34.4333 10.8805 33.9997 10.4418 33.4656 10.4418H32.3705L32.6184 9.75223C32.8001 9.24532 32.5413 8.68522 32.0403 8.50141C31.5393 8.31761 30.9858 8.57945 30.8042 9.08636L30.3163 10.4418H27.7212L27.9691 9.75223C28.1507 9.24532 27.892 8.68522 27.391 8.50141C26.89 8.31761 26.3365 8.57945 26.1548 9.08636L25.667 10.4418H22.2315C21.6974 10.4418 21.2638 10.8805 21.2638 11.421C21.2638 11.9614 21.6974 12.4001 22.2315 12.4001H24.9626L24.0315 14.9885H22.2315C21.6974 14.9885 21.2638 15.4272 21.2638 15.9676C21.2638 16.508 21.6974 16.9468 22.2315 16.9468H23.3272L23.0787 17.6369C22.897 18.1438 23.1558 18.7039 23.6568 18.8877C24.1578 19.0715 24.7113 18.8097 24.8929 18.3028L25.3808 16.9468H27.9765L27.728 17.6369C27.5464 18.1438 27.8051 18.7039 28.3061 18.8877C28.8071 19.0715 29.3606 18.8097 29.5423 18.3028L30.0301 16.9468H33.4656C33.9997 16.9468 34.4333 16.508 34.4333 15.9676C34.4333 15.4272 33.9997 14.9885 33.4656 14.9885ZM28.6808 14.9885H26.0851L27.0162 12.4001H29.612L28.6808 14.9885ZM33.4656 14.9885H30.7345L31.6656 12.4001H33.4656C33.9997 12.4001 34.4333 11.9614 34.4333 11.421C34.4333 10.8805 33.9997 10.4418 33.4656 10.4418H32.3705L32.6184 9.75223C32.8001 9.24532 32.5413 8.68522 32.0403 8.50141C31.5393 8.31761 30.9858 8.57945 30.8042 9.08636L30.3163 10.4418H27.7212L27.9691 9.75223C28.1507 9.24532 27.892 8.68522 27.391 8.50141C26.89 8.31761 26.3365 8.57945 26.1548 9.08636L25.667 10.4418H22.2315C21.6974 10.4418 21.2638 10.8805 21.2638 11.421C21.2638 11.9614 21.6974 12.4001 22.2315 12.4001H24.9626L24.0315 14.9885H22.2315C21.6974 14.9885 21.2638 15.4272 21.2638 15.9676C21.2638 16.508 21.6974 16.9468 22.2315 16.9468H23.3272L23.0787 17.6369C22.897 18.1438 23.1558 18.7039 23.6568 18.8877C24.1578 19.0715 24.7113 18.8097 24.8929 18.3028L25.3808 16.9468H27.9765L27.728 17.6369C27.5464 18.1438 27.8051 18.7039 28.3061 18.8877C28.8071 19.0715 29.3606 18.8097 29.5423 18.3028L30.0301 16.9468H33.4656C33.9997 16.9468 34.4333 16.508 34.4333 15.9676C34.4333 15.4272 33.9997 14.9885 33.4656 14.9885ZM28.6808 14.9885H26.0851L27.0162 12.4001H29.612L28.6808 14.9885ZM25.9189 35.557C25.7304 35.2264 25.4585 34.9495 25.1197 34.7513L21.7671 32.7936C21.4226 32.5941 21.0496 32.4942 20.676 32.4907C20.2619 32.4907 19.9448 32.6028 19.5838 32.7941C19.2422 32.9936 18.9703 33.2698 18.7829 33.6022C18.5939 33.9346 18.4916 34.3114 18.4916 34.7056V38.6211C18.4916 39.043 18.5939 39.3604 18.7829 39.7291C18.9886 40.0892 19.2416 40.3135 19.5838 40.5326C19.9288 40.7349 20.303 40.8366 20.676 40.8366C21.0491 40.8366 21.4226 40.7349 21.7677 40.5308L25.1197 38.5754C25.4619 38.3754 25.7332 38.0991 25.9206 37.7708C26.1108 37.4379 26.2119 37.061 26.2119 36.6634C26.2119 36.2657 26.1108 35.8894 25.9189 35.557ZM24.2503 36.7917C24.2303 36.8264 24.196 36.8593 24.152 36.8853L20.8011 38.8425C20.7611 38.8662 20.7177 38.8783 20.676 38.8783C20.6343 38.8783 20.5915 38.8662 20.5515 38.8425L20.5235 38.8269C20.4938 38.8049 20.4698 38.7789 20.4532 38.75L20.4447 38.7355C20.4333 38.7061 20.427 38.6673 20.427 38.6211V34.7056C20.427 34.6501 20.4361 34.6056 20.4532 34.5773C20.4824 34.527 20.5258 34.4999 20.5732 34.471C20.6063 34.4565 20.6412 34.449 20.676 34.4449C20.7154 34.4449 20.7589 34.4577 20.8011 34.4837L24.152 36.4414C24.1989 36.4686 24.2326 36.4998 24.2503 36.535C24.2669 36.5645 24.2766 36.6084 24.2766 36.6634C24.2766 36.7183 24.2674 36.7622 24.2503 36.7917ZM16.6179 21.9934C16.0021 21.3397 15.1213 20.9819 14.213 21.0507C13.4738 21.1061 12.7226 21.4368 12.1011 22.1113C11.479 21.4368 10.7273 21.1061 9.98866 21.0507C9.08096 20.9819 8.19896 21.3397 7.58431 21.9934C6.97708 22.6385 6.62862 23.5667 6.76972 24.6442C6.97822 26.2337 8.31036 28.1856 11.6664 29.9006C11.7772 29.9567 11.8972 29.9914 12.0211 30.0012C12.0611 30.0052 12.1023 30.0064 12.1428 30.0041C12.2759 29.9989 12.4096 29.9653 12.5358 29.9006C15.8919 28.1856 17.2234 26.2348 17.4325 24.6447C17.5736 23.5667 17.2246 22.639 16.6179 21.9934ZM15.52 24.3927C15.3909 25.3713 14.4598 26.6366 12.1011 27.9273C9.74303 26.6366 8.81076 25.3707 8.68223 24.3921C8.62454 23.9494 8.75364 23.5823 8.98271 23.339C9.20321 23.1049 9.51968 22.9766 9.84471 23.0009C10.3268 23.0373 10.8512 23.4251 11.2054 24.3066C11.4053 24.8066 11.9697 25.0482 12.4639 24.8459C12.7158 24.7424 12.9014 24.5436 12.9968 24.3066C13.351 23.4251 13.8748 23.0373 14.357 23.0009C14.6826 22.9766 14.999 23.1049 15.2195 23.339C15.448 23.5823 15.5777 23.9494 15.52 24.3927ZM16.6179 21.9934C16.0021 21.3397 15.1213 20.9819 14.213 21.0507C13.4738 21.1061 12.7226 21.4368 12.1011 22.1113C11.479 21.4368 10.7273 21.1061 9.98866 21.0507C9.08096 20.9819 8.19896 21.3397 7.58431 21.9934C6.97708 22.6385 6.62862 23.5667 6.76972 24.6442C6.97822 26.2337 8.31036 28.1856 11.6664 29.9006C11.7772 29.9567 11.8972 29.9914 12.0211 30.0012C12.0611 30.0052 12.1023 30.0064 12.1428 30.0041C12.2759 29.9989 12.4096 29.9653 12.5358 29.9006C15.8919 28.1856 17.2234 26.2348 17.4325 24.6447C17.5736 23.5667 17.2246 22.639 16.6179 21.9934ZM15.52 24.3927C15.3909 25.3713 14.4598 26.6366 12.1011 27.9273C9.74303 26.6366 8.81076 25.3707 8.68223 24.3921C8.62454 23.9494 8.75364 23.5823 8.98271 23.339C9.20321 23.1049 9.51968 22.9766 9.84471 23.0009C10.3268 23.0373 10.8512 23.4251 11.2054 24.3066C11.4053 24.8066 11.9697 25.0482 12.4639 24.8459C12.7158 24.7424 12.9014 24.5436 12.9968 24.3066C13.351 23.4251 13.8748 23.0373 14.357 23.0009C14.6826 22.9766 14.999 23.1049 15.2195 23.339C15.448 23.5823 15.5777 23.9494 15.52 24.3927ZM25.9189 35.557C25.7304 35.2264 25.4585 34.9495 25.1197 34.7513L21.7671 32.7936C21.4226 32.5941 21.0496 32.4942 20.676 32.4907C20.2619 32.4907 19.9448 32.6028 19.5838 32.7941C19.2422 32.9936 18.9703 33.2698 18.7829 33.6022C18.5939 33.9346 18.4916 34.3114 18.4916 34.7056V38.6211C18.4916 39.043 18.5939 39.3604 18.7829 39.7291C18.9886 40.0892 19.2416 40.3135 19.5838 40.5326C19.9288 40.7349 20.303 40.8366 20.676 40.8366C21.0491 40.8366 21.4226 40.7349 21.7677 40.5308L25.1197 38.5754C25.4619 38.3754 25.7332 38.0991 25.9206 37.7708C26.1108 37.4379 26.2119 37.061 26.2119 36.6634C26.2119 36.2657 26.1108 35.8894 25.9189 35.557ZM24.2503 36.7917C24.2303 36.8264 24.196 36.8593 24.152 36.8853L20.8011 38.8425C20.7611 38.8662 20.7177 38.8783 20.676 38.8783C20.6343 38.8783 20.5915 38.8662 20.5515 38.8425L20.5235 38.8269C20.4938 38.8049 20.4698 38.7789 20.4532 38.75L20.4447 38.7355C20.4333 38.7061 20.427 38.6673 20.427 38.6211V34.7056C20.427 34.6501 20.4361 34.6056 20.4532 34.5773C20.4824 34.527 20.5258 34.4999 20.5732 34.471C20.6063 34.4565 20.6412 34.449 20.676 34.4449C20.7154 34.4449 20.7589 34.4577 20.8011 34.4837L24.152 36.4414C24.1989 36.4686 24.2326 36.4998 24.2503 36.535C24.2669 36.5645 24.2766 36.6084 24.2766 36.6634C24.2766 36.7183 24.2674 36.7622 24.2503 36.7917ZM33.4656 14.9885H30.7345L31.6656 12.4001H33.4656C33.9997 12.4001 34.4333 11.9614 34.4333 11.421C34.4333 10.8805 33.9997 10.4418 33.4656 10.4418H32.3705L32.6184 9.75223C32.8001 9.24532 32.5413 8.68522 32.0403 8.50141C31.5393 8.31761 30.9858 8.57945 30.8042 9.08636L30.3163 10.4418H27.7212L27.9691 9.75223C28.1507 9.24532 27.892 8.68522 27.391 8.50141C26.89 8.31761 26.3365 8.57945 26.1548 9.08636L25.667 10.4418H22.2315C21.6974 10.4418 21.2638 10.8805 21.2638 11.421C21.2638 11.9614 21.6974 12.4001 22.2315 12.4001H24.9626L24.0315 14.9885H22.2315C21.6974 14.9885 21.2638 15.4272 21.2638 15.9676C21.2638 16.508 21.6974 16.9468 22.2315 16.9468H23.3272L23.0787 17.6369C22.897 18.1438 23.1558 18.7039 23.6568 18.8877C24.1578 19.0715 24.7113 18.8097 24.8929 18.3028L25.3808 16.9468H27.9765L27.728 17.6369C27.5464 18.1438 27.8051 18.7039 28.3061 18.8877C28.8071 19.0715 29.3606 18.8097 29.5423 18.3028L30.0301 16.9468H33.4656C33.9997 16.9468 34.4333 16.508 34.4333 15.9676C34.4333 15.4272 33.9997 14.9885 33.4656 14.9885ZM28.6808 14.9885H26.0851L27.0162 12.4001H29.612L28.6808 14.9885ZM33.4656 14.9885H30.7345L31.6656 12.4001H33.4656C33.9997 12.4001 34.4333 11.9614 34.4333 11.421C34.4333 10.8805 33.9997 10.4418 33.4656 10.4418H32.3705L32.6184 9.75223C32.8001 9.24532 32.5413 8.68522 32.0403 8.50141C31.5393 8.31761 30.9858 8.57945 30.8042 9.08636L30.3163 10.4418H27.7212L27.9691 9.75223C28.1507 9.24532 27.892 8.68522 27.391 8.50141C26.89 8.31761 26.3365 8.57945 26.1548 9.08636L25.667 10.4418H22.2315C21.6974 10.4418 21.2638 10.8805 21.2638 11.421C21.2638 11.9614 21.6974 12.4001 22.2315 12.4001H24.9626L24.0315 14.9885H22.2315C21.6974 14.9885 21.2638 15.4272 21.2638 15.9676C21.2638 16.508 21.6974 16.9468 22.2315 16.9468H23.3272L23.0787 17.6369C22.897 18.1438 23.1558 18.7039 23.6568 18.8877C24.1578 19.0715 24.7113 18.8097 24.8929 18.3028L25.3808 16.9468H27.9765L27.728 17.6369C27.5464 18.1438 27.8051 18.7039 28.3061 18.8877C28.8071 19.0715 29.3606 18.8097 29.5423 18.3028L30.0301 16.9468H33.4656C33.9997 16.9468 34.4333 16.508 34.4333 15.9676C34.4333 15.4272 33.9997 14.9885 33.4656 14.9885ZM28.6808 14.9885H26.0851L27.0162 12.4001H29.612L28.6808 14.9885ZM25.9189 35.557C25.7304 35.2264 25.4585 34.9495 25.1197 34.7513L21.7671 32.7936C21.4226 32.5941 21.0496 32.4942 20.676 32.4907C20.2619 32.4907 19.9448 32.6028 19.5838 32.7941C19.2422 32.9936 18.9703 33.2698 18.7829 33.6022C18.5939 33.9346 18.4916 34.3114 18.4916 34.7056V38.6211C18.4916 39.043 18.5939 39.3604 18.7829 39.7291C18.9886 40.0892 19.2416 40.3135 19.5838 40.5326C19.9288 40.7349 20.303 40.8366 20.676 40.8366C21.0491 40.8366 21.4226 40.7349 21.7677 40.5308L25.1197 38.5754C25.4619 38.3754 25.7332 38.0991 25.9206 37.7708C26.1108 37.4379 26.2119 37.061 26.2119 36.6634C26.2119 36.2657 26.1108 35.8894 25.9189 35.557ZM24.2503 36.7917C24.2303 36.8264 24.196 36.8593 24.152 36.8853L20.8011 38.8425C20.7611 38.8662 20.7177 38.8783 20.676 38.8783C20.6343 38.8783 20.5915 38.8662 20.5515 38.8425L20.5235 38.8269C20.4938 38.8049 20.4698 38.7789 20.4532 38.75L20.4447 38.7355C20.4333 38.7061 20.427 38.6673 20.427 38.6211V34.7056C20.427 34.6501 20.4361 34.6056 20.4532 34.5773C20.4824 34.527 20.5258 34.4999 20.5732 34.471C20.6063 34.4565 20.6412 34.449 20.676 34.4449C20.7154 34.4449 20.7589 34.4577 20.8011 34.4837L24.152 36.4414C24.1989 36.4686 24.2326 36.4998 24.2503 36.535C24.2669 36.5645 24.2766 36.6084 24.2766 36.6634C24.2766 36.7183 24.2674 36.7622 24.2503 36.7917ZM16.6179 21.9934C16.0021 21.3397 15.1213 20.9819 14.213 21.0507C13.4738 21.1061 12.7226 21.4368 12.1011 22.1113C11.479 21.4368 10.7273 21.1061 9.98866 21.0507C9.08096 20.9819 8.19896 21.3397 7.58431 21.9934C6.97708 22.6385 6.62862 23.5667 6.76972 24.6442C6.97822 26.2337 8.31036 28.1856 11.6664 29.9006C11.7772 29.9567 11.8972 29.9914 12.0211 30.0012C12.0611 30.0052 12.1023 30.0064 12.1428 30.0041C12.2759 29.9989 12.4096 29.9653 12.5358 29.9006C15.8919 28.1856 17.2234 26.2348 17.4325 24.6447C17.5736 23.5667 17.2246 22.639 16.6179 21.9934ZM15.52 24.3927C15.3909 25.3713 14.4598 26.6366 12.1011 27.9273C9.74303 26.6366 8.81076 25.3707 8.68223 24.3921C8.62454 23.9494 8.75364 23.5823 8.98271 23.339C9.20321 23.1049 9.51968 22.9766 9.84471 23.0009C10.3268 23.0373 10.8512 23.4251 11.2054 24.3066C11.4053 24.8066 11.9697 25.0482 12.4639 24.8459C12.7158 24.7424 12.9014 24.5436 12.9968 24.3066C13.351 23.4251 13.8748 23.0373 14.357 23.0009C14.6826 22.9766 14.999 23.1049 15.2195 23.339C15.448 23.5823 15.5777 23.9494 15.52 24.3927ZM16.6179 21.9934C16.0021 21.3397 15.1213 20.9819 14.213 21.0507C13.4738 21.1061 12.7226 21.4368 12.1011 22.1113C11.479 21.4368 10.7273 21.1061 9.98866 21.0507C9.08096 20.9819 8.19896 21.3397 7.58431 21.9934C6.97708 22.6385 6.62862 23.5667 6.76972 24.6442C6.97822 26.2337 8.31036 28.1856 11.6664 29.9006C11.7772 29.9567 11.8972 29.9914 12.0211 30.0012C12.0611 30.0052 12.1023 30.0064 12.1428 30.0041C12.2759 29.9989 12.4096 29.9653 12.5358 29.9006C15.8919 28.1856 17.2234 26.2348 17.4325 24.6447C17.5736 23.5667 17.2246 22.639 16.6179 21.9934ZM15.52 24.3927C15.3909 25.3713 14.4598 26.6366 12.1011 27.9273C9.74303 26.6366 8.81076 25.3707 8.68223 24.3921C8.62454 23.9494 8.75364 23.5823 8.98271 23.339C9.20321 23.1049 9.51968 22.9766 9.84471 23.0009C10.3268 23.0373 10.8512 23.4251 11.2054 24.3066C11.4053 24.8066 11.9697 25.0482 12.4639 24.8459C12.7158 24.7424 12.9014 24.5436 12.9968 24.3066C13.351 23.4251 13.8748 23.0373 14.357 23.0009C14.6826 22.9766 14.999 23.1049 15.2195 23.339C15.448 23.5823 15.5777 23.9494 15.52 24.3927ZM25.9189 35.557C25.7304 35.2264 25.4585 34.9495 25.1197 34.7513L21.7671 32.7936C21.4226 32.5941 21.0496 32.4942 20.676 32.4907C20.2619 32.4907 19.9448 32.6028 19.5838 32.7941C19.2422 32.9936 18.9703 33.2698 18.7829 33.6022C18.5939 33.9346 18.4916 34.3114 18.4916 34.7056V38.6211C18.4916 39.043 18.5939 39.3604 18.7829 39.7291C18.9886 40.0892 19.2416 40.3135 19.5838 40.5326C19.9288 40.7349 20.303 40.8366 20.676 40.8366C21.0491 40.8366 21.4226 40.7349 21.7677 40.5308L25.1197 38.5754C25.4619 38.3754 25.7332 38.0991 25.9206 37.7708C26.1108 37.4379 26.2119 37.061 26.2119 36.6634C26.2119 36.2657 26.1108 35.8894 25.9189 35.557ZM24.2503 36.7917C24.2303 36.8264 24.196 36.8593 24.152 36.8853L20.8011 38.8425C20.7611 38.8662 20.7177 38.8783 20.676 38.8783C20.6343 38.8783 20.5915 38.8662 20.5515 38.8425L20.5235 38.8269C20.4938 38.8049 20.4698 38.7789 20.4532 38.75L20.4447 38.7355C20.4333 38.7061 20.427 38.6673 20.427 38.6211V34.7056C20.427 34.6501 20.4361 34.6056 20.4532 34.5773C20.4824 34.527 20.5258 34.4999 20.5732 34.471C20.6063 34.4565 20.6412 34.449 20.676 34.4449C20.7154 34.4449 20.7589 34.4577 20.8011 34.4837L24.152 36.4414C24.1989 36.4686 24.2326 36.4998 24.2503 36.535C24.2669 36.5645 24.2766 36.6084 24.2766 36.6634C24.2766 36.7183 24.2674 36.7622 24.2503 36.7917ZM33.4656 14.9885H30.7345L31.6656 12.4001H33.4656C33.9997 12.4001 34.4333 11.9614 34.4333 11.421C34.4333 10.8805 33.9997 10.4418 33.4656 10.4418H32.3705L32.6184 9.75223C32.8001 9.24532 32.5413 8.68522 32.0403 8.50141C31.5393 8.31761 30.9858 8.57945 30.8042 9.08636L30.3163 10.4418H27.7212L27.9691 9.75223C28.1507 9.24532 27.892 8.68522 27.391 8.50141C26.89 8.31761 26.3365 8.57945 26.1548 9.08636L25.667 10.4418H22.2315C21.6974 10.4418 21.2638 10.8805 21.2638 11.421C21.2638 11.9614 21.6974 12.4001 22.2315 12.4001H24.9626L24.0315 14.9885H22.2315C21.6974 14.9885 21.2638 15.4272 21.2638 15.9676C21.2638 16.508 21.6974 16.9468 22.2315 16.9468H23.3272L23.0787 17.6369C22.897 18.1438 23.1558 18.7039 23.6568 18.8877C24.1578 19.0715 24.7113 18.8097 24.8929 18.3028L25.3808 16.9468H27.9765L27.728 17.6369C27.5464 18.1438 27.8051 18.7039 28.3061 18.8877C28.8071 19.0715 29.3606 18.8097 29.5423 18.3028L30.0301 16.9468H33.4656C33.9997 16.9468 34.4333 16.508 34.4333 15.9676C34.4333 15.4272 33.9997 14.9885 33.4656 14.9885ZM28.6808 14.9885H26.0851L27.0162 12.4001H29.612L28.6808 14.9885Z" fill="var(--fill-0, black)"/>
<path id="Vector_2" d="M16.6181 21.9934C16.0024 21.3397 15.1215 20.9819 14.2132 21.0507C13.474 21.1062 12.7228 21.4368 12.1013 22.1113C11.4793 21.4368 10.7275 21.1062 9.98888 21.0507C9.08118 20.9819 8.19918 21.3397 7.58453 21.9934C6.9773 22.6385 6.62884 23.5668 6.76994 24.6442C6.97844 26.2337 8.31058 28.1857 11.6666 29.9006C11.7774 29.9567 11.8974 29.9914 12.0214 30.0012C12.0619 30.0029 12.1025 30.0035 12.143 30.0041C12.2761 29.9989 12.4098 29.9654 12.5361 29.9006C15.8921 28.1857 17.2237 26.2349 17.4327 24.6447C17.5738 23.5668 17.2248 22.639 16.6181 21.9934ZM15.5202 24.3927C15.3911 25.3713 14.46 26.6366 12.1013 27.9273C9.74325 26.6366 8.81098 25.3707 8.68245 24.3922C8.62476 23.9494 8.75386 23.5824 8.98293 23.339C9.20343 23.1049 9.5199 22.9766 9.84493 23.0009C10.3271 23.0373 10.8515 23.4251 11.2056 24.3066C11.4056 24.8066 11.97 25.0482 12.4641 24.8459C12.716 24.7424 12.9016 24.5436 12.997 24.3066C13.3512 23.4251 13.875 23.0373 14.3572 23.0009C14.6828 22.9766 14.9992 23.1049 15.2197 23.339C15.4482 23.5824 15.5779 23.9494 15.5202 24.3927Z" fill="var(--fill-0, #75E1B3)"/>
<path id="Vector_3" d="M25.9193 35.557C25.7308 35.2263 25.4589 34.9495 25.1201 34.7512L21.7675 32.7935C21.4231 32.5941 21.05 32.4941 20.6764 32.4906C20.2623 32.4906 19.9453 32.6027 19.5842 32.7941C19.2426 32.9935 18.9707 33.2698 18.7833 33.6021C18.5943 33.9345 18.492 34.3114 18.492 34.7056V38.621C18.492 39.043 18.5943 39.3603 18.7833 39.7291C18.989 40.0892 19.2421 40.3134 19.5842 40.5325C19.9293 40.7348 20.3034 40.8365 20.6764 40.8365C21.0495 40.8365 21.4231 40.7348 21.7681 40.5308L25.1201 38.5754C25.4623 38.3754 25.7336 38.0991 25.921 37.7708C26.1112 37.4378 26.2124 37.061 26.2124 36.6633C26.2124 36.2656 26.1112 35.8893 25.9193 35.557ZM24.2507 36.7916C24.2307 36.8263 24.1964 36.8592 24.1525 36.8852L20.8015 38.8424C20.7616 38.8661 20.7181 38.8782 20.6764 38.8782C20.6347 38.8782 20.5919 38.8661 20.5519 38.8424L20.5239 38.8268C20.4942 38.8048 20.4702 38.7788 20.4537 38.7499L20.4451 38.7355C20.4337 38.706 20.4274 38.6673 20.4274 38.621V34.7056C20.4274 34.6501 20.4365 34.6056 20.4537 34.5772C20.4828 34.527 20.5262 34.4998 20.5736 34.4709C20.6068 34.4564 20.6416 34.4489 20.6764 34.4449C20.7159 34.4449 20.7593 34.4576 20.8015 34.4836L24.1525 36.4413C24.1993 36.4685 24.233 36.4997 24.2507 36.535C24.2673 36.5644 24.277 36.6084 24.277 36.6633C24.277 36.7182 24.2678 36.7621 24.2507 36.7916Z" fill="var(--fill-0, #75E1B3)"/>
<path id="Vector_4" d="M33.4658 14.9885H30.7347L31.6659 12.4002H33.4658C33.9999 12.4002 34.4335 11.9615 34.4335 11.421C34.4335 10.8806 33.9999 10.4419 33.4658 10.4419H32.3708L32.6187 9.75229C32.8003 9.24537 32.5416 8.68528 32.0406 8.50147C31.5396 8.31766 30.9861 8.5795 30.8044 9.08642L30.3166 10.4419H27.7214L27.9693 9.75229C28.151 9.24537 27.8922 8.68528 27.3912 8.50147C26.8903 8.31766 26.3367 8.5795 26.1551 9.08642L25.6672 10.4419H22.2318C21.6977 10.4419 21.2641 10.8806 21.2641 11.421C21.2641 11.9615 21.6977 12.4002 22.2318 12.4002H24.9629L24.0318 14.9885H22.2318C21.6977 14.9885 21.2641 15.4272 21.2641 15.9677C21.2641 16.5081 21.6977 16.9468 22.2318 16.9468H23.3274L23.0789 17.637C22.8973 18.1439 23.1561 18.704 23.657 18.8878C24.158 19.0716 24.7116 18.8098 24.8932 18.3028L25.381 16.9468H27.9768L27.7283 17.637C27.5466 18.1439 27.8054 18.704 28.3064 18.8878C28.8074 19.0716 29.3609 18.8098 29.5425 18.3028L30.0304 16.9468H33.4658C33.9999 16.9468 34.4335 16.5081 34.4335 15.9677C34.4335 15.4272 33.9999 14.9885 33.4658 14.9885ZM28.6811 14.9885H26.0854L27.0165 12.4002H29.6122L28.6811 14.9885Z" fill="var(--fill-0, #75E1B3)"/>
</g>
<defs>
<clipPath id="clip0_319_105">
<rect width="42" height="46" fill="white"/>
</clipPath>
</defs>
</svg>
