<svg preserveAspectRatio="none" width="100%" height="100%" overflow="visible" style="display: block;" viewBox="0 0 40 257" fill="none" xmlns="http://www.w3.org/2000/svg">
<g id="Group 369">
<path id="Vector" d="M36.3799 3.62779C34.2452 1.53471 31.4257 0.266455 28.4301 0.051873C25.4345 -0.162709 22.4602 0.690512 20.0438 2.45758C17.4966 0.58056 14.3261 -0.27057 11.1709 0.0755856C8.0156 0.421741 5.10991 1.93947 3.03893 4.32314C0.967957 6.70681 -0.114479 9.77936 0.00960063 12.922C0.133681 16.0647 1.45506 19.0441 3.70765 21.2602L15.7195 33.2598C16.8456 34.3741 18.3721 35 19.9637 35C21.5553 35 23.0818 34.3741 24.2079 33.2598L36.2197 21.2602C37.4028 20.1151 38.3457 18.7497 38.9944 17.2423C39.643 15.735 39.9846 14.1155 39.9995 12.477C40.0144 10.8385 39.7023 9.21317 39.0811 7.69452C38.4599 6.17587 37.5419 4.79382 36.3799 3.62779ZM33.5571 18.424L21.5452 30.3244C21.3591 30.5103 21.1377 30.6579 20.8938 30.7586C20.6498 30.8592 20.3881 30.9111 20.1238 30.9111C19.8596 30.9111 19.5979 30.8592 19.3539 30.7586C19.11 30.6579 18.8886 30.5103 18.7024 30.3244L6.69059 18.424C5.12056 16.834 4.24139 14.6981 4.24139 12.4738C4.24139 10.2494 5.12056 8.11356 6.69059 6.52356C8.29048 4.95863 10.4482 4.08113 12.6965 4.08113C14.9448 4.08113 17.1026 4.95863 18.7024 6.52356C18.8886 6.70946 19.11 6.85701 19.3539 6.95771C19.5979 7.0584 19.8596 7.11024 20.1238 7.11024C20.3881 7.11024 20.6498 7.0584 20.8938 6.95771C21.1377 6.85701 21.3591 6.70946 21.5452 6.52356C23.1884 5.22817 25.2553 4.57729 27.3519 4.69504C29.4484 4.8128 31.4278 5.69095 32.9127 7.16202C34.3975 8.63309 35.2839 10.5942 35.4027 12.6712C35.5216 14.7483 34.8646 16.7961 33.5571 18.424Z" fill="var(--fill-0, #FFA033)"/>
<path id="Vector_2" d="M20.0281 81C17.4054 81 14.8083 81.5173 12.3852 82.5223C9.96215 83.5274 7.76047 85.0005 5.90591 86.8576C2.16046 90.6082 0.0562938 95.695 0.0562938 100.999C0.038834 105.617 1.63565 110.096 4.56993 113.659L0.575562 117.658C0.298437 117.94 0.110709 118.297 0.0360662 118.685C-0.0385768 119.073 0.00320962 119.474 0.156153 119.838C0.322035 120.198 0.590948 120.5 0.928758 120.707C1.26657 120.914 1.65804 121.015 2.05348 120.998H20.0281C25.325 120.998 30.4049 118.891 34.1504 115.141C37.8958 111.39 40 106.303 40 100.999C40 95.695 37.8958 90.6082 34.1504 86.8576C30.4049 83.107 25.325 81 20.0281 81ZM20.0281 116.998H6.86669L8.72408 115.138C9.09606 114.764 9.30484 114.257 9.30484 113.729C9.30484 113.2 9.09606 112.693 8.72408 112.319C6.10894 109.703 4.48041 106.26 4.11595 102.577C3.7515 98.8933 4.67367 95.1974 6.72535 92.1186C8.77703 89.0397 11.8313 86.7685 15.3677 85.6917C18.9042 84.615 22.7041 84.7994 26.12 86.2136C29.5359 87.6278 32.3565 90.1841 34.1012 93.4472C35.8459 96.7103 36.4068 100.478 35.6883 104.109C34.9699 107.74 33.0165 111.009 30.1609 113.359C27.3054 115.709 23.7245 116.995 20.0281 116.998Z" fill="var(--fill-0, #182C40)"/>
<path id="Vector_3" d="M39.414 183.586L23.414 167.586C23.1343 167.306 22.778 167.116 22.3901 167.038C22.0022 166.961 21.6001 167.001 21.2347 167.152C20.8693 167.304 20.557 167.56 20.3372 167.889C20.1174 168.217 20.0001 168.604 20 169V176.09C14.5366 176.595 9.45845 179.121 5.75938 183.174C2.06031 187.226 0.00654381 192.513 3.49691e-07 198V201C0.000316061 201.415 0.12982 201.82 0.370549 202.158C0.611277 202.496 0.951299 202.751 1.34345 202.887C1.7356 203.024 2.16045 203.034 2.55906 202.918C2.95767 202.802 3.31029 202.565 3.568 202.24C5.52739 199.909 7.93151 197.993 10.6399 196.603C13.3483 195.212 16.3066 194.376 19.342 194.142C19.442 194.13 19.692 194.11 20 194.09V201C20.0001 201.395 20.1174 201.782 20.3372 202.11C20.557 202.439 20.8693 202.696 21.2347 202.847C21.6001 202.998 22.0022 203.038 22.3901 202.961C22.778 202.884 23.1343 202.693 23.414 202.414L39.414 186.414C39.7889 186.039 39.9996 185.53 39.9996 185C39.9996 184.469 39.7889 183.961 39.414 183.586ZM24 196.172V192C24 191.469 23.7893 190.96 23.4142 190.585C23.0391 190.21 22.5304 190 22 190C21.49 190 19.408 190.1 18.876 190.17C13.4857 190.666 8.35484 192.714 4.104 196.066C4.58649 191.654 6.67908 187.576 9.98111 184.612C13.2831 181.648 17.5626 180.005 22 180C22.5304 180 23.0391 179.789 23.4142 179.414C23.7893 179.039 24 178.53 24 178V173.828L35.172 185L24 196.172Z" fill="var(--fill-0, #77D4AC)"/>
<path id="Vector_4" d="M8 253C8 250.8 6.2 249 4 249C1.8 249 7.86805e-08 250.8 1.74846e-07 253C2.71011e-07 255.2 1.8 257 4 257C6.2 257 8 255.2 8 253ZM14 253C14 255.2 15.8 257 18 257C20.2 257 22 255.2 22 253C22 250.8 20.2 249 18 249C15.8 249 14 250.8 14 253ZM28 253C28 255.2 29.8 257 32 257C34.2 257 36 255.2 36 253C36 250.8 34.2 249 32 249C29.8 249 28 250.8 28 253Z" fill="var(--fill-0, #182C40)"/>
</g>
</svg>
