<svg preserveAspectRatio="none" width="100%" height="100%" overflow="visible" style="display: block;" viewBox="0 0 30 30" fill="none" xmlns="http://www.w3.org/2000/svg">
<g id="Group 56">
<circle id="Ellipse 12" cx="15" cy="15" r="15" fill="var(--fill-0, #1E1E1E)"/>
<g id="Group">
<path id="Vector" d="M9.74982 10C9.34967 10 8.98306 10.1301 8.68889 10.3438L14.7154 15.7344C14.8508 15.8555 15.1488 15.8555 15.2842 15.7344L21.3107 10.3438C21.0166 10.1301 20.6499 10 20.2498 10H9.74982ZM8.22951 10.8438C8.0854 11.0862 7.99982 11.3671 7.99982 11.6667V17.3333C7.99982 17.6728 8.1081 17.9872 8.28966 18.25L8.30611 18.2397L12.7084 14.8542L8.22951 10.8438ZM21.7701 10.8438L17.2912 14.8542L21.6935 18.2396L21.71 18.2499C21.8916 17.9871 21.9998 17.6727 21.9998 17.3332V11.6666C21.9998 11.367 21.9142 11.0862 21.7701 10.8438ZM13.2225 15.3125L8.78732 18.724C9.06326 18.8969 9.39342 19 9.74982 19H20.2498C20.6062 19 20.9364 18.8969 21.2123 18.724L16.7771 15.3125L15.7654 16.2187C15.3371 16.6018 14.6625 16.6018 14.2342 16.2187L13.2225 15.3125Z" fill="var(--fill-0, white)"/>
</g>
</g>
</svg>
