<svg preserveAspectRatio="none" width="100%" height="100%" overflow="visible" style="display: block;" viewBox="0 0 49 47" fill="none" xmlns="http://www.w3.org/2000/svg">
<g id="Layer_1" clip-path="url(#clip0_319_58)">
<path id="Vector" d="M40.1061 30.9917C39.706 30.7915 39.216 30.9436 39.0036 31.336C37.795 33.6424 36.031 35.6204 33.8586 37.1099C33.4911 37.3662 33.4013 37.8627 33.6626 38.223C33.924 38.5834 34.4303 38.6715 34.7978 38.4233C37.1825 36.7816 39.1261 34.6034 40.4573 32.0648C40.6615 31.6724 40.5063 31.1919 40.1061 30.9837V30.9917Z" fill="var(--fill-0, black)"/>
<path id="Vector_2" d="M39.1837 24.0163C39.1756 16.0562 32.6014 9.60961 24.4837 9.60161C4.98175 10.3944 4.98991 37.6382 24.4837 38.4311C32.6014 38.423 39.1756 31.9765 39.1837 24.0163ZM24.4837 36.8294C17.2726 36.8214 11.4252 31.0876 11.4171 24.0163C12.1357 7.01496 36.8317 7.02297 37.5504 24.0163C37.5422 31.0876 31.6949 36.8214 24.4837 36.8294Z" fill="var(--fill-0, black)"/>
<path id="Vector_3" d="M34.5854 21.606C34.3812 20.9894 33.8831 20.5169 33.2542 20.3327L28.7707 19.0354L26.1329 15.2555C25.5122 14.3666 24.2709 14.1344 23.3644 14.743C23.1602 14.8791 22.9887 15.0553 22.8417 15.2555L20.1957 19.0354L15.7122 20.3327C14.6587 20.637 14.0544 21.7261 14.3647 22.7592C14.4382 22.9914 14.5444 23.2077 14.6996 23.3999L17.5497 27.0356L17.4191 31.6162C17.3864 32.6973 18.2602 33.5943 19.3627 33.6263C19.6077 33.6263 19.8527 33.5943 20.0814 33.5142L24.4832 31.9766L28.8851 33.5142C29.9222 33.8745 31.0656 33.346 31.4331 32.329C31.5147 32.1047 31.5556 31.8645 31.5474 31.6243L31.4167 27.0436L34.2669 23.4079C34.6671 22.8953 34.7896 22.2226 34.5854 21.614V21.606ZM32.9766 22.4229L29.9467 26.2828C29.8324 26.4269 29.7752 26.6111 29.7752 26.7953L29.9141 31.6643C29.9222 31.8565 29.7752 32.0167 29.5792 32.0327C29.5302 32.0327 29.4731 32.0327 29.4322 32.0086L24.7527 30.375C24.5731 30.3109 24.3852 30.3109 24.2056 30.375L19.5261 32.0086C19.3464 32.0807 19.1422 31.9926 19.0687 31.8164C19.0524 31.7684 19.0442 31.7203 19.0442 31.6723L19.1831 26.8033C19.1831 26.6191 19.1259 26.443 19.0116 26.2908L15.9817 22.4309C15.8592 22.2867 15.8756 22.0625 16.0307 21.9424C16.0716 21.9103 16.1206 21.8863 16.1696 21.8703L20.9307 20.4929C21.1104 20.4448 21.2656 20.3327 21.3717 20.1806L24.1811 16.1685C24.2872 16.0083 24.5077 15.9603 24.6711 16.0644C24.7119 16.0884 24.7527 16.1284 24.7772 16.1685L27.5866 20.1806C27.6927 20.3327 27.8479 20.4448 28.0276 20.4929L32.7887 21.8703C32.9766 21.9183 33.0909 22.1105 33.0419 22.2947C33.0256 22.3428 33.0092 22.3908 32.9766 22.4309V22.4229Z" fill="var(--fill-0, #75E1B3)"/>
<path id="Vector_4" d="M40.9638 28.7331C40.5392 28.597 40.0737 28.8212 39.9348 29.2457C39.796 29.6541 40.0165 30.1025 40.433 30.2467C40.8577 30.3828 41.3232 30.1586 41.462 29.7342C41.6008 29.3257 41.3803 28.8773 40.9638 28.7331Z" fill="var(--fill-0, black)"/>
<path id="Vector_5" d="M9.95508 16.6891C11.1637 14.3827 12.9277 12.4047 15.1001 10.9152C15.4676 10.6509 15.5411 10.1544 15.2797 9.79402C15.0184 9.44967 14.5284 9.36158 14.1691 9.60182C11.7844 11.2435 9.84075 13.4217 8.50958 15.9603C8.30542 16.3527 8.46058 16.8332 8.86075 17.0414C9.26092 17.2416 9.75092 17.0895 9.96325 16.6971L9.95508 16.6891Z" fill="var(--fill-0, black)"/>
<path id="Vector_6" d="M8.5344 17.7782C8.10157 17.642 7.64424 17.8743 7.5054 18.2987C7.37474 18.7071 7.59524 19.1556 8.00357 19.2997C8.4364 19.4359 8.89374 19.2036 9.03257 18.7792C9.16324 18.3708 8.94274 17.9223 8.5344 17.7782Z" fill="var(--fill-0, black)"/>
<path id="Vector_7" d="M44.0098 9.16132C43.92 9.12928 43.8383 9.10526 43.7403 9.09725H43.6995C43.6341 9.09725 43.5606 9.10526 43.4871 9.12928C42.8501 8.72887 42.1396 8.4566 41.3883 8.31245C40.1388 8.47261 39.3385 9.25741 38.8321 10.0823C38.9791 9.89807 39.1425 9.72189 39.3221 9.56172C40.5961 9.77795 42.1151 9.98616 42.7848 10.6188C42.7848 10.6188 42.8828 9.89006 43.2095 9.44961C43.2095 9.44961 43.2095 9.4416 43.2176 9.43359C43.4055 9.18534 43.6668 9.04119 44.0343 9.17733C44.0261 9.16932 44.018 9.16132 44.0098 9.16132ZM44.6795 30.4551C45.5696 28.3329 49.0731 26.6111 48.9833 24.0165C48.9996 21.4459 45.782 19.7241 44.655 17.682H44.6631V17.666C45.1205 16.1525 46.5333 15.1034 48.1585 15.0954C48.4606 15.0874 48.722 14.9272 48.8526 14.687C48.7465 14.8151 48.5913 14.8952 48.4116 14.8952C47.9543 14.8952 47.497 14.9672 47.0641 15.1194C46.174 15.2395 45.6023 15.8081 45.2348 16.4007C44.8836 16.8251 44.6305 17.3217 44.4753 17.8502C44.3773 18.2026 44.3201 18.5789 44.3201 18.9553C44.312 19.2036 44.165 19.4038 43.9363 19.4839C44.361 20.0284 44.8346 20.5409 45.3328 21.0214C46.321 22.0144 47.3418 23.0315 47.3418 24.0165C47.1703 26.1066 43.7076 27.8444 43.1196 29.9586C42.8338 31.2078 42.842 32.4971 43.1278 33.7384C43.3238 35.0758 43.528 36.4532 42.9726 37.1979C41.568 38.7515 37.7133 38.183 35.9901 39.5684C34.1281 40.7616 33.4911 44.5334 31.5393 45.3503C29.4895 45.7507 26.7128 43.092 24.4751 43.2361C22.2456 43.1 19.4608 45.7507 17.411 45.3503C15.4591 44.5334 14.8303 40.7616 12.9601 39.5684C11.237 38.183 7.37413 38.7515 5.97763 37.1979C5.42229 36.4532 5.62646 35.0758 5.82246 33.7384C6.41863 30.7353 5.92863 29.0857 3.61746 27.0115C0.987793 24.529 0.97146 23.512 3.61746 21.0214C5.93679 18.9393 6.41863 17.2976 5.82246 14.2946C5.21813 10.843 5.75713 10.1063 9.30963 9.60977C12.4293 9.24941 13.8503 8.25639 15.157 5.45353C16.725 2.34636 17.558 1.93794 20.743 3.60364C27.505 7.85598 30.4613 -1.60168 33.6545 5.18926C34.1445 4.87694 34.5446 4.50056 34.8631 4.01206C33.0991 0.544516 30.8125 0.352319 27.4805 2.17018C26.5576 2.70672 25.5368 3.05908 24.4751 3.19522C23.4135 3.05908 22.3926 2.70672 21.4698 2.17018C17.6151 0.0800414 15.5653 0.83281 13.7115 4.70877C13.3113 5.63772 12.7315 6.47057 11.9965 7.16728C11.0818 7.64777 10.0691 7.94407 9.03196 8.03216C4.69546 8.56871 3.38063 10.2825 4.20546 14.5268C4.44229 15.5278 4.46679 16.5689 4.27896 17.5779C3.82979 18.4668 3.20913 19.2516 2.44963 19.9003C-0.81704 22.8793 -0.833373 25.1456 2.44963 28.1327C3.20913 28.7814 3.82979 29.5662 4.27896 30.4551C4.46679 31.4641 4.44229 32.5052 4.20546 33.5062C3.38879 37.7345 4.67096 39.4643 9.03196 40.0008C10.0691 40.0889 11.0818 40.3852 11.9965 40.8657C12.7315 41.5624 13.3195 42.3953 13.7115 43.3242C15.5653 47.2002 17.6315 47.9529 21.4698 45.8628C22.3845 45.3263 23.4135 44.9739 24.4751 44.8378C25.5368 44.9739 26.5658 45.3263 27.4805 45.8628C31.3351 47.9529 33.385 47.1922 35.2388 43.3242C35.6308 42.3953 36.2188 41.5624 36.9538 40.8657C37.8685 40.3852 38.8811 40.0889 39.9183 40.0008C44.2466 39.4643 45.5696 37.7505 44.7448 33.5062C44.508 32.5052 44.4835 31.4641 44.6713 30.4551H44.6795Z" fill="var(--fill-0, black)"/>
<path id="Vector_8" d="M43.2668 6.39841C40.1144 6.3904 37.5501 3.88384 37.5501 0.792681C37.5419 0.352231 37.1744 -0.0081372 36.7253 -0.000129025C36.2761 -0.000129025 35.9249 0.360239 35.9168 0.792681C35.9168 1.68159 35.6963 2.55448 35.2798 3.33928C35.2553 3.38733 35.2308 3.44339 35.1981 3.49945C35.1491 3.58754 35.1083 3.66762 35.0511 3.7477C34.9939 3.83579 34.9368 3.92388 34.8714 4.01197C34.5529 4.50047 34.1528 4.87685 33.6628 5.18917C33.6628 5.20519 33.6709 5.2132 33.6791 5.22921C32.6828 5.98198 31.4578 6.39841 30.2001 6.39841C29.7509 6.40641 29.3916 6.76678 29.3916 7.20723C29.3998 7.63967 29.7591 7.99203 30.2001 8.00004C33.3524 8.00004 35.9168 10.5066 35.9168 13.6058C35.9249 14.0462 36.2924 14.3986 36.7416 14.3906C37.1908 14.3826 37.5419 14.0382 37.5501 13.6058C37.5501 12.3165 38.0074 11.0672 38.8323 10.0822C39.3386 9.25733 40.1389 8.47252 41.3884 8.31236C41.9928 8.10415 42.6298 8.00004 43.2668 8.00004C43.7159 8.00004 44.0834 7.63967 44.0834 7.19922C44.0834 6.75877 43.7159 6.39841 43.2668 6.39841ZM36.7334 10.3064C36.0311 8.96903 34.9204 7.88793 33.5648 7.19922C34.9204 6.50251 36.0229 5.4134 36.7334 4.09205C37.4358 5.42141 38.5464 6.51052 39.9021 7.19922C38.5546 7.90394 37.4521 8.98505 36.7334 10.3064Z" fill="var(--fill-0, #75E1B3)"/>
<path id="Vector_9" d="M48.9996 14.3105C48.9996 14.2304 48.9833 14.1583 48.9506 14.0862C48.967 14.1503 48.9751 14.2144 48.9751 14.2864C48.9751 14.4306 48.9343 14.5667 48.8608 14.6869C48.9506 14.5828 48.9996 14.4546 48.9996 14.3105ZM43.9118 19.4517C43.9118 19.4517 43.8873 19.4597 43.871 19.4597C43.7975 19.4838 43.724 19.4918 43.6586 19.4918C43.6096 19.4918 43.5606 19.4838 43.5198 19.4757C43.5933 19.5078 43.6668 19.5238 43.7485 19.5238C43.7811 19.5238 43.8138 19.5238 43.8383 19.5078C43.8791 19.5078 43.9118 19.4998 43.9445 19.4838C43.9281 19.4757 43.92 19.4597 43.9118 19.4517ZM44.0098 9.16121C43.9281 9.11317 43.8383 9.09715 43.7403 9.09715H43.724C43.4953 9.11317 43.3075 9.2493 43.2176 9.43349C43.4055 9.18524 43.6668 9.04109 44.0343 9.17723C44.0261 9.16922 44.018 9.16121 44.0098 9.16121Z" fill="var(--fill-0, #75E1B3)"/>
<path id="Vector_10" d="M48.9507 14.0863C48.9507 14.0863 48.9425 14.0703 48.9343 14.0623C48.8445 13.8701 48.6485 13.734 48.4198 13.734C46.1658 13.726 44.3283 11.9081 44.3283 9.67382C44.3202 9.48162 44.2303 9.30544 44.0833 9.20134C44.067 9.19333 44.0507 9.18532 44.0343 9.17731C43.6668 9.04117 43.4055 9.18532 43.2177 9.43357C43.2095 9.44158 43.2095 9.44959 43.2095 9.44959C42.8828 9.89004 42.7848 10.6188 42.7848 10.6188C42.7848 10.6748 42.7522 10.7389 42.7358 10.803C42.3112 12.3806 40.8575 13.4937 39.1833 13.4937C38.7342 13.5017 38.3748 13.8621 38.3748 14.3025C38.383 14.743 38.7423 15.0873 39.1833 15.0954C41.2087 15.0954 42.8583 16.713 42.8583 18.699C42.8583 19.0834 43.136 19.4118 43.5117 19.4758H43.5198C43.5198 19.4758 43.6097 19.4918 43.6587 19.4918C43.724 19.4918 43.7975 19.4838 43.871 19.4598C43.8873 19.4598 43.8955 19.4518 43.9118 19.4518C43.92 19.4598 43.9282 19.4758 43.9445 19.4838C44.1732 19.4038 44.3202 19.2036 44.3283 18.9553C44.3283 18.5789 44.3855 18.2025 44.4835 17.8502C44.6387 17.3216 44.8918 16.8251 45.243 16.4007C45.6105 15.8081 46.1822 15.2395 47.0723 15.1194C47.5052 14.9672 47.9625 14.8952 48.4198 14.8952C48.5995 14.8952 48.7547 14.8151 48.8608 14.6869C48.9343 14.5668 48.9752 14.4307 48.9752 14.2865C48.9752 14.2145 48.967 14.1504 48.9507 14.0863ZM43.675 15.9282C43.2503 15.2715 42.6787 14.711 42.009 14.2945C42.6787 13.8781 43.2503 13.3175 43.675 12.6609C44.0997 13.3175 44.6713 13.8781 45.341 14.2945C44.6713 14.711 44.0997 15.2715 43.675 15.9282Z" fill="var(--fill-0, #75E1B3)"/>
<path id="Vector_11" d="M43.8711 19.4597C43.8711 19.4597 43.8548 19.4918 43.8385 19.5078C43.814 19.5238 43.7813 19.5238 43.7486 19.5238C43.6669 19.5238 43.5935 19.5078 43.52 19.4757C43.5608 19.4837 43.6098 19.4918 43.6588 19.4918C43.7241 19.4918 43.7976 19.4837 43.8711 19.4597Z" fill="var(--fill-0, #75E1B3)"/>
<path id="Vector_12" d="M48.4203 14.895C48.5999 14.895 48.7551 14.815 48.8613 14.6868C48.7306 14.9271 48.4693 15.0872 48.1671 15.0952C46.5419 15.1033 45.1291 16.1523 44.6718 17.6659V17.6819C44.6718 17.6819 44.5901 17.7139 44.4921 17.8501C44.6473 17.3215 44.9004 16.825 45.2516 16.4006C45.6191 15.808 46.1908 15.2394 47.0809 15.1193C47.5138 14.9671 47.9711 14.895 48.4284 14.895H48.4203Z" fill="var(--fill-0, #75E1B3)"/>
<path id="Vector_13" d="M48.9998 14.3105C48.9998 14.4547 48.9508 14.5828 48.861 14.6869C48.9345 14.5668 48.9753 14.4307 48.9753 14.2865C48.9753 14.2144 48.9671 14.1504 48.9508 14.0863C48.9835 14.1584 48.9998 14.2305 48.9998 14.3105Z" fill="var(--fill-0, #75E1B3)"/>
</g>
<defs>
<clipPath id="clip0_319_58">
<rect width="49" height="47" fill="white"/>
</clipPath>
</defs>
</svg>
